G75*
G70*
%OFA0B0*%
%FSLAX25Y25*%
%IPPOS*%
%LPD*%
%AMOC8*
5,1,8,0,0,1.08239X$1,22.5*
%
%AMM1*
21,1,0.035430,0.030320,0.000000,0.000000,90.000000*
21,1,0.028350,0.037400,0.000000,0.000000,90.000000*
1,1,0.007090,0.015160,0.014170*
1,1,0.007090,0.015160,-0.014170*
1,1,0.007090,-0.015160,-0.014170*
1,1,0.007090,-0.015160,0.014170*
%
%AMM10*
21,1,0.025590,0.026380,0.000000,0.000000,90.000000*
21,1,0.020470,0.031500,0.000000,0.000000,90.000000*
1,1,0.005120,0.013190,0.010240*
1,1,0.005120,0.013190,-0.010240*
1,1,0.005120,-0.013190,-0.010240*
1,1,0.005120,-0.013190,0.010240*
%
%AMM101*
21,1,0.035830,0.026770,-0.000000,0.000000,90.000000*
21,1,0.029130,0.033470,-0.000000,0.000000,90.000000*
1,1,0.006690,0.013390,0.014570*
1,1,0.006690,0.013390,-0.014570*
1,1,0.006690,-0.013390,-0.014570*
1,1,0.006690,-0.013390,0.014570*
%
%AMM102*
21,1,0.070870,0.036220,-0.000000,0.000000,180.000000*
21,1,0.061810,0.045280,-0.000000,0.000000,180.000000*
1,1,0.009060,-0.030910,0.018110*
1,1,0.009060,0.030910,0.018110*
1,1,0.009060,0.030910,-0.018110*
1,1,0.009060,-0.030910,-0.018110*
%
%AMM105*
21,1,0.023620,0.018900,-0.000000,0.000000,180.000000*
21,1,0.018900,0.023620,-0.000000,0.000000,180.000000*
1,1,0.004720,-0.009450,0.009450*
1,1,0.004720,0.009450,0.009450*
1,1,0.004720,0.009450,-0.009450*
1,1,0.004720,-0.009450,-0.009450*
%
%AMM106*
21,1,0.019680,0.019680,-0.000000,0.000000,90.000000*
21,1,0.015750,0.023620,-0.000000,0.000000,90.000000*
1,1,0.003940,0.009840,0.007870*
1,1,0.003940,0.009840,-0.007870*
1,1,0.003940,-0.009840,-0.007870*
1,1,0.003940,-0.009840,0.007870*
%
%AMM107*
21,1,0.019680,0.019680,-0.000000,0.000000,0.000000*
21,1,0.015750,0.023620,-0.000000,0.000000,0.000000*
1,1,0.003940,0.007870,-0.009840*
1,1,0.003940,-0.007870,-0.009840*
1,1,0.003940,-0.007870,0.009840*
1,1,0.003940,0.007870,0.009840*
%
%AMM11*
21,1,0.017720,0.027950,0.000000,0.000000,90.000000*
21,1,0.014170,0.031500,0.000000,0.000000,90.000000*
1,1,0.003540,0.013980,0.007090*
1,1,0.003540,0.013980,-0.007090*
1,1,0.003540,-0.013980,-0.007090*
1,1,0.003540,-0.013980,0.007090*
%
%AMM121*
21,1,0.106300,0.050390,-0.000000,0.000000,180.000000*
21,1,0.093700,0.062990,-0.000000,0.000000,180.000000*
1,1,0.012600,-0.046850,0.025200*
1,1,0.012600,0.046850,0.025200*
1,1,0.012600,0.046850,-0.025200*
1,1,0.012600,-0.046850,-0.025200*
%
%AMM122*
21,1,0.033470,0.026770,-0.000000,0.000000,0.000000*
21,1,0.026770,0.033470,-0.000000,0.000000,0.000000*
1,1,0.006690,0.013390,-0.013390*
1,1,0.006690,-0.013390,-0.013390*
1,1,0.006690,-0.013390,0.013390*
1,1,0.006690,0.013390,0.013390*
%
%AMM123*
21,1,0.023620,0.018900,-0.000000,0.000000,270.000000*
21,1,0.018900,0.023620,-0.000000,0.000000,270.000000*
1,1,0.004720,-0.009450,-0.009450*
1,1,0.004720,-0.009450,0.009450*
1,1,0.004720,0.009450,0.009450*
1,1,0.004720,0.009450,-0.009450*
%
%AMM124*
21,1,0.122050,0.075590,-0.000000,0.000000,270.000000*
21,1,0.103150,0.094490,-0.000000,0.000000,270.000000*
1,1,0.018900,-0.037800,-0.051580*
1,1,0.018900,-0.037800,0.051580*
1,1,0.018900,0.037800,0.051580*
1,1,0.018900,0.037800,-0.051580*
%
%AMM125*
21,1,0.118110,0.083460,-0.000000,0.000000,90.000000*
21,1,0.097240,0.104330,-0.000000,0.000000,90.000000*
1,1,0.020870,0.041730,0.048620*
1,1,0.020870,0.041730,-0.048620*
1,1,0.020870,-0.041730,-0.048620*
1,1,0.020870,-0.041730,0.048620*
%
%AMM13*
21,1,0.012600,0.028980,0.000000,0.000000,90.000000*
21,1,0.010080,0.031500,0.000000,0.000000,90.000000*
1,1,0.002520,0.014490,0.005040*
1,1,0.002520,0.014490,-0.005040*
1,1,0.002520,-0.014490,-0.005040*
1,1,0.002520,-0.014490,0.005040*
%
%AMM16*
21,1,0.027560,0.018900,0.000000,0.000000,90.000000*
21,1,0.022840,0.023620,0.000000,0.000000,90.000000*
1,1,0.004720,0.009450,0.011420*
1,1,0.004720,0.009450,-0.011420*
1,1,0.004720,-0.009450,-0.011420*
1,1,0.004720,-0.009450,0.011420*
%
%AMM33*
21,1,0.033470,0.026770,0.000000,0.000000,180.000000*
21,1,0.026770,0.033470,0.000000,0.000000,180.000000*
1,1,0.006690,-0.013390,0.013390*
1,1,0.006690,0.013390,0.013390*
1,1,0.006690,0.013390,-0.013390*
1,1,0.006690,-0.013390,-0.013390*
%
%AMM34*
21,1,0.035430,0.030320,0.000000,0.000000,180.000000*
21,1,0.028350,0.037400,0.000000,0.000000,180.000000*
1,1,0.007090,-0.014170,0.015160*
1,1,0.007090,0.014170,0.015160*
1,1,0.007090,0.014170,-0.015160*
1,1,0.007090,-0.014170,-0.015160*
%
%AMM35*
21,1,0.035830,0.026770,0.000000,0.000000,0.000000*
21,1,0.029130,0.033470,0.000000,0.000000,0.000000*
1,1,0.006690,0.014570,-0.013390*
1,1,0.006690,-0.014570,-0.013390*
1,1,0.006690,-0.014570,0.013390*
1,1,0.006690,0.014570,0.013390*
%
%AMM36*
21,1,0.070870,0.036220,0.000000,0.000000,0.000000*
21,1,0.061810,0.045280,0.000000,0.000000,0.000000*
1,1,0.009060,0.030910,-0.018110*
1,1,0.009060,-0.030910,-0.018110*
1,1,0.009060,-0.030910,0.018110*
1,1,0.009060,0.030910,0.018110*
%
%AMM37*
21,1,0.059060,0.020470,0.000000,0.000000,90.000000*
21,1,0.053940,0.025590,0.000000,0.000000,90.000000*
1,1,0.005120,0.010240,0.026970*
1,1,0.005120,0.010240,-0.026970*
1,1,0.005120,-0.010240,-0.026970*
1,1,0.005120,-0.010240,0.026970*
%
%AMM38*
21,1,0.078740,0.045670,0.000000,0.000000,90.000000*
21,1,0.067320,0.057090,0.000000,0.000000,90.000000*
1,1,0.011420,0.022840,0.033660*
1,1,0.011420,0.022840,-0.033660*
1,1,0.011420,-0.022840,-0.033660*
1,1,0.011420,-0.022840,0.033660*
%
%AMM39*
21,1,0.025590,0.026380,0.000000,0.000000,0.000000*
21,1,0.020470,0.031500,0.000000,0.000000,0.000000*
1,1,0.005120,0.010240,-0.013190*
1,1,0.005120,-0.010240,-0.013190*
1,1,0.005120,-0.010240,0.013190*
1,1,0.005120,0.010240,0.013190*
%
%AMM40*
21,1,0.017720,0.027950,0.000000,0.000000,0.000000*
21,1,0.014170,0.031500,0.000000,0.000000,0.000000*
1,1,0.003540,0.007090,-0.013980*
1,1,0.003540,-0.007090,-0.013980*
1,1,0.003540,-0.007090,0.013980*
1,1,0.003540,0.007090,0.013980*
%
%AMM41*
21,1,0.027560,0.030710,0.000000,0.000000,90.000000*
21,1,0.022050,0.036220,0.000000,0.000000,90.000000*
1,1,0.005510,0.015350,0.011020*
1,1,0.005510,0.015350,-0.011020*
1,1,0.005510,-0.015350,-0.011020*
1,1,0.005510,-0.015350,0.011020*
%
%AMM42*
21,1,0.027560,0.049610,0.000000,0.000000,270.000000*
21,1,0.022050,0.055120,0.000000,0.000000,270.000000*
1,1,0.005510,-0.024800,-0.011020*
1,1,0.005510,-0.024800,0.011020*
1,1,0.005510,0.024800,0.011020*
1,1,0.005510,0.024800,-0.011020*
%
%AMM43*
21,1,0.027560,0.030710,0.000000,0.000000,0.000000*
21,1,0.022050,0.036220,0.000000,0.000000,0.000000*
1,1,0.005510,0.011020,-0.015350*
1,1,0.005510,-0.011020,-0.015350*
1,1,0.005510,-0.011020,0.015350*
1,1,0.005510,0.011020,0.015350*
%
%AMM44*
21,1,0.070870,0.036220,0.000000,0.000000,90.000000*
21,1,0.061810,0.045280,0.000000,0.000000,90.000000*
1,1,0.009060,0.018110,0.030910*
1,1,0.009060,0.018110,-0.030910*
1,1,0.009060,-0.018110,-0.030910*
1,1,0.009060,-0.018110,0.030910*
%
%AMM45*
21,1,0.033470,0.026770,0.000000,0.000000,270.000000*
21,1,0.026770,0.033470,0.000000,0.000000,270.000000*
1,1,0.006690,-0.013390,-0.013390*
1,1,0.006690,-0.013390,0.013390*
1,1,0.006690,0.013390,0.013390*
1,1,0.006690,0.013390,-0.013390*
%
%AMM7*
21,1,0.027560,0.018900,0.000000,0.000000,180.000000*
21,1,0.022840,0.023620,0.000000,0.000000,180.000000*
1,1,0.004720,-0.011420,0.009450*
1,1,0.004720,0.011420,0.009450*
1,1,0.004720,0.011420,-0.009450*
1,1,0.004720,-0.011420,-0.009450*
%
%ADD132M33*%
%ADD133M34*%
%ADD134M35*%
%ADD135R,0.03937X0.04331*%
%ADD136M36*%
%ADD137M37*%
%ADD138M38*%
%ADD14R,0.00787X0.09055*%
%ADD140R,0.09449X0.06693*%
%ADD141M39*%
%ADD142M40*%
%ADD143M41*%
%ADD144M42*%
%ADD145M43*%
%ADD146M44*%
%ADD147M45*%
%ADD148O,0.04961X0.00984*%
%ADD149R,0.00984X0.01378*%
%ADD15R,0.00787X0.42126*%
%ADD150R,0.01378X0.00984*%
%ADD16R,0.00787X0.08268*%
%ADD17R,0.00787X0.23622*%
%ADD18R,0.00787X0.21260*%
%ADD19R,0.05512X0.00787*%
%ADD20R,0.19685X0.00787*%
%ADD21R,0.26772X0.00787*%
%ADD22R,0.17717X0.00787*%
%ADD23R,0.00787X0.06299*%
%ADD24R,0.00787X0.22441*%
%ADD247M101*%
%ADD248M102*%
%ADD25R,0.00787X0.07874*%
%ADD251M105*%
%ADD252M106*%
%ADD253M107*%
%ADD268M121*%
%ADD269M122*%
%ADD270M123*%
%ADD271O,0.08661X0.01968*%
%ADD272M124*%
%ADD273M125*%
%ADD285R,0.01772X0.05709*%
%ADD286R,0.02559X0.04803*%
%ADD74M1*%
%ADD80M7*%
%ADD84M10*%
%ADD85M11*%
%ADD89M13*%
%ADD95M16*%
X0000000Y0000000D02*
%LPD*%
G01*
D14*
X0225847Y0267362D03*
D15*
X0225847Y0396496D03*
D16*
X0225847Y0364212D03*
D17*
X0225847Y0316771D03*
D18*
X0225847Y0290393D03*
D19*
X0232933Y0263228D03*
D20*
X0238445Y0420315D03*
D21*
X0271910Y0420315D03*
D22*
X0310689Y0420315D03*
D23*
X0391595Y0414409D03*
D24*
X0391595Y0289015D03*
D25*
X0391595Y0266771D03*
X0200689Y0266043D02*
G01*
G75*
D18*
X0201083Y0293602D02*
D03*
D14*
X0201083Y0270571D02*
D03*
D17*
X0201083Y0319980D02*
D03*
D25*
X0366831Y0269980D02*
D03*
D16*
X0201083Y0367421D02*
D03*
D15*
X0201083Y0399704D02*
D03*
D20*
X0213681Y0423523D02*
D03*
D21*
X0247146Y0423523D02*
D03*
D22*
X0285925Y0423523D02*
D03*
D24*
X0366831Y0292224D02*
D03*
D23*
X0366831Y0417618D02*
D03*
D19*
X0208169Y0266437D02*
D03*
D74*
X0212304Y0367285D02*
D03*
X0221556Y0371025D02*
D03*
D74*
X0212304Y0374766D02*
D03*
D80*
X0232382Y0318011D02*
D03*
X0232382Y0321948D02*
D03*
X0353051Y0360925D02*
D03*
X0353051Y0356988D02*
D03*
X0229331Y0420177D02*
D03*
X0229331Y0416240D02*
D03*
X0262514Y0342815D02*
D03*
X0262514Y0338878D02*
D03*
X0279419Y0342743D02*
D03*
X0279419Y0346680D02*
D03*
X0257382Y0339271D02*
D03*
X0257382Y0343208D02*
D03*
X0206188Y0322859D02*
D03*
X0206188Y0318922D02*
D03*
X0223917Y0392027D02*
D03*
X0223917Y0388090D02*
D03*
X0203445Y0411122D02*
D03*
X0203445Y0415059D02*
D03*
X0335335Y0335334D02*
D03*
X0335335Y0331397D02*
D03*
X0261713Y0399901D02*
D03*
X0261713Y0403838D02*
D03*
X0291930Y0333464D02*
D03*
X0291930Y0337401D02*
D03*
X0280905Y0414764D02*
D03*
X0280905Y0418700D02*
D03*
X0333760Y0347145D02*
D03*
X0333760Y0343208D02*
D03*
X0337697Y0347145D02*
D03*
X0337697Y0343208D02*
D03*
X0207579Y0411122D02*
D03*
X0207579Y0415059D02*
D03*
X0344587Y0362500D02*
D03*
X0344587Y0358563D02*
D03*
X0344390Y0384941D02*
D03*
X0344390Y0381004D02*
D03*
X0296260Y0333464D02*
D03*
X0296260Y0337401D02*
D03*
X0299902Y0419980D02*
D03*
X0299902Y0416043D02*
D03*
X0261713Y0370374D02*
D03*
X0261713Y0374311D02*
D03*
X0261713Y0366830D02*
D03*
X0261713Y0362893D02*
D03*
X0248327Y0290452D02*
D03*
X0248327Y0286515D02*
D03*
X0253051Y0290452D02*
D03*
X0253051Y0286515D02*
D03*
X0257776Y0290452D02*
D03*
X0257776Y0286515D02*
D03*
X0262500Y0290452D02*
D03*
X0262500Y0286515D02*
D03*
X0347146Y0271161D02*
D03*
X0347146Y0275098D02*
D03*
X0351870Y0275098D02*
D03*
X0351870Y0271161D02*
D03*
X0356594Y0271161D02*
D03*
X0356594Y0275098D02*
D03*
X0361319Y0271161D02*
D03*
X0361319Y0275098D02*
D03*
X0228445Y0318011D02*
D03*
X0228445Y0321948D02*
D03*
X0256398Y0318011D02*
D03*
X0256398Y0321948D02*
D03*
X0224705Y0290452D02*
D03*
X0224705Y0286515D02*
D03*
X0219981Y0290452D02*
D03*
X0219981Y0286515D02*
D03*
X0215256Y0290452D02*
D03*
X0215256Y0286515D02*
D03*
X0210532Y0290452D02*
D03*
X0210532Y0286515D02*
D03*
X0243603Y0290452D02*
D03*
X0243603Y0286515D02*
D03*
X0238878Y0290452D02*
D03*
X0238878Y0286515D02*
D03*
X0234154Y0290452D02*
D03*
X0234154Y0286515D02*
D03*
X0229429Y0290452D02*
D03*
X0229429Y0286515D02*
D03*
X0281398Y0290452D02*
D03*
X0281398Y0286515D02*
D03*
X0276674Y0290452D02*
D03*
X0276674Y0286515D02*
D03*
X0271949Y0290452D02*
D03*
X0271949Y0286515D02*
D03*
X0267225Y0290452D02*
D03*
X0267225Y0286515D02*
D03*
X0300296Y0286515D02*
D03*
X0300296Y0290452D02*
D03*
X0295571Y0290452D02*
D03*
X0295571Y0286515D02*
D03*
X0290847Y0290452D02*
D03*
X0290847Y0286515D02*
D03*
X0286122Y0290452D02*
D03*
X0286122Y0286515D02*
D03*
X0319193Y0290452D02*
D03*
X0319193Y0286515D02*
D03*
X0314469Y0290452D02*
D03*
X0314469Y0286515D02*
D03*
X0309744Y0290452D02*
D03*
X0309744Y0286515D02*
D03*
X0305020Y0290452D02*
D03*
X0305020Y0286515D02*
D03*
X0333366Y0290452D02*
D03*
X0333366Y0286515D02*
D03*
X0328642Y0290452D02*
D03*
X0328642Y0286515D02*
D03*
X0323917Y0290452D02*
D03*
X0323917Y0286515D02*
D03*
X0205413Y0281200D02*
D03*
X0205413Y0285137D02*
D03*
X0342422Y0275098D02*
D03*
X0342422Y0271161D02*
D03*
X0256398Y0307775D02*
D03*
X0256398Y0311712D02*
D03*
X0343996Y0286515D02*
D03*
X0343996Y0290452D02*
D03*
X0205413Y0273523D02*
D03*
X0205413Y0277460D02*
D03*
X0343996Y0282578D02*
D03*
X0343996Y0278641D02*
D03*
X0349114Y0412893D02*
D03*
X0349114Y0408956D02*
D03*
X0338091Y0290452D02*
D03*
X0338091Y0286515D02*
D03*
D84*
X0238091Y0382874D02*
D03*
X0245177Y0382874D02*
D03*
X0245177Y0372834D02*
D03*
X0238091Y0372834D02*
D03*
X0252658Y0334645D02*
D03*
X0245571Y0334645D02*
D03*
X0245571Y0344685D02*
D03*
X0252658Y0344685D02*
D03*
X0252658Y0350787D02*
D03*
X0245571Y0350787D02*
D03*
X0245571Y0360827D02*
D03*
X0252658Y0360827D02*
D03*
X0348130Y0314960D02*
D03*
X0341043Y0314960D02*
D03*
X0341043Y0304921D02*
D03*
X0348130Y0304921D02*
D03*
X0329626Y0304921D02*
D03*
X0336713Y0304921D02*
D03*
X0336713Y0314960D02*
D03*
X0329626Y0314960D02*
D03*
X0279626Y0314960D02*
D03*
X0272540Y0314960D02*
D03*
X0272540Y0304921D02*
D03*
X0279626Y0304921D02*
D03*
X0261122Y0304921D02*
D03*
X0268209Y0304921D02*
D03*
X0268209Y0314960D02*
D03*
X0261122Y0314960D02*
D03*
X0302461Y0314960D02*
D03*
X0295374Y0314960D02*
D03*
X0295374Y0304921D02*
D03*
X0302461Y0304921D02*
D03*
X0283957Y0304921D02*
D03*
X0291044Y0304921D02*
D03*
X0291044Y0314960D02*
D03*
X0283957Y0314960D02*
D03*
X0325296Y0314960D02*
D03*
X0318209Y0314960D02*
D03*
X0318209Y0304921D02*
D03*
X0325296Y0304921D02*
D03*
X0306792Y0304921D02*
D03*
X0313878Y0304921D02*
D03*
X0313878Y0314960D02*
D03*
X0306792Y0314960D02*
D03*
D85*
X0245177Y0376279D02*
D03*
X0245177Y0379429D02*
D03*
X0238091Y0379429D02*
D03*
X0238091Y0376279D02*
D03*
X0245571Y0341240D02*
D03*
X0245571Y0338090D02*
D03*
X0252658Y0338090D02*
D03*
X0252658Y0341240D02*
D03*
X0245571Y0357382D02*
D03*
X0245571Y0354232D02*
D03*
X0252658Y0354232D02*
D03*
X0252658Y0357382D02*
D03*
X0348130Y0311515D02*
D03*
X0348130Y0308366D02*
D03*
X0341043Y0308366D02*
D03*
X0341043Y0311515D02*
D03*
X0329626Y0308366D02*
D03*
X0329626Y0311515D02*
D03*
X0336713Y0311515D02*
D03*
X0336713Y0308366D02*
D03*
X0279626Y0311515D02*
D03*
X0279626Y0308366D02*
D03*
X0272540Y0308366D02*
D03*
X0272540Y0311515D02*
D03*
X0261122Y0308366D02*
D03*
X0261122Y0311515D02*
D03*
X0268209Y0311515D02*
D03*
X0268209Y0308366D02*
D03*
X0302461Y0311515D02*
D03*
X0302461Y0308366D02*
D03*
X0295374Y0308366D02*
D03*
X0295374Y0311515D02*
D03*
X0283957Y0308366D02*
D03*
X0283957Y0311515D02*
D03*
X0291044Y0311515D02*
D03*
X0291044Y0308366D02*
D03*
X0325296Y0311515D02*
D03*
X0325296Y0308366D02*
D03*
X0318209Y0308366D02*
D03*
X0318209Y0311515D02*
D03*
X0306792Y0308366D02*
D03*
X0306792Y0311515D02*
D03*
X0313878Y0311515D02*
D03*
X0313878Y0308366D02*
D03*
D89*
X0226083Y0376870D02*
D03*
X0226083Y0379429D02*
D03*
X0226083Y0381988D02*
D03*
X0233563Y0381988D02*
D03*
X0233563Y0376870D02*
D03*
D95*
X0244390Y0417421D02*
D03*
X0240453Y0417421D02*
D03*
X0360532Y0401673D02*
D03*
X0356594Y0401673D02*
D03*
X0219432Y0396852D02*
D03*
X0223369Y0396852D02*
D03*
X0242028Y0390846D02*
D03*
X0238091Y0390846D02*
D03*
X0232972Y0386909D02*
D03*
X0236909Y0386909D02*
D03*
X0342028Y0336122D02*
D03*
X0345965Y0336122D02*
D03*
X0272736Y0418012D02*
D03*
X0276673Y0418012D02*
D03*
X0341437Y0405807D02*
D03*
X0345374Y0405807D02*
D03*
X0314075Y0416830D02*
D03*
X0318012Y0416830D02*
D03*
X0269599Y0330021D02*
D03*
X0265662Y0330021D02*
D03*
X0260335Y0352657D02*
D03*
X0264272Y0352657D02*
D03*
X0270374Y0351082D02*
D03*
X0274311Y0351082D02*
D03*
X0269587Y0379429D02*
D03*
X0273524Y0379429D02*
D03*
X0364862Y0419586D02*
D03*
X0360925Y0419586D02*
D03*
X0251673Y0418602D02*
D03*
X0247736Y0418602D02*
D03*
X0233760Y0404232D02*
D03*
X0237697Y0404232D02*
D03*
X0344784Y0342421D02*
D03*
X0348721Y0342421D02*
D03*
X0344784Y0346358D02*
D03*
X0348721Y0346358D02*
D03*
X0345374Y0409744D02*
D03*
X0341437Y0409744D02*
D03*
X0318307Y0333858D02*
D03*
X0314370Y0333858D02*
D03*
X0261713Y0379035D02*
D03*
X0265650Y0379035D02*
D03*
X0261713Y0347342D02*
D03*
X0265650Y0347342D02*
D03*
X0269980Y0402657D02*
D03*
X0273917Y0402657D02*
D03*
X0269193Y0387303D02*
D03*
X0273130Y0387303D02*
D03*
X0284055Y0333464D02*
D03*
X0287992Y0333464D02*
D03*
X0338288Y0321161D02*
D03*
X0334351Y0321161D02*
D03*
X0269784Y0321161D02*
D03*
X0265847Y0321161D02*
D03*
X0292618Y0321161D02*
D03*
X0288681Y0321161D02*
D03*
X0315453Y0321161D02*
D03*
X0311516Y0321161D02*
D03*
X0276280Y0297145D02*
D03*
X0272343Y0297145D02*
D03*
X0221228Y0300689D02*
D03*
X0225165Y0300689D02*
D03*
X0212039Y0300689D02*
D03*
X0208102Y0300689D02*
D03*
X0246032Y0300689D02*
D03*
X0249969Y0300689D02*
D03*
X0236843Y0300689D02*
D03*
X0232906Y0300689D02*
D03*
X0208563Y0382578D02*
D03*
X0204626Y0382578D02*
D03*
X0214469Y0382578D02*
D03*
X0218406Y0382578D02*
D03*
X0251477Y0294389D02*
D03*
X0247540Y0294389D02*
D03*
X0204626Y0332185D02*
D03*
X0208563Y0332185D02*
D03*
X0204626Y0344586D02*
D03*
X0208563Y0344586D02*
D03*
X0204626Y0348720D02*
D03*
X0208563Y0348720D02*
D03*
X0204626Y0356988D02*
D03*
X0208563Y0356988D02*
D03*
X0204626Y0352854D02*
D03*
X0208563Y0352854D02*
D03*
X0204626Y0361122D02*
D03*
X0208563Y0361122D02*
D03*
X0204626Y0340453D02*
D03*
X0208563Y0340453D02*
D03*
X0204626Y0336319D02*
D03*
X0208563Y0336319D02*
D03*
D132*
X0254666Y0383563D02*
D03*
X0260886Y0383563D02*
D03*
D133*
X0357269Y0393914D02*
D03*
X0361009Y0384662D02*
D03*
X0274840Y0336163D02*
D03*
X0271100Y0345415D02*
D03*
X0211319Y0397027D02*
D03*
X0207579Y0406279D02*
D03*
X0217028Y0410452D02*
D03*
X0220768Y0401201D02*
D03*
X0353642Y0302067D02*
D03*
X0357382Y0292815D02*
D03*
X0357382Y0307710D02*
D03*
X0353642Y0316962D02*
D03*
X0353642Y0331857D02*
D03*
X0357382Y0322605D02*
D03*
X0352855Y0346752D02*
D03*
X0356595Y0337500D02*
D03*
D133*
X0353529Y0384662D02*
D03*
X0267360Y0336163D02*
D03*
X0203839Y0397027D02*
D03*
X0224508Y0410453D02*
D03*
X0361122Y0302067D02*
D03*
X0361122Y0316962D02*
D03*
X0361122Y0331857D02*
D03*
X0360335Y0346752D02*
D03*
D134*
X0205020Y0389665D02*
D03*
X0218012Y0389665D02*
D03*
X0242421Y0399901D02*
D03*
X0255414Y0399901D02*
D03*
D135*
X0237500Y0398326D02*
D03*
X0230807Y0398326D02*
D03*
D136*
X0359744Y0360531D02*
D03*
X0359744Y0371948D02*
D03*
D137*
X0297815Y0371567D02*
D03*
X0302146Y0371567D02*
D03*
X0306477Y0371567D02*
D03*
X0310807Y0371567D02*
D03*
X0315138Y0371567D02*
D03*
X0319469Y0371567D02*
D03*
X0323800Y0371567D02*
D03*
X0328130Y0371567D02*
D03*
D138*
X0337500Y0361331D02*
D03*
X0337500Y0394008D02*
D03*
X0283367Y0394008D02*
D03*
X0283367Y0361331D02*
D03*
D140*
X0272737Y0372539D02*
D03*
X0272737Y0357972D02*
D03*
D141*
X0319292Y0348720D02*
D03*
X0319292Y0341634D02*
D03*
X0329331Y0341634D02*
D03*
X0329331Y0348720D02*
D03*
X0250394Y0273720D02*
D03*
X0250394Y0280807D02*
D03*
X0260433Y0280807D02*
D03*
X0260433Y0273720D02*
D03*
X0222244Y0308169D02*
D03*
X0222244Y0315256D02*
D03*
X0212205Y0315256D02*
D03*
X0212205Y0308169D02*
D03*
X0212205Y0326673D02*
D03*
X0212205Y0319586D02*
D03*
X0222244Y0319586D02*
D03*
X0222244Y0326673D02*
D03*
X0250197Y0308169D02*
D03*
X0250197Y0315256D02*
D03*
X0240158Y0315256D02*
D03*
X0240158Y0308169D02*
D03*
X0240158Y0326673D02*
D03*
X0240158Y0319586D02*
D03*
X0250197Y0319586D02*
D03*
X0250197Y0326673D02*
D03*
X0212599Y0273720D02*
D03*
X0212599Y0280807D02*
D03*
X0222638Y0280807D02*
D03*
X0222638Y0273720D02*
D03*
X0231496Y0273720D02*
D03*
X0231496Y0280807D02*
D03*
X0241535Y0280807D02*
D03*
X0241535Y0273720D02*
D03*
X0269291Y0273720D02*
D03*
X0269291Y0280807D02*
D03*
X0279331Y0280807D02*
D03*
X0279331Y0273720D02*
D03*
X0288189Y0273720D02*
D03*
X0288189Y0280807D02*
D03*
X0298229Y0280807D02*
D03*
X0298229Y0273720D02*
D03*
X0307087Y0273720D02*
D03*
X0307087Y0280807D02*
D03*
X0317126Y0280807D02*
D03*
X0317126Y0273720D02*
D03*
X0325984Y0273720D02*
D03*
X0325984Y0280807D02*
D03*
X0336024Y0280807D02*
D03*
X0336024Y0273720D02*
D03*
X0359252Y0279429D02*
D03*
X0359252Y0286515D02*
D03*
X0349213Y0286515D02*
D03*
X0349213Y0279429D02*
D03*
D142*
X0322736Y0348720D02*
D03*
X0325886Y0348720D02*
D03*
X0325886Y0341634D02*
D03*
X0322736Y0341634D02*
D03*
X0256988Y0280807D02*
D03*
X0253839Y0280807D02*
D03*
X0253839Y0273720D02*
D03*
X0256988Y0273720D02*
D03*
X0218799Y0308169D02*
D03*
X0215650Y0308169D02*
D03*
X0215650Y0315256D02*
D03*
X0218799Y0315256D02*
D03*
X0215650Y0326673D02*
D03*
X0218799Y0326673D02*
D03*
X0218799Y0319586D02*
D03*
X0215650Y0319586D02*
D03*
X0246752Y0308169D02*
D03*
X0243602Y0308169D02*
D03*
X0243602Y0315256D02*
D03*
X0246752Y0315256D02*
D03*
X0243603Y0326673D02*
D03*
X0246752Y0326673D02*
D03*
X0246752Y0319586D02*
D03*
X0243603Y0319586D02*
D03*
X0219193Y0280807D02*
D03*
X0216044Y0280807D02*
D03*
X0216044Y0273720D02*
D03*
X0219193Y0273720D02*
D03*
X0238091Y0280807D02*
D03*
X0234941Y0280807D02*
D03*
X0234941Y0273720D02*
D03*
X0238091Y0273720D02*
D03*
X0275886Y0280807D02*
D03*
X0272736Y0280807D02*
D03*
X0272736Y0273720D02*
D03*
X0275886Y0273720D02*
D03*
X0294784Y0280807D02*
D03*
X0291634Y0280807D02*
D03*
X0291634Y0273720D02*
D03*
X0294784Y0273720D02*
D03*
X0313681Y0280807D02*
D03*
X0310532Y0280807D02*
D03*
X0310532Y0273720D02*
D03*
X0313681Y0273720D02*
D03*
X0332579Y0280807D02*
D03*
X0329429Y0280807D02*
D03*
X0329429Y0273720D02*
D03*
X0332579Y0273720D02*
D03*
X0355807Y0279429D02*
D03*
X0352658Y0279429D02*
D03*
X0352658Y0286515D02*
D03*
X0355807Y0286515D02*
D03*
D143*
X0344390Y0376279D02*
D03*
X0344390Y0369980D02*
D03*
X0290748Y0412008D02*
D03*
X0290748Y0418307D02*
D03*
X0205414Y0378248D02*
D03*
X0205414Y0371948D02*
D03*
X0349902Y0368799D02*
D03*
X0349902Y0375098D02*
D03*
D144*
X0269980Y0397736D02*
D03*
X0269980Y0391830D02*
D03*
D145*
X0260926Y0392815D02*
D03*
X0254626Y0392815D02*
D03*
X0260926Y0388189D02*
D03*
X0254626Y0388189D02*
D03*
D146*
X0212500Y0417421D02*
D03*
X0223917Y0417421D02*
D03*
D147*
X0348917Y0357224D02*
D03*
X0348917Y0363445D02*
D03*
X0277461Y0386870D02*
D03*
X0277461Y0380649D02*
D03*
D148*
X0214311Y0333169D02*
D03*
X0214311Y0335728D02*
D03*
X0214311Y0338287D02*
D03*
X0214311Y0340846D02*
D03*
X0214311Y0343405D02*
D03*
X0214311Y0345964D02*
D03*
X0214311Y0348523D02*
D03*
X0214311Y0351082D02*
D03*
X0214311Y0353641D02*
D03*
X0214311Y0356201D02*
D03*
X0214311Y0358759D02*
D03*
X0214311Y0361319D02*
D03*
X0237304Y0333169D02*
D03*
X0237304Y0335728D02*
D03*
X0237304Y0338287D02*
D03*
X0237304Y0340846D02*
D03*
X0237304Y0343405D02*
D03*
X0237304Y0345964D02*
D03*
X0237304Y0348523D02*
D03*
X0237304Y0351082D02*
D03*
X0237304Y0353641D02*
D03*
X0237304Y0356201D02*
D03*
X0237304Y0358759D02*
D03*
X0237304Y0361319D02*
D03*
D149*
X0357579Y0409350D02*
D03*
X0355611Y0409350D02*
D03*
X0355611Y0415649D02*
D03*
X0357579Y0415649D02*
D03*
D150*
X0353445Y0409547D02*
D03*
X0353445Y0411516D02*
D03*
X0353445Y0413484D02*
D03*
X0353445Y0415452D02*
D03*
X0359745Y0409547D02*
D03*
X0359745Y0415452D02*
D03*
X0359745Y0411516D02*
D03*
X0359745Y0413484D02*
D03*
X0615157Y0099409D02*
G01*
G75*
D247*
X0538779Y0129324D02*
D03*
X0538779Y0116332D02*
D03*
D248*
X0538385Y0149184D02*
D03*
X0538385Y0137767D02*
D03*
X0546417Y0149184D02*
D03*
X0546417Y0137767D02*
D03*
D251*
X0560433Y0111811D02*
D03*
X0556496Y0111811D02*
D03*
X0545866Y0108464D02*
D03*
X0545866Y0117126D02*
D03*
X0551114Y0107677D02*
D03*
X0551114Y0116338D02*
D03*
D252*
X0603740Y0119564D02*
D03*
X0603740Y0116020D02*
D03*
X0567007Y0128955D02*
D03*
X0567007Y0132499D02*
D03*
X0551902Y0120958D02*
D03*
X0551902Y0124501D02*
D03*
X0603740Y0128182D02*
D03*
X0603740Y0124639D02*
D03*
X0599803Y0107677D02*
D03*
X0599803Y0111220D02*
D03*
D253*
X0550327Y0133162D02*
D03*
X0546783Y0133162D02*
D03*
X0537925Y0112395D02*
D03*
X0541469Y0112395D02*
D03*
X0596242Y0161159D02*
D03*
X0592698Y0161159D02*
D03*
D268*
X0558858Y0148622D02*
D03*
X0558858Y0137598D02*
D03*
D269*
X0563181Y0115944D02*
D03*
X0556961Y0115944D02*
D03*
X0563181Y0130038D02*
D03*
X0556961Y0130038D02*
D03*
X0563181Y0125347D02*
D03*
X0556961Y0125347D02*
D03*
X0563181Y0120655D02*
D03*
X0556961Y0120655D02*
D03*
X0550937Y0128857D02*
D03*
X0544716Y0128857D02*
D03*
D270*
X0599803Y0119367D02*
D03*
X0599803Y0115430D02*
D03*
X0599803Y0124048D02*
D03*
X0599803Y0127985D02*
D03*
X0545866Y0120761D02*
D03*
X0545866Y0124698D02*
D03*
X0567480Y0143694D02*
D03*
X0567480Y0147631D02*
D03*
X0604921Y0151470D02*
D03*
X0604921Y0147532D02*
D03*
D271*
X0593043Y0124481D02*
D03*
X0593043Y0119481D02*
D03*
X0593043Y0114481D02*
D03*
X0593043Y0109481D02*
D03*
X0570406Y0124481D02*
D03*
X0570406Y0119481D02*
D03*
X0570406Y0114481D02*
D03*
X0570406Y0109481D02*
D03*
X0598326Y0147548D02*
D03*
X0598326Y0142548D02*
D03*
X0598326Y0137548D02*
D03*
X0598326Y0132548D02*
D03*
X0574901Y0147548D02*
D03*
X0574901Y0142548D02*
D03*
X0574901Y0137548D02*
D03*
X0574901Y0132548D02*
D03*
D272*
X0581725Y0116981D02*
D03*
D273*
X0586614Y0140048D02*
D03*
X0383858Y0241339D02*
%LPD*%
G01*
G36*
G01*
X0391217Y0161634D02*
X0392575Y0161634D01*
G75*
G02*
X0393156Y0161054I0000000J-000581D01*
G01*
X0393156Y0159892D01*
G75*
G02*
X0392575Y0159311I-000581J0000000D01*
G01*
X0391217Y0159311D01*
G75*
G02*
X0390636Y0159892I0000000J0000581D01*
G01*
X0390636Y0161054D01*
G75*
G02*
X0391217Y0161634I0000581J0000000D01*
G01*
G37*
G36*
G01*
X0391217Y0157815D02*
X0392575Y0157815D01*
G75*
G02*
X0393156Y0157235I0000000J-000581D01*
G01*
X0393156Y0156073D01*
G75*
G02*
X0392575Y0155493I-000581J0000000D01*
G01*
X0391217Y0155493D01*
G75*
G02*
X0390636Y0156073I0000000J0000581D01*
G01*
X0390636Y0157235D01*
G75*
G02*
X0391217Y0157815I0000581J0000000D01*
G01*
G37*
G36*
G01*
X0406506Y0147166D02*
X0407864Y0147166D01*
G75*
G02*
X0408445Y0146585I0000000J-000581D01*
G01*
X0408445Y0145424D01*
G75*
G02*
X0407864Y0144843I-000581J0000000D01*
G01*
X0406506Y0144843D01*
G75*
G02*
X0405925Y0145424I0000000J0000581D01*
G01*
X0405925Y0146585D01*
G75*
G02*
X0406506Y0147166I0000581J0000000D01*
G01*
G37*
G36*
G01*
X0406506Y0143347D02*
X0407864Y0143347D01*
G75*
G02*
X0408445Y0142766I0000000J-000581D01*
G01*
X0408445Y0141605D01*
G75*
G02*
X0407864Y0141024I-000581J0000000D01*
G01*
X0406506Y0141024D01*
G75*
G02*
X0405925Y0141605I0000000J0000581D01*
G01*
X0405925Y0142766D01*
G75*
G02*
X0406506Y0143347I0000581J0000000D01*
G01*
G37*
G36*
G01*
X0432702Y0197048D02*
X0430684Y0197048D01*
G75*
G02*
X0429823Y0197909I0000000J0000861D01*
G01*
X0429823Y0199631D01*
G75*
G02*
X0430684Y0200493I0000861J0000000D01*
G01*
X0432702Y0200493D01*
G75*
G02*
X0433563Y0199631I0000000J-000861D01*
G01*
X0433563Y0197909D01*
G75*
G02*
X0432702Y0197048I-000861J0000000D01*
G01*
G37*
G36*
G01*
X0432702Y0203248D02*
X0430684Y0203248D01*
G75*
G02*
X0429823Y0204110I0000000J0000861D01*
G01*
X0429823Y0205832D01*
G75*
G02*
X0430684Y0206693I0000861J0000000D01*
G01*
X0432702Y0206693D01*
G75*
G02*
X0433563Y0205832I0000000J-000861D01*
G01*
X0433563Y0204110D01*
G75*
G02*
X0432702Y0203248I-000861J0000000D01*
G01*
G37*
G36*
G01*
X0388376Y0155493D02*
X0387017Y0155493D01*
G75*
G02*
X0386437Y0156073I0000000J0000581D01*
G01*
X0386437Y0157235D01*
G75*
G02*
X0387017Y0157815I0000581J0000000D01*
G01*
X0388376Y0157815D01*
G75*
G02*
X0388956Y0157235I0000000J-000581D01*
G01*
X0388956Y0156073D01*
G75*
G02*
X0388376Y0155493I-000581J0000000D01*
G01*
G37*
G36*
G01*
X0388376Y0159311D02*
X0387017Y0159311D01*
G75*
G02*
X0386437Y0159892I0000000J0000581D01*
G01*
X0386437Y0161054D01*
G75*
G02*
X0387017Y0161634I0000581J0000000D01*
G01*
X0388376Y0161634D01*
G75*
G02*
X0388956Y0161054I0000000J-000581D01*
G01*
X0388956Y0159892D01*
G75*
G02*
X0388376Y0159311I-000581J0000000D01*
G01*
G37*
G36*
G01*
X0427372Y0215194D02*
X0428730Y0215194D01*
G75*
G02*
X0429311Y0214614I0000000J-000581D01*
G01*
X0429311Y0213452D01*
G75*
G02*
X0428730Y0212872I-000581J0000000D01*
G01*
X0427372Y0212872D01*
G75*
G02*
X0426791Y0213452I0000000J0000581D01*
G01*
X0426791Y0214614D01*
G75*
G02*
X0427372Y0215194I0000581J0000000D01*
G01*
G37*
G36*
G01*
X0427372Y0211376D02*
X0428730Y0211376D01*
G75*
G02*
X0429311Y0210795I0000000J-000581D01*
G01*
X0429311Y0209633D01*
G75*
G02*
X0428730Y0209053I-000581J0000000D01*
G01*
X0427372Y0209053D01*
G75*
G02*
X0426791Y0209633I0000000J0000581D01*
G01*
X0426791Y0210795D01*
G75*
G02*
X0427372Y0211376I0000581J0000000D01*
G01*
G37*
G36*
G01*
X0425502Y0207107D02*
X0426860Y0207107D01*
G75*
G02*
X0427441Y0206526I0000000J-000581D01*
G01*
X0427441Y0205365D01*
G75*
G02*
X0426860Y0204784I-000581J0000000D01*
G01*
X0425502Y0204784D01*
G75*
G02*
X0424921Y0205365I0000000J0000581D01*
G01*
X0424921Y0206526D01*
G75*
G02*
X0425502Y0207107I0000581J0000000D01*
G01*
G37*
G36*
G01*
X0425502Y0203288D02*
X0426860Y0203288D01*
G75*
G02*
X0427441Y0202707I0000000J-000581D01*
G01*
X0427441Y0201546D01*
G75*
G02*
X0426860Y0200965I-000581J0000000D01*
G01*
X0425502Y0200965D01*
G75*
G02*
X0424921Y0201546I0000000J0000581D01*
G01*
X0424921Y0202707D01*
G75*
G02*
X0425502Y0203288I0000581J0000000D01*
G01*
G37*
G36*
G01*
X0432834Y0235719D02*
X0432834Y0234361D01*
G75*
G02*
X0432254Y0233780I-000581J0000000D01*
G01*
X0431092Y0233780D01*
G75*
G02*
X0430512Y0234361I0000000J0000581D01*
G01*
X0430512Y0235719D01*
G75*
G02*
X0431092Y0236300I0000581J0000000D01*
G01*
X0432254Y0236300D01*
G75*
G02*
X0432834Y0235719I0000000J-000581D01*
G01*
G37*
G36*
G01*
X0429015Y0235719D02*
X0429015Y0234361D01*
G75*
G02*
X0428435Y0233780I-000581J0000000D01*
G01*
X0427273Y0233780D01*
G75*
G02*
X0426693Y0234361I0000000J0000581D01*
G01*
X0426693Y0235719D01*
G75*
G02*
X0427273Y0236300I0000581J0000000D01*
G01*
X0428435Y0236300D01*
G75*
G02*
X0429015Y0235719I0000000J-000581D01*
G01*
G37*
G36*
G01*
X0415246Y0186201D02*
X0413888Y0186201D01*
G75*
G02*
X0413307Y0186782I0000000J0000581D01*
G01*
X0413307Y0187943D01*
G75*
G02*
X0413888Y0188524I0000581J0000000D01*
G01*
X0415246Y0188524D01*
G75*
G02*
X0415827Y0187943I0000000J-000581D01*
G01*
X0415827Y0186782D01*
G75*
G02*
X0415246Y0186201I-000581J0000000D01*
G01*
G37*
G36*
G01*
X0415246Y0190020D02*
X0413888Y0190020D01*
G75*
G02*
X0413307Y0190601I0000000J0000581D01*
G01*
X0413307Y0191762D01*
G75*
G02*
X0413888Y0192343I0000581J0000000D01*
G01*
X0415246Y0192343D01*
G75*
G02*
X0415827Y0191762I0000000J-000581D01*
G01*
X0415827Y0190601D01*
G75*
G02*
X0415246Y0190020I-000581J0000000D01*
G01*
G37*
G36*
G01*
X0409951Y0192343D02*
X0411309Y0192343D01*
G75*
G02*
X0411889Y0191762I0000000J-000581D01*
G01*
X0411889Y0190601D01*
G75*
G02*
X0411309Y0190020I-000581J0000000D01*
G01*
X0409951Y0190020D01*
G75*
G02*
X0409370Y0190601I0000000J0000581D01*
G01*
X0409370Y0191762D01*
G75*
G02*
X0409951Y0192343I0000581J0000000D01*
G01*
G37*
G36*
G01*
X0409951Y0188524D02*
X0411309Y0188524D01*
G75*
G02*
X0411889Y0187943I0000000J-000581D01*
G01*
X0411889Y0186782D01*
G75*
G02*
X0411309Y0186201I-000581J0000000D01*
G01*
X0409951Y0186201D01*
G75*
G02*
X0409370Y0186782I0000000J0000581D01*
G01*
X0409370Y0187943D01*
G75*
G02*
X0409951Y0188524I0000581J0000000D01*
G01*
G37*
G36*
G01*
X0412391Y0144863D02*
X0411033Y0144863D01*
G75*
G02*
X0410452Y0145443I0000000J0000581D01*
G01*
X0410452Y0146605D01*
G75*
G02*
X0411033Y0147185I0000581J0000000D01*
G01*
X0412391Y0147185D01*
G75*
G02*
X0412972Y0146605I0000000J-000581D01*
G01*
X0412972Y0145443D01*
G75*
G02*
X0412391Y0144863I-000581J0000000D01*
G01*
G37*
G36*
G01*
X0412391Y0148682D02*
X0411033Y0148682D01*
G75*
G02*
X0410452Y0149262I0000000J0000581D01*
G01*
X0410452Y0150424D01*
G75*
G02*
X0411033Y0151004I0000581J0000000D01*
G01*
X0412391Y0151004D01*
G75*
G02*
X0412972Y0150424I0000000J-000581D01*
G01*
X0412972Y0149262D01*
G75*
G02*
X0412391Y0148682I-000581J0000000D01*
G01*
G37*
D285*
X0388976Y0199213D03*
X0391535Y0199213D03*
X0394094Y0199213D03*
X0396653Y0199213D03*
X0399212Y0199213D03*
X0401771Y0199213D03*
X0404330Y0199213D03*
X0404330Y0175985D03*
X0401771Y0175985D03*
X0399212Y0175985D03*
X0396653Y0175985D03*
X0394094Y0175985D03*
X0391535Y0175985D03*
X0388976Y0175985D03*
G36*
G01*
X0432470Y0209036D02*
X0431112Y0209036D01*
G75*
G02*
X0430531Y0209617I0000000J0000581D01*
G01*
X0430531Y0210778D01*
G75*
G02*
X0431112Y0211359I0000581J0000000D01*
G01*
X0432470Y0211359D01*
G75*
G02*
X0433051Y0210778I0000000J-000581D01*
G01*
X0433051Y0209617D01*
G75*
G02*
X0432470Y0209036I-000581J0000000D01*
G01*
G37*
G36*
G01*
X0432470Y0212855D02*
X0431112Y0212855D01*
G75*
G02*
X0430531Y0213435I0000000J0000581D01*
G01*
X0430531Y0214597D01*
G75*
G02*
X0431112Y0215178I0000581J0000000D01*
G01*
X0432470Y0215178D01*
G75*
G02*
X0433051Y0214597I0000000J-000581D01*
G01*
X0433051Y0213435D01*
G75*
G02*
X0432470Y0212855I-000581J0000000D01*
G01*
G37*
G36*
G01*
X0434852Y0215178D02*
X0436210Y0215178D01*
G75*
G02*
X0436791Y0214597I0000000J-000581D01*
G01*
X0436791Y0213435D01*
G75*
G02*
X0436210Y0212855I-000581J0000000D01*
G01*
X0434852Y0212855D01*
G75*
G02*
X0434271Y0213435I0000000J0000581D01*
G01*
X0434271Y0214597D01*
G75*
G02*
X0434852Y0215178I0000581J0000000D01*
G01*
G37*
G36*
G01*
X0434852Y0211359D02*
X0436210Y0211359D01*
G75*
G02*
X0436791Y0210778I0000000J-000581D01*
G01*
X0436791Y0209617D01*
G75*
G02*
X0436210Y0209036I-000581J0000000D01*
G01*
X0434852Y0209036D01*
G75*
G02*
X0434271Y0209617I0000000J0000581D01*
G01*
X0434271Y0210778D01*
G75*
G02*
X0434852Y0211359I0000581J0000000D01*
G01*
G37*
G36*
G01*
X0425403Y0154941D02*
X0426762Y0154941D01*
G75*
G02*
X0427342Y0154361I0000000J-000581D01*
G01*
X0427342Y0153199D01*
G75*
G02*
X0426762Y0152619I-000581J0000000D01*
G01*
X0425403Y0152619D01*
G75*
G02*
X0424823Y0153199I0000000J0000581D01*
G01*
X0424823Y0154361D01*
G75*
G02*
X0425403Y0154941I0000581J0000000D01*
G01*
G37*
G36*
G01*
X0425403Y0151122D02*
X0426762Y0151122D01*
G75*
G02*
X0427342Y0150542I0000000J-000581D01*
G01*
X0427342Y0149380D01*
G75*
G02*
X0426762Y0148800I-000581J0000000D01*
G01*
X0425403Y0148800D01*
G75*
G02*
X0424823Y0149380I0000000J0000581D01*
G01*
X0424823Y0150542D01*
G75*
G02*
X0425403Y0151122I0000581J0000000D01*
G01*
G37*
G36*
G01*
X0396105Y0161634D02*
X0397464Y0161634D01*
G75*
G02*
X0398044Y0161054I0000000J-000581D01*
G01*
X0398044Y0159892D01*
G75*
G02*
X0397464Y0159311I-000581J0000000D01*
G01*
X0396105Y0159311D01*
G75*
G02*
X0395525Y0159892I0000000J0000581D01*
G01*
X0395525Y0161054D01*
G75*
G02*
X0396105Y0161634I0000581J0000000D01*
G01*
G37*
G36*
G01*
X0396105Y0157815D02*
X0397464Y0157815D01*
G75*
G02*
X0398044Y0157235I0000000J-000581D01*
G01*
X0398044Y0156073D01*
G75*
G02*
X0397464Y0155493I-000581J0000000D01*
G01*
X0396105Y0155493D01*
G75*
G02*
X0395525Y0156073I0000000J0000581D01*
G01*
X0395525Y0157235D01*
G75*
G02*
X0396105Y0157815I0000581J0000000D01*
G01*
G37*
G36*
G01*
X0419183Y0189449D02*
X0417825Y0189449D01*
G75*
G02*
X0417244Y0190030I0000000J0000581D01*
G01*
X0417244Y0191191D01*
G75*
G02*
X0417825Y0191772I0000581J0000000D01*
G01*
X0419183Y0191772D01*
G75*
G02*
X0419764Y0191191I0000000J-000581D01*
G01*
X0419764Y0190030D01*
G75*
G02*
X0419183Y0189449I-000581J0000000D01*
G01*
G37*
G36*
G01*
X0419183Y0193268D02*
X0417825Y0193268D01*
G75*
G02*
X0417244Y0193849I0000000J0000581D01*
G01*
X0417244Y0195010D01*
G75*
G02*
X0417825Y0195591I0000581J0000000D01*
G01*
X0419183Y0195591D01*
G75*
G02*
X0419764Y0195010I0000000J-000581D01*
G01*
X0419764Y0193849D01*
G75*
G02*
X0419183Y0193268I-000581J0000000D01*
G01*
G37*
G36*
G01*
X0426762Y0141122D02*
X0425403Y0141122D01*
G75*
G02*
X0424823Y0141703I0000000J0000581D01*
G01*
X0424823Y0142865D01*
G75*
G02*
X0425403Y0143445I0000581J0000000D01*
G01*
X0426762Y0143445D01*
G75*
G02*
X0427342Y0142865I0000000J-000581D01*
G01*
X0427342Y0141703D01*
G75*
G02*
X0426762Y0141122I-000581J0000000D01*
G01*
G37*
G36*
G01*
X0426762Y0144941D02*
X0425403Y0144941D01*
G75*
G02*
X0424823Y0145522I0000000J0000581D01*
G01*
X0424823Y0146683D01*
G75*
G02*
X0425403Y0147264I0000581J0000000D01*
G01*
X0426762Y0147264D01*
G75*
G02*
X0427342Y0146683I0000000J-000581D01*
G01*
X0427342Y0145522D01*
G75*
G02*
X0426762Y0144941I-000581J0000000D01*
G01*
G37*
G36*
G01*
X0411309Y0193583D02*
X0409951Y0193583D01*
G75*
G02*
X0409370Y0194164I0000000J0000581D01*
G01*
X0409370Y0195325D01*
G75*
G02*
X0409951Y0195906I0000581J0000000D01*
G01*
X0411309Y0195906D01*
G75*
G02*
X0411889Y0195325I0000000J-000581D01*
G01*
X0411889Y0194164D01*
G75*
G02*
X0411309Y0193583I-000581J0000000D01*
G01*
G37*
G36*
G01*
X0411309Y0197402D02*
X0409951Y0197402D01*
G75*
G02*
X0409370Y0197983I0000000J0000581D01*
G01*
X0409370Y0199144D01*
G75*
G02*
X0409951Y0199725I0000581J0000000D01*
G01*
X0411309Y0199725D01*
G75*
G02*
X0411889Y0199144I0000000J-000581D01*
G01*
X0411889Y0197983D01*
G75*
G02*
X0411309Y0197402I-000581J0000000D01*
G01*
G37*
G36*
G01*
X0386693Y0204833D02*
X0386693Y0206191D01*
G75*
G02*
X0387273Y0206772I0000581J0000000D01*
G01*
X0388435Y0206772D01*
G75*
G02*
X0389015Y0206191I0000000J-000581D01*
G01*
X0389015Y0204833D01*
G75*
G02*
X0388435Y0204252I-000581J0000000D01*
G01*
X0387273Y0204252D01*
G75*
G02*
X0386693Y0204833I0000000J0000581D01*
G01*
G37*
G36*
G01*
X0390512Y0204833D02*
X0390512Y0206191D01*
G75*
G02*
X0391092Y0206772I0000581J0000000D01*
G01*
X0392254Y0206772D01*
G75*
G02*
X0392834Y0206191I0000000J-000581D01*
G01*
X0392834Y0204833D01*
G75*
G02*
X0392254Y0204252I-000581J0000000D01*
G01*
X0391092Y0204252D01*
G75*
G02*
X0390512Y0204833I0000000J0000581D01*
G01*
G37*
G36*
G01*
X0415246Y0178721D02*
X0413888Y0178721D01*
G75*
G02*
X0413307Y0179302I0000000J0000581D01*
G01*
X0413307Y0180463D01*
G75*
G02*
X0413888Y0181044I0000581J0000000D01*
G01*
X0415246Y0181044D01*
G75*
G02*
X0415827Y0180463I0000000J-000581D01*
G01*
X0415827Y0179302D01*
G75*
G02*
X0415246Y0178721I-000581J0000000D01*
G01*
G37*
G36*
G01*
X0415246Y0182540D02*
X0413888Y0182540D01*
G75*
G02*
X0413307Y0183120I0000000J0000581D01*
G01*
X0413307Y0184282D01*
G75*
G02*
X0413888Y0184863I0000581J0000000D01*
G01*
X0415246Y0184863D01*
G75*
G02*
X0415827Y0184282I0000000J-000581D01*
G01*
X0415827Y0183120D01*
G75*
G02*
X0415246Y0182540I-000581J0000000D01*
G01*
G37*
G36*
G01*
X0413888Y0177382D02*
X0415246Y0177382D01*
G75*
G02*
X0415827Y0176802I0000000J-000581D01*
G01*
X0415827Y0175640D01*
G75*
G02*
X0415246Y0175059I-000581J0000000D01*
G01*
X0413888Y0175059D01*
G75*
G02*
X0413307Y0175640I0000000J0000581D01*
G01*
X0413307Y0176802D01*
G75*
G02*
X0413888Y0177382I0000581J0000000D01*
G01*
G37*
G36*
G01*
X0413888Y0173563D02*
X0415246Y0173563D01*
G75*
G02*
X0415827Y0172983I0000000J-000581D01*
G01*
X0415827Y0171821D01*
G75*
G02*
X0415246Y0171241I-000581J0000000D01*
G01*
X0413888Y0171241D01*
G75*
G02*
X0413307Y0171821I0000000J0000581D01*
G01*
X0413307Y0172983D01*
G75*
G02*
X0413888Y0173563I0000581J0000000D01*
G01*
G37*
G36*
G01*
X0386693Y0208573D02*
X0386693Y0209932D01*
G75*
G02*
X0387273Y0210512I0000581J0000000D01*
G01*
X0388435Y0210512D01*
G75*
G02*
X0389015Y0209932I0000000J-000581D01*
G01*
X0389015Y0208573D01*
G75*
G02*
X0388435Y0207993I-000581J0000000D01*
G01*
X0387273Y0207993D01*
G75*
G02*
X0386693Y0208573I0000000J0000581D01*
G01*
G37*
G36*
G01*
X0390512Y0208573D02*
X0390512Y0209932D01*
G75*
G02*
X0391092Y0210512I0000581J0000000D01*
G01*
X0392254Y0210512D01*
G75*
G02*
X0392834Y0209932I0000000J-000581D01*
G01*
X0392834Y0208573D01*
G75*
G02*
X0392254Y0207993I-000581J0000000D01*
G01*
X0391092Y0207993D01*
G75*
G02*
X0390512Y0208573I0000000J0000581D01*
G01*
G37*
D286*
X0435531Y0219252D03*
X0431791Y0219252D03*
X0428051Y0219252D03*
X0428051Y0229567D03*
X0435531Y0229567D03*
G36*
G01*
X0417825Y0184764D02*
X0419183Y0184764D01*
G75*
G02*
X0419764Y0184183I0000000J-000581D01*
G01*
X0419764Y0183022D01*
G75*
G02*
X0419183Y0182441I-000581J0000000D01*
G01*
X0417825Y0182441D01*
G75*
G02*
X0417244Y0183022I0000000J0000581D01*
G01*
X0417244Y0184183D01*
G75*
G02*
X0417825Y0184764I0000581J0000000D01*
G01*
G37*
G36*
G01*
X0417825Y0180945D02*
X0419183Y0180945D01*
G75*
G02*
X0419764Y0180365I0000000J-000581D01*
G01*
X0419764Y0179203D01*
G75*
G02*
X0419183Y0178622I-000581J0000000D01*
G01*
X0417825Y0178622D01*
G75*
G02*
X0417244Y0179203I0000000J0000581D01*
G01*
X0417244Y0180365D01*
G75*
G02*
X0417825Y0180945I0000581J0000000D01*
G01*
G37*
G36*
G01*
X0421929Y0197353D02*
X0421929Y0198711D01*
G75*
G02*
X0422510Y0199292I0000581J0000000D01*
G01*
X0423671Y0199292D01*
G75*
G02*
X0424252Y0198711I0000000J-000581D01*
G01*
X0424252Y0197353D01*
G75*
G02*
X0423671Y0196772I-000581J0000000D01*
G01*
X0422510Y0196772D01*
G75*
G02*
X0421929Y0197353I0000000J0000581D01*
G01*
G37*
G36*
G01*
X0425748Y0197353D02*
X0425748Y0198711D01*
G75*
G02*
X0426328Y0199292I0000581J0000000D01*
G01*
X0427490Y0199292D01*
G75*
G02*
X0428071Y0198711I0000000J-000581D01*
G01*
X0428071Y0197353D01*
G75*
G02*
X0427490Y0196772I-000581J0000000D01*
G01*
X0426328Y0196772D01*
G75*
G02*
X0425748Y0197353I0000000J0000581D01*
G01*
G37*
G36*
G01*
X0401496Y0206191D02*
X0401496Y0204833D01*
G75*
G02*
X0400915Y0204252I-000581J0000000D01*
G01*
X0399754Y0204252D01*
G75*
G02*
X0399173Y0204833I0000000J0000581D01*
G01*
X0399173Y0206191D01*
G75*
G02*
X0399754Y0206772I0000581J0000000D01*
G01*
X0400915Y0206772D01*
G75*
G02*
X0401496Y0206191I0000000J-000581D01*
G01*
G37*
G36*
G01*
X0397677Y0206191D02*
X0397677Y0204833D01*
G75*
G02*
X0397096Y0204252I-000581J0000000D01*
G01*
X0395935Y0204252D01*
G75*
G02*
X0395354Y0204833I0000000J0000581D01*
G01*
X0395354Y0206191D01*
G75*
G02*
X0395935Y0206772I0000581J0000000D01*
G01*
X0397096Y0206772D01*
G75*
G02*
X0397677Y0206191I0000000J-000581D01*
G01*
G37*
G36*
G01*
X0402451Y0163071D02*
X0401092Y0163071D01*
G75*
G02*
X0400512Y0163652I0000000J0000581D01*
G01*
X0400512Y0164813D01*
G75*
G02*
X0401092Y0165394I0000581J0000000D01*
G01*
X0402451Y0165394D01*
G75*
G02*
X0403031Y0164813I0000000J-000581D01*
G01*
X0403031Y0163652D01*
G75*
G02*
X0402451Y0163071I-000581J0000000D01*
G01*
G37*
G36*
G01*
X0402451Y0166890D02*
X0401092Y0166890D01*
G75*
G02*
X0400512Y0167471I0000000J0000581D01*
G01*
X0400512Y0168632D01*
G75*
G02*
X0401092Y0169213I0000581J0000000D01*
G01*
X0402451Y0169213D01*
G75*
G02*
X0403031Y0168632I0000000J-000581D01*
G01*
X0403031Y0167471D01*
G75*
G02*
X0402451Y0166890I-000581J0000000D01*
G01*
G37*
G36*
G01*
X0402451Y0155493D02*
X0401092Y0155493D01*
G75*
G02*
X0400512Y0156073I0000000J0000581D01*
G01*
X0400512Y0157235D01*
G75*
G02*
X0401092Y0157815I0000581J0000000D01*
G01*
X0402451Y0157815D01*
G75*
G02*
X0403031Y0157235I0000000J-000581D01*
G01*
X0403031Y0156073D01*
G75*
G02*
X0402451Y0155493I-000581J0000000D01*
G01*
G37*
G36*
G01*
X0402451Y0159311D02*
X0401092Y0159311D01*
G75*
G02*
X0400512Y0159892I0000000J0000581D01*
G01*
X0400512Y0161054D01*
G75*
G02*
X0401092Y0161634I0000581J0000000D01*
G01*
X0402451Y0161634D01*
G75*
G02*
X0403031Y0161054I0000000J-000581D01*
G01*
X0403031Y0159892D01*
G75*
G02*
X0402451Y0159311I-000581J0000000D01*
G01*
G37*
G36*
G01*
X0401496Y0209932D02*
X0401496Y0208573D01*
G75*
G02*
X0400915Y0207993I-000581J0000000D01*
G01*
X0399754Y0207993D01*
G75*
G02*
X0399173Y0208573I0000000J0000581D01*
G01*
X0399173Y0209932D01*
G75*
G02*
X0399754Y0210512I0000581J0000000D01*
G01*
X0400915Y0210512D01*
G75*
G02*
X0401496Y0209932I0000000J-000581D01*
G01*
G37*
G36*
G01*
X0397677Y0209932D02*
X0397677Y0208573D01*
G75*
G02*
X0397096Y0207993I-000581J0000000D01*
G01*
X0395935Y0207993D01*
G75*
G02*
X0395354Y0208573I0000000J0000581D01*
G01*
X0395354Y0209932D01*
G75*
G02*
X0395935Y0210512I0000581J0000000D01*
G01*
X0397096Y0210512D01*
G75*
G02*
X0397677Y0209932I0000000J-000581D01*
G01*
G37*
G36*
G01*
X0411309Y0175571D02*
X0409951Y0175571D01*
G75*
G02*
X0409370Y0176152I0000000J0000581D01*
G01*
X0409370Y0177313D01*
G75*
G02*
X0409951Y0177894I0000581J0000000D01*
G01*
X0411309Y0177894D01*
G75*
G02*
X0411889Y0177313I0000000J-000581D01*
G01*
X0411889Y0176152D01*
G75*
G02*
X0411309Y0175571I-000581J0000000D01*
G01*
G37*
G36*
G01*
X0411309Y0179390D02*
X0409951Y0179390D01*
G75*
G02*
X0409370Y0179971I0000000J0000581D01*
G01*
X0409370Y0181132D01*
G75*
G02*
X0409951Y0181713I0000581J0000000D01*
G01*
X0411309Y0181713D01*
G75*
G02*
X0411889Y0181132I0000000J-000581D01*
G01*
X0411889Y0179971D01*
G75*
G02*
X0411309Y0179390I-000581J0000000D01*
G01*
G37*
G36*
G01*
X0401496Y0213672D02*
X0401496Y0212313D01*
G75*
G02*
X0400915Y0211733I-000581J0000000D01*
G01*
X0399754Y0211733D01*
G75*
G02*
X0399173Y0212313I0000000J0000581D01*
G01*
X0399173Y0213672D01*
G75*
G02*
X0399754Y0214252I0000581J0000000D01*
G01*
X0400915Y0214252D01*
G75*
G02*
X0401496Y0213672I0000000J-000581D01*
G01*
G37*
G36*
G01*
X0397677Y0213672D02*
X0397677Y0212313D01*
G75*
G02*
X0397096Y0211733I-000581J0000000D01*
G01*
X0395935Y0211733D01*
G75*
G02*
X0395354Y0212313I0000000J0000581D01*
G01*
X0395354Y0213672D01*
G75*
G02*
X0395935Y0214252I0000581J0000000D01*
G01*
X0397096Y0214252D01*
G75*
G02*
X0397677Y0213672I0000000J-000581D01*
G01*
G37*
G36*
G01*
X0392834Y0213672D02*
X0392834Y0212313D01*
G75*
G02*
X0392254Y0211733I-000581J0000000D01*
G01*
X0391092Y0211733D01*
G75*
G02*
X0390512Y0212313I0000000J0000581D01*
G01*
X0390512Y0213672D01*
G75*
G02*
X0391092Y0214252I0000581J0000000D01*
G01*
X0392254Y0214252D01*
G75*
G02*
X0392834Y0213672I0000000J-000581D01*
G01*
G37*
G36*
G01*
X0389015Y0213672D02*
X0389015Y0212313D01*
G75*
G02*
X0388435Y0211733I-000581J0000000D01*
G01*
X0387273Y0211733D01*
G75*
G02*
X0386693Y0212313I0000000J0000581D01*
G01*
X0386693Y0213672D01*
G75*
G02*
X0387273Y0214252I0000581J0000000D01*
G01*
X0388435Y0214252D01*
G75*
G02*
X0389015Y0213672I0000000J-000581D01*
G01*
G37*
G36*
G01*
X0398641Y0228485D02*
X0399980Y0228485D01*
G75*
G02*
X0400531Y0227934I0000000J-000551D01*
G01*
X0400531Y0226831D01*
G75*
G02*
X0399980Y0226280I-000551J0000000D01*
G01*
X0398641Y0226280D01*
G75*
G02*
X0398090Y0226831I0000000J0000551D01*
G01*
X0398090Y0227934D01*
G75*
G02*
X0398641Y0228485I0000551J0000000D01*
G01*
G37*
G36*
G01*
X0398641Y0224705D02*
X0399980Y0224705D01*
G75*
G02*
X0400531Y0224154I0000000J-000551D01*
G01*
X0400531Y0223052D01*
G75*
G02*
X0399980Y0222501I-000551J0000000D01*
G01*
X0398641Y0222501D01*
G75*
G02*
X0398090Y0223052I0000000J0000551D01*
G01*
X0398090Y0224154D01*
G75*
G02*
X0398641Y0224705I0000551J0000000D01*
G01*
G37*
G36*
G01*
X0424901Y0173544D02*
X0423445Y0173544D01*
G75*
G02*
X0422913Y0174075I0000000J0000531D01*
G01*
X0422913Y0175138D01*
G75*
G02*
X0423445Y0175670I0000531J0000000D01*
G01*
X0424901Y0175670D01*
G75*
G02*
X0425433Y0175138I0000000J-000531D01*
G01*
X0425433Y0174075D01*
G75*
G02*
X0424901Y0173544I-000531J0000000D01*
G01*
G37*
G36*
G01*
X0424901Y0177559D02*
X0423445Y0177559D01*
G75*
G02*
X0422913Y0178091I0000000J0000531D01*
G01*
X0422913Y0179154D01*
G75*
G02*
X0423445Y0179685I0000531J0000000D01*
G01*
X0424901Y0179685D01*
G75*
G02*
X0425433Y0179154I0000000J-000531D01*
G01*
X0425433Y0178091D01*
G75*
G02*
X0424901Y0177559I-000531J0000000D01*
G01*
G37*
G36*
G01*
X0410368Y0234272D02*
X0410368Y0235729D01*
G75*
G02*
X0410900Y0236260I0000531J0000000D01*
G01*
X0411963Y0236260D01*
G75*
G02*
X0412494Y0235729I0000000J-000531D01*
G01*
X0412494Y0234272D01*
G75*
G02*
X0411963Y0233741I-000531J0000000D01*
G01*
X0410900Y0233741D01*
G75*
G02*
X0410368Y0234272I0000000J0000531D01*
G01*
G37*
G36*
G01*
X0414384Y0234272D02*
X0414384Y0235729D01*
G75*
G02*
X0414916Y0236260I0000531J0000000D01*
G01*
X0415979Y0236260D01*
G75*
G02*
X0416510Y0235729I0000000J-000531D01*
G01*
X0416510Y0234272D01*
G75*
G02*
X0415979Y0233741I-000531J0000000D01*
G01*
X0414916Y0233741D01*
G75*
G02*
X0414384Y0234272I0000000J0000531D01*
G01*
G37*
G36*
G01*
X0386417Y0233662D02*
X0387598Y0233662D01*
G75*
G02*
X0388189Y0233071I0000000J-000591D01*
G01*
X0388189Y0228445D01*
G75*
G02*
X0387598Y0227855I-000591J0000000D01*
G01*
X0386417Y0227855D01*
G75*
G02*
X0385827Y0228445I0000000J0000591D01*
G01*
X0385827Y0233071D01*
G75*
G02*
X0386417Y0233662I0000591J0000000D01*
G01*
G37*
G36*
G01*
X0393897Y0233662D02*
X0395078Y0233662D01*
G75*
G02*
X0395669Y0233071I0000000J-000591D01*
G01*
X0395669Y0228445D01*
G75*
G02*
X0395078Y0227855I-000591J0000000D01*
G01*
X0393897Y0227855D01*
G75*
G02*
X0393307Y0228445I0000000J0000591D01*
G01*
X0393307Y0233071D01*
G75*
G02*
X0393897Y0233662I0000591J0000000D01*
G01*
G37*
G36*
G01*
X0390157Y0226280D02*
X0391338Y0226280D01*
G75*
G02*
X0391929Y0225689I0000000J-000591D01*
G01*
X0391929Y0221063D01*
G75*
G02*
X0391338Y0220473I-000591J0000000D01*
G01*
X0390157Y0220473D01*
G75*
G02*
X0389567Y0221063I0000000J0000591D01*
G01*
X0389567Y0225689D01*
G75*
G02*
X0390157Y0226280I0000591J0000000D01*
G01*
G37*
G36*
G01*
X0424349Y0235709D02*
X0424349Y0234370D01*
G75*
G02*
X0423797Y0233819I-000551J0000000D01*
G01*
X0422695Y0233819D01*
G75*
G02*
X0422144Y0234370I0000000J0000551D01*
G01*
X0422144Y0235709D01*
G75*
G02*
X0422695Y0236260I0000551J0000000D01*
G01*
X0423797Y0236260D01*
G75*
G02*
X0424349Y0235709I0000000J-000551D01*
G01*
G37*
G36*
G01*
X0420569Y0235709D02*
X0420569Y0234370D01*
G75*
G02*
X0420018Y0233819I-000551J0000000D01*
G01*
X0418916Y0233819D01*
G75*
G02*
X0418364Y0234370I0000000J0000551D01*
G01*
X0418364Y0235709D01*
G75*
G02*
X0418916Y0236260I0000551J0000000D01*
G01*
X0420018Y0236260D01*
G75*
G02*
X0420569Y0235709I0000000J-000551D01*
G01*
G37*
G36*
G01*
X0421278Y0204922D02*
X0420097Y0204922D01*
G75*
G02*
X0419506Y0205512I0000000J0000591D01*
G01*
X0419506Y0211221D01*
G75*
G02*
X0420097Y0211811I0000591J0000000D01*
G01*
X0421278Y0211811D01*
G75*
G02*
X0421868Y0211221I0000000J-000591D01*
G01*
X0421868Y0205512D01*
G75*
G02*
X0421278Y0204922I-000591J0000000D01*
G01*
G37*
G36*
G01*
X0416278Y0204922D02*
X0415097Y0204922D01*
G75*
G02*
X0414506Y0205512I0000000J0000591D01*
G01*
X0414506Y0211221D01*
G75*
G02*
X0415097Y0211811I0000591J0000000D01*
G01*
X0416278Y0211811D01*
G75*
G02*
X0416868Y0211221I0000000J-000591D01*
G01*
X0416868Y0205512D01*
G75*
G02*
X0416278Y0204922I-000591J0000000D01*
G01*
G37*
G36*
G01*
X0411278Y0204922D02*
X0410097Y0204922D01*
G75*
G02*
X0409506Y0205512I0000000J0000591D01*
G01*
X0409506Y0211221D01*
G75*
G02*
X0410097Y0211811I0000591J0000000D01*
G01*
X0411278Y0211811D01*
G75*
G02*
X0411868Y0211221I0000000J-000591D01*
G01*
X0411868Y0205512D01*
G75*
G02*
X0411278Y0204922I-000591J0000000D01*
G01*
G37*
G36*
G01*
X0406278Y0204922D02*
X0405097Y0204922D01*
G75*
G02*
X0404506Y0205512I0000000J0000591D01*
G01*
X0404506Y0211221D01*
G75*
G02*
X0405097Y0211811I0000591J0000000D01*
G01*
X0406278Y0211811D01*
G75*
G02*
X0406868Y0211221I0000000J-000591D01*
G01*
X0406868Y0205512D01*
G75*
G02*
X0406278Y0204922I-000591J0000000D01*
G01*
G37*
G36*
G01*
X0406278Y0225197D02*
X0405097Y0225197D01*
G75*
G02*
X0404506Y0225788I0000000J0000591D01*
G01*
X0404506Y0231496D01*
G75*
G02*
X0405097Y0232087I0000591J0000000D01*
G01*
X0406278Y0232087D01*
G75*
G02*
X0406868Y0231496I0000000J-000591D01*
G01*
X0406868Y0225788D01*
G75*
G02*
X0406278Y0225197I-000591J0000000D01*
G01*
G37*
G36*
G01*
X0411278Y0225197D02*
X0410097Y0225197D01*
G75*
G02*
X0409506Y0225788I0000000J0000591D01*
G01*
X0409506Y0231496D01*
G75*
G02*
X0410097Y0232087I0000591J0000000D01*
G01*
X0411278Y0232087D01*
G75*
G02*
X0411868Y0231496I0000000J-000591D01*
G01*
X0411868Y0225788D01*
G75*
G02*
X0411278Y0225197I-000591J0000000D01*
G01*
G37*
G36*
G01*
X0416278Y0225197D02*
X0415097Y0225197D01*
G75*
G02*
X0414506Y0225788I0000000J0000591D01*
G01*
X0414506Y0231496D01*
G75*
G02*
X0415097Y0232087I0000591J0000000D01*
G01*
X0416278Y0232087D01*
G75*
G02*
X0416868Y0231496I0000000J-000591D01*
G01*
X0416868Y0225788D01*
G75*
G02*
X0416278Y0225197I-000591J0000000D01*
G01*
G37*
G36*
G01*
X0421278Y0225197D02*
X0420097Y0225197D01*
G75*
G02*
X0419506Y0225788I0000000J0000591D01*
G01*
X0419506Y0231496D01*
G75*
G02*
X0420097Y0232087I0000591J0000000D01*
G01*
X0421278Y0232087D01*
G75*
G02*
X0421868Y0231496I0000000J-000591D01*
G01*
X0421868Y0225788D01*
G75*
G02*
X0421278Y0225197I-000591J0000000D01*
G01*
G37*
M02*
