M48
INCH,TZ
T01C0.011800
T02C0.024600
T03C0.032500
T04C0.039200
T05C0.043300
T06C0.059100
T07C0.159400
%
T01
X23817Y22617
X25342Y21367
X25421Y22499
X25427Y21023
X25427Y21751
X25456Y20688
X25633Y20048
X26149Y21584
X26149Y20560
X26149Y19792
X29679Y24364
X29938Y24186
X30237Y24049
X22663Y27779
X22663Y27386
X22663Y41953
X22663Y37346
X22663Y37031
X22663Y35811
X22663Y35417
X22663Y35023
X22663Y34630
X22663Y34236
X22663Y33842
X22663Y33449
X22663Y33055
X22663Y30299
X22820Y26401
X23765Y26401
X24238Y26401
X24710Y26401
X25025Y41953
X25183Y26401
X25340Y41953
X25655Y41953
X25655Y26401
X26128Y26401
X26600Y26401
X27072Y26401
X27545Y26401
X28017Y26401
X28490Y26401
X28726Y41953
X28962Y26401
X29041Y41953
X29356Y41953
X29435Y26401
X29671Y41953
X29907Y26401
X29986Y41953
X30380Y26401
X30852Y26401
X31324Y26401
X31797Y26401
X32151Y41953
X32269Y26401
X32466Y41953
X32742Y26401
X32781Y41953
X33096Y41953
X33214Y26401
X33411Y41953
X33687Y26401
X33726Y41953
X34041Y41953
X34159Y26401
X34356Y41953
X34632Y26401
X34671Y41953
X34986Y41953
X35104Y26401
X35301Y41953
X35576Y26401
X35616Y41953
X35931Y41953
X36049Y26401
X36246Y41953
X36521Y26401
X36561Y41953
X36876Y41953
X36954Y26401
X37191Y41953
X37427Y26401
X37506Y41953
X37820Y41953
X37899Y26401
X38135Y41953
X38372Y26401
X38450Y41953
X38765Y41953
X38844Y26401
X39080Y39354
X39080Y39039
X39080Y37464
X39080Y37149
X39080Y36835
X39080Y35575
X39080Y35260
X39080Y31795
X39080Y27583
X39080Y41953
X39080Y40929
X39080Y40614
X39080Y40299
X39080Y39984
X39080Y39669
X39080Y38724
X39080Y38409
X39080Y38094
X39080Y37779
X39080Y36520
X39080Y36205
X39080Y35890
X39080Y34945
X39080Y34630
X39080Y34315
X39080Y34000
X39080Y33685
X39080Y33370
X39080Y33055
X39080Y32740
X39080Y32425
X39080Y32110
X39080Y31480
X39080Y31165
X39080Y30850
X39080Y30535
X39080Y30220
X39080Y27268
X41511Y13124
X41905Y13124
X42299Y13124
X42693Y13124
X43619Y23593
X44019Y23593
X44917Y23593
X45311Y23593
X45704Y23593
X62181Y16195
X62574Y16195
X20345Y26722
X20268Y27121
X20187Y27706
X20187Y28100
X20945Y28360
X21659Y28376
X21943Y28399
X22549Y28218
X22864Y28218
X23430Y28406
X23856Y28406
X24439Y28218
X24754Y28218
X25323Y28388
X25608Y28397
X26296Y28196
X26680Y28196
X27191Y28422
X27633Y28406
X28219Y28218
X28534Y28218
X29114Y28315
X29498Y28376
X30108Y28218
X30423Y28218
X31053Y28376
X31368Y28376
X31998Y28218
X32313Y28218
X32943Y28376
X33258Y28376
X33888Y28218
X34124Y28454
X34400Y29321
X34715Y29202
X34912Y28927
X35266Y28927
X35354Y29852
X34852Y29872
X34915Y30150
X34813Y30994
X35187Y31132
X35291Y31407
X35394Y30895
X35115Y32221
X35107Y32718
X34793Y32746
X34833Y33139
X34715Y33927
X34120Y34003
X33730Y34045
X33396Y34056
X33652Y33769
X33904Y33609
X34067Y34473
X34083Y34860
X33838Y35020
X34224Y35265
X34134Y35973
X34203Y36250
X34085Y37116
X33888Y37470
X34115Y38031
X34136Y38415
X34937Y38119
X35260Y37898
X35643Y37874
X35222Y39334
X35173Y39984
X35392Y40167
X34830Y40582
X34106Y40775
X33730Y40462
X33486Y40610
X33337Y41289
X33061Y41171
X34283Y41378
X34561Y41252
X34705Y41771
X35020Y41872
X35643Y41316
X31734Y41306
X31436Y41356
X31490Y40717
X31829Y40507
X32426Y39832
X32234Y39596
X31998Y39360
X31171Y39124
X30552Y39020
X30581Y39360
X30271Y38932
X30069Y38730
X30226Y37785
X30660Y37761
X31486Y38021
X31801Y38021
X31945Y37605
X32589Y37706
X32628Y38415
X32856Y38586
X33179Y37943
X33179Y36998
X32234Y36683
X31919Y36683
X31998Y36116
X31919Y35147
X32313Y35147
X32591Y35624
X33305Y35733
X33169Y34976
X33183Y34599
X32116Y34517
X32195Y33798
X32510Y33809
X31622Y33724
X31841Y32943
X32156Y32864
X32786Y32982
X33032Y32837
X33326Y32589
X32963Y32116
X32569Y32116
X31919Y31801
X31604Y31804
X31289Y31801
X30660Y31937
X30393Y32126
X30502Y32667
X30715Y32903
X30865Y32498
X29872Y32667
X29951Y32943
X29085Y32982
X29006Y32628
X29006Y31801
X29321Y31804
X29636Y31840
X29912Y31407
X29912Y31092
X29921Y30807
X30148Y30265
X30738Y30265
X31112Y30502
X31112Y31132
X30679Y30994
X32136Y30856
X32131Y31146
X32963Y30994
X33396Y31132
X33396Y30502
X33022Y30265
X32431Y30265
X31860Y29517
X31353Y29419
X31068Y29419
X29464Y29419
X29178Y29419
X28905Y29503
X28829Y30502
X28455Y30265
X27904Y30265
X27569Y30856
X27564Y31146
X27373Y31816
X27038Y31804
X26723Y31801
X26545Y31132
X26112Y30994
X26211Y30265
X26545Y30502
X26783Y29535
X27288Y29380
X27574Y29419
X26041Y29775
X25684Y29419
X25399Y29419
X25384Y30069
X25334Y30770
X25315Y31447
X25328Y31742
X25315Y32101
X25305Y32588
X25345Y33021
X24965Y33149
X24680Y33169
X24518Y32667
X24656Y32234
X24124Y32234
X23665Y32497
X23503Y32738
X23101Y32858
X22882Y32629
X22483Y32912
X22805Y33258
X23297Y33344
X23364Y33827
X23330Y34163
X23376Y34547
X23376Y34832
X23376Y35384
X23337Y36132
X23534Y36722
X23288Y36924
X23479Y37381
X23430Y37955
X22975Y38613
X23012Y39124
X22313Y39439
X22385Y38545
X22229Y38061
X21841Y37982
X21447Y37978
X20859Y38546
X20463Y38533
X20187Y37667
X20187Y37352
X20226Y36958
X20187Y36132
X20187Y35738
X20187Y35344
X20187Y34950
X20187Y34557
X20187Y34163
X20187Y33769
X20187Y33376
X20328Y32855
X20842Y32649
X21368Y32332
X21683Y32470
X21860Y32232
X22520Y32027
X22533Y31742
X22520Y31447
X22549Y31092
X22068Y31235
X21566Y31242
X21723Y30817
X21606Y30491
X21994Y30463
X21663Y30069
X21624Y29517
X21905Y29419
X22667Y29488
X23140Y29488
X23509Y29419
X23794Y29419
X24203Y29478
X24557Y29439
X24144Y30069
X24203Y30502
X24518Y30817
X24380Y31210
X25010Y31210
X24884Y30377
X23140Y30502
X22904Y30069
X23680Y31099
X23721Y31382
X23652Y31958
X23809Y33159
X24209Y33475
X24254Y34660
X24213Y35265
X24191Y35679
X24203Y36250
X24213Y36761
X24213Y37470
X24254Y38494
X24154Y38764
X25057Y38873
X25055Y38552
X25081Y39487
X25285Y39688
X25728Y39616
X25778Y39202
X25778Y38917
X25778Y38096
X25764Y37707
X25241Y37706
X25241Y37421
X25527Y37402
X25738Y37155
X25660Y36801
X25773Y36348
X26679Y36355
X26962Y36464
X26841Y36722
X26592Y37039
X26604Y35935
X26752Y35153
X26841Y34754
X26654Y34409
X26368Y33494
X25839Y33478
X25696Y33734
X25660Y32736
X26014Y32443
X26094Y32133
X26762Y32667
X27247Y32681
X27234Y32966
X27395Y33947
X27803Y33990
X27864Y33711
X28140Y34006
X28789Y34030
X28780Y33745
X29203Y34025
X29454Y33888
X29941Y34421
X29048Y34714
X28565Y34718
X28829Y35078
X29163Y35580
X29636Y36053
X28730Y36092
X28258Y37273
X27943Y37234
X27664Y36736
X27195Y36299
X27667Y35108
X25817Y35305
X25581Y34714
X25266Y34773
X24856Y34837
X25069Y36821
X26594Y38288
X26604Y38730
X26526Y39360
X26534Y39645
X26666Y40119
X26594Y40396
X26723Y40895
X26270Y41480
X27038Y42035
X27834Y42148
X28159Y42103
X28447Y42145
X28766Y42142
X29080Y42136
X28691Y41250
X28071Y41279
X27785Y41279
X27500Y41289
X27645Y40284
X27707Y39990
X27362Y39478
X27510Y38730
X27352Y38218
X28258Y38139
X28613Y38051
X28888Y37785
X28691Y38927
X28238Y38651
X29400Y39360
X28927Y39832
X28927Y40770
X29321Y40974
X29661Y41373
X30610Y41291
X29793Y40029
X30108Y36576
X30620Y36694
X30842Y36513
X31062Y36694
X31240Y36471
X31093Y35305
X30581Y35108
X30463Y35817
X28378Y32894
X28140Y32549
X28002Y32116
X28297Y32116
X28396Y30994
X28829Y31132
X28612Y26919
X28849Y26722
X29085Y26919
X29321Y26722
X29557Y26919
X29793Y26722
X30030Y26919
X30266Y26722
X30502Y26919
X30738Y26722
X30975Y26919
X31211Y26722
X31447Y26919
X31683Y26722
X31919Y26919
X32156Y26722
X32392Y26919
X32628Y26722
X32864Y26919
X33101Y26722
X33337Y26919
X33573Y26722
X33809Y26919
X34045Y26722
X34478Y26722
X34715Y26919
X34951Y26722
X35187Y26919
X35423Y26722
X35660Y26919
X35356Y27626
X34883Y27626
X33849Y29478
X33243Y29419
X32958Y29419
X33573Y31801
X33888Y31804
X34203Y31801
X34489Y31746
X35591Y34763
X33297Y39124
X33338Y39406
X25857Y39993
X25533Y40324
X25608Y40600
X25284Y40465
X24892Y40915
X24624Y40799
X24334Y40638
X24034Y40625
X24085Y40344
X24321Y39714
X24696Y39449
X24825Y41299
X24154Y41143
X23402Y40836
X23033Y40991
X23014Y40696
X23164Y40292
X22835Y40305
X22341Y40504
X21478Y40302
X21069Y40211
X21132Y40777
X20286Y40856
X20266Y40462
X20856Y41742
X20896Y42195
X21978Y42195
X22618Y41398
X23358Y41495
X24378Y42037
X25384Y41919
X21339Y39359
X21171Y39124
X22143Y37406
X21753Y36000
X22559Y35974
X22559Y35265
X22559Y34557
X22559Y33848
X22124Y33464
X21809Y33695
X21439Y33020
X20315Y32067
X20925Y31447
X20600Y30777
X20187Y30620
X20423Y30069
X20226Y29478
X20778Y29281
X20541Y28799
X21177Y29614
X21053Y30403
X20778Y27313
X20821Y26753
X21053Y26919
X21289Y26722
X21526Y26919
X21762Y26722
X21998Y26919
X22234Y26722
X22471Y26919
X22707Y26722
X22943Y26919
X23179Y26722
X23415Y26919
X23652Y26722
X23888Y26919
X24124Y26722
X24360Y26919
X24597Y26722
X24833Y26919
X25069Y26722
X25305Y26919
X25541Y26722
X25778Y26919
X26014Y26722
X26250Y26919
X26486Y26722
X26723Y26919
X26959Y26722
X27195Y26919
X27431Y26722
X27667Y26919
X27904Y26722
X28140Y26919
X28376Y26722
X20738Y36525
X35776Y36685
X35738Y37450
X35925Y37666
X36604Y37785
X36604Y38100
X36604Y38415
X36604Y38730
X36604Y39045
X36604Y39360
X36604Y39675
X36604Y39990
X36604Y40305
X36604Y40620
X36604Y40935
X36604Y41250
X36526Y41565
X36203Y41250
X36331Y40420
X36366Y39202
X36366Y38258
X35749Y38600
X36604Y37470
X36604Y37155
X36604Y36840
X36604Y36525
X36604Y36210
X36604Y35895
X36604Y35580
X36604Y35265
X36604Y34950
X36604Y34635
X36604Y34321
X36604Y34006
X36604Y33691
X36604Y33376
X36604Y33061
X36604Y32746
X36604Y32431
X36604Y32116
X36604Y31801
X36604Y31486
X36604Y31171
X36604Y30856
X36604Y30541
X35776Y30416
X35778Y29714
X36093Y29557
X36238Y29803
X36211Y29242
X36329Y28927
X36408Y28651
X36408Y28258
X36604Y27903
X36604Y27588
X36260Y27618
X35798Y27619
X35896Y26722
X36132Y26919
X36368Y26722
X36565Y27037
X36093Y31092
X35753Y31147
X36321Y34041
X35994Y35630
X35699Y35630
X35975Y42273
X36289Y42273
X36604Y42273
X35660Y42273
X35345Y42273
X35030Y42273
X34715Y42273
X34400Y42273
X34085Y42273
X33770Y42273
X33455Y42273
X33140Y42273
X32825Y42273
X32510Y42273
X32195Y42273
X31880Y42273
X31565Y42273
X31250Y42273
X30935Y42273
X30620Y42273
X30305Y42273
X29990Y42273
X29675Y42273
X27510Y42273
X27195Y42273
X26880Y42273
X26565Y42273
X26250Y42273
X24114Y42247
X23179Y42273
X22864Y42273
X22549Y42273
X20187Y42273
X61333Y11034
X60697Y10762
X60312Y10976
X59883Y10335
X59547Y10295
X58957Y10492
X58701Y10768
X58170Y10886
X57874Y10492
X58366Y10295
X57185Y10295
X55610Y10295
X55630Y10768
X55338Y11879
X55363Y12926
X55651Y13248
X55726Y14301
X55610Y15413
X55610Y16201
X56614Y15728
X56620Y15083
X57866Y15143
X57776Y15610
X58256Y15778
X57973Y16201
X59141Y15779
X59313Y16475
X59705Y16516
X60099Y16516
X60005Y15834
X60494Y15524
X60811Y15911
X61241Y15514
X60862Y15125
X60138Y15050
X59705Y15098
X60690Y13782
X61319Y13782
X61333Y12863
X61333Y12008
X60691Y12231
X59666Y12815
X58219Y13208
X58170Y12461
X57660Y12894
X56662Y13483
X54705Y14429
X54638Y15361
X54233Y15413
X54429Y16201
X55020Y15807
X53880Y13333
X53474Y13375
X53890Y12546
X54293Y12281
X54216Y10844
X54851Y11253
X55084Y10413
X40768Y23977
X43698Y23902
X42028Y23858
X38662Y23858
X38852Y23625
X40132Y23569
X40443Y23569
X43466Y23415
X41875Y23187
X42573Y23095
X39945Y23032
X39012Y22895
X38740Y22603
X43780Y22500
X43143Y22454
X42766Y22412
X41459Y22337
X40222Y22333
X38701Y22057
X40787Y21976
X39498Y21851
X41447Y21791
X42494Y21782
X40737Y21673
X38662Y21575
X43785Y20778
X39469Y20610
X41274Y20320
X42213Y20090
X40713Y20089
X41506Y20088
X41749Y19882
X38563Y19862
X41408Y19804
X42785Y19497
X40650Y19289
X42734Y19200
X38593Y19075
X42087Y19059
X42740Y18890
X39307Y18872
X40689Y18799
X41689Y18740
X42364Y18587
X39390Y18583
X40123Y18282
X43089Y18264
X43390Y18256
X38583Y17884
X43221Y17677
X43806Y17652
X42922Y17643
X43587Y17386
X41945Y17248
X41098Y17202
X40585Y17132
X39685Y17132
X39384Y17132
X39083Y17132
X38782Y17132
X40177Y17128
X41713Y16752
X41496Y16496
X38541Y14421
X40290Y14204
X43543Y14164
X43130Y14016
X40197Y13917
X42549Y13878
X42274Y13878
X41998Y13878
X43110Y13701
X38534Y13681
X42549Y13573
X42274Y13573
X43524Y13376
X43229Y23914
X42835Y23914
X42441Y23914
X41543Y23914
X41143Y23914
X40217Y13445
X39823Y13445
X39429Y13445
X39036Y13445
X23157Y20370
X23673Y20114
X23673Y20882
X22980Y21010
X22951Y21344
X22866Y21689
X22951Y22073
X22945Y22821
X23673Y21905
X21340Y22939
T02
X44297Y43112G85X44061Y43112
X44297Y39710G85X44061Y39710
X46041Y43112G85X45608Y43112
X46041Y39710G85X45608Y39710
X45628Y42549
X45628Y40273
T03
X48480Y43577
X48480Y42592
X48480Y41608
X48480Y40624
X48480Y39640
X26053Y32824
X27746Y32706
X29478Y32746
X31368Y32706
X32510Y32706
X33691Y32706
X34203Y33179
T04
X38962Y6618
X38962Y5043
X40143Y6618
X40143Y5043
X41324Y6618
X41324Y5043
X42506Y6618
X42506Y5043
X43687Y6618
X43687Y5043
X44868Y6618
X44868Y5043
X46049Y6618
X46049Y5043
X47230Y6618
X47230Y5043
X48411Y6618
X48411Y5043
X49592Y6618
X49592Y5043
X51679Y6618
X51679Y5043
X52860Y6618
X52860Y5043
X54041Y6618
X54041Y5043
X55222Y6618
X55222Y5043
X56098Y9915
X56275Y16018
X56403Y6618
X56403Y5043
X56826Y9915
X57584Y6618
X57584Y5043
X58766Y6618
X58766Y5043
X58775Y9915
X58795Y16018
X59543Y16018
X59947Y6618
X59947Y5043
X61236Y16018
X63519Y9915
X63696Y16018
X20502Y41958
X23644Y41198
X23644Y41998
X25644Y41598
X61044Y10236
X56299Y10236
X56319Y16339
X57067Y16339
X58760Y16339
X61221Y16339
X53799Y16339
X53622Y10236
X54351Y10236
X39547Y16591
X40729Y15803
X39547Y15016
X39469Y23717
X39869Y21717
X39069Y21717
T05
X43356Y16768
X43356Y15768
X43356Y14768
T06
X19750Y8901
X19750Y5752
X20734Y7327
X21718Y8901
X21718Y5752
X22702Y7327
X23687Y5752
X24671Y7327
X25655Y5752
X26639Y7327
X27624Y8901
X27624Y5752
X28608Y7327
X29592Y8901
X29592Y5752
T07
X16600Y3783
X32742Y3783
X36226Y2878
X62683Y2878
M30
