M48
INCH,TZ
T01C0.039400
T02C0.059100
T03C0.159400
%
T01
X38884Y6500
X38884Y4925
X40065Y6500
X40065Y4925
X41246Y6500
X41246Y4925
X42427Y6500
X42427Y4925
X43608Y6500
X43608Y4925
X44789Y6500
X44789Y4925
X45970Y6500
X45970Y4925
X47152Y6500
X47152Y4925
X48333Y6500
X48333Y4925
X49514Y6500
X49514Y4925
X51600Y6500
X51600Y4925
X52782Y6500
X52782Y4925
X53963Y6500
X53963Y4925
X55144Y6500
X55144Y4925
X56325Y6500
X56325Y4925
X57506Y6500
X57506Y4925
X58687Y6500
X58687Y4925
X59868Y6500
X59868Y4925
T02
X19671Y8783
X19671Y5634
X20655Y7209
X21640Y8783
X21640Y5634
X22624Y7209
X23608Y5634
X24593Y7209
X25577Y5634
X26561Y7209
X27545Y8783
X27545Y5634
X28530Y7209
X29514Y8783
X29514Y5634
T03
X16522Y3665
X32663Y3665
X36148Y2760
X62604Y2760
M30
