G75*
G70*
%OFA0B0*%
%FSLAX25Y25*%
%IPPOS*%
%LPD*%
%AMOC8*
5,1,8,0,0,1.08239X$1,22.5*
%
%ADD69C,0.00394*%
X0000000Y0000000D02*
%LPD*%
G01*
D69*
X0057421Y0010511D02*
X0057421Y0007913D01*
X0648484Y0723661D02*
G75*
G02*
X0632736Y0723661I-007874J0000000D01*
G01*
X0632736Y0723661D02*
G75*
G02*
X0648484Y0723661I0007874J0000000D01*
G01*
X0033799Y0034134D02*
G75*
G02*
X0057422Y0010511I0000000J-023622D01*
G01*
X0651910Y0007874D02*
X0651910Y0010551D01*
X0685374Y0696927D02*
G75*
G02*
X0661752Y0720866I0000000J0023624D01*
G01*
X0065335Y0000000D02*
G75*
G02*
X0057422Y0007913I0000000J0007913D01*
G01*
X0701595Y0696929D02*
G75*
G02*
X0709429Y0689094I0000000J-007835D01*
G01*
X0709429Y0042008D02*
G75*
G02*
X0701555Y0034134I-007874J0000000D01*
G01*
X0651910Y0007874D02*
G75*
G02*
X0644036Y0000000I-007874J0000000D01*
G01*
X0653878Y0740866D02*
G75*
G02*
X0661752Y0732992I0000000J-007874D01*
G01*
X0693760Y0056338D02*
G75*
G02*
X0678012Y0056338I-007874J0000000D01*
G01*
X0678012Y0056338D02*
G75*
G02*
X0693760Y0056338I0007874J0000000D01*
G01*
X0701555Y0034134D02*
X0675571Y0034185D01*
X0087461Y0020905D02*
G75*
G02*
X0071713Y0020905I-007874J0000000D01*
G01*
X0071713Y0020905D02*
G75*
G02*
X0087461Y0020905I0007874J0000000D01*
G01*
X0709429Y0689094D02*
X0709429Y0042008D01*
X0055414Y0740866D02*
X0653878Y0740866D01*
X0065335Y0000000D02*
X0644036Y0000000D01*
X0000000Y0689094D02*
X0000000Y0041614D01*
X0047658Y0733110D02*
G75*
G02*
X0055414Y0740866I0007756J0000000D01*
G01*
X0007855Y0696949D02*
X0024036Y0696949D01*
X0007481Y0034134D02*
G75*
G02*
X0000000Y0041614I0000000J0007480D01*
G01*
X0047658Y0720838D02*
G75*
G02*
X0024036Y0696949I-023622J-000266D01*
G01*
X0701595Y0696927D02*
X0685374Y0696927D01*
X0695729Y0416737D02*
G75*
G02*
X0679981Y0416737I-007874J0000000D01*
G01*
X0679981Y0416737D02*
G75*
G02*
X0695729Y0416737I0007874J0000000D01*
G01*
X0651910Y0010551D02*
G75*
G02*
X0675571Y0034185I0023726J-000092D01*
G01*
X0000000Y0689094D02*
G75*
G02*
X0007855Y0696948I0007854J0000000D01*
G01*
X0007481Y0034134D02*
X0033799Y0034134D01*
X0040217Y0398858D02*
G75*
G02*
X0024469Y0398858I-007874J0000000D01*
G01*
X0024469Y0398858D02*
G75*
G02*
X0040217Y0398858I0007874J0000000D01*
G01*
X0077618Y0723661D02*
G75*
G02*
X0061870Y0723661I-007874J0000000D01*
G01*
X0061870Y0723661D02*
G75*
G02*
X0077618Y0723661I0007874J0000000D01*
G01*
X0047658Y0733110D02*
X0047658Y0720838D01*
X0661752Y0732992D02*
X0661752Y0720866D01*
X0039862Y0396161D02*
G01*
G75*
X0614961Y0101378D02*
G01*
G75*
X0521260Y0381785D02*
G01*
G75*
X0145571Y0179744D02*
G01*
G75*
M02*
