M48
INCH,TZ
T01C0.011800
T02C0.024600
T03C0.032500
T04C0.039200
T05C0.043300
T06C0.059100
T07C0.159400
%
T01
X12082Y18313
X12200Y19917
X12948Y19923
X13116Y20645
X13332Y19838
X13677Y19923
X14011Y19953
X14139Y20645
X14651Y20130
X14907Y20645
X6580Y35240
X6580Y34295
X6580Y32878
X6580Y31933
X6580Y27681
X6580Y26264
X6580Y24413
X6580Y22996
X6580Y39020
X6580Y38075
X6580Y37602
X6580Y37130
X6580Y36657
X6580Y36185
X6580Y35712
X6580Y34768
X6580Y33823
X6580Y33350
X6580Y32405
X6580Y31460
X6580Y30988
X6580Y30516
X6580Y30043
X6580Y29571
X6580Y29098
X6580Y28626
X6580Y28153
X6580Y27209
X6580Y26736
X6580Y25791
X6580Y25319
X6580Y24886
X6580Y23941
X6580Y23468
X7446Y22760
X7565Y39177
X7761Y22760
X7958Y39177
X10399Y22760
X10478Y39177
X10714Y22760
X11029Y22760
X11344Y22760
X11659Y22760
X11974Y22760
X12289Y22760
X12604Y22760
X12919Y22760
X13234Y22760
X13234Y39177
X13549Y22760
X13628Y39177
X13864Y22760
X14021Y39177
X14179Y22760
X14415Y39177
X14494Y22760
X14809Y22760
X14809Y39177
X15124Y22760
X15202Y39177
X15439Y22760
X15596Y39177
X15754Y22760
X15990Y39177
X16069Y22760
X16383Y22760
X16698Y22760
X17013Y22760
X17210Y39177
X17328Y22760
X17525Y39177
X17643Y22760
X17958Y22760
X18273Y22760
X18588Y22760
X18903Y22760
X19218Y22760
X19533Y22760
X19848Y22760
X20163Y22760
X20478Y22760
X20793Y22760
X21108Y22760
X22132Y39177
X22132Y36815
X22132Y36500
X22132Y36185
X22132Y33114
X22132Y32799
X22132Y32484
X22132Y32169
X22132Y31854
X22132Y29689
X22132Y29374
X22132Y28744
X22132Y28429
X22132Y28114
X22132Y27799
X22132Y26854
X22132Y26539
X22132Y26224
X22132Y25909
X22132Y25594
X22132Y25279
X22132Y24649
X22132Y24335
X22132Y24020
X22132Y23705
X22132Y22760
X22132Y29059
X22132Y27484
X22132Y27169
X22132Y24964
X22132Y23390
X22132Y23075
X54822Y42700
X54822Y42306
X54822Y41913
X54822Y41015
X54822Y40615
X62161Y16392
X62555Y16392
X65291Y39688
X65291Y39294
X65291Y38901
X65291Y38507
X4104Y39340
X4503Y39417
X5088Y39498
X5482Y39498
X5742Y38740
X5758Y38026
X5781Y37742
X5600Y37136
X5600Y36821
X5788Y36255
X5788Y35829
X5600Y35246
X5600Y34931
X5770Y34362
X5779Y34077
X5578Y33389
X5578Y33005
X5804Y32494
X5788Y32052
X5600Y31466
X5600Y31151
X5697Y30571
X5758Y30187
X5600Y29577
X5600Y29262
X5758Y28632
X5758Y28317
X5600Y27687
X5600Y27372
X5758Y26742
X5758Y26427
X5600Y25797
X5836Y25561
X6703Y25285
X6584Y24970
X6309Y24773
X6309Y24419
X7234Y24331
X7254Y24833
X7532Y24770
X8376Y24872
X8514Y24498
X8789Y24394
X8277Y24291
X9603Y24570
X10100Y24578
X10128Y24892
X10521Y24852
X11309Y24970
X11385Y25565
X11427Y25955
X11438Y26289
X11151Y26033
X10991Y25781
X11855Y25618
X12242Y25602
X12402Y25847
X12647Y25461
X13355Y25551
X13632Y25482
X14498Y25600
X14852Y25797
X15413Y25570
X15797Y25549
X15501Y24748
X15280Y24425
X15256Y24042
X16716Y24463
X17366Y24512
X17549Y24293
X17964Y24855
X18157Y25579
X17844Y25955
X17992Y26199
X18671Y26348
X18553Y26624
X18760Y25402
X18634Y25124
X19153Y24980
X19254Y24665
X18698Y24042
X18688Y27951
X18738Y28249
X18099Y28195
X17889Y27856
X17214Y27259
X16978Y27451
X16742Y27687
X16506Y28514
X16402Y29133
X16742Y29104
X16314Y29414
X16112Y29616
X15167Y29459
X15143Y29025
X15403Y28199
X15403Y27884
X14987Y27740
X15088Y27096
X15797Y27057
X15968Y26829
X15325Y26506
X14380Y26506
X14065Y27451
X14065Y27766
X13498Y27687
X12529Y27766
X12529Y27372
X13006Y27094
X13115Y26380
X12358Y26516
X11981Y26502
X11899Y27569
X11180Y27490
X11191Y27175
X11106Y28063
X10325Y27844
X10246Y27529
X10364Y26899
X10219Y26653
X9971Y26359
X9498Y26722
X9498Y27116
X9183Y27766
X9186Y28081
X9183Y28396
X9319Y29025
X9508Y29292
X10049Y29183
X10285Y28970
X9880Y28820
X10049Y29813
X10325Y29734
X10364Y30600
X10010Y30679
X9183Y30679
X9186Y30364
X9222Y30049
X8789Y29773
X8474Y29773
X8189Y29764
X7647Y29537
X7647Y28947
X7884Y28573
X8514Y28573
X8376Y29006
X8238Y27549
X8528Y27554
X8376Y26722
X8514Y26289
X7884Y26289
X7647Y26663
X7647Y27254
X6899Y27825
X6801Y28332
X6801Y28617
X6801Y30221
X6801Y30507
X6885Y30780
X7884Y30856
X7647Y31230
X7647Y31781
X8238Y32116
X8528Y32121
X9198Y32312
X9186Y32647
X9183Y32962
X8514Y33140
X8376Y33573
X7647Y33474
X7884Y33140
X6917Y32902
X6762Y32397
X6801Y32111
X7157Y33644
X6801Y34001
X6801Y34286
X7451Y34301
X8152Y34351
X8829Y34370
X9124Y34357
X9483Y34370
X9970Y34380
X10403Y34340
X10531Y34720
X10551Y35005
X10049Y35167
X9616Y35029
X9616Y35561
X9879Y36020
X10120Y36182
X10240Y36584
X10011Y36803
X10294Y37202
X10640Y36880
X10726Y36388
X11209Y36321
X11545Y36355
X11929Y36309
X12214Y36309
X12766Y36309
X13514Y36348
X14104Y36151
X14306Y36397
X14763Y36206
X15337Y36255
X15995Y36710
X16506Y36673
X16821Y37372
X15927Y37300
X15443Y37456
X15364Y37844
X15360Y38238
X15928Y38826
X15915Y39222
X15049Y39498
X14734Y39498
X14340Y39459
X13514Y39498
X13120Y39498
X12726Y39498
X12332Y39498
X11939Y39498
X11545Y39498
X11151Y39498
X10758Y39498
X10237Y39357
X10031Y38843
X9714Y38317
X9852Y38002
X9614Y37825
X9409Y37165
X9124Y37152
X8829Y37165
X8474Y37136
X8617Y37617
X8624Y38119
X8199Y37962
X7873Y38079
X7845Y37691
X7451Y38022
X6899Y38061
X6801Y37780
X6870Y37018
X6870Y36545
X6801Y36176
X6801Y35891
X6860Y35482
X6821Y35128
X7451Y35541
X7884Y35482
X8199Y35167
X8592Y35305
X8592Y34675
X7759Y34801
X7884Y36545
X7451Y36781
X8481Y36005
X8764Y35964
X9340Y36033
X10541Y35876
X10857Y35476
X12042Y35431
X12647Y35472
X13061Y35494
X13632Y35482
X14143Y35472
X14852Y35472
X15876Y35431
X16146Y35531
X16255Y34628
X15934Y34630
X16869Y34604
X17070Y34400
X16998Y33957
X16584Y33907
X16299Y33907
X15478Y33907
X15089Y33921
X15088Y34444
X14803Y34444
X14784Y34158
X14537Y33947
X14183Y34025
X13730Y33912
X13737Y33006
X13846Y32723
X14104Y32844
X14421Y33093
X13317Y33081
X12535Y32933
X12136Y32844
X11791Y33031
X10876Y33317
X10860Y33846
X11116Y33989
X10118Y34025
X9825Y33671
X9515Y33591
X10049Y32923
X10063Y32438
X10348Y32451
X11329Y32290
X11372Y31882
X11093Y31821
X11388Y31545
X11412Y30896
X11127Y30905
X11407Y30482
X11270Y30231
X11803Y29744
X12096Y30637
X12100Y31120
X12460Y30856
X12962Y30522
X13435Y30049
X13474Y30955
X14655Y31427
X14616Y31742
X14118Y32021
X13681Y32490
X12490Y32018
X12687Y33868
X12096Y34104
X12155Y34419
X12219Y34829
X14203Y34616
X15670Y33091
X16112Y33081
X16742Y33159
X17027Y33151
X17501Y33019
X17778Y33091
X18277Y32962
X18862Y33415
X19417Y32647
X19530Y31851
X19485Y31526
X19527Y31238
X19524Y30919
X19518Y30605
X18632Y30994
X18661Y31614
X18661Y31900
X18671Y32185
X17666Y32040
X17372Y31978
X16860Y32323
X16112Y32175
X15600Y32333
X15521Y31427
X15433Y31072
X15167Y30797
X16309Y30994
X16033Y31447
X16742Y30285
X17214Y30758
X18152Y30758
X18356Y30364
X18755Y30024
X18673Y29075
X17411Y29892
X13958Y29577
X14076Y29065
X13895Y28843
X14076Y28623
X13853Y28445
X12687Y28592
X12490Y29104
X13199Y29222
X10276Y31307
X9931Y31545
X9498Y31683
X9498Y31388
X8376Y31289
X8514Y30856
X4301Y31073
X4104Y30836
X4301Y30600
X4104Y30364
X4301Y30128
X4104Y29892
X4301Y29655
X4104Y29419
X4301Y29183
X4104Y28947
X4301Y28710
X4104Y28474
X4301Y28238
X4104Y28002
X4301Y27766
X4104Y27529
X4301Y27293
X4104Y27057
X4301Y26821
X4104Y26584
X4301Y26348
X4104Y26112
X4301Y25876
X4104Y25640
X4104Y25207
X4301Y24970
X4104Y24734
X4301Y24498
X4104Y24262
X4301Y24025
X5008Y24329
X5008Y24802
X6860Y25836
X6801Y26442
X6801Y26727
X9183Y26112
X9186Y25797
X9183Y25482
X9128Y25196
X12145Y24094
X16506Y26388
X16788Y26347
X17375Y33828
X17706Y34152
X17982Y34077
X17847Y34401
X18297Y34793
X18181Y35061
X18020Y35351
X18007Y35651
X17726Y35600
X17096Y35364
X16831Y34989
X18681Y34860
X18525Y35531
X18218Y36283
X18373Y36652
X18078Y36671
X17674Y36521
X17687Y36850
X17886Y37344
X17684Y38207
X17593Y38616
X18159Y38553
X18238Y39399
X17844Y39419
X19124Y38829
X19577Y38789
X19577Y37707
X18780Y37067
X18877Y36327
X19419Y35307
X19301Y34301
X16741Y38346
X16506Y38514
X14788Y37542
X13382Y37932
X13356Y37126
X12647Y37126
X11939Y37126
X11230Y37126
X10846Y37561
X11077Y37876
X10402Y38246
X9449Y39370
X8829Y38760
X8159Y39085
X8002Y39498
X7451Y39262
X6860Y39459
X6663Y38907
X6181Y39144
X6996Y38508
X7785Y38632
X4695Y38907
X4135Y38864
X4301Y38632
X4104Y38396
X4301Y38159
X4104Y37923
X4301Y37687
X4104Y37451
X4301Y37214
X4104Y36978
X4301Y36742
X4104Y36506
X4301Y36270
X4104Y36033
X4301Y35797
X4104Y35561
X4301Y35325
X4104Y35088
X4301Y34852
X4104Y34616
X4301Y34380
X4104Y34144
X4301Y33907
X4104Y33671
X4301Y33435
X4104Y33199
X4301Y32962
X4104Y32726
X4301Y32490
X4104Y32254
X4301Y32018
X4104Y31781
X4301Y31545
X4104Y31309
X13907Y38947
X14067Y23909
X14832Y23947
X15048Y23760
X15167Y23081
X15482Y23081
X15797Y23081
X16112Y23081
X16427Y23081
X16742Y23081
X17057Y23081
X17372Y23081
X17687Y23081
X18002Y23081
X18317Y23081
X18632Y23081
X18947Y23159
X18632Y23482
X17802Y23354
X16584Y23319
X15640Y23319
X15982Y23936
X14852Y23081
X14537Y23081
X14222Y23081
X13907Y23081
X13592Y23081
X13277Y23081
X12962Y23081
X12647Y23081
X12332Y23081
X12017Y23081
X11703Y23081
X11388Y23081
X11073Y23081
X10758Y23081
X10443Y23081
X10128Y23081
X9813Y23081
X9498Y23081
X9183Y23081
X8868Y23081
X8553Y23081
X8238Y23081
X7923Y23081
X7798Y23909
X7096Y23907
X6939Y23592
X7185Y23447
X6624Y23474
X6309Y23356
X6033Y23277
X5640Y23277
X5285Y23081
X4970Y23081
X5000Y23425
X5001Y23887
X4104Y23789
X4301Y23553
X4104Y23317
X4419Y23120
X8474Y23592
X8529Y23932
X11423Y23364
X13012Y23691
X13012Y23986
X19655Y23710
X19655Y23396
X19655Y23081
X19655Y24025
X19655Y24340
X19655Y24655
X19655Y24970
X19655Y25285
X19655Y25600
X19655Y25915
X19655Y26230
X19655Y26545
X19655Y26860
X19655Y27175
X19655Y27490
X19655Y27805
X19655Y28120
X19655Y28435
X19655Y28750
X19655Y29065
X19655Y29380
X19655Y29695
X19655Y30010
X19655Y32175
X19655Y32490
X19655Y32805
X19655Y33120
X19655Y33435
X19629Y35571
X19655Y36506
X19655Y36821
X19655Y37136
X19655Y39498
X61313Y11231
X60677Y10959
X60292Y11173
X59863Y10532
X59527Y10492
X58937Y10689
X58681Y10965
X58150Y11083
X57854Y10689
X58346Y10492
X57165Y10492
X55590Y10492
X55610Y10965
X55318Y12076
X55343Y13123
X55631Y13445
X55706Y14498
X55590Y15610
X55590Y16398
X56594Y15925
X56600Y15280
X57846Y15340
X57756Y15807
X58236Y15975
X57953Y16398
X59121Y15976
X59293Y16672
X59685Y16713
X60079Y16713
X59985Y16031
X60474Y15721
X60791Y16108
X61221Y15711
X60842Y15322
X60118Y15247
X59685Y15295
X60670Y13979
X61299Y13979
X61313Y13060
X61313Y12205
X60671Y12428
X59646Y13012
X58199Y13405
X58150Y12658
X57640Y13091
X56642Y13680
X54685Y14626
X54618Y15558
X54213Y15610
X54409Y16398
X55000Y16004
X53860Y13530
X53454Y13572
X53870Y12743
X54273Y12478
X54196Y11041
X54831Y11450
X55064Y10610
X52283Y40560
X52358Y43490
X52402Y41820
X52402Y38454
X52635Y38644
X52691Y39924
X52691Y40235
X52845Y43258
X53073Y41667
X53165Y42365
X53228Y39737
X53365Y38804
X53657Y38532
X53760Y43572
X53806Y42935
X53848Y42558
X53923Y41251
X53927Y40014
X54203Y38493
X54284Y40579
X54409Y39290
X54469Y41239
X54478Y42286
X54587Y40529
X54685Y38454
X55482Y43577
X55650Y39261
X55940Y41066
X56170Y42005
X56171Y40505
X56172Y41298
X56378Y41541
X56398Y38355
X56456Y41200
X56763Y42577
X56971Y40442
X57060Y42526
X57185Y38385
X57201Y41879
X57370Y42532
X57388Y39099
X57461Y40481
X57520Y41481
X57673Y42156
X57677Y39182
X57978Y39915
X57996Y42881
X58004Y43182
X58376Y38375
X58583Y43013
X58608Y43598
X58617Y42714
X58874Y43379
X59012Y41737
X59058Y40890
X59128Y40377
X59128Y39477
X59128Y39176
X59128Y38875
X59128Y38574
X59132Y39969
X59508Y41505
X59764Y41288
X61839Y38333
X62056Y40082
X62096Y43335
X62244Y42922
X62343Y39989
X62382Y42341
X62382Y42066
X62382Y41790
X62559Y42902
X62579Y38326
X62687Y42341
X62687Y42066
X62884Y43316
X52346Y43021
X52346Y42627
X52346Y42233
X52346Y41335
X52346Y40935
X62815Y40009
X62815Y39615
X62815Y39221
X62815Y38828
X12175Y20450
X12431Y20966
X11663Y20966
X11535Y20273
X11201Y20244
X10856Y20159
X10472Y20244
X9724Y20238
X10640Y20966
X9606Y18633
T02
X24738Y28960G85X24502Y28960
X24738Y25559G85X24502Y25559
X26482Y28960G85X26049Y28960
X26482Y25559G85X26049Y25559
X26069Y28398
X26069Y26122
T03
X24297Y23586
X25281Y23586
X26265Y23586
X27250Y23586
X28234Y23586
X10206Y33632
X10088Y31939
X10128Y30207
X10088Y28317
X10088Y27175
X10088Y25994
X10561Y25482
T04
X38962Y6618
X38962Y5043
X40143Y6618
X40143Y5043
X41324Y6618
X41324Y5043
X42506Y6618
X42506Y5043
X43687Y6618
X43687Y5043
X44868Y6618
X44868Y5043
X46049Y6618
X46049Y5043
X47230Y6618
X47230Y5043
X48411Y6618
X48411Y5043
X49592Y6618
X49592Y5043
X51679Y6618
X51679Y5043
X52860Y6618
X52860Y5043
X54041Y6618
X54041Y5043
X55222Y6618
X55222Y5043
X56078Y10112
X56256Y16214
X56403Y6618
X56403Y5043
X56807Y10112
X57584Y6618
X57584Y5043
X58756Y10112
X58766Y6618
X58766Y5043
X58775Y16214
X59523Y16214
X59947Y6618
X59947Y5043
X61216Y16214
X63500Y10112
X63677Y16214
X19340Y39183
X18580Y36041
X19380Y36041
X18980Y34041
X61024Y10433
X56279Y10433
X56299Y16536
X57047Y16536
X58740Y16536
X61201Y16536
X53779Y16536
X53602Y10433
X54331Y10433
X59669Y39339
X60457Y40521
X61244Y39339
X52543Y39261
X54543Y39661
X54543Y38861
T05
X59492Y43148
X60492Y43148
X61492Y43148
T06
X19750Y8901
X19750Y5752
X20734Y7327
X21718Y8901
X21718Y5752
X22702Y7327
X23687Y5752
X24671Y7327
X25655Y5752
X26639Y7327
X27624Y8901
X27624Y5752
X28608Y7327
X29592Y8901
X29592Y5752
T07
X16600Y3783
X32742Y3783
X36226Y2878
X62683Y2878
M30
