G75*
G70*
%OFA0B0*%
%FSLAX25Y25*%
%IPPOS*%
%LPD*%
%AMOC8*
5,1,8,0,0,1.08239X$1,22.5*
%
%AMM227*
21,1,0.039370,0.030320,0.000000,-0.000000,0.000000*
21,1,0.028350,0.041340,0.000000,-0.000000,0.000000*
1,1,0.011020,0.014170,-0.015160*
1,1,0.011020,-0.014170,-0.015160*
1,1,0.011020,-0.014170,0.015160*
1,1,0.011020,0.014170,0.015160*
%
%AMM233*
21,1,0.031500,0.018900,0.000000,-0.000000,90.000000*
21,1,0.022840,0.027560,0.000000,-0.000000,90.000000*
1,1,0.008660,0.009450,0.011420*
1,1,0.008660,0.009450,-0.011420*
1,1,0.008660,-0.009450,-0.011420*
1,1,0.008660,-0.009450,0.011420*
%
%AMM236*
21,1,0.029530,0.026380,0.000000,-0.000000,0.000000*
21,1,0.020470,0.035430,0.000000,-0.000000,0.000000*
1,1,0.009060,0.010240,-0.013190*
1,1,0.009060,-0.010240,-0.013190*
1,1,0.009060,-0.010240,0.013190*
1,1,0.009060,0.010240,0.013190*
%
%AMM237*
21,1,0.021650,0.027950,0.000000,-0.000000,0.000000*
21,1,0.014170,0.035430,0.000000,-0.000000,0.000000*
1,1,0.007480,0.007090,-0.013980*
1,1,0.007480,-0.007090,-0.013980*
1,1,0.007480,-0.007090,0.013980*
1,1,0.007480,0.007090,0.013980*
%
%AMM239*
21,1,0.016540,0.028980,0.000000,-0.000000,0.000000*
21,1,0.010080,0.035430,0.000000,-0.000000,0.000000*
1,1,0.006460,0.005040,-0.014490*
1,1,0.006460,-0.005040,-0.014490*
1,1,0.006460,-0.005040,0.014490*
1,1,0.006460,0.005040,0.014490*
%
%AMM242*
21,1,0.031500,0.018900,0.000000,-0.000000,0.000000*
21,1,0.022840,0.027560,0.000000,-0.000000,0.000000*
1,1,0.008660,0.011420,-0.009450*
1,1,0.008660,-0.011420,-0.009450*
1,1,0.008660,-0.011420,0.009450*
1,1,0.008660,0.011420,0.009450*
%
%AMM256*
21,1,0.037400,0.026770,0.000000,-0.000000,90.000000*
21,1,0.026770,0.037400,0.000000,-0.000000,90.000000*
1,1,0.010630,0.013390,0.013390*
1,1,0.010630,0.013390,-0.013390*
1,1,0.010630,-0.013390,-0.013390*
1,1,0.010630,-0.013390,0.013390*
%
%AMM257*
21,1,0.039370,0.030320,0.000000,-0.000000,90.000000*
21,1,0.028350,0.041340,0.000000,-0.000000,90.000000*
1,1,0.011020,0.015160,0.014170*
1,1,0.011020,0.015160,-0.014170*
1,1,0.011020,-0.015160,-0.014170*
1,1,0.011020,-0.015160,0.014170*
%
%AMM258*
21,1,0.039760,0.026770,0.000000,-0.000000,270.000000*
21,1,0.029130,0.037400,0.000000,-0.000000,270.000000*
1,1,0.010630,-0.013390,-0.014570*
1,1,0.010630,-0.013390,0.014570*
1,1,0.010630,0.013390,0.014570*
1,1,0.010630,0.013390,-0.014570*
%
%AMM259*
21,1,0.074800,0.036220,0.000000,-0.000000,270.000000*
21,1,0.061810,0.049210,0.000000,-0.000000,270.000000*
1,1,0.012990,-0.018110,-0.030910*
1,1,0.012990,-0.018110,0.030910*
1,1,0.012990,0.018110,0.030910*
1,1,0.012990,0.018110,-0.030910*
%
%AMM260*
21,1,0.062990,0.020470,0.000000,-0.000000,0.000000*
21,1,0.053940,0.029530,0.000000,-0.000000,0.000000*
1,1,0.009060,0.026970,-0.010240*
1,1,0.009060,-0.026970,-0.010240*
1,1,0.009060,-0.026970,0.010240*
1,1,0.009060,0.026970,0.010240*
%
%AMM261*
21,1,0.082680,0.045670,0.000000,-0.000000,0.000000*
21,1,0.067320,0.061020,0.000000,-0.000000,0.000000*
1,1,0.015350,0.033660,-0.022840*
1,1,0.015350,-0.033660,-0.022840*
1,1,0.015350,-0.033660,0.022840*
1,1,0.015350,0.033660,0.022840*
%
%AMM262*
21,1,0.029530,0.026380,0.000000,-0.000000,270.000000*
21,1,0.020470,0.035430,0.000000,-0.000000,270.000000*
1,1,0.009060,-0.013190,-0.010240*
1,1,0.009060,-0.013190,0.010240*
1,1,0.009060,0.013190,0.010240*
1,1,0.009060,0.013190,-0.010240*
%
%AMM263*
21,1,0.021650,0.027950,0.000000,-0.000000,270.000000*
21,1,0.014170,0.035430,0.000000,-0.000000,270.000000*
1,1,0.007480,-0.013980,-0.007090*
1,1,0.007480,-0.013980,0.007090*
1,1,0.007480,0.013980,0.007090*
1,1,0.007480,0.013980,-0.007090*
%
%AMM264*
21,1,0.031500,0.030710,0.000000,-0.000000,0.000000*
21,1,0.022050,0.040160,0.000000,-0.000000,0.000000*
1,1,0.009450,0.011020,-0.015350*
1,1,0.009450,-0.011020,-0.015350*
1,1,0.009450,-0.011020,0.015350*
1,1,0.009450,0.011020,0.015350*
%
%AMM265*
21,1,0.031500,0.049610,0.000000,-0.000000,180.000000*
21,1,0.022050,0.059060,0.000000,-0.000000,180.000000*
1,1,0.009450,-0.011020,0.024800*
1,1,0.009450,0.011020,0.024800*
1,1,0.009450,0.011020,-0.024800*
1,1,0.009450,-0.011020,-0.024800*
%
%AMM266*
21,1,0.031500,0.030710,0.000000,-0.000000,270.000000*
21,1,0.022050,0.040160,0.000000,-0.000000,270.000000*
1,1,0.009450,-0.015350,-0.011020*
1,1,0.009450,-0.015350,0.011020*
1,1,0.009450,0.015350,0.011020*
1,1,0.009450,0.015350,-0.011020*
%
%AMM267*
21,1,0.074800,0.036220,0.000000,-0.000000,0.000000*
21,1,0.061810,0.049210,0.000000,-0.000000,0.000000*
1,1,0.012990,0.030910,-0.018110*
1,1,0.012990,-0.030910,-0.018110*
1,1,0.012990,-0.030910,0.018110*
1,1,0.012990,0.030910,0.018110*
%
%AMM268*
21,1,0.037400,0.026770,0.000000,-0.000000,180.000000*
21,1,0.026770,0.037400,0.000000,-0.000000,180.000000*
1,1,0.010630,-0.013390,0.013390*
1,1,0.010630,0.013390,0.013390*
1,1,0.010630,0.013390,-0.013390*
1,1,0.010630,-0.013390,-0.013390*
%
%AMM285*
21,1,0.041340,0.026770,-0.000000,0.000000,90.000000*
21,1,0.029130,0.038980,-0.000000,0.000000,90.000000*
1,1,0.012210,0.013390,0.014570*
1,1,0.012210,0.013390,-0.014570*
1,1,0.012210,-0.013390,-0.014570*
1,1,0.012210,-0.013390,0.014570*
%
%AMM286*
21,1,0.076380,0.036220,-0.000000,0.000000,180.000000*
21,1,0.061810,0.050790,-0.000000,0.000000,180.000000*
1,1,0.014570,-0.030910,0.018110*
1,1,0.014570,0.030910,0.018110*
1,1,0.014570,0.030910,-0.018110*
1,1,0.014570,-0.030910,-0.018110*
%
%AMM289*
21,1,0.029130,0.018900,-0.000000,0.000000,180.000000*
21,1,0.018900,0.029130,-0.000000,0.000000,180.000000*
1,1,0.010240,-0.009450,0.009450*
1,1,0.010240,0.009450,0.009450*
1,1,0.010240,0.009450,-0.009450*
1,1,0.010240,-0.009450,-0.009450*
%
%AMM290*
21,1,0.025200,0.019680,-0.000000,0.000000,90.000000*
21,1,0.015750,0.029130,-0.000000,0.000000,90.000000*
1,1,0.009450,0.009840,0.007870*
1,1,0.009450,0.009840,-0.007870*
1,1,0.009450,-0.009840,-0.007870*
1,1,0.009450,-0.009840,0.007870*
%
%AMM291*
21,1,0.025200,0.019680,-0.000000,0.000000,0.000000*
21,1,0.015750,0.029130,-0.000000,0.000000,0.000000*
1,1,0.009450,0.007870,-0.009840*
1,1,0.009450,-0.007870,-0.009840*
1,1,0.009450,-0.007870,0.009840*
1,1,0.009450,0.007870,0.009840*
%
%AMM296*
21,1,0.111810,0.050390,-0.000000,0.000000,180.000000*
21,1,0.093700,0.068500,-0.000000,0.000000,180.000000*
1,1,0.018110,-0.046850,0.025200*
1,1,0.018110,0.046850,0.025200*
1,1,0.018110,0.046850,-0.025200*
1,1,0.018110,-0.046850,-0.025200*
%
%AMM297*
21,1,0.038980,0.026770,-0.000000,0.000000,0.000000*
21,1,0.026770,0.038980,-0.000000,0.000000,0.000000*
1,1,0.012210,0.013390,-0.013390*
1,1,0.012210,-0.013390,-0.013390*
1,1,0.012210,-0.013390,0.013390*
1,1,0.012210,0.013390,0.013390*
%
%AMM298*
21,1,0.029130,0.018900,-0.000000,0.000000,270.000000*
21,1,0.018900,0.029130,-0.000000,0.000000,270.000000*
1,1,0.010240,-0.009450,-0.009450*
1,1,0.010240,-0.009450,0.009450*
1,1,0.010240,0.009450,0.009450*
1,1,0.010240,0.009450,-0.009450*
%
%AMM299*
21,1,0.127560,0.075590,-0.000000,0.000000,270.000000*
21,1,0.103150,0.100000,-0.000000,0.000000,270.000000*
1,1,0.024410,-0.037800,-0.051580*
1,1,0.024410,-0.037800,0.051580*
1,1,0.024410,0.037800,0.051580*
1,1,0.024410,0.037800,-0.051580*
%
%AMM300*
21,1,0.123620,0.083460,-0.000000,0.000000,90.000000*
21,1,0.097240,0.109840,-0.000000,0.000000,90.000000*
1,1,0.026380,0.041730,0.048620*
1,1,0.026380,0.041730,-0.048620*
1,1,0.026380,-0.041730,-0.048620*
1,1,0.026380,-0.041730,0.048620*
%
%ADD11O,0.06693X0.07283*%
%ADD111C,0.03900*%
%ADD13C,0.02362*%
%ADD139C,0.04294*%
%ADD140C,0.04724*%
%ADD179R,0.01378X0.01772*%
%ADD180R,0.01772X0.01378*%
%ADD214C,0.02913*%
%ADD215C,0.06457*%
%ADD229C,0.05118*%
%ADD231R,0.07500X0.07874*%
%ADD232O,0.07500X0.07874*%
%ADD233R,0.05709X0.01772*%
%ADD234R,0.04803X0.02559*%
%ADD26C,0.05906*%
%ADD299R,0.04724X0.04331*%
%ADD303R,0.07087X0.09843*%
%ADD311O,0.01378X0.05354*%
%ADD37O,0.08268X0.03937*%
%ADD38O,0.06299X0.03937*%
%ADD386M227*%
%ADD392M233*%
%ADD395M236*%
%ADD396M237*%
%ADD398M239*%
%ADD401M242*%
%ADD415M256*%
%ADD416M257*%
%ADD417M258*%
%ADD418M259*%
%ADD419M260*%
%ADD420M261*%
%ADD421M262*%
%ADD422M263*%
%ADD423M264*%
%ADD424M265*%
%ADD425M266*%
%ADD426M267*%
%ADD427M268*%
%ADD445M285*%
%ADD446M286*%
%ADD449M289*%
%ADD450M290*%
%ADD451M291*%
%ADD457M296*%
%ADD458M297*%
%ADD459M298*%
%ADD460O,0.09213X0.02520*%
%ADD461M299*%
%ADD462M300*%
%ADD52C,0.07874*%
%ADD53C,0.23917*%
%ADD58C,0.02559*%
X0000000Y0000000D02*
%LPD*%
G01*
G36*
G01*
X0239626Y0233208D02*
X0239626Y0238523D01*
G75*
G02*
X0240610Y0239508I0000984J0000000D01*
G01*
X0245335Y0239508D01*
G75*
G02*
X0246319Y0238523I0000000J-000984D01*
G01*
X0246319Y0233208D01*
G75*
G02*
X0245335Y0232224I-000984J0000000D01*
G01*
X0240610Y0232224D01*
G75*
G02*
X0239626Y0233208I0000000J0000984D01*
G01*
G37*
D11*
X0252815Y0235866D03*
X0262658Y0235866D03*
X0272500Y0235866D03*
X0282343Y0235866D03*
D26*
X0562559Y0162145D03*
X0587756Y0162145D03*
X0595236Y0162145D03*
X0612166Y0162145D03*
D13*
X0621614Y0163917D03*
X0625551Y0163917D03*
D26*
X0636772Y0162145D03*
X0560788Y0101122D03*
X0568071Y0101122D03*
X0587559Y0101122D03*
X0635000Y0101122D03*
D58*
X0260689Y0283976D03*
X0260689Y0261220D03*
D37*
X0262658Y0289606D03*
D38*
X0246201Y0289606D03*
D37*
X0262658Y0255590D03*
D38*
X0246201Y0255590D03*
D13*
X0129489Y0199232D03*
X0131162Y0206456D03*
X0133327Y0198385D03*
X0136772Y0199232D03*
X0140118Y0199527D03*
X0141398Y0206456D03*
X0146516Y0201298D03*
X0149075Y0206456D03*
X0120827Y0183129D03*
X0122008Y0199172D03*
D26*
X0389626Y0066179D03*
X0401437Y0066179D03*
X0413248Y0066179D03*
X0425061Y0066179D03*
X0436870Y0066179D03*
X0448681Y0066179D03*
X0460492Y0066179D03*
X0472305Y0066179D03*
X0484116Y0066179D03*
X0495927Y0066179D03*
X0389626Y0050431D03*
X0401437Y0050431D03*
X0413248Y0050431D03*
X0425061Y0050431D03*
X0436870Y0050431D03*
X0448681Y0050431D03*
X0460492Y0050431D03*
X0472305Y0050431D03*
X0484116Y0050431D03*
X0495927Y0050431D03*
X0516792Y0066179D03*
X0528605Y0066179D03*
X0540414Y0066179D03*
X0552225Y0066179D03*
X0564038Y0066179D03*
X0575849Y0066179D03*
X0587660Y0066179D03*
X0599471Y0066179D03*
X0516792Y0050431D03*
X0528605Y0050431D03*
X0540414Y0050431D03*
X0575849Y0050431D03*
X0587660Y0050431D03*
X0599471Y0050431D03*
D52*
X0197500Y0057519D03*
X0217185Y0057519D03*
X0236870Y0057519D03*
X0256555Y0057519D03*
X0276240Y0057519D03*
X0295925Y0057519D03*
X0207343Y0073267D03*
X0227028Y0073267D03*
X0246713Y0073267D03*
X0197500Y0089015D03*
X0217185Y0089015D03*
X0276240Y0089015D03*
X0295925Y0089015D03*
X0266398Y0073267D03*
X0286083Y0073267D03*
D26*
X0552227Y0050431D03*
X0564038Y0050431D03*
D53*
X0166004Y0037834D03*
X0327421Y0037834D03*
X0362264Y0028779D03*
X0626831Y0028779D03*
X0039862Y0396161D02*
G01*
G75*
D386*
X0141104Y0384546D02*
D03*
X0144844Y0375294D02*
D03*
D386*
X0148585Y0384546D02*
D03*
D392*
X0091830Y0364468D02*
D03*
X0095767Y0364468D02*
D03*
X0134744Y0243799D02*
D03*
X0130807Y0243799D02*
D03*
X0193996Y0367519D02*
D03*
X0190059Y0367519D02*
D03*
X0116634Y0334336D02*
D03*
X0112697Y0334336D02*
D03*
X0116562Y0317431D02*
D03*
X0120499Y0317431D02*
D03*
X0113090Y0339468D02*
D03*
X0117027Y0339468D02*
D03*
X0096678Y0390662D02*
D03*
X0092741Y0390662D02*
D03*
X0165846Y0372933D02*
D03*
X0161909Y0372933D02*
D03*
X0184941Y0393405D02*
D03*
X0188878Y0393405D02*
D03*
X0109153Y0261515D02*
D03*
X0105216Y0261515D02*
D03*
X0173720Y0335137D02*
D03*
X0177657Y0335137D02*
D03*
X0107283Y0304920D02*
D03*
X0111220Y0304920D02*
D03*
X0188583Y0315945D02*
D03*
X0192519Y0315945D02*
D03*
X0120964Y0263090D02*
D03*
X0117027Y0263090D02*
D03*
X0120964Y0259153D02*
D03*
X0117027Y0259153D02*
D03*
X0184941Y0389271D02*
D03*
X0188878Y0389271D02*
D03*
X0136319Y0252263D02*
D03*
X0132382Y0252263D02*
D03*
X0158760Y0252460D02*
D03*
X0154823Y0252460D02*
D03*
X0107283Y0300590D02*
D03*
X0111220Y0300590D02*
D03*
X0193799Y0296948D02*
D03*
X0189862Y0296948D02*
D03*
X0144193Y0335137D02*
D03*
X0148130Y0335137D02*
D03*
X0140649Y0335137D02*
D03*
X0136712Y0335137D02*
D03*
X0064271Y0348523D02*
D03*
X0060334Y0348523D02*
D03*
X0064271Y0343799D02*
D03*
X0060334Y0343799D02*
D03*
X0064271Y0339074D02*
D03*
X0060334Y0339074D02*
D03*
X0064271Y0334350D02*
D03*
X0060334Y0334350D02*
D03*
X0044980Y0249704D02*
D03*
X0048917Y0249704D02*
D03*
X0048917Y0244980D02*
D03*
X0044980Y0244980D02*
D03*
X0044980Y0240256D02*
D03*
X0048917Y0240256D02*
D03*
X0044980Y0235531D02*
D03*
X0048917Y0235531D02*
D03*
X0091830Y0368405D02*
D03*
X0095767Y0368405D02*
D03*
X0091830Y0340452D02*
D03*
X0095767Y0340452D02*
D03*
X0064271Y0372145D02*
D03*
X0060334Y0372145D02*
D03*
X0064271Y0376869D02*
D03*
X0060334Y0376869D02*
D03*
X0064271Y0381594D02*
D03*
X0060334Y0381594D02*
D03*
X0064271Y0386318D02*
D03*
X0060334Y0386318D02*
D03*
X0064271Y0353247D02*
D03*
X0060334Y0353247D02*
D03*
X0064271Y0357972D02*
D03*
X0060334Y0357972D02*
D03*
X0064271Y0362696D02*
D03*
X0060334Y0362696D02*
D03*
X0064271Y0367421D02*
D03*
X0060334Y0367421D02*
D03*
X0064271Y0315452D02*
D03*
X0060334Y0315452D02*
D03*
X0064271Y0320176D02*
D03*
X0060334Y0320176D02*
D03*
X0064271Y0324901D02*
D03*
X0060334Y0324901D02*
D03*
X0064271Y0329625D02*
D03*
X0060334Y0329625D02*
D03*
X0060334Y0296554D02*
D03*
X0064271Y0296554D02*
D03*
X0064271Y0301279D02*
D03*
X0060334Y0301279D02*
D03*
X0064271Y0306003D02*
D03*
X0060334Y0306003D02*
D03*
X0064271Y0310728D02*
D03*
X0060334Y0310728D02*
D03*
X0064271Y0277657D02*
D03*
X0060334Y0277657D02*
D03*
X0064271Y0282381D02*
D03*
X0060334Y0282381D02*
D03*
X0064271Y0287106D02*
D03*
X0060334Y0287106D02*
D03*
X0064271Y0291830D02*
D03*
X0060334Y0291830D02*
D03*
X0064271Y0263484D02*
D03*
X0060334Y0263484D02*
D03*
X0064271Y0268208D02*
D03*
X0060334Y0268208D02*
D03*
X0064271Y0272933D02*
D03*
X0060334Y0272933D02*
D03*
X0055019Y0391437D02*
D03*
X0058956Y0391437D02*
D03*
X0048917Y0254428D02*
D03*
X0044980Y0254428D02*
D03*
X0081594Y0340452D02*
D03*
X0085531Y0340452D02*
D03*
X0060334Y0252854D02*
D03*
X0064271Y0252854D02*
D03*
X0047342Y0391437D02*
D03*
X0051279Y0391437D02*
D03*
X0056397Y0252854D02*
D03*
X0052460Y0252854D02*
D03*
X0186712Y0247736D02*
D03*
X0182775Y0247736D02*
D03*
X0064271Y0258759D02*
D03*
X0060334Y0258759D02*
D03*
D395*
X0156693Y0358759D02*
D03*
X0156693Y0351673D02*
D03*
X0146653Y0351673D02*
D03*
X0146653Y0358759D02*
D03*
X0108464Y0344192D02*
D03*
X0108464Y0351279D02*
D03*
X0118504Y0351279D02*
D03*
X0118504Y0344192D02*
D03*
X0124606Y0344192D02*
D03*
X0124606Y0351279D02*
D03*
X0134646Y0351279D02*
D03*
X0134646Y0344192D02*
D03*
X0088779Y0248720D02*
D03*
X0088779Y0255807D02*
D03*
X0078740Y0255807D02*
D03*
X0078740Y0248720D02*
D03*
X0078740Y0267224D02*
D03*
X0078740Y0260137D02*
D03*
X0088779Y0260137D02*
D03*
X0088779Y0267224D02*
D03*
X0088779Y0317224D02*
D03*
X0088779Y0324310D02*
D03*
X0078740Y0324310D02*
D03*
X0078740Y0317224D02*
D03*
X0078740Y0335728D02*
D03*
X0078740Y0328641D02*
D03*
X0088779Y0328641D02*
D03*
X0088779Y0335728D02*
D03*
X0088779Y0294389D02*
D03*
X0088779Y0301476D02*
D03*
X0078740Y0301476D02*
D03*
X0078740Y0294389D02*
D03*
X0078740Y0312893D02*
D03*
X0078740Y0305806D02*
D03*
X0088779Y0305806D02*
D03*
X0088779Y0312893D02*
D03*
X0088779Y0271554D02*
D03*
X0088779Y0278641D02*
D03*
X0078740Y0278641D02*
D03*
X0078740Y0271554D02*
D03*
X0078740Y0290058D02*
D03*
X0078740Y0282972D02*
D03*
X0088779Y0282972D02*
D03*
X0088779Y0290058D02*
D03*
D396*
X0150098Y0351673D02*
D03*
X0153248Y0351673D02*
D03*
X0153248Y0358759D02*
D03*
X0150098Y0358759D02*
D03*
X0115059Y0351279D02*
D03*
X0111909Y0351279D02*
D03*
X0111909Y0344192D02*
D03*
X0115059Y0344192D02*
D03*
X0131201Y0351279D02*
D03*
X0128051Y0351279D02*
D03*
X0128051Y0344192D02*
D03*
X0131201Y0344192D02*
D03*
X0085334Y0248720D02*
D03*
X0082185Y0248720D02*
D03*
X0082185Y0255807D02*
D03*
X0085334Y0255807D02*
D03*
X0082185Y0267224D02*
D03*
X0085334Y0267224D02*
D03*
X0085334Y0260137D02*
D03*
X0082185Y0260137D02*
D03*
X0085334Y0317224D02*
D03*
X0082185Y0317224D02*
D03*
X0082185Y0324310D02*
D03*
X0085334Y0324310D02*
D03*
X0082185Y0335728D02*
D03*
X0085334Y0335728D02*
D03*
X0085334Y0328641D02*
D03*
X0082185Y0328641D02*
D03*
X0085334Y0294389D02*
D03*
X0082185Y0294389D02*
D03*
X0082185Y0301476D02*
D03*
X0085334Y0301476D02*
D03*
X0082185Y0312893D02*
D03*
X0085334Y0312893D02*
D03*
X0085334Y0305806D02*
D03*
X0082185Y0305806D02*
D03*
X0085334Y0271554D02*
D03*
X0082185Y0271554D02*
D03*
X0082185Y0278641D02*
D03*
X0085334Y0278641D02*
D03*
X0082185Y0290058D02*
D03*
X0085334Y0290058D02*
D03*
X0085334Y0282972D02*
D03*
X0082185Y0282972D02*
D03*
D398*
X0150689Y0370767D02*
D03*
X0153248Y0370767D02*
D03*
X0155807Y0370767D02*
D03*
X0155807Y0363287D02*
D03*
X0150689Y0363287D02*
D03*
D401*
X0191240Y0352460D02*
D03*
X0191240Y0356397D02*
D03*
X0175492Y0236318D02*
D03*
X0175492Y0240256D02*
D03*
X0170671Y0377418D02*
D03*
X0170671Y0373481D02*
D03*
X0164665Y0354822D02*
D03*
X0164665Y0358759D02*
D03*
X0160728Y0363878D02*
D03*
X0160728Y0359941D02*
D03*
X0109941Y0254822D02*
D03*
X0109941Y0250885D02*
D03*
X0191831Y0324114D02*
D03*
X0191831Y0320177D02*
D03*
X0179626Y0255413D02*
D03*
X0179626Y0251476D02*
D03*
X0190649Y0282775D02*
D03*
X0190649Y0278838D02*
D03*
X0103840Y0327251D02*
D03*
X0103840Y0331188D02*
D03*
X0126476Y0336515D02*
D03*
X0126476Y0332578D02*
D03*
X0124901Y0326476D02*
D03*
X0124901Y0322539D02*
D03*
X0153248Y0327263D02*
D03*
X0153248Y0323326D02*
D03*
X0193405Y0231988D02*
D03*
X0193405Y0235925D02*
D03*
X0192421Y0345177D02*
D03*
X0192421Y0349114D02*
D03*
X0178051Y0363090D02*
D03*
X0178051Y0359153D02*
D03*
X0116240Y0252066D02*
D03*
X0116240Y0248129D02*
D03*
X0120177Y0252066D02*
D03*
X0120177Y0248129D02*
D03*
X0183563Y0251476D02*
D03*
X0183563Y0255413D02*
D03*
X0107677Y0278543D02*
D03*
X0107677Y0282480D02*
D03*
X0152854Y0335137D02*
D03*
X0152854Y0331200D02*
D03*
X0121161Y0335137D02*
D03*
X0121161Y0331200D02*
D03*
X0176476Y0326870D02*
D03*
X0176476Y0322933D02*
D03*
X0161122Y0327657D02*
D03*
X0161122Y0323720D02*
D03*
X0107283Y0312795D02*
D03*
X0107283Y0308858D02*
D03*
X0094980Y0258562D02*
D03*
X0094980Y0262499D02*
D03*
X0094980Y0327066D02*
D03*
X0094980Y0331003D02*
D03*
X0094980Y0304232D02*
D03*
X0094980Y0308169D02*
D03*
X0094980Y0281397D02*
D03*
X0094980Y0285334D02*
D03*
X0070964Y0320570D02*
D03*
X0070964Y0324507D02*
D03*
X0074508Y0375622D02*
D03*
X0074508Y0371685D02*
D03*
X0074508Y0384811D02*
D03*
X0074508Y0388748D02*
D03*
X0074508Y0350818D02*
D03*
X0074508Y0346881D02*
D03*
X0074508Y0360007D02*
D03*
X0074508Y0363944D02*
D03*
X0156397Y0388287D02*
D03*
X0156397Y0392224D02*
D03*
X0156397Y0382381D02*
D03*
X0156397Y0378444D02*
D03*
X0068208Y0345373D02*
D03*
X0068208Y0349310D02*
D03*
X0106004Y0392224D02*
D03*
X0106004Y0388287D02*
D03*
X0118405Y0392224D02*
D03*
X0118405Y0388287D02*
D03*
X0122539Y0392224D02*
D03*
X0122539Y0388287D02*
D03*
X0130807Y0392224D02*
D03*
X0130807Y0388287D02*
D03*
X0126673Y0392224D02*
D03*
X0126673Y0388287D02*
D03*
X0134941Y0392224D02*
D03*
X0134941Y0388287D02*
D03*
X0114272Y0392224D02*
D03*
X0114272Y0388287D02*
D03*
X0110138Y0392224D02*
D03*
X0110138Y0388287D02*
D03*
D139*
X0189803Y0340413D02*
D03*
X0185803Y0360413D02*
D03*
X0193803Y0360413D02*
D03*
D140*
X0101279Y0302066D02*
D03*
X0105610Y0254822D02*
D03*
X0100886Y0259940D02*
D03*
X0100886Y0271752D02*
D03*
X0100886Y0283169D02*
D03*
X0100886Y0319389D02*
D03*
X0102067Y0336319D02*
D03*
D26*
X0193405Y0391830D02*
D03*
D415*
X0157382Y0342184D02*
D03*
X0157382Y0335964D02*
D03*
D416*
X0167733Y0239581D02*
D03*
X0158481Y0235841D02*
D03*
X0109982Y0322010D02*
D03*
X0119234Y0325750D02*
D03*
X0170846Y0385531D02*
D03*
X0180098Y0389271D02*
D03*
X0184271Y0379822D02*
D03*
X0175020Y0376082D02*
D03*
X0075886Y0243208D02*
D03*
X0066634Y0239468D02*
D03*
X0081529Y0239468D02*
D03*
X0090781Y0243208D02*
D03*
X0105676Y0243208D02*
D03*
X0096424Y0239468D02*
D03*
X0120571Y0243995D02*
D03*
X0111319Y0240255D02*
D03*
D416*
X0158481Y0243321D02*
D03*
X0109982Y0329490D02*
D03*
X0170846Y0393011D02*
D03*
X0184272Y0372342D02*
D03*
X0075886Y0235728D02*
D03*
X0090781Y0235728D02*
D03*
X0105676Y0235728D02*
D03*
X0120571Y0236515D02*
D03*
D417*
X0163484Y0391830D02*
D03*
X0163484Y0378838D02*
D03*
X0173720Y0354429D02*
D03*
X0173720Y0341436D02*
D03*
D299*
X0172145Y0359350D02*
D03*
X0172145Y0366043D02*
D03*
D418*
X0134350Y0237106D02*
D03*
X0145767Y0237106D02*
D03*
D419*
X0145386Y0299035D02*
D03*
X0145386Y0294704D02*
D03*
X0145386Y0290373D02*
D03*
X0145386Y0286043D02*
D03*
X0145386Y0281712D02*
D03*
X0145386Y0277381D02*
D03*
X0145386Y0273050D02*
D03*
X0145386Y0268720D02*
D03*
D420*
X0135150Y0259350D02*
D03*
X0167827Y0259350D02*
D03*
X0167827Y0313483D02*
D03*
X0135150Y0313483D02*
D03*
D303*
X0146358Y0324113D02*
D03*
X0131791Y0324113D02*
D03*
D421*
X0122539Y0277558D02*
D03*
X0115453Y0277558D02*
D03*
X0115453Y0267519D02*
D03*
X0122539Y0267519D02*
D03*
X0047539Y0346456D02*
D03*
X0054626Y0346456D02*
D03*
X0054626Y0336417D02*
D03*
X0047539Y0336417D02*
D03*
X0081988Y0374606D02*
D03*
X0089075Y0374606D02*
D03*
X0089075Y0384645D02*
D03*
X0081988Y0384645D02*
D03*
X0100492Y0384645D02*
D03*
X0093405Y0384645D02*
D03*
X0093405Y0374606D02*
D03*
X0100492Y0374606D02*
D03*
X0081988Y0346653D02*
D03*
X0089075Y0346653D02*
D03*
X0089075Y0356692D02*
D03*
X0081988Y0356692D02*
D03*
X0100492Y0356692D02*
D03*
X0093405Y0356692D02*
D03*
X0093405Y0346653D02*
D03*
X0100492Y0346653D02*
D03*
X0047539Y0384251D02*
D03*
X0054626Y0384251D02*
D03*
X0054626Y0374212D02*
D03*
X0047539Y0374212D02*
D03*
X0047539Y0365354D02*
D03*
X0054626Y0365354D02*
D03*
X0054626Y0355315D02*
D03*
X0047539Y0355315D02*
D03*
X0047539Y0327559D02*
D03*
X0054626Y0327559D02*
D03*
X0054626Y0317519D02*
D03*
X0047539Y0317519D02*
D03*
X0047539Y0308661D02*
D03*
X0054626Y0308661D02*
D03*
X0054626Y0298621D02*
D03*
X0047539Y0298621D02*
D03*
X0047539Y0289763D02*
D03*
X0054626Y0289763D02*
D03*
X0054626Y0279724D02*
D03*
X0047539Y0279724D02*
D03*
X0047539Y0270866D02*
D03*
X0054626Y0270866D02*
D03*
X0054626Y0260826D02*
D03*
X0047539Y0260826D02*
D03*
X0053248Y0237598D02*
D03*
X0060334Y0237598D02*
D03*
X0060334Y0247637D02*
D03*
X0053248Y0247637D02*
D03*
D422*
X0122539Y0274114D02*
D03*
X0122539Y0270964D02*
D03*
X0115453Y0270964D02*
D03*
X0115453Y0274114D02*
D03*
X0054626Y0339862D02*
D03*
X0054626Y0343011D02*
D03*
X0047539Y0343011D02*
D03*
X0047539Y0339862D02*
D03*
X0081988Y0378051D02*
D03*
X0081988Y0381200D02*
D03*
X0089075Y0381200D02*
D03*
X0089075Y0378051D02*
D03*
X0100492Y0381200D02*
D03*
X0100492Y0378051D02*
D03*
X0093405Y0378051D02*
D03*
X0093405Y0381200D02*
D03*
X0081988Y0350098D02*
D03*
X0081988Y0353248D02*
D03*
X0089075Y0353248D02*
D03*
X0089075Y0350098D02*
D03*
X0100492Y0353247D02*
D03*
X0100492Y0350098D02*
D03*
X0093405Y0350098D02*
D03*
X0093405Y0353247D02*
D03*
X0054626Y0377657D02*
D03*
X0054626Y0380806D02*
D03*
X0047539Y0380806D02*
D03*
X0047539Y0377657D02*
D03*
X0054626Y0358759D02*
D03*
X0054626Y0361909D02*
D03*
X0047539Y0361909D02*
D03*
X0047539Y0358759D02*
D03*
X0054626Y0320964D02*
D03*
X0054626Y0324114D02*
D03*
X0047539Y0324114D02*
D03*
X0047539Y0320964D02*
D03*
X0054626Y0302066D02*
D03*
X0054626Y0305216D02*
D03*
X0047539Y0305216D02*
D03*
X0047539Y0302066D02*
D03*
X0054626Y0283169D02*
D03*
X0054626Y0286318D02*
D03*
X0047539Y0286318D02*
D03*
X0047539Y0283169D02*
D03*
X0054626Y0264271D02*
D03*
X0054626Y0267421D02*
D03*
X0047539Y0267421D02*
D03*
X0047539Y0264271D02*
D03*
X0053248Y0241043D02*
D03*
X0053248Y0244192D02*
D03*
X0060334Y0244192D02*
D03*
X0060334Y0241043D02*
D03*
D423*
X0150098Y0252460D02*
D03*
X0143799Y0252460D02*
D03*
X0185827Y0306102D02*
D03*
X0192126Y0306102D02*
D03*
X0152067Y0391436D02*
D03*
X0145767Y0391436D02*
D03*
X0142618Y0246948D02*
D03*
X0148917Y0246948D02*
D03*
D424*
X0171555Y0326870D02*
D03*
X0165649Y0326870D02*
D03*
D425*
X0166634Y0335924D02*
D03*
X0166634Y0342224D02*
D03*
X0162008Y0335924D02*
D03*
X0162008Y0342224D02*
D03*
D426*
X0191240Y0384350D02*
D03*
X0191240Y0372933D02*
D03*
D427*
X0131043Y0247933D02*
D03*
X0137264Y0247933D02*
D03*
X0160689Y0319389D02*
D03*
X0154468Y0319389D02*
D03*
D311*
X0106988Y0382539D02*
D03*
X0109547Y0382539D02*
D03*
X0112106Y0382539D02*
D03*
X0114665Y0382539D02*
D03*
X0117224Y0382539D02*
D03*
X0119783Y0382539D02*
D03*
X0122342Y0382539D02*
D03*
X0124901Y0382539D02*
D03*
X0127460Y0382539D02*
D03*
X0130020Y0382539D02*
D03*
X0132578Y0382539D02*
D03*
X0135138Y0382539D02*
D03*
X0106988Y0359546D02*
D03*
X0109547Y0359546D02*
D03*
X0112106Y0359546D02*
D03*
X0114665Y0359546D02*
D03*
X0117224Y0359546D02*
D03*
X0119783Y0359546D02*
D03*
X0122342Y0359546D02*
D03*
X0124901Y0359546D02*
D03*
X0127460Y0359546D02*
D03*
X0130020Y0359546D02*
D03*
X0132578Y0359546D02*
D03*
X0135138Y0359546D02*
D03*
D180*
X0183169Y0239271D02*
D03*
X0183169Y0241239D02*
D03*
X0189468Y0241239D02*
D03*
X0189468Y0239271D02*
D03*
D179*
X0183366Y0243405D02*
D03*
X0185335Y0243405D02*
D03*
X0187303Y0243405D02*
D03*
X0189271Y0243405D02*
D03*
X0183366Y0237105D02*
D03*
X0189271Y0237105D02*
D03*
X0185335Y0237105D02*
D03*
X0187303Y0237105D02*
D03*
X0614961Y0101378D02*
G01*
G75*
D445*
X0538583Y0131293D02*
D03*
X0538583Y0118301D02*
D03*
D446*
X0538189Y0151153D02*
D03*
X0538189Y0139736D02*
D03*
X0546221Y0151153D02*
D03*
X0546221Y0139736D02*
D03*
D449*
X0560237Y0113780D02*
D03*
X0556300Y0113780D02*
D03*
X0545670Y0110433D02*
D03*
X0545670Y0119095D02*
D03*
X0550918Y0109646D02*
D03*
X0550918Y0118307D02*
D03*
D450*
X0603544Y0121533D02*
D03*
X0603544Y0117989D02*
D03*
X0566811Y0130924D02*
D03*
X0566811Y0134468D02*
D03*
X0551706Y0122927D02*
D03*
X0551706Y0126470D02*
D03*
X0603544Y0130151D02*
D03*
X0603544Y0126608D02*
D03*
X0599607Y0109646D02*
D03*
X0599607Y0113189D02*
D03*
D451*
X0550131Y0135131D02*
D03*
X0546587Y0135131D02*
D03*
X0537729Y0114364D02*
D03*
X0541273Y0114364D02*
D03*
X0596046Y0163128D02*
D03*
X0592502Y0163128D02*
D03*
D214*
X0596851Y0167126D02*
D03*
X0600788Y0167126D02*
D03*
D215*
X0543308Y0104331D02*
D03*
X0610237Y0104331D02*
D03*
X0562796Y0104331D02*
D03*
X0562993Y0165354D02*
D03*
X0537796Y0165354D02*
D03*
X0587402Y0165354D02*
D03*
X0570473Y0165354D02*
D03*
X0612008Y0165354D02*
D03*
X0536024Y0104331D02*
D03*
D457*
X0558662Y0150591D02*
D03*
X0558662Y0139567D02*
D03*
D458*
X0562985Y0117913D02*
D03*
X0556765Y0117913D02*
D03*
X0562985Y0132007D02*
D03*
X0556765Y0132007D02*
D03*
X0562985Y0127316D02*
D03*
X0556765Y0127316D02*
D03*
X0562985Y0122624D02*
D03*
X0556765Y0122624D02*
D03*
X0550741Y0130826D02*
D03*
X0544520Y0130826D02*
D03*
D459*
X0599607Y0121336D02*
D03*
X0599607Y0117399D02*
D03*
X0599607Y0126017D02*
D03*
X0599607Y0129954D02*
D03*
X0545670Y0122730D02*
D03*
X0545670Y0126667D02*
D03*
X0567284Y0145663D02*
D03*
X0567284Y0149600D02*
D03*
X0604725Y0153439D02*
D03*
X0604725Y0149501D02*
D03*
D460*
X0592847Y0126450D02*
D03*
X0592847Y0121450D02*
D03*
X0592847Y0116450D02*
D03*
X0592847Y0111450D02*
D03*
X0570210Y0126450D02*
D03*
X0570210Y0121450D02*
D03*
X0570210Y0116450D02*
D03*
X0570210Y0111450D02*
D03*
X0598130Y0149517D02*
D03*
X0598130Y0144517D02*
D03*
X0598130Y0139517D02*
D03*
X0598130Y0134517D02*
D03*
X0574705Y0149517D02*
D03*
X0574705Y0144517D02*
D03*
X0574705Y0139517D02*
D03*
X0574705Y0134517D02*
D03*
D461*
X0581529Y0118950D02*
D03*
D462*
X0586418Y0142017D02*
D03*
X0521260Y0381785D02*
%LPD*%
G01*
D229*
X0612441Y0393399D03*
X0604567Y0405210D03*
X0596693Y0393399D03*
D111*
X0525433Y0392612D03*
X0545433Y0388612D03*
X0545433Y0396612D03*
D231*
X0614921Y0431490D03*
D232*
X0604921Y0431490D03*
X0594921Y0431490D03*
G36*
G01*
X0600965Y0389144D02*
X0600965Y0390502D01*
G75*
G02*
X0601545Y0391083I0000581J0000000D01*
G01*
X0602707Y0391083D01*
G75*
G02*
X0603288Y0390502I0000000J-000581D01*
G01*
X0603288Y0389144D01*
G75*
G02*
X0602707Y0388563I-000581J0000000D01*
G01*
X0601545Y0388563D01*
G75*
G02*
X0600965Y0389144I0000000J0000581D01*
G01*
G37*
G36*
G01*
X0604784Y0389144D02*
X0604784Y0390502D01*
G75*
G02*
X0605364Y0391083I0000581J0000000D01*
G01*
X0606526Y0391083D01*
G75*
G02*
X0607106Y0390502I0000000J-000581D01*
G01*
X0607106Y0389144D01*
G75*
G02*
X0606526Y0388563I-000581J0000000D01*
G01*
X0605364Y0388563D01*
G75*
G02*
X0604784Y0389144I0000000J0000581D01*
G01*
G37*
G36*
G01*
X0615433Y0404433D02*
X0615433Y0405791D01*
G75*
G02*
X0616014Y0406372I0000581J0000000D01*
G01*
X0617175Y0406372D01*
G75*
G02*
X0617756Y0405791I0000000J-000581D01*
G01*
X0617756Y0404433D01*
G75*
G02*
X0617175Y0403852I-000581J0000000D01*
G01*
X0616014Y0403852D01*
G75*
G02*
X0615433Y0404433I0000000J0000581D01*
G01*
G37*
G36*
G01*
X0619252Y0404433D02*
X0619252Y0405791D01*
G75*
G02*
X0619833Y0406372I0000581J0000000D01*
G01*
X0620994Y0406372D01*
G75*
G02*
X0621575Y0405791I0000000J-000581D01*
G01*
X0621575Y0404433D01*
G75*
G02*
X0620994Y0403852I-000581J0000000D01*
G01*
X0619833Y0403852D01*
G75*
G02*
X0619252Y0404433I0000000J0000581D01*
G01*
G37*
G36*
G01*
X0565551Y0430629D02*
X0565551Y0428611D01*
G75*
G02*
X0564690Y0427750I-000861J0000000D01*
G01*
X0562968Y0427750D01*
G75*
G02*
X0562106Y0428611I0000000J0000861D01*
G01*
X0562106Y0430629D01*
G75*
G02*
X0562968Y0431490I0000861J0000000D01*
G01*
X0564690Y0431490D01*
G75*
G02*
X0565551Y0430629I0000000J-000861D01*
G01*
G37*
G36*
G01*
X0559351Y0430629D02*
X0559351Y0428611D01*
G75*
G02*
X0558489Y0427750I-000861J0000000D01*
G01*
X0556767Y0427750D01*
G75*
G02*
X0555906Y0428611I0000000J0000861D01*
G01*
X0555906Y0430629D01*
G75*
G02*
X0556767Y0431490I0000861J0000000D01*
G01*
X0558489Y0431490D01*
G75*
G02*
X0559351Y0430629I0000000J-000861D01*
G01*
G37*
G36*
G01*
X0607106Y0386303D02*
X0607106Y0384944D01*
G75*
G02*
X0606526Y0384364I-000581J0000000D01*
G01*
X0605364Y0384364D01*
G75*
G02*
X0604784Y0384944I0000000J0000581D01*
G01*
X0604784Y0386303D01*
G75*
G02*
X0605364Y0386883I0000581J0000000D01*
G01*
X0606526Y0386883D01*
G75*
G02*
X0607106Y0386303I0000000J-000581D01*
G01*
G37*
G36*
G01*
X0603288Y0386303D02*
X0603288Y0384944D01*
G75*
G02*
X0602707Y0384364I-000581J0000000D01*
G01*
X0601545Y0384364D01*
G75*
G02*
X0600965Y0384944I0000000J0000581D01*
G01*
X0600965Y0386303D01*
G75*
G02*
X0601545Y0386883I0000581J0000000D01*
G01*
X0602707Y0386883D01*
G75*
G02*
X0603288Y0386303I0000000J-000581D01*
G01*
G37*
G36*
G01*
X0547405Y0425299D02*
X0547405Y0426657D01*
G75*
G02*
X0547985Y0427238I0000581J0000000D01*
G01*
X0549147Y0427238D01*
G75*
G02*
X0549727Y0426657I0000000J-000581D01*
G01*
X0549727Y0425299D01*
G75*
G02*
X0549147Y0424718I-000581J0000000D01*
G01*
X0547985Y0424718D01*
G75*
G02*
X0547405Y0425299I0000000J0000581D01*
G01*
G37*
G36*
G01*
X0551223Y0425299D02*
X0551223Y0426657D01*
G75*
G02*
X0551804Y0427238I0000581J0000000D01*
G01*
X0552966Y0427238D01*
G75*
G02*
X0553546Y0426657I0000000J-000581D01*
G01*
X0553546Y0425299D01*
G75*
G02*
X0552966Y0424718I-000581J0000000D01*
G01*
X0551804Y0424718D01*
G75*
G02*
X0551223Y0425299I0000000J0000581D01*
G01*
G37*
G36*
G01*
X0555492Y0423429D02*
X0555492Y0424787D01*
G75*
G02*
X0556073Y0425368I0000581J0000000D01*
G01*
X0557234Y0425368D01*
G75*
G02*
X0557815Y0424787I0000000J-000581D01*
G01*
X0557815Y0423429D01*
G75*
G02*
X0557234Y0422848I-000581J0000000D01*
G01*
X0556073Y0422848D01*
G75*
G02*
X0555492Y0423429I0000000J0000581D01*
G01*
G37*
G36*
G01*
X0559311Y0423429D02*
X0559311Y0424787D01*
G75*
G02*
X0559892Y0425368I0000581J0000000D01*
G01*
X0561053Y0425368D01*
G75*
G02*
X0561634Y0424787I0000000J-000581D01*
G01*
X0561634Y0423429D01*
G75*
G02*
X0561053Y0422848I-000581J0000000D01*
G01*
X0559892Y0422848D01*
G75*
G02*
X0559311Y0423429I0000000J0000581D01*
G01*
G37*
G36*
G01*
X0526880Y0430761D02*
X0528238Y0430761D01*
G75*
G02*
X0528819Y0430181I0000000J-000581D01*
G01*
X0528819Y0429019D01*
G75*
G02*
X0528238Y0428439I-000581J0000000D01*
G01*
X0526880Y0428439D01*
G75*
G02*
X0526299Y0429019I0000000J0000581D01*
G01*
X0526299Y0430181D01*
G75*
G02*
X0526880Y0430761I0000581J0000000D01*
G01*
G37*
G36*
G01*
X0526880Y0426942D02*
X0528238Y0426942D01*
G75*
G02*
X0528819Y0426362I0000000J-000581D01*
G01*
X0528819Y0425200D01*
G75*
G02*
X0528238Y0424620I-000581J0000000D01*
G01*
X0526880Y0424620D01*
G75*
G02*
X0526299Y0425200I0000000J0000581D01*
G01*
X0526299Y0426362D01*
G75*
G02*
X0526880Y0426942I0000581J0000000D01*
G01*
G37*
G36*
G01*
X0576398Y0413173D02*
X0576398Y0411815D01*
G75*
G02*
X0575817Y0411234I-000581J0000000D01*
G01*
X0574656Y0411234D01*
G75*
G02*
X0574075Y0411815I0000000J0000581D01*
G01*
X0574075Y0413173D01*
G75*
G02*
X0574656Y0413754I0000581J0000000D01*
G01*
X0575817Y0413754D01*
G75*
G02*
X0576398Y0413173I0000000J-000581D01*
G01*
G37*
G36*
G01*
X0572579Y0413173D02*
X0572579Y0411815D01*
G75*
G02*
X0571998Y0411234I-000581J0000000D01*
G01*
X0570837Y0411234D01*
G75*
G02*
X0570256Y0411815I0000000J0000581D01*
G01*
X0570256Y0413173D01*
G75*
G02*
X0570837Y0413754I0000581J0000000D01*
G01*
X0571998Y0413754D01*
G75*
G02*
X0572579Y0413173I0000000J-000581D01*
G01*
G37*
G36*
G01*
X0570256Y0407878D02*
X0570256Y0409236D01*
G75*
G02*
X0570837Y0409816I0000581J0000000D01*
G01*
X0571998Y0409816D01*
G75*
G02*
X0572579Y0409236I0000000J-000581D01*
G01*
X0572579Y0407878D01*
G75*
G02*
X0571998Y0407297I-000581J0000000D01*
G01*
X0570837Y0407297D01*
G75*
G02*
X0570256Y0407878I0000000J0000581D01*
G01*
G37*
G36*
G01*
X0574075Y0407878D02*
X0574075Y0409236D01*
G75*
G02*
X0574656Y0409816I0000581J0000000D01*
G01*
X0575817Y0409816D01*
G75*
G02*
X0576398Y0409236I0000000J-000581D01*
G01*
X0576398Y0407878D01*
G75*
G02*
X0575817Y0407297I-000581J0000000D01*
G01*
X0574656Y0407297D01*
G75*
G02*
X0574075Y0407878I0000000J0000581D01*
G01*
G37*
G36*
G01*
X0617736Y0410318D02*
X0617736Y0408960D01*
G75*
G02*
X0617156Y0408379I-000581J0000000D01*
G01*
X0615994Y0408379D01*
G75*
G02*
X0615414Y0408960I0000000J0000581D01*
G01*
X0615414Y0410318D01*
G75*
G02*
X0615994Y0410899I0000581J0000000D01*
G01*
X0617156Y0410899D01*
G75*
G02*
X0617736Y0410318I0000000J-000581D01*
G01*
G37*
G36*
G01*
X0613917Y0410318D02*
X0613917Y0408960D01*
G75*
G02*
X0613337Y0408379I-000581J0000000D01*
G01*
X0612175Y0408379D01*
G75*
G02*
X0611595Y0408960I0000000J0000581D01*
G01*
X0611595Y0410318D01*
G75*
G02*
X0612175Y0410899I0000581J0000000D01*
G01*
X0613337Y0410899D01*
G75*
G02*
X0613917Y0410318I0000000J-000581D01*
G01*
G37*
D233*
X0563386Y0386903D03*
X0563386Y0389462D03*
X0563386Y0392021D03*
X0563386Y0394580D03*
X0563386Y0397139D03*
X0563386Y0399698D03*
X0563386Y0402257D03*
X0586614Y0402257D03*
X0586614Y0399698D03*
X0586614Y0397139D03*
X0586614Y0394580D03*
X0586614Y0392021D03*
X0586614Y0389462D03*
X0586614Y0386903D03*
G36*
G01*
X0553563Y0430397D02*
X0553563Y0429039D01*
G75*
G02*
X0552982Y0428458I-000581J0000000D01*
G01*
X0551821Y0428458D01*
G75*
G02*
X0551240Y0429039I0000000J0000581D01*
G01*
X0551240Y0430397D01*
G75*
G02*
X0551821Y0430978I0000581J0000000D01*
G01*
X0552982Y0430978D01*
G75*
G02*
X0553563Y0430397I0000000J-000581D01*
G01*
G37*
G36*
G01*
X0549744Y0430397D02*
X0549744Y0429039D01*
G75*
G02*
X0549164Y0428458I-000581J0000000D01*
G01*
X0548002Y0428458D01*
G75*
G02*
X0547421Y0429039I0000000J0000581D01*
G01*
X0547421Y0430397D01*
G75*
G02*
X0548002Y0430978I0000581J0000000D01*
G01*
X0549164Y0430978D01*
G75*
G02*
X0549744Y0430397I0000000J-000581D01*
G01*
G37*
G36*
G01*
X0547421Y0432779D02*
X0547421Y0434137D01*
G75*
G02*
X0548002Y0434718I0000581J0000000D01*
G01*
X0549164Y0434718D01*
G75*
G02*
X0549744Y0434137I0000000J-000581D01*
G01*
X0549744Y0432779D01*
G75*
G02*
X0549164Y0432198I-000581J0000000D01*
G01*
X0548002Y0432198D01*
G75*
G02*
X0547421Y0432779I0000000J0000581D01*
G01*
G37*
G36*
G01*
X0551240Y0432779D02*
X0551240Y0434137D01*
G75*
G02*
X0551821Y0434718I0000581J0000000D01*
G01*
X0552982Y0434718D01*
G75*
G02*
X0553563Y0434137I0000000J-000581D01*
G01*
X0553563Y0432779D01*
G75*
G02*
X0552982Y0432198I-000581J0000000D01*
G01*
X0551821Y0432198D01*
G75*
G02*
X0551240Y0432779I0000000J0000581D01*
G01*
G37*
G36*
G01*
X0607658Y0423330D02*
X0607658Y0424689D01*
G75*
G02*
X0608238Y0425269I0000581J0000000D01*
G01*
X0609400Y0425269D01*
G75*
G02*
X0609980Y0424689I0000000J-000581D01*
G01*
X0609980Y0423330D01*
G75*
G02*
X0609400Y0422750I-000581J0000000D01*
G01*
X0608238Y0422750D01*
G75*
G02*
X0607658Y0423330I0000000J0000581D01*
G01*
G37*
G36*
G01*
X0611477Y0423330D02*
X0611477Y0424689D01*
G75*
G02*
X0612057Y0425269I0000581J0000000D01*
G01*
X0613219Y0425269D01*
G75*
G02*
X0613799Y0424689I0000000J-000581D01*
G01*
X0613799Y0423330D01*
G75*
G02*
X0613219Y0422750I-000581J0000000D01*
G01*
X0612057Y0422750D01*
G75*
G02*
X0611477Y0423330I0000000J0000581D01*
G01*
G37*
G36*
G01*
X0600965Y0394032D02*
X0600965Y0395391D01*
G75*
G02*
X0601545Y0395971I0000581J0000000D01*
G01*
X0602707Y0395971D01*
G75*
G02*
X0603288Y0395391I0000000J-000581D01*
G01*
X0603288Y0394032D01*
G75*
G02*
X0602707Y0393452I-000581J0000000D01*
G01*
X0601545Y0393452D01*
G75*
G02*
X0600965Y0394032I0000000J0000581D01*
G01*
G37*
G36*
G01*
X0604784Y0394032D02*
X0604784Y0395391D01*
G75*
G02*
X0605364Y0395971I0000581J0000000D01*
G01*
X0606526Y0395971D01*
G75*
G02*
X0607106Y0395391I0000000J-000581D01*
G01*
X0607106Y0394032D01*
G75*
G02*
X0606526Y0393452I-000581J0000000D01*
G01*
X0605364Y0393452D01*
G75*
G02*
X0604784Y0394032I0000000J0000581D01*
G01*
G37*
G36*
G01*
X0573150Y0417110D02*
X0573150Y0415752D01*
G75*
G02*
X0572569Y0415171I-000581J0000000D01*
G01*
X0571408Y0415171D01*
G75*
G02*
X0570827Y0415752I0000000J0000581D01*
G01*
X0570827Y0417110D01*
G75*
G02*
X0571408Y0417691I0000581J0000000D01*
G01*
X0572569Y0417691D01*
G75*
G02*
X0573150Y0417110I0000000J-000581D01*
G01*
G37*
G36*
G01*
X0569331Y0417110D02*
X0569331Y0415752D01*
G75*
G02*
X0568750Y0415171I-000581J0000000D01*
G01*
X0567589Y0415171D01*
G75*
G02*
X0567008Y0415752I0000000J0000581D01*
G01*
X0567008Y0417110D01*
G75*
G02*
X0567589Y0417691I0000581J0000000D01*
G01*
X0568750Y0417691D01*
G75*
G02*
X0569331Y0417110I0000000J-000581D01*
G01*
G37*
G36*
G01*
X0621477Y0424689D02*
X0621477Y0423330D01*
G75*
G02*
X0620896Y0422750I-000581J0000000D01*
G01*
X0619734Y0422750D01*
G75*
G02*
X0619154Y0423330I0000000J0000581D01*
G01*
X0619154Y0424689D01*
G75*
G02*
X0619734Y0425269I0000581J0000000D01*
G01*
X0620896Y0425269D01*
G75*
G02*
X0621477Y0424689I0000000J-000581D01*
G01*
G37*
G36*
G01*
X0617658Y0424689D02*
X0617658Y0423330D01*
G75*
G02*
X0617077Y0422750I-000581J0000000D01*
G01*
X0615916Y0422750D01*
G75*
G02*
X0615335Y0423330I0000000J0000581D01*
G01*
X0615335Y0424689D01*
G75*
G02*
X0615916Y0425269I0000581J0000000D01*
G01*
X0617077Y0425269D01*
G75*
G02*
X0617658Y0424689I0000000J-000581D01*
G01*
G37*
G36*
G01*
X0569016Y0409236D02*
X0569016Y0407878D01*
G75*
G02*
X0568435Y0407297I-000581J0000000D01*
G01*
X0567274Y0407297D01*
G75*
G02*
X0566693Y0407878I0000000J0000581D01*
G01*
X0566693Y0409236D01*
G75*
G02*
X0567274Y0409816I0000581J0000000D01*
G01*
X0568435Y0409816D01*
G75*
G02*
X0569016Y0409236I0000000J-000581D01*
G01*
G37*
G36*
G01*
X0565197Y0409236D02*
X0565197Y0407878D01*
G75*
G02*
X0564616Y0407297I-000581J0000000D01*
G01*
X0563455Y0407297D01*
G75*
G02*
X0562874Y0407878I0000000J0000581D01*
G01*
X0562874Y0409236D01*
G75*
G02*
X0563455Y0409816I0000581J0000000D01*
G01*
X0564616Y0409816D01*
G75*
G02*
X0565197Y0409236I0000000J-000581D01*
G01*
G37*
G36*
G01*
X0557766Y0384620D02*
X0556408Y0384620D01*
G75*
G02*
X0555827Y0385200I0000000J0000581D01*
G01*
X0555827Y0386362D01*
G75*
G02*
X0556408Y0386942I0000581J0000000D01*
G01*
X0557766Y0386942D01*
G75*
G02*
X0558347Y0386362I0000000J-000581D01*
G01*
X0558347Y0385200D01*
G75*
G02*
X0557766Y0384620I-000581J0000000D01*
G01*
G37*
G36*
G01*
X0557766Y0388439D02*
X0556408Y0388439D01*
G75*
G02*
X0555827Y0389019I0000000J0000581D01*
G01*
X0555827Y0390181D01*
G75*
G02*
X0556408Y0390761I0000581J0000000D01*
G01*
X0557766Y0390761D01*
G75*
G02*
X0558347Y0390181I0000000J-000581D01*
G01*
X0558347Y0389019D01*
G75*
G02*
X0557766Y0388439I-000581J0000000D01*
G01*
G37*
G36*
G01*
X0583878Y0413173D02*
X0583878Y0411815D01*
G75*
G02*
X0583297Y0411234I-000581J0000000D01*
G01*
X0582136Y0411234D01*
G75*
G02*
X0581555Y0411815I0000000J0000581D01*
G01*
X0581555Y0413173D01*
G75*
G02*
X0582136Y0413754I0000581J0000000D01*
G01*
X0583297Y0413754D01*
G75*
G02*
X0583878Y0413173I0000000J-000581D01*
G01*
G37*
G36*
G01*
X0580059Y0413173D02*
X0580059Y0411815D01*
G75*
G02*
X0579479Y0411234I-000581J0000000D01*
G01*
X0578317Y0411234D01*
G75*
G02*
X0577736Y0411815I0000000J0000581D01*
G01*
X0577736Y0413173D01*
G75*
G02*
X0578317Y0413754I0000581J0000000D01*
G01*
X0579479Y0413754D01*
G75*
G02*
X0580059Y0413173I0000000J-000581D01*
G01*
G37*
G36*
G01*
X0585217Y0411815D02*
X0585217Y0413173D01*
G75*
G02*
X0585797Y0413754I0000581J0000000D01*
G01*
X0586959Y0413754D01*
G75*
G02*
X0587540Y0413173I0000000J-000581D01*
G01*
X0587540Y0411815D01*
G75*
G02*
X0586959Y0411234I-000581J0000000D01*
G01*
X0585797Y0411234D01*
G75*
G02*
X0585217Y0411815I0000000J0000581D01*
G01*
G37*
G36*
G01*
X0589036Y0411815D02*
X0589036Y0413173D01*
G75*
G02*
X0589616Y0413754I0000581J0000000D01*
G01*
X0590778Y0413754D01*
G75*
G02*
X0591358Y0413173I0000000J-000581D01*
G01*
X0591358Y0411815D01*
G75*
G02*
X0590778Y0411234I-000581J0000000D01*
G01*
X0589616Y0411234D01*
G75*
G02*
X0589036Y0411815I0000000J0000581D01*
G01*
G37*
G36*
G01*
X0554026Y0384620D02*
X0552667Y0384620D01*
G75*
G02*
X0552087Y0385200I0000000J0000581D01*
G01*
X0552087Y0386362D01*
G75*
G02*
X0552667Y0386942I0000581J0000000D01*
G01*
X0554026Y0386942D01*
G75*
G02*
X0554606Y0386362I0000000J-000581D01*
G01*
X0554606Y0385200D01*
G75*
G02*
X0554026Y0384620I-000581J0000000D01*
G01*
G37*
G36*
G01*
X0554026Y0388439D02*
X0552667Y0388439D01*
G75*
G02*
X0552087Y0389019I0000000J0000581D01*
G01*
X0552087Y0390181D01*
G75*
G02*
X0552667Y0390761I0000581J0000000D01*
G01*
X0554026Y0390761D01*
G75*
G02*
X0554606Y0390181I0000000J-000581D01*
G01*
X0554606Y0389019D01*
G75*
G02*
X0554026Y0388439I-000581J0000000D01*
G01*
G37*
D234*
X0543347Y0433458D03*
X0543347Y0429718D03*
X0543347Y0425978D03*
X0533032Y0425978D03*
X0533032Y0433458D03*
G36*
G01*
X0577835Y0415752D02*
X0577835Y0417110D01*
G75*
G02*
X0578416Y0417691I0000581J0000000D01*
G01*
X0579577Y0417691D01*
G75*
G02*
X0580158Y0417110I0000000J-000581D01*
G01*
X0580158Y0415752D01*
G75*
G02*
X0579577Y0415171I-000581J0000000D01*
G01*
X0578416Y0415171D01*
G75*
G02*
X0577835Y0415752I0000000J0000581D01*
G01*
G37*
G36*
G01*
X0581654Y0415752D02*
X0581654Y0417110D01*
G75*
G02*
X0582234Y0417691I0000581J0000000D01*
G01*
X0583396Y0417691D01*
G75*
G02*
X0583977Y0417110I0000000J-000581D01*
G01*
X0583977Y0415752D01*
G75*
G02*
X0583396Y0415171I-000581J0000000D01*
G01*
X0582234Y0415171D01*
G75*
G02*
X0581654Y0415752I0000000J0000581D01*
G01*
G37*
G36*
G01*
X0565246Y0419856D02*
X0563888Y0419856D01*
G75*
G02*
X0563307Y0420437I0000000J0000581D01*
G01*
X0563307Y0421598D01*
G75*
G02*
X0563888Y0422179I0000581J0000000D01*
G01*
X0565246Y0422179D01*
G75*
G02*
X0565827Y0421598I0000000J-000581D01*
G01*
X0565827Y0420437D01*
G75*
G02*
X0565246Y0419856I-000581J0000000D01*
G01*
G37*
G36*
G01*
X0565246Y0423675D02*
X0563888Y0423675D01*
G75*
G02*
X0563307Y0424255I0000000J0000581D01*
G01*
X0563307Y0425417D01*
G75*
G02*
X0563888Y0425998I0000581J0000000D01*
G01*
X0565246Y0425998D01*
G75*
G02*
X0565827Y0425417I0000000J-000581D01*
G01*
X0565827Y0424255D01*
G75*
G02*
X0565246Y0423675I-000581J0000000D01*
G01*
G37*
G36*
G01*
X0556408Y0399423D02*
X0557766Y0399423D01*
G75*
G02*
X0558347Y0398842I0000000J-000581D01*
G01*
X0558347Y0397681D01*
G75*
G02*
X0557766Y0397100I-000581J0000000D01*
G01*
X0556408Y0397100D01*
G75*
G02*
X0555827Y0397681I0000000J0000581D01*
G01*
X0555827Y0398842D01*
G75*
G02*
X0556408Y0399423I0000581J0000000D01*
G01*
G37*
G36*
G01*
X0556408Y0395604D02*
X0557766Y0395604D01*
G75*
G02*
X0558347Y0395023I0000000J-000581D01*
G01*
X0558347Y0393862D01*
G75*
G02*
X0557766Y0393281I-000581J0000000D01*
G01*
X0556408Y0393281D01*
G75*
G02*
X0555827Y0393862I0000000J0000581D01*
G01*
X0555827Y0395023D01*
G75*
G02*
X0556408Y0395604I0000581J0000000D01*
G01*
G37*
G36*
G01*
X0599528Y0400378D02*
X0599528Y0399019D01*
G75*
G02*
X0598947Y0398439I-000581J0000000D01*
G01*
X0597786Y0398439D01*
G75*
G02*
X0597205Y0399019I0000000J0000581D01*
G01*
X0597205Y0400378D01*
G75*
G02*
X0597786Y0400958I0000581J0000000D01*
G01*
X0598947Y0400958D01*
G75*
G02*
X0599528Y0400378I0000000J-000581D01*
G01*
G37*
G36*
G01*
X0595709Y0400378D02*
X0595709Y0399019D01*
G75*
G02*
X0595128Y0398439I-000581J0000000D01*
G01*
X0593967Y0398439D01*
G75*
G02*
X0593386Y0399019I0000000J0000581D01*
G01*
X0593386Y0400378D01*
G75*
G02*
X0593967Y0400958I0000581J0000000D01*
G01*
X0595128Y0400958D01*
G75*
G02*
X0595709Y0400378I0000000J-000581D01*
G01*
G37*
G36*
G01*
X0607106Y0400378D02*
X0607106Y0399019D01*
G75*
G02*
X0606526Y0398439I-000581J0000000D01*
G01*
X0605364Y0398439D01*
G75*
G02*
X0604784Y0399019I0000000J0000581D01*
G01*
X0604784Y0400378D01*
G75*
G02*
X0605364Y0400958I0000581J0000000D01*
G01*
X0606526Y0400958D01*
G75*
G02*
X0607106Y0400378I0000000J-000581D01*
G01*
G37*
G36*
G01*
X0603288Y0400378D02*
X0603288Y0399019D01*
G75*
G02*
X0602707Y0398439I-000581J0000000D01*
G01*
X0601545Y0398439D01*
G75*
G02*
X0600965Y0399019I0000000J0000581D01*
G01*
X0600965Y0400378D01*
G75*
G02*
X0601545Y0400958I0000581J0000000D01*
G01*
X0602707Y0400958D01*
G75*
G02*
X0603288Y0400378I0000000J-000581D01*
G01*
G37*
G36*
G01*
X0552667Y0399423D02*
X0554026Y0399423D01*
G75*
G02*
X0554606Y0398842I0000000J-000581D01*
G01*
X0554606Y0397681D01*
G75*
G02*
X0554026Y0397100I-000581J0000000D01*
G01*
X0552667Y0397100D01*
G75*
G02*
X0552087Y0397681I0000000J0000581D01*
G01*
X0552087Y0398842D01*
G75*
G02*
X0552667Y0399423I0000581J0000000D01*
G01*
G37*
G36*
G01*
X0552667Y0395604D02*
X0554026Y0395604D01*
G75*
G02*
X0554606Y0395023I0000000J-000581D01*
G01*
X0554606Y0393862D01*
G75*
G02*
X0554026Y0393281I-000581J0000000D01*
G01*
X0552667Y0393281D01*
G75*
G02*
X0552087Y0393862I0000000J0000581D01*
G01*
X0552087Y0395023D01*
G75*
G02*
X0552667Y0395604I0000581J0000000D01*
G01*
G37*
G36*
G01*
X0587028Y0409236D02*
X0587028Y0407878D01*
G75*
G02*
X0586447Y0407297I-000581J0000000D01*
G01*
X0585286Y0407297D01*
G75*
G02*
X0584705Y0407878I0000000J0000581D01*
G01*
X0584705Y0409236D01*
G75*
G02*
X0585286Y0409816I0000581J0000000D01*
G01*
X0586447Y0409816D01*
G75*
G02*
X0587028Y0409236I0000000J-000581D01*
G01*
G37*
G36*
G01*
X0583209Y0409236D02*
X0583209Y0407878D01*
G75*
G02*
X0582628Y0407297I-000581J0000000D01*
G01*
X0581467Y0407297D01*
G75*
G02*
X0580886Y0407878I0000000J0000581D01*
G01*
X0580886Y0409236D01*
G75*
G02*
X0581467Y0409816I0000581J0000000D01*
G01*
X0582628Y0409816D01*
G75*
G02*
X0583209Y0409236I0000000J-000581D01*
G01*
G37*
G36*
G01*
X0548927Y0399423D02*
X0550286Y0399423D01*
G75*
G02*
X0550866Y0398842I0000000J-000581D01*
G01*
X0550866Y0397681D01*
G75*
G02*
X0550286Y0397100I-000581J0000000D01*
G01*
X0548927Y0397100D01*
G75*
G02*
X0548347Y0397681I0000000J0000581D01*
G01*
X0548347Y0398842D01*
G75*
G02*
X0548927Y0399423I0000581J0000000D01*
G01*
G37*
G36*
G01*
X0548927Y0395604D02*
X0550286Y0395604D01*
G75*
G02*
X0550866Y0395023I0000000J-000581D01*
G01*
X0550866Y0393862D01*
G75*
G02*
X0550286Y0393281I-000581J0000000D01*
G01*
X0548927Y0393281D01*
G75*
G02*
X0548347Y0393862I0000000J0000581D01*
G01*
X0548347Y0395023D01*
G75*
G02*
X0548927Y0395604I0000581J0000000D01*
G01*
G37*
G36*
G01*
X0548927Y0390761D02*
X0550286Y0390761D01*
G75*
G02*
X0550866Y0390181I0000000J-000581D01*
G01*
X0550866Y0389019D01*
G75*
G02*
X0550286Y0388439I-000581J0000000D01*
G01*
X0548927Y0388439D01*
G75*
G02*
X0548347Y0389019I0000000J0000581D01*
G01*
X0548347Y0390181D01*
G75*
G02*
X0548927Y0390761I0000581J0000000D01*
G01*
G37*
G36*
G01*
X0548927Y0386942D02*
X0550286Y0386942D01*
G75*
G02*
X0550866Y0386362I0000000J-000581D01*
G01*
X0550866Y0385200D01*
G75*
G02*
X0550286Y0384620I-000581J0000000D01*
G01*
X0548927Y0384620D01*
G75*
G02*
X0548347Y0385200I0000000J0000581D01*
G01*
X0548347Y0386362D01*
G75*
G02*
X0548927Y0386942I0000581J0000000D01*
G01*
G37*
G36*
G01*
X0534114Y0396568D02*
X0534114Y0397907D01*
G75*
G02*
X0534665Y0398458I0000551J0000000D01*
G01*
X0535768Y0398458D01*
G75*
G02*
X0536319Y0397907I0000000J-000551D01*
G01*
X0536319Y0396568D01*
G75*
G02*
X0535768Y0396017I-000551J0000000D01*
G01*
X0534665Y0396017D01*
G75*
G02*
X0534114Y0396568I0000000J0000551D01*
G01*
G37*
G36*
G01*
X0537894Y0396568D02*
X0537894Y0397907D01*
G75*
G02*
X0538445Y0398458I0000551J0000000D01*
G01*
X0539547Y0398458D01*
G75*
G02*
X0540098Y0397907I0000000J-000551D01*
G01*
X0540098Y0396568D01*
G75*
G02*
X0539547Y0396017I-000551J0000000D01*
G01*
X0538445Y0396017D01*
G75*
G02*
X0537894Y0396568I0000000J0000551D01*
G01*
G37*
G36*
G01*
X0589055Y0422828D02*
X0589055Y0421372D01*
G75*
G02*
X0588524Y0420840I-000531J0000000D01*
G01*
X0587461Y0420840D01*
G75*
G02*
X0586929Y0421372I0000000J0000531D01*
G01*
X0586929Y0422828D01*
G75*
G02*
X0587461Y0423360I0000531J0000000D01*
G01*
X0588524Y0423360D01*
G75*
G02*
X0589055Y0422828I0000000J-000531D01*
G01*
G37*
G36*
G01*
X0585040Y0422828D02*
X0585040Y0421372D01*
G75*
G02*
X0584508Y0420840I-000531J0000000D01*
G01*
X0583445Y0420840D01*
G75*
G02*
X0582914Y0421372I0000000J0000531D01*
G01*
X0582914Y0422828D01*
G75*
G02*
X0583445Y0423360I0000531J0000000D01*
G01*
X0584508Y0423360D01*
G75*
G02*
X0585040Y0422828I0000000J-000531D01*
G01*
G37*
G36*
G01*
X0528327Y0408295D02*
X0526870Y0408295D01*
G75*
G02*
X0526339Y0408827I0000000J0000531D01*
G01*
X0526339Y0409890D01*
G75*
G02*
X0526870Y0410421I0000531J0000000D01*
G01*
X0528327Y0410421D01*
G75*
G02*
X0528858Y0409890I0000000J-000531D01*
G01*
X0528858Y0408827D01*
G75*
G02*
X0528327Y0408295I-000531J0000000D01*
G01*
G37*
G36*
G01*
X0528327Y0412311D02*
X0526870Y0412311D01*
G75*
G02*
X0526339Y0412843I0000000J0000531D01*
G01*
X0526339Y0413906D01*
G75*
G02*
X0526870Y0414437I0000531J0000000D01*
G01*
X0528327Y0414437D01*
G75*
G02*
X0528858Y0413906I0000000J-000531D01*
G01*
X0528858Y0412843D01*
G75*
G02*
X0528327Y0412311I-000531J0000000D01*
G01*
G37*
G36*
G01*
X0528937Y0384344D02*
X0528937Y0385525D01*
G75*
G02*
X0529528Y0386116I0000591J0000000D01*
G01*
X0534154Y0386116D01*
G75*
G02*
X0534744Y0385525I0000000J-000591D01*
G01*
X0534744Y0384344D01*
G75*
G02*
X0534154Y0383754I-000591J0000000D01*
G01*
X0529528Y0383754D01*
G75*
G02*
X0528937Y0384344I0000000J0000591D01*
G01*
G37*
G36*
G01*
X0528937Y0391824D02*
X0528937Y0393005D01*
G75*
G02*
X0529528Y0393596I0000591J0000000D01*
G01*
X0534154Y0393596D01*
G75*
G02*
X0534744Y0393005I0000000J-000591D01*
G01*
X0534744Y0391824D01*
G75*
G02*
X0534154Y0391234I-000591J0000000D01*
G01*
X0529528Y0391234D01*
G75*
G02*
X0528937Y0391824I0000000J0000591D01*
G01*
G37*
G36*
G01*
X0536319Y0388084D02*
X0536319Y0389265D01*
G75*
G02*
X0536910Y0389856I0000591J0000000D01*
G01*
X0541536Y0389856D01*
G75*
G02*
X0542126Y0389265I0000000J-000591D01*
G01*
X0542126Y0388084D01*
G75*
G02*
X0541536Y0387494I-000591J0000000D01*
G01*
X0536910Y0387494D01*
G75*
G02*
X0536319Y0388084I0000000J0000591D01*
G01*
G37*
G36*
G01*
X0526890Y0422276D02*
X0528229Y0422276D01*
G75*
G02*
X0528780Y0421724I0000000J-000551D01*
G01*
X0528780Y0420622D01*
G75*
G02*
X0528229Y0420071I-000551J0000000D01*
G01*
X0526890Y0420071D01*
G75*
G02*
X0526339Y0420622I0000000J0000551D01*
G01*
X0526339Y0421724D01*
G75*
G02*
X0526890Y0422276I0000551J0000000D01*
G01*
G37*
G36*
G01*
X0526890Y0418496D02*
X0528229Y0418496D01*
G75*
G02*
X0528780Y0417945I0000000J-000551D01*
G01*
X0528780Y0416843D01*
G75*
G02*
X0528229Y0416291I-000551J0000000D01*
G01*
X0526890Y0416291D01*
G75*
G02*
X0526339Y0416843I0000000J0000551D01*
G01*
X0526339Y0417945D01*
G75*
G02*
X0526890Y0418496I0000551J0000000D01*
G01*
G37*
G36*
G01*
X0557677Y0419205D02*
X0557677Y0418024D01*
G75*
G02*
X0557087Y0417433I-000591J0000000D01*
G01*
X0551378Y0417433D01*
G75*
G02*
X0550788Y0418024I0000000J0000591D01*
G01*
X0550788Y0419205D01*
G75*
G02*
X0551378Y0419795I0000591J0000000D01*
G01*
X0557087Y0419795D01*
G75*
G02*
X0557677Y0419205I0000000J-000591D01*
G01*
G37*
G36*
G01*
X0557677Y0414205D02*
X0557677Y0413024D01*
G75*
G02*
X0557087Y0412433I-000591J0000000D01*
G01*
X0551378Y0412433D01*
G75*
G02*
X0550788Y0413024I0000000J0000591D01*
G01*
X0550788Y0414205D01*
G75*
G02*
X0551378Y0414795I0000591J0000000D01*
G01*
X0557087Y0414795D01*
G75*
G02*
X0557677Y0414205I0000000J-000591D01*
G01*
G37*
G36*
G01*
X0557677Y0409205D02*
X0557677Y0408024D01*
G75*
G02*
X0557087Y0407433I-000591J0000000D01*
G01*
X0551378Y0407433D01*
G75*
G02*
X0550788Y0408024I0000000J0000591D01*
G01*
X0550788Y0409205D01*
G75*
G02*
X0551378Y0409795I0000591J0000000D01*
G01*
X0557087Y0409795D01*
G75*
G02*
X0557677Y0409205I0000000J-000591D01*
G01*
G37*
G36*
G01*
X0557677Y0404205D02*
X0557677Y0403024D01*
G75*
G02*
X0557087Y0402433I-000591J0000000D01*
G01*
X0551378Y0402433D01*
G75*
G02*
X0550788Y0403024I0000000J0000591D01*
G01*
X0550788Y0404205D01*
G75*
G02*
X0551378Y0404795I0000591J0000000D01*
G01*
X0557087Y0404795D01*
G75*
G02*
X0557677Y0404205I0000000J-000591D01*
G01*
G37*
G36*
G01*
X0537402Y0404205D02*
X0537402Y0403024D01*
G75*
G02*
X0536811Y0402433I-000591J0000000D01*
G01*
X0531103Y0402433D01*
G75*
G02*
X0530512Y0403024I0000000J0000591D01*
G01*
X0530512Y0404205D01*
G75*
G02*
X0531103Y0404795I0000591J0000000D01*
G01*
X0536811Y0404795D01*
G75*
G02*
X0537402Y0404205I0000000J-000591D01*
G01*
G37*
G36*
G01*
X0537402Y0409205D02*
X0537402Y0408024D01*
G75*
G02*
X0536811Y0407433I-000591J0000000D01*
G01*
X0531103Y0407433D01*
G75*
G02*
X0530512Y0408024I0000000J0000591D01*
G01*
X0530512Y0409205D01*
G75*
G02*
X0531103Y0409795I0000591J0000000D01*
G01*
X0536811Y0409795D01*
G75*
G02*
X0537402Y0409205I0000000J-000591D01*
G01*
G37*
G36*
G01*
X0537402Y0414205D02*
X0537402Y0413024D01*
G75*
G02*
X0536811Y0412433I-000591J0000000D01*
G01*
X0531103Y0412433D01*
G75*
G02*
X0530512Y0413024I0000000J0000591D01*
G01*
X0530512Y0414205D01*
G75*
G02*
X0531103Y0414795I0000591J0000000D01*
G01*
X0536811Y0414795D01*
G75*
G02*
X0537402Y0414205I0000000J-000591D01*
G01*
G37*
G36*
G01*
X0537402Y0419205D02*
X0537402Y0418024D01*
G75*
G02*
X0536811Y0417433I-000591J0000000D01*
G01*
X0531103Y0417433D01*
G75*
G02*
X0530512Y0418024I0000000J0000591D01*
G01*
X0530512Y0419205D01*
G75*
G02*
X0531103Y0419795I0000591J0000000D01*
G01*
X0536811Y0419795D01*
G75*
G02*
X0537402Y0419205I0000000J-000591D01*
G01*
G37*
X0145571Y0179744D02*
G01*
G75*
D214*
X0096063Y0186338D02*
D03*
X0097244Y0202382D02*
D03*
X0124311Y0209665D02*
D03*
X0121752Y0204508D02*
D03*
X0115354Y0202736D02*
D03*
X0116634Y0209665D02*
D03*
X0112008Y0202441D02*
D03*
X0108563Y0201594D02*
D03*
X0106398Y0209665D02*
D03*
X0104725Y0202441D02*
D03*
M02*
