G75*
G70*
%OFA0B0*%
%FSLAX25Y25*%
%IPPOS*%
%LPD*%
%AMOC8*
5,1,8,0,0,1.08239X$1,22.5*
%
%ADD10C,0.05906*%
%ADD11C,0.07874*%
%ADD12C,0.23917*%
X0000000Y0000000D02*
%LPD*%
G01*
D10*
X0388838Y0064998D03*
X0400649Y0064998D03*
X0412460Y0064998D03*
X0424273Y0064998D03*
X0436083Y0064998D03*
X0447894Y0064998D03*
X0459705Y0064998D03*
X0471518Y0064998D03*
X0483329Y0064998D03*
X0495140Y0064998D03*
X0388838Y0049250D03*
X0400649Y0049250D03*
X0412460Y0049250D03*
X0424273Y0049250D03*
X0436083Y0049250D03*
X0447894Y0049250D03*
X0459705Y0049250D03*
X0471518Y0049250D03*
X0483329Y0049250D03*
X0495140Y0049250D03*
X0516004Y0064998D03*
X0527817Y0064998D03*
X0539626Y0064998D03*
X0551437Y0064998D03*
X0563250Y0064998D03*
X0575061Y0064998D03*
X0586872Y0064998D03*
X0598683Y0064998D03*
X0516004Y0049250D03*
X0527817Y0049250D03*
X0539626Y0049250D03*
X0575061Y0049250D03*
X0586872Y0049250D03*
X0598683Y0049250D03*
D11*
X0196712Y0056338D03*
X0216397Y0056338D03*
X0236083Y0056338D03*
X0255768Y0056338D03*
X0275453Y0056338D03*
X0295138Y0056338D03*
X0206555Y0072086D03*
X0226240Y0072086D03*
X0245925Y0072086D03*
X0196712Y0087834D03*
X0216397Y0087834D03*
X0275453Y0087834D03*
X0295138Y0087834D03*
X0265610Y0072086D03*
X0285295Y0072086D03*
D10*
X0551439Y0049250D03*
X0563250Y0049250D03*
D12*
X0165216Y0036653D03*
X0326634Y0036653D03*
X0361476Y0027598D03*
X0626043Y0027598D03*
M02*
