G75*
G70*
%OFA0B0*%
%FSLAX25Y25*%
%IPPOS*%
%LPD*%
%AMOC8*
5,1,8,0,0,1.08239X$1,22.5*
%
%ADD69C,0.00394*%
%ADD70C,0.00197*%
X0000000Y0000000D02*
%LPD*%
G01*
D69*
X0057421Y0010511D02*
X0057421Y0007913D01*
X0650748Y0471200D02*
G75*
G02*
X0635000Y0471200I-007874J0000000D01*
G01*
X0635000Y0471200D02*
G75*
G02*
X0650748Y0471200I0007874J0000000D01*
G01*
X0033799Y0034134D02*
G75*
G02*
X0057422Y0010511I0000000J-023622D01*
G01*
X0651910Y0007874D02*
X0651910Y0010551D01*
D70*
X0711693Y0436634D02*
X0709429Y0042008D01*
D69*
X0687638Y0444466D02*
G75*
G02*
X0664016Y0468405I0000000J0023624D01*
G01*
X0065335Y0000000D02*
G75*
G02*
X0057422Y0007913I0000000J0007913D01*
G01*
X0703858Y0444468D02*
G75*
G02*
X0711693Y0436634I0000000J-007835D01*
G01*
X0709429Y0042008D02*
G75*
G02*
X0701555Y0034134I-007874J0000000D01*
G01*
X0651910Y0007874D02*
G75*
G02*
X0644036Y0000000I-007874J0000000D01*
G01*
X0656142Y0488405D02*
G75*
G02*
X0664016Y0480531I0000000J-007874D01*
G01*
X0693760Y0056338D02*
G75*
G02*
X0678012Y0056338I-007874J0000000D01*
G01*
X0678012Y0056338D02*
G75*
G02*
X0693760Y0056338I0007874J0000000D01*
G01*
X0701555Y0034134D02*
X0675571Y0034185D01*
X0087461Y0020905D02*
G75*
G02*
X0071713Y0020905I-007874J0000000D01*
G01*
X0071713Y0020905D02*
G75*
G02*
X0087461Y0020905I0007874J0000000D01*
G01*
X0057677Y0488405D02*
X0656142Y0488405D01*
X0065335Y0000000D02*
X0644036Y0000000D01*
D70*
X0002264Y0436634D02*
X0000000Y0041614D01*
D69*
X0049921Y0480649D02*
G75*
G02*
X0057677Y0488405I0007756J0000000D01*
G01*
X0010118Y0444488D02*
X0026299Y0444488D01*
X0007481Y0034134D02*
G75*
G02*
X0000000Y0041614I0000000J0007480D01*
G01*
X0049921Y0468377D02*
G75*
G02*
X0026299Y0444488I-023622J-000266D01*
G01*
X0703858Y0444466D02*
X0687638Y0444466D01*
X0695729Y0416737D02*
G75*
G02*
X0679981Y0416737I-007874J0000000D01*
G01*
X0679981Y0416737D02*
G75*
G02*
X0695729Y0416737I0007874J0000000D01*
G01*
X0651910Y0010551D02*
G75*
G02*
X0675571Y0034185I0023726J-000092D01*
G01*
X0002264Y0436634D02*
G75*
G02*
X0010118Y0444488I0007854J0000000D01*
G01*
X0007481Y0034134D02*
X0033799Y0034134D01*
X0040217Y0398858D02*
G75*
G02*
X0024469Y0398858I-007874J0000000D01*
G01*
X0024469Y0398858D02*
G75*
G02*
X0040217Y0398858I0007874J0000000D01*
G01*
X0079882Y0471200D02*
G75*
G02*
X0064134Y0471200I-007874J0000000D01*
G01*
X0064134Y0471200D02*
G75*
G02*
X0079882Y0471200I0007874J0000000D01*
G01*
X0049921Y0480649D02*
X0049921Y0468377D01*
X0664016Y0480531D02*
X0664016Y0468405D01*
X0200689Y0266043D02*
G01*
G75*
X0615157Y0099409D02*
G01*
G75*
X0383858Y0241339D02*
G01*
G75*
X0206811Y0179875D02*
G01*
G75*
M02*
