G75*
G70*
%OFA0B0*%
%FSLAX25Y25*%
%IPPOS*%
%LPD*%
%AMOC8*
5,1,8,0,0,1.08239X$1,22.5*
%
%AMM108*
21,1,0.092130,0.073230,-0.000000,0.000000,0.000000*
21,1,0.069290,0.096060,-0.000000,0.000000,0.000000*
1,1,0.022840,0.034650,-0.036610*
1,1,0.022840,-0.034650,-0.036610*
1,1,0.022840,-0.034650,0.036610*
1,1,0.022840,0.034650,0.036610*
%
%AMM109*
21,1,0.100000,0.111020,-0.000000,0.000000,90.000000*
21,1,0.075590,0.135430,-0.000000,0.000000,90.000000*
1,1,0.024410,0.055510,0.037800*
1,1,0.024410,0.055510,-0.037800*
1,1,0.024410,-0.055510,-0.037800*
1,1,0.024410,-0.055510,0.037800*
%
%AMM110*
21,1,0.080320,0.083460,-0.000000,0.000000,90.000000*
21,1,0.059840,0.103940,-0.000000,0.000000,90.000000*
1,1,0.020470,0.041730,0.029920*
1,1,0.020470,0.041730,-0.029920*
1,1,0.020470,-0.041730,-0.029920*
1,1,0.020470,-0.041730,0.029920*
%
%AMM111*
21,1,0.084250,0.053540,-0.000000,0.000000,270.000000*
21,1,0.065350,0.072440,-0.000000,0.000000,270.000000*
1,1,0.018900,-0.026770,-0.032680*
1,1,0.018900,-0.026770,0.032680*
1,1,0.018900,0.026770,0.032680*
1,1,0.018900,0.026770,-0.032680*
%
%AMM112*
21,1,0.040950,0.030320,-0.000000,0.000000,180.000000*
21,1,0.028350,0.042910,-0.000000,0.000000,180.000000*
1,1,0.012600,-0.014170,0.015160*
1,1,0.012600,0.014170,0.015160*
1,1,0.012600,0.014170,-0.015160*
1,1,0.012600,-0.014170,-0.015160*
%
%AMM113*
21,1,0.027170,0.052760,-0.000000,0.000000,0.000000*
21,1,0.017320,0.062600,-0.000000,0.000000,0.000000*
1,1,0.009840,0.008660,-0.026380*
1,1,0.009840,-0.008660,-0.026380*
1,1,0.009840,-0.008660,0.026380*
1,1,0.009840,0.008660,0.026380*
%
%AMM114*
21,1,0.041340,0.026770,-0.000000,0.000000,90.000000*
21,1,0.029130,0.038980,-0.000000,0.000000,90.000000*
1,1,0.012210,0.013390,0.014570*
1,1,0.012210,0.013390,-0.014570*
1,1,0.012210,-0.013390,-0.014570*
1,1,0.012210,-0.013390,0.014570*
%
%AMM115*
21,1,0.076380,0.036220,-0.000000,0.000000,180.000000*
21,1,0.061810,0.050790,-0.000000,0.000000,180.000000*
1,1,0.014570,-0.030910,0.018110*
1,1,0.014570,0.030910,0.018110*
1,1,0.014570,0.030910,-0.018110*
1,1,0.014570,-0.030910,-0.018110*
%
%AMM116*
21,1,0.038980,0.026770,-0.000000,0.000000,90.000000*
21,1,0.026770,0.038980,-0.000000,0.000000,90.000000*
1,1,0.012210,0.013390,0.013390*
1,1,0.012210,0.013390,-0.013390*
1,1,0.012210,-0.013390,-0.013390*
1,1,0.012210,-0.013390,0.013390*
%
%AMM117*
21,1,0.021260,0.016540,-0.000000,0.000000,0.000000*
21,1,0.012600,0.025200,-0.000000,0.000000,0.000000*
1,1,0.008660,0.006300,-0.008270*
1,1,0.008660,-0.006300,-0.008270*
1,1,0.008660,-0.006300,0.008270*
1,1,0.008660,0.006300,0.008270*
%
%AMM118*
21,1,0.029130,0.018900,-0.000000,0.000000,180.000000*
21,1,0.018900,0.029130,-0.000000,0.000000,180.000000*
1,1,0.010240,-0.009450,0.009450*
1,1,0.010240,0.009450,0.009450*
1,1,0.010240,0.009450,-0.009450*
1,1,0.010240,-0.009450,-0.009450*
%
%AMM119*
21,1,0.025200,0.019680,-0.000000,0.000000,90.000000*
21,1,0.015750,0.029130,-0.000000,0.000000,90.000000*
1,1,0.009450,0.009840,0.007870*
1,1,0.009450,0.009840,-0.007870*
1,1,0.009450,-0.009840,-0.007870*
1,1,0.009450,-0.009840,0.007870*
%
%AMM120*
21,1,0.025200,0.019680,-0.000000,0.000000,0.000000*
21,1,0.015750,0.029130,-0.000000,0.000000,0.000000*
1,1,0.009450,0.007870,-0.009840*
1,1,0.009450,-0.007870,-0.009840*
1,1,0.009450,-0.007870,0.009840*
1,1,0.009450,0.007870,0.009840*
%
%AMM17*
21,1,0.039370,0.030320,0.000000,0.000000,90.000000*
21,1,0.028350,0.041340,0.000000,0.000000,90.000000*
1,1,0.011020,0.015160,0.014170*
1,1,0.011020,0.015160,-0.014170*
1,1,0.011020,-0.015160,-0.014170*
1,1,0.011020,-0.015160,0.014170*
%
%AMM18*
21,1,0.047240,0.075980,0.000000,0.000000,0.000000*
21,1,0.034650,0.088580,0.000000,0.000000,0.000000*
1,1,0.012600,0.017320,-0.037990*
1,1,0.012600,-0.017320,-0.037990*
1,1,0.012600,-0.017320,0.037990*
1,1,0.012600,0.017320,0.037990*
%
%AMM19*
21,1,0.047240,0.075990,0.000000,0.000000,0.000000*
21,1,0.034650,0.088580,0.000000,0.000000,0.000000*
1,1,0.012600,0.017320,-0.037990*
1,1,0.012600,-0.017320,-0.037990*
1,1,0.012600,-0.017320,0.037990*
1,1,0.012600,0.017320,0.037990*
%
%AMM20*
21,1,0.141730,0.067720,0.000000,0.000000,0.000000*
21,1,0.120870,0.088580,0.000000,0.000000,0.000000*
1,1,0.020870,0.060430,-0.033860*
1,1,0.020870,-0.060430,-0.033860*
1,1,0.020870,-0.060430,0.033860*
1,1,0.020870,0.060430,0.033860*
%
%AMM21*
21,1,0.043310,0.035430,0.000000,0.000000,0.000000*
21,1,0.031500,0.047240,0.000000,0.000000,0.000000*
1,1,0.011810,0.015750,-0.017720*
1,1,0.011810,-0.015750,-0.017720*
1,1,0.011810,-0.015750,0.017720*
1,1,0.011810,0.015750,0.017720*
%
%AMM22*
21,1,0.027560,0.030710,0.000000,0.000000,180.000000*
21,1,0.018900,0.039370,0.000000,0.000000,180.000000*
1,1,0.008660,-0.009450,0.015350*
1,1,0.008660,0.009450,0.015350*
1,1,0.008660,0.009450,-0.015350*
1,1,0.008660,-0.009450,-0.015350*
%
%AMM23*
21,1,0.031500,0.018900,0.000000,0.000000,180.000000*
21,1,0.022840,0.027560,0.000000,0.000000,180.000000*
1,1,0.008660,-0.011420,0.009450*
1,1,0.008660,0.011420,0.009450*
1,1,0.008660,0.011420,-0.009450*
1,1,0.008660,-0.011420,-0.009450*
%
%AMM24*
21,1,0.027560,0.030710,0.000000,0.000000,270.000000*
21,1,0.018900,0.039370,0.000000,0.000000,270.000000*
1,1,0.008660,-0.015350,-0.009450*
1,1,0.008660,-0.015350,0.009450*
1,1,0.008660,0.015350,0.009450*
1,1,0.008660,0.015350,-0.009450*
%
%AMM25*
21,1,0.090550,0.073230,0.000000,0.000000,90.000000*
21,1,0.069290,0.094490,0.000000,0.000000,90.000000*
1,1,0.021260,0.036610,0.034650*
1,1,0.021260,0.036610,-0.034650*
1,1,0.021260,-0.036610,-0.034650*
1,1,0.021260,-0.036610,0.034650*
%
%AMM26*
21,1,0.029530,0.026380,0.000000,0.000000,90.000000*
21,1,0.020470,0.035430,0.000000,0.000000,90.000000*
1,1,0.009060,0.013190,0.010240*
1,1,0.009060,0.013190,-0.010240*
1,1,0.009060,-0.013190,-0.010240*
1,1,0.009060,-0.013190,0.010240*
%
%AMM27*
21,1,0.021650,0.027950,0.000000,0.000000,90.000000*
21,1,0.014170,0.035430,0.000000,0.000000,90.000000*
1,1,0.007480,0.013980,0.007090*
1,1,0.007480,0.013980,-0.007090*
1,1,0.007480,-0.013980,-0.007090*
1,1,0.007480,-0.013980,0.007090*
%
%AMM28*
21,1,0.035430,0.072440,0.000000,0.000000,90.000000*
21,1,0.025200,0.082680,0.000000,0.000000,90.000000*
1,1,0.010240,0.036220,0.012600*
1,1,0.010240,0.036220,-0.012600*
1,1,0.010240,-0.036220,-0.012600*
1,1,0.010240,-0.036220,0.012600*
%
%AMM29*
21,1,0.016540,0.028980,0.000000,0.000000,90.000000*
21,1,0.010080,0.035430,0.000000,0.000000,90.000000*
1,1,0.006460,0.014490,0.005040*
1,1,0.006460,0.014490,-0.005040*
1,1,0.006460,-0.014490,-0.005040*
1,1,0.006460,-0.014490,0.005040*
%
%AMM30*
21,1,0.016540,0.028980,0.000000,0.000000,180.000000*
21,1,0.010080,0.035430,0.000000,0.000000,180.000000*
1,1,0.006460,-0.005040,0.014490*
1,1,0.006460,0.005040,0.014490*
1,1,0.006460,0.005040,-0.014490*
1,1,0.006460,-0.005040,-0.014490*
%
%AMM31*
21,1,0.043310,0.035430,0.000000,0.000000,270.000000*
21,1,0.031500,0.047240,0.000000,0.000000,270.000000*
1,1,0.011810,-0.017720,-0.015750*
1,1,0.011810,-0.017720,0.015750*
1,1,0.011810,0.017720,0.015750*
1,1,0.011810,0.017720,-0.015750*
%
%AMM32*
21,1,0.031500,0.018900,0.000000,0.000000,90.000000*
21,1,0.022840,0.027560,0.000000,0.000000,90.000000*
1,1,0.008660,0.009450,0.011420*
1,1,0.008660,0.009450,-0.011420*
1,1,0.008660,-0.009450,-0.011420*
1,1,0.008660,-0.009450,0.011420*
%
%AMM77*
21,1,0.038980,0.026770,0.000000,0.000000,0.000000*
21,1,0.026770,0.038980,0.000000,0.000000,0.000000*
1,1,0.012210,0.013390,-0.013390*
1,1,0.012210,-0.013390,-0.013390*
1,1,0.012210,-0.013390,0.013390*
1,1,0.012210,0.013390,0.013390*
%
%AMM93*
21,1,0.033070,0.030710,0.000000,0.000000,0.000000*
21,1,0.022050,0.041730,0.000000,0.000000,0.000000*
1,1,0.011020,0.011020,-0.015350*
1,1,0.011020,-0.011020,-0.015350*
1,1,0.011020,-0.011020,0.015350*
1,1,0.011020,0.011020,0.015350*
%
%AMM94*
21,1,0.033070,0.030710,0.000000,0.000000,270.000000*
21,1,0.022050,0.041730,0.000000,0.000000,270.000000*
1,1,0.011020,-0.015350,-0.011020*
1,1,0.011020,-0.015350,0.011020*
1,1,0.011020,0.015350,0.011020*
1,1,0.011020,0.015350,-0.011020*
%
%ADD10R,0.22835X0.25197*%
%ADD100C,0.03900*%
%ADD103O,0.01260X0.05512*%
%ADD104O,0.05512X0.01260*%
%ADD105M17*%
%ADD106M18*%
%ADD107M19*%
%ADD108M20*%
%ADD109M21*%
%ADD11O,0.07283X0.06693*%
%ADD110M22*%
%ADD111C,0.03494*%
%ADD112M23*%
%ADD113M24*%
%ADD114M25*%
%ADD115C,0.03543*%
%ADD116M26*%
%ADD117M27*%
%ADD118M28*%
%ADD119O,0.01575X0.04724*%
%ADD120O,0.04724X0.01575*%
%ADD121M29*%
%ADD122O,0.09055X0.02756*%
%ADD123M30*%
%ADD124R,0.01870X0.01772*%
%ADD125R,0.01772X0.01870*%
%ADD126M31*%
%ADD127M32*%
%ADD128C,0.04294*%
%ADD129C,0.04724*%
%ADD13C,0.02362*%
%ADD198M77*%
%ADD203C,0.02913*%
%ADD204C,0.06457*%
%ADD216R,0.03543X0.03150*%
%ADD218C,0.05118*%
%ADD219R,0.03150X0.03543*%
%ADD237O,0.01339X0.02126*%
%ADD238O,0.05512X0.01535*%
%ADD239M93*%
%ADD240M94*%
%ADD255M108*%
%ADD256M109*%
%ADD257M110*%
%ADD258M111*%
%ADD259M112*%
%ADD260M113*%
%ADD261M114*%
%ADD262M115*%
%ADD263M116*%
%ADD264M117*%
%ADD265M118*%
%ADD266M119*%
%ADD267M120*%
%ADD280R,0.08661X0.04724*%
%ADD281R,0.25197X0.22835*%
%ADD282R,0.07874X0.07500*%
%ADD283O,0.07874X0.07500*%
%ADD35R,0.04528X0.01181*%
%ADD36O,0.08268X0.03937*%
%ADD37O,0.06299X0.03937*%
%ADD38R,0.02200X0.05200*%
%ADD41O,0.00787X0.01575*%
%ADD42C,0.05906*%
%ADD52C,0.07874*%
%ADD53C,0.23917*%
%ADD59C,0.02559*%
%ADD96C,0.03100*%
X0000000Y0000000D02*
%LPD*%
G01*
G36*
G01*
X0204882Y0160964D02*
X0208662Y0160964D01*
G75*
G02*
X0209134Y0160492I0000000J-000472D01*
G01*
X0209134Y0152775D01*
G75*
G02*
X0208662Y0152303I-000472J0000000D01*
G01*
X0204882Y0152303D01*
G75*
G02*
X0204410Y0152775I0000000J0000472D01*
G01*
X0204410Y0160492D01*
G75*
G02*
X0204882Y0160964I0000472J0000000D01*
G01*
G37*
D10*
X0197796Y0131830D03*
G36*
G01*
X0186929Y0160964D02*
X0190709Y0160964D01*
G75*
G02*
X0191181Y0160492I0000000J-000472D01*
G01*
X0191181Y0152775D01*
G75*
G02*
X0190709Y0152303I-000472J0000000D01*
G01*
X0186929Y0152303D01*
G75*
G02*
X0186457Y0152775I0000000J0000472D01*
G01*
X0186457Y0160492D01*
G75*
G02*
X0186929Y0160964I0000472J0000000D01*
G01*
G37*
G36*
G01*
X0434896Y0080110D02*
X0433333Y0080110D01*
G75*
G02*
X0432551Y0080891I0000000J0000781D01*
G01*
X0432551Y0084895D01*
G75*
G02*
X0433333Y0085677I0000781J0000000D01*
G01*
X0434896Y0085677D01*
G75*
G02*
X0435677Y0084895I0000000J-000781D01*
G01*
X0435677Y0080891D01*
G75*
G02*
X0434896Y0080110I-000781J0000000D01*
G01*
G37*
G36*
G01*
X0442376Y0080110D02*
X0440813Y0080110D01*
G75*
G02*
X0440032Y0080891I0000000J0000781D01*
G01*
X0440032Y0084895D01*
G75*
G02*
X0440813Y0085677I0000781J0000000D01*
G01*
X0442376Y0085677D01*
G75*
G02*
X0443158Y0084895I0000000J-000781D01*
G01*
X0443158Y0080891D01*
G75*
G02*
X0442376Y0080110I-000781J0000000D01*
G01*
G37*
G36*
G01*
X0438636Y0089992D02*
X0437073Y0089992D01*
G75*
G02*
X0436292Y0090773I0000000J0000781D01*
G01*
X0436292Y0094777D01*
G75*
G02*
X0437073Y0095559I0000781J0000000D01*
G01*
X0438636Y0095559D01*
G75*
G02*
X0439418Y0094777I0000000J-000781D01*
G01*
X0439418Y0090773D01*
G75*
G02*
X0438636Y0089992I-000781J0000000D01*
G01*
G37*
G36*
G01*
X0482146Y0439114D02*
X0487461Y0439114D01*
G75*
G02*
X0488445Y0438130I0000000J-000984D01*
G01*
X0488445Y0433405D01*
G75*
G02*
X0487461Y0432421I-000984J0000000D01*
G01*
X0482146Y0432421D01*
G75*
G02*
X0481162Y0433405I0000000J0000984D01*
G01*
X0481162Y0438130D01*
G75*
G02*
X0482146Y0439114I0000984J0000000D01*
G01*
G37*
D11*
X0484803Y0425925D03*
X0484803Y0416082D03*
X0484803Y0406240D03*
X0484803Y0396397D03*
G36*
G01*
X0477777Y0083586D02*
X0482577Y0083586D01*
G75*
G02*
X0482979Y0083184I0000000J-000402D01*
G01*
X0482979Y0079584D01*
G75*
G02*
X0482577Y0079183I-000402J0000000D01*
G01*
X0477777Y0079183D01*
G75*
G02*
X0477376Y0079584I0000000J0000402D01*
G01*
X0477376Y0083184D01*
G75*
G02*
X0477777Y0083586I0000402J0000000D01*
G01*
G37*
G36*
G01*
X0477777Y0096486D02*
X0482577Y0096486D01*
G75*
G02*
X0482979Y0096084I0000000J-000402D01*
G01*
X0482979Y0092484D01*
G75*
G02*
X0482577Y0092083I-000402J0000000D01*
G01*
X0477777Y0092083D01*
G75*
G02*
X0477376Y0092484I0000000J0000402D01*
G01*
X0477376Y0096084D01*
G75*
G02*
X0477777Y0096486I0000402J0000000D01*
G01*
G37*
G36*
G01*
X0173386Y0161555D02*
X0177166Y0161555D01*
G75*
G02*
X0177638Y0161082I0000000J-000472D01*
G01*
X0177638Y0153366D01*
G75*
G02*
X0177166Y0152893I-000472J0000000D01*
G01*
X0173386Y0152893D01*
G75*
G02*
X0172914Y0153366I0000000J0000472D01*
G01*
X0172914Y0161082D01*
G75*
G02*
X0173386Y0161555I0000472J0000000D01*
G01*
G37*
D10*
X0166299Y0132421D03*
G36*
G01*
X0155433Y0161555D02*
X0159213Y0161555D01*
G75*
G02*
X0159685Y0161082I0000000J-000472D01*
G01*
X0159685Y0153366D01*
G75*
G02*
X0159213Y0152893I-000472J0000000D01*
G01*
X0155433Y0152893D01*
G75*
G02*
X0154961Y0153366I0000000J0000472D01*
G01*
X0154961Y0161082D01*
G75*
G02*
X0155433Y0161555I0000472J0000000D01*
G01*
G37*
D59*
X0456280Y0425492D03*
X0456280Y0402736D03*
D35*
X0460473Y0427303D03*
X0460473Y0424153D03*
X0460473Y0419035D03*
X0460473Y0415098D03*
X0460473Y0413130D03*
X0460473Y0409193D03*
X0460473Y0404074D03*
X0460473Y0400925D03*
X0460473Y0402106D03*
X0460473Y0405256D03*
X0460473Y0407224D03*
X0460473Y0411161D03*
X0460473Y0417067D03*
X0460473Y0421004D03*
X0460473Y0422972D03*
X0460473Y0426122D03*
D36*
X0458248Y0431122D03*
D37*
X0441792Y0431122D03*
D36*
X0458248Y0397106D03*
D37*
X0441792Y0397106D03*
D38*
X0448681Y0083897D03*
X0456201Y0083897D03*
X0452441Y0091297D03*
D41*
X0262185Y0177750D03*
X0259193Y0177750D03*
X0254567Y0177750D03*
X0249941Y0177750D03*
X0246634Y0177750D03*
X0243681Y0177750D03*
X0239055Y0177750D03*
X0234429Y0177750D03*
D13*
X0254271Y0217512D03*
X0261496Y0215839D03*
X0253425Y0213673D03*
X0254271Y0210229D03*
X0254567Y0206882D03*
X0261496Y0205603D03*
X0256338Y0200485D03*
X0261496Y0197925D03*
X0238169Y0226173D03*
X0254212Y0224992D03*
G36*
G01*
X0303110Y0160964D02*
X0306890Y0160964D01*
G75*
G02*
X0307362Y0160492I0000000J-000472D01*
G01*
X0307362Y0152775D01*
G75*
G02*
X0306890Y0152303I-000472J0000000D01*
G01*
X0303110Y0152303D01*
G75*
G02*
X0302638Y0152775I0000000J0000472D01*
G01*
X0302638Y0160492D01*
G75*
G02*
X0303110Y0160964I0000472J0000000D01*
G01*
G37*
D10*
X0296024Y0131830D03*
G36*
G01*
X0285158Y0160964D02*
X0288937Y0160964D01*
G75*
G02*
X0289410Y0160492I0000000J-000472D01*
G01*
X0289410Y0152775D01*
G75*
G02*
X0288937Y0152303I-000472J0000000D01*
G01*
X0285158Y0152303D01*
G75*
G02*
X0284685Y0152775I0000000J0000472D01*
G01*
X0284685Y0160492D01*
G75*
G02*
X0285158Y0160964I0000472J0000000D01*
G01*
G37*
G36*
G01*
X0334705Y0160964D02*
X0338484Y0160964D01*
G75*
G02*
X0338957Y0160492I0000000J-000472D01*
G01*
X0338957Y0152775D01*
G75*
G02*
X0338484Y0152303I-000472J0000000D01*
G01*
X0334705Y0152303D01*
G75*
G02*
X0334233Y0152775I0000000J0000472D01*
G01*
X0334233Y0160492D01*
G75*
G02*
X0334705Y0160964I0000472J0000000D01*
G01*
G37*
X0327618Y0131830D03*
G36*
G01*
X0316752Y0160964D02*
X0320532Y0160964D01*
G75*
G02*
X0321004Y0160492I0000000J-000472D01*
G01*
X0321004Y0152775D01*
G75*
G02*
X0320532Y0152303I-000472J0000000D01*
G01*
X0316752Y0152303D01*
G75*
G02*
X0316280Y0152775I0000000J0000472D01*
G01*
X0316280Y0160492D01*
G75*
G02*
X0316752Y0160964I0000472J0000000D01*
G01*
G37*
G36*
G01*
X0269843Y0160964D02*
X0273622Y0160964D01*
G75*
G02*
X0274095Y0160492I0000000J-000472D01*
G01*
X0274095Y0152775D01*
G75*
G02*
X0273622Y0152303I-000472J0000000D01*
G01*
X0269843Y0152303D01*
G75*
G02*
X0269370Y0152775I0000000J0000472D01*
G01*
X0269370Y0160492D01*
G75*
G02*
X0269843Y0160964I0000472J0000000D01*
G01*
G37*
X0262756Y0131830D03*
G36*
G01*
X0251890Y0160964D02*
X0255670Y0160964D01*
G75*
G02*
X0256142Y0160492I0000000J-000472D01*
G01*
X0256142Y0152775D01*
G75*
G02*
X0255670Y0152303I-000472J0000000D01*
G01*
X0251890Y0152303D01*
G75*
G02*
X0251418Y0152775I0000000J0000472D01*
G01*
X0251418Y0160492D01*
G75*
G02*
X0251890Y0160964I0000472J0000000D01*
G01*
G37*
D42*
X0562756Y0160177D03*
X0587953Y0160177D03*
X0595433Y0160177D03*
X0612362Y0160177D03*
D13*
X0621811Y0161948D03*
X0625748Y0161948D03*
D42*
X0636969Y0160177D03*
X0560984Y0099153D03*
X0568268Y0099153D03*
X0587756Y0099153D03*
X0635197Y0099153D03*
G36*
G01*
X0236280Y0160964D02*
X0240059Y0160964D01*
G75*
G02*
X0240532Y0160492I0000000J-000472D01*
G01*
X0240532Y0152775D01*
G75*
G02*
X0240059Y0152303I-000472J0000000D01*
G01*
X0236280Y0152303D01*
G75*
G02*
X0235807Y0152775I0000000J0000472D01*
G01*
X0235807Y0160492D01*
G75*
G02*
X0236280Y0160964I0000472J0000000D01*
G01*
G37*
D10*
X0229193Y0131830D03*
G36*
G01*
X0218327Y0160964D02*
X0222107Y0160964D01*
G75*
G02*
X0222579Y0160492I0000000J-000472D01*
G01*
X0222579Y0152775D01*
G75*
G02*
X0222107Y0152303I-000472J0000000D01*
G01*
X0218327Y0152303D01*
G75*
G02*
X0217855Y0152775I0000000J0000472D01*
G01*
X0217855Y0160492D01*
G75*
G02*
X0218327Y0160964I0000472J0000000D01*
G01*
G37*
G36*
G01*
X0358420Y0183948D02*
X0356857Y0183948D01*
G75*
G02*
X0356075Y0184730I0000000J0000781D01*
G01*
X0356075Y0188734D01*
G75*
G02*
X0356857Y0189515I0000781J0000000D01*
G01*
X0358420Y0189515D01*
G75*
G02*
X0359201Y0188734I0000000J-000781D01*
G01*
X0359201Y0184730D01*
G75*
G02*
X0358420Y0183948I-000781J0000000D01*
G01*
G37*
G36*
G01*
X0365900Y0183948D02*
X0364337Y0183948D01*
G75*
G02*
X0363555Y0184730I0000000J0000781D01*
G01*
X0363555Y0188734D01*
G75*
G02*
X0364337Y0189515I0000781J0000000D01*
G01*
X0365900Y0189515D01*
G75*
G02*
X0366681Y0188734I0000000J-000781D01*
G01*
X0366681Y0184730D01*
G75*
G02*
X0365900Y0183948I-000781J0000000D01*
G01*
G37*
G36*
G01*
X0362160Y0193830D02*
X0360597Y0193830D01*
G75*
G02*
X0359815Y0194612I0000000J0000781D01*
G01*
X0359815Y0198616D01*
G75*
G02*
X0360597Y0199397I0000781J0000000D01*
G01*
X0362160Y0199397D01*
G75*
G02*
X0362941Y0198616I0000000J-000781D01*
G01*
X0362941Y0194612D01*
G75*
G02*
X0362160Y0193830I-000781J0000000D01*
G01*
G37*
D42*
X0389626Y0066179D03*
X0401437Y0066179D03*
X0413248Y0066179D03*
X0425061Y0066179D03*
X0436870Y0066179D03*
X0448681Y0066179D03*
X0460492Y0066179D03*
X0472305Y0066179D03*
X0484116Y0066179D03*
X0495927Y0066179D03*
X0389626Y0050431D03*
X0401437Y0050431D03*
X0413248Y0050431D03*
X0425061Y0050431D03*
X0436870Y0050431D03*
X0448681Y0050431D03*
X0460492Y0050431D03*
X0472305Y0050431D03*
X0484116Y0050431D03*
X0495927Y0050431D03*
X0516792Y0066179D03*
X0528605Y0066179D03*
X0540414Y0066179D03*
X0552225Y0066179D03*
X0564038Y0066179D03*
X0575849Y0066179D03*
X0587660Y0066179D03*
X0599471Y0066179D03*
X0516792Y0050431D03*
X0528605Y0050431D03*
X0540414Y0050431D03*
X0575849Y0050431D03*
X0587660Y0050431D03*
X0599471Y0050431D03*
D52*
X0197500Y0057519D03*
X0217185Y0057519D03*
X0236870Y0057519D03*
X0256555Y0057519D03*
X0276240Y0057519D03*
X0295925Y0057519D03*
X0207343Y0073267D03*
X0227028Y0073267D03*
X0246713Y0073267D03*
X0197500Y0089015D03*
X0217185Y0089015D03*
X0276240Y0089015D03*
X0295925Y0089015D03*
X0266398Y0073267D03*
X0286083Y0073267D03*
D42*
X0552227Y0050431D03*
X0564038Y0050431D03*
D53*
X0166004Y0037834D03*
X0327421Y0037834D03*
X0362264Y0028779D03*
X0626831Y0028779D03*
G36*
G01*
X0356145Y0179309D02*
X0356145Y0174509D01*
G75*
G02*
X0355744Y0174108I-000402J0000000D01*
G01*
X0352144Y0174108D01*
G75*
G02*
X0351742Y0174509I0000000J0000402D01*
G01*
X0351742Y0179309D01*
G75*
G02*
X0352144Y0179711I0000402J0000000D01*
G01*
X0355744Y0179711D01*
G75*
G02*
X0356145Y0179309I0000000J-000402D01*
G01*
G37*
G36*
G01*
X0369045Y0179309D02*
X0369045Y0174509D01*
G75*
G02*
X0368644Y0174108I-000402J0000000D01*
G01*
X0365044Y0174108D01*
G75*
G02*
X0364642Y0174509I0000000J0000402D01*
G01*
X0364642Y0179309D01*
G75*
G02*
X0365044Y0179711I0000402J0000000D01*
G01*
X0368644Y0179711D01*
G75*
G02*
X0369045Y0179309I0000000J-000402D01*
G01*
G37*
G36*
G01*
X0464423Y0080110D02*
X0462860Y0080110D01*
G75*
G02*
X0462079Y0080891I0000000J0000781D01*
G01*
X0462079Y0084895D01*
G75*
G02*
X0462860Y0085677I0000781J0000000D01*
G01*
X0464423Y0085677D01*
G75*
G02*
X0465205Y0084895I0000000J-000781D01*
G01*
X0465205Y0080891D01*
G75*
G02*
X0464423Y0080110I-000781J0000000D01*
G01*
G37*
G36*
G01*
X0471904Y0080110D02*
X0470341Y0080110D01*
G75*
G02*
X0469559Y0080891I0000000J0000781D01*
G01*
X0469559Y0084895D01*
G75*
G02*
X0470341Y0085677I0000781J0000000D01*
G01*
X0471904Y0085677D01*
G75*
G02*
X0472685Y0084895I0000000J-000781D01*
G01*
X0472685Y0080891D01*
G75*
G02*
X0471904Y0080110I-000781J0000000D01*
G01*
G37*
G36*
G01*
X0468164Y0089992D02*
X0466601Y0089992D01*
G75*
G02*
X0465819Y0090773I0000000J0000781D01*
G01*
X0465819Y0094777D01*
G75*
G02*
X0466601Y0095559I0000781J0000000D01*
G01*
X0468164Y0095559D01*
G75*
G02*
X0468945Y0094777I0000000J-000781D01*
G01*
X0468945Y0090773D01*
G75*
G02*
X0468164Y0089992I-000781J0000000D01*
G01*
G37*
X0200689Y0266043D02*
G01*
G75*
D103*
X0269094Y0417126D02*
D03*
X0271063Y0417126D02*
D03*
X0273031Y0417126D02*
D03*
X0275000Y0417126D02*
D03*
X0276968Y0417126D02*
D03*
X0278937Y0417126D02*
D03*
X0280905Y0417126D02*
D03*
X0282874Y0417126D02*
D03*
X0284842Y0417126D02*
D03*
X0286811Y0417126D02*
D03*
X0288779Y0417126D02*
D03*
X0290748Y0417126D02*
D03*
X0292717Y0417126D02*
D03*
X0294685Y0417126D02*
D03*
X0296654Y0417126D02*
D03*
X0298622Y0417126D02*
D03*
X0300591Y0417126D02*
D03*
X0302559Y0417126D02*
D03*
X0304528Y0417126D02*
D03*
X0306496Y0417126D02*
D03*
X0308465Y0417126D02*
D03*
X0310433Y0417126D02*
D03*
X0312402Y0417126D02*
D03*
X0314370Y0417126D02*
D03*
X0316339Y0417126D02*
D03*
X0318307Y0417126D02*
D03*
X0320276Y0417126D02*
D03*
X0322244Y0417126D02*
D03*
X0324213Y0417126D02*
D03*
X0326181Y0417126D02*
D03*
X0328150Y0417126D02*
D03*
X0330118Y0417126D02*
D03*
X0332087Y0417126D02*
D03*
X0334055Y0417126D02*
D03*
X0336024Y0417126D02*
D03*
X0337992Y0417126D02*
D03*
X0337992Y0333464D02*
D03*
X0336024Y0333464D02*
D03*
X0334055Y0333464D02*
D03*
X0332087Y0333464D02*
D03*
X0330118Y0333464D02*
D03*
X0328150Y0333464D02*
D03*
X0326181Y0333464D02*
D03*
X0324213Y0333464D02*
D03*
X0322244Y0333464D02*
D03*
X0320276Y0333464D02*
D03*
X0318307Y0333464D02*
D03*
X0316339Y0333464D02*
D03*
X0314370Y0333464D02*
D03*
X0312402Y0333464D02*
D03*
X0310433Y0333464D02*
D03*
X0308465Y0333464D02*
D03*
X0306496Y0333464D02*
D03*
X0304528Y0333464D02*
D03*
X0302559Y0333464D02*
D03*
X0300591Y0333464D02*
D03*
X0298622Y0333464D02*
D03*
X0296654Y0333464D02*
D03*
X0294685Y0333464D02*
D03*
X0292717Y0333464D02*
D03*
X0290748Y0333464D02*
D03*
X0288779Y0333464D02*
D03*
X0286811Y0333464D02*
D03*
X0284842Y0333464D02*
D03*
X0282874Y0333464D02*
D03*
X0280905Y0333464D02*
D03*
X0278937Y0333464D02*
D03*
X0276968Y0333464D02*
D03*
X0275000Y0333464D02*
D03*
X0273031Y0333464D02*
D03*
X0271063Y0333464D02*
D03*
X0269094Y0333464D02*
D03*
D104*
X0345374Y0409744D02*
D03*
X0345374Y0407775D02*
D03*
X0345374Y0405807D02*
D03*
X0345374Y0403838D02*
D03*
X0345374Y0401870D02*
D03*
X0345374Y0399901D02*
D03*
X0345374Y0397933D02*
D03*
X0345374Y0395964D02*
D03*
X0345374Y0393996D02*
D03*
X0345374Y0392027D02*
D03*
X0345374Y0390059D02*
D03*
X0345374Y0388090D02*
D03*
X0345374Y0386122D02*
D03*
X0345374Y0384153D02*
D03*
X0345374Y0382185D02*
D03*
X0345374Y0380216D02*
D03*
X0345374Y0378248D02*
D03*
X0345374Y0376279D02*
D03*
X0345374Y0374311D02*
D03*
X0345374Y0372342D02*
D03*
X0345374Y0370374D02*
D03*
X0345374Y0368405D02*
D03*
X0345374Y0366437D02*
D03*
X0345374Y0364468D02*
D03*
X0345374Y0362500D02*
D03*
X0345374Y0360531D02*
D03*
X0345374Y0358563D02*
D03*
X0345374Y0356594D02*
D03*
X0345374Y0354626D02*
D03*
X0345374Y0352657D02*
D03*
X0345374Y0350689D02*
D03*
X0345374Y0348720D02*
D03*
X0345374Y0346752D02*
D03*
X0345374Y0344783D02*
D03*
X0345374Y0342815D02*
D03*
X0345374Y0340846D02*
D03*
X0261713Y0340846D02*
D03*
X0261713Y0342815D02*
D03*
X0261713Y0344783D02*
D03*
X0261713Y0346752D02*
D03*
X0261713Y0348720D02*
D03*
X0261713Y0350689D02*
D03*
X0261713Y0352657D02*
D03*
X0261713Y0354626D02*
D03*
X0261713Y0356594D02*
D03*
X0261713Y0358563D02*
D03*
X0261713Y0360531D02*
D03*
X0261713Y0362500D02*
D03*
X0261713Y0364468D02*
D03*
X0261713Y0366437D02*
D03*
X0261713Y0368405D02*
D03*
X0261713Y0370374D02*
D03*
X0261713Y0372342D02*
D03*
X0261713Y0374311D02*
D03*
X0261713Y0376279D02*
D03*
X0261713Y0378248D02*
D03*
X0261713Y0380216D02*
D03*
X0261713Y0382185D02*
D03*
X0261713Y0384153D02*
D03*
X0261713Y0386122D02*
D03*
X0261713Y0388090D02*
D03*
X0261713Y0390059D02*
D03*
X0261713Y0392027D02*
D03*
X0261713Y0393996D02*
D03*
X0261713Y0395964D02*
D03*
X0261713Y0397933D02*
D03*
X0261713Y0399901D02*
D03*
X0261713Y0401870D02*
D03*
X0261713Y0403838D02*
D03*
X0261713Y0405807D02*
D03*
X0261713Y0407775D02*
D03*
X0261713Y0409744D02*
D03*
D105*
X0361719Y0393555D02*
D03*
X0352467Y0397295D02*
D03*
D105*
X0361719Y0401035D02*
D03*
D106*
X0208169Y0391240D02*
D03*
X0226280Y0391240D02*
D03*
D107*
X0217224Y0391240D02*
D03*
D108*
X0217224Y0415649D02*
D03*
D109*
X0238484Y0367224D02*
D03*
X0245177Y0367224D02*
D03*
X0245177Y0374311D02*
D03*
X0238484Y0374311D02*
D03*
X0238484Y0381397D02*
D03*
X0245177Y0381397D02*
D03*
X0245177Y0388484D02*
D03*
X0238484Y0388484D02*
D03*
X0228642Y0359744D02*
D03*
X0221949Y0359744D02*
D03*
X0245177Y0359744D02*
D03*
X0238484Y0359744D02*
D03*
X0228642Y0352657D02*
D03*
X0221949Y0352657D02*
D03*
X0245177Y0352657D02*
D03*
X0238484Y0352657D02*
D03*
X0228642Y0345571D02*
D03*
X0221949Y0345571D02*
D03*
X0245177Y0345571D02*
D03*
X0238484Y0345571D02*
D03*
X0221949Y0338484D02*
D03*
X0228642Y0338484D02*
D03*
X0245177Y0338484D02*
D03*
X0238484Y0338484D02*
D03*
D110*
X0361120Y0418182D02*
D03*
X0357380Y0418182D02*
D03*
X0353639Y0418182D02*
D03*
X0353639Y0408733D02*
D03*
X0357380Y0408733D02*
D03*
X0361120Y0408733D02*
D03*
D111*
X0251437Y0418484D02*
D03*
X0251437Y0413484D02*
D03*
X0246437Y0418484D02*
D03*
X0246437Y0413484D02*
D03*
X0241437Y0418484D02*
D03*
X0241437Y0413484D02*
D03*
D112*
X0205413Y0273523D02*
D03*
X0205413Y0277460D02*
D03*
X0351870Y0286515D02*
D03*
X0351870Y0282578D02*
D03*
X0248327Y0275098D02*
D03*
X0248327Y0271161D02*
D03*
X0262500Y0275098D02*
D03*
X0262500Y0271161D02*
D03*
X0281398Y0279035D02*
D03*
X0281398Y0275098D02*
D03*
X0281398Y0271161D02*
D03*
X0281398Y0275098D02*
D03*
X0290847Y0275098D02*
D03*
X0290847Y0279035D02*
D03*
X0290847Y0275098D02*
D03*
X0290847Y0271161D02*
D03*
X0314469Y0279035D02*
D03*
X0314469Y0275098D02*
D03*
X0338091Y0275098D02*
D03*
X0338091Y0279035D02*
D03*
X0338091Y0275098D02*
D03*
X0338091Y0271161D02*
D03*
X0254725Y0388878D02*
D03*
X0254725Y0392815D02*
D03*
X0342815Y0278641D02*
D03*
X0342815Y0282578D02*
D03*
X0205413Y0294193D02*
D03*
X0205413Y0290256D02*
D03*
X0216831Y0330216D02*
D03*
X0216831Y0334153D02*
D03*
X0361319Y0282578D02*
D03*
X0361319Y0286515D02*
D03*
X0356594Y0282578D02*
D03*
X0356594Y0286515D02*
D03*
X0347146Y0282578D02*
D03*
X0347146Y0286515D02*
D03*
X0210532Y0275098D02*
D03*
X0210532Y0279035D02*
D03*
X0215256Y0275098D02*
D03*
X0215256Y0279035D02*
D03*
X0219980Y0275098D02*
D03*
X0219980Y0279035D02*
D03*
X0224705Y0275098D02*
D03*
X0224705Y0279035D02*
D03*
X0210532Y0275098D02*
D03*
X0210532Y0271161D02*
D03*
X0215256Y0275098D02*
D03*
X0215256Y0271161D02*
D03*
X0219980Y0275098D02*
D03*
X0219980Y0271161D02*
D03*
X0224705Y0275098D02*
D03*
X0224705Y0271161D02*
D03*
X0229429Y0275098D02*
D03*
X0229429Y0279035D02*
D03*
X0234154Y0275098D02*
D03*
X0234154Y0279035D02*
D03*
X0238878Y0275098D02*
D03*
X0238878Y0279035D02*
D03*
X0243720Y0275098D02*
D03*
X0243720Y0279035D02*
D03*
X0229429Y0275098D02*
D03*
X0229429Y0271161D02*
D03*
X0234154Y0275098D02*
D03*
X0234154Y0271161D02*
D03*
X0238878Y0275098D02*
D03*
X0238878Y0271161D02*
D03*
X0243602Y0275098D02*
D03*
X0243602Y0271161D02*
D03*
X0248327Y0275098D02*
D03*
X0248327Y0279035D02*
D03*
X0253051Y0275098D02*
D03*
X0253051Y0279035D02*
D03*
X0257776Y0275098D02*
D03*
X0257776Y0279035D02*
D03*
X0262500Y0275098D02*
D03*
X0262500Y0279035D02*
D03*
X0253051Y0275098D02*
D03*
X0253051Y0271161D02*
D03*
X0257776Y0275098D02*
D03*
X0257776Y0271161D02*
D03*
X0267225Y0279035D02*
D03*
X0267225Y0275098D02*
D03*
X0271949Y0279035D02*
D03*
X0271949Y0275098D02*
D03*
X0276673Y0279035D02*
D03*
X0276673Y0275098D02*
D03*
X0267225Y0271161D02*
D03*
X0267225Y0275098D02*
D03*
X0271949Y0271161D02*
D03*
X0271949Y0275098D02*
D03*
X0276673Y0271161D02*
D03*
X0276673Y0275098D02*
D03*
X0286122Y0275098D02*
D03*
X0286122Y0279035D02*
D03*
X0295571Y0275098D02*
D03*
X0295571Y0279035D02*
D03*
X0300295Y0275098D02*
D03*
X0300295Y0279035D02*
D03*
X0286122Y0275098D02*
D03*
X0286122Y0271161D02*
D03*
X0295571Y0275098D02*
D03*
X0295571Y0271161D02*
D03*
X0300295Y0275098D02*
D03*
X0300295Y0271161D02*
D03*
X0305020Y0279035D02*
D03*
X0305020Y0275098D02*
D03*
X0309744Y0279035D02*
D03*
X0309744Y0275098D02*
D03*
X0319193Y0279035D02*
D03*
X0319193Y0275098D02*
D03*
X0305020Y0271161D02*
D03*
X0305020Y0275098D02*
D03*
X0309744Y0271161D02*
D03*
X0309744Y0275098D02*
D03*
X0314469Y0271161D02*
D03*
X0314469Y0275098D02*
D03*
X0319193Y0271161D02*
D03*
X0319193Y0275098D02*
D03*
X0323917Y0275098D02*
D03*
X0323917Y0279035D02*
D03*
X0328642Y0275098D02*
D03*
X0328642Y0279035D02*
D03*
X0333366Y0275098D02*
D03*
X0333366Y0279035D02*
D03*
X0323917Y0275098D02*
D03*
X0323917Y0271161D02*
D03*
X0328642Y0275098D02*
D03*
X0328642Y0271161D02*
D03*
X0333366Y0275098D02*
D03*
X0333366Y0271161D02*
D03*
X0347146Y0279035D02*
D03*
X0347146Y0275098D02*
D03*
X0351870Y0279035D02*
D03*
X0351870Y0275098D02*
D03*
X0356594Y0279035D02*
D03*
X0356594Y0275098D02*
D03*
X0361319Y0279035D02*
D03*
X0361319Y0275098D02*
D03*
X0347146Y0271161D02*
D03*
X0347146Y0275098D02*
D03*
X0351870Y0271161D02*
D03*
X0351870Y0275098D02*
D03*
X0356594Y0271161D02*
D03*
X0356594Y0275098D02*
D03*
X0361319Y0271161D02*
D03*
X0361319Y0275098D02*
D03*
X0205413Y0285137D02*
D03*
X0205413Y0281200D02*
D03*
X0240846Y0397933D02*
D03*
X0240846Y0401870D02*
D03*
D113*
X0260138Y0291830D02*
D03*
X0260138Y0288090D02*
D03*
X0260138Y0284350D02*
D03*
X0250689Y0284350D02*
D03*
X0250689Y0288090D02*
D03*
X0250689Y0291830D02*
D03*
X0222343Y0291830D02*
D03*
X0222343Y0288090D02*
D03*
X0222343Y0284350D02*
D03*
X0212894Y0284350D02*
D03*
X0212894Y0288090D02*
D03*
X0212894Y0291830D02*
D03*
X0241240Y0291830D02*
D03*
X0241240Y0288090D02*
D03*
X0241240Y0284350D02*
D03*
X0231791Y0284350D02*
D03*
X0231791Y0288090D02*
D03*
X0231791Y0291830D02*
D03*
X0279036Y0291830D02*
D03*
X0279036Y0288090D02*
D03*
X0279036Y0284350D02*
D03*
X0269587Y0284350D02*
D03*
X0269587Y0288090D02*
D03*
X0269587Y0291830D02*
D03*
X0297933Y0291830D02*
D03*
X0297933Y0288090D02*
D03*
X0297933Y0284350D02*
D03*
X0288484Y0284350D02*
D03*
X0288484Y0288090D02*
D03*
X0288484Y0291830D02*
D03*
X0316831Y0291830D02*
D03*
X0316831Y0288090D02*
D03*
X0316831Y0284350D02*
D03*
X0307382Y0284350D02*
D03*
X0307382Y0288090D02*
D03*
X0307382Y0291830D02*
D03*
X0335728Y0291830D02*
D03*
X0335728Y0288090D02*
D03*
X0335728Y0284350D02*
D03*
X0326280Y0284350D02*
D03*
X0326280Y0288090D02*
D03*
X0326280Y0291830D02*
D03*
D114*
X0357382Y0321948D02*
D03*
X0357382Y0339665D02*
D03*
D115*
X0343091Y0271161D02*
D03*
X0205413Y0269193D02*
D03*
D116*
X0211713Y0344685D02*
D03*
X0204626Y0344685D02*
D03*
X0204626Y0334645D02*
D03*
X0211713Y0334645D02*
D03*
X0211713Y0350787D02*
D03*
X0204626Y0350787D02*
D03*
X0204626Y0360827D02*
D03*
X0211713Y0360827D02*
D03*
D117*
X0204626Y0338090D02*
D03*
X0204626Y0341240D02*
D03*
X0211713Y0341240D02*
D03*
X0211713Y0338090D02*
D03*
X0211713Y0354232D02*
D03*
X0211713Y0357382D02*
D03*
X0204626Y0357382D02*
D03*
X0204626Y0354232D02*
D03*
D118*
X0359350Y0387696D02*
D03*
X0359350Y0371161D02*
D03*
X0359350Y0348327D02*
D03*
X0359350Y0364862D02*
D03*
D119*
X0346555Y0321161D02*
D03*
X0343996Y0321161D02*
D03*
X0341437Y0321161D02*
D03*
X0338878Y0321161D02*
D03*
X0336319Y0321161D02*
D03*
X0333760Y0321161D02*
D03*
X0331201Y0321161D02*
D03*
X0346555Y0298720D02*
D03*
X0343996Y0298720D02*
D03*
X0341437Y0298720D02*
D03*
X0338878Y0298720D02*
D03*
X0336319Y0298720D02*
D03*
X0333760Y0298720D02*
D03*
X0331201Y0298720D02*
D03*
X0278051Y0321161D02*
D03*
X0275492Y0321161D02*
D03*
X0272933Y0321161D02*
D03*
X0270374Y0321161D02*
D03*
X0267815Y0321161D02*
D03*
X0265256Y0321161D02*
D03*
X0262697Y0321161D02*
D03*
X0278051Y0298720D02*
D03*
X0275492Y0298720D02*
D03*
X0272933Y0298720D02*
D03*
X0270374Y0298720D02*
D03*
X0267815Y0298720D02*
D03*
X0265256Y0298720D02*
D03*
X0262697Y0298720D02*
D03*
X0300886Y0321161D02*
D03*
X0298327Y0321161D02*
D03*
X0295768Y0321161D02*
D03*
X0293209Y0321161D02*
D03*
X0290650Y0321161D02*
D03*
X0288091Y0321161D02*
D03*
X0285532Y0321161D02*
D03*
X0300886Y0298720D02*
D03*
X0298327Y0298720D02*
D03*
X0295768Y0298720D02*
D03*
X0293209Y0298720D02*
D03*
X0290650Y0298720D02*
D03*
X0288091Y0298720D02*
D03*
X0285532Y0298720D02*
D03*
X0323720Y0321161D02*
D03*
X0321161Y0321161D02*
D03*
X0318602Y0321161D02*
D03*
X0316043Y0321161D02*
D03*
X0313484Y0321161D02*
D03*
X0310925Y0321161D02*
D03*
X0308366Y0321161D02*
D03*
X0323720Y0298720D02*
D03*
X0321161Y0298720D02*
D03*
X0318602Y0298720D02*
D03*
X0316043Y0298720D02*
D03*
X0313484Y0298720D02*
D03*
X0310925Y0298720D02*
D03*
X0308366Y0298720D02*
D03*
D120*
X0256398Y0309744D02*
D03*
X0256398Y0312303D02*
D03*
X0256398Y0314862D02*
D03*
X0256398Y0317421D02*
D03*
X0256398Y0319980D02*
D03*
X0256398Y0322539D02*
D03*
X0256398Y0325098D02*
D03*
X0233957Y0309744D02*
D03*
X0233957Y0312303D02*
D03*
X0233957Y0314862D02*
D03*
X0233957Y0317421D02*
D03*
X0233957Y0319980D02*
D03*
X0233957Y0322539D02*
D03*
X0233957Y0325098D02*
D03*
X0228445Y0309744D02*
D03*
X0228445Y0312303D02*
D03*
X0228445Y0314862D02*
D03*
X0228445Y0317421D02*
D03*
X0228445Y0319980D02*
D03*
X0228445Y0322539D02*
D03*
X0228445Y0325098D02*
D03*
X0206004Y0309744D02*
D03*
X0206004Y0312303D02*
D03*
X0206004Y0314862D02*
D03*
X0206004Y0317421D02*
D03*
X0206004Y0319980D02*
D03*
X0206004Y0322539D02*
D03*
X0206004Y0325098D02*
D03*
D121*
X0239075Y0298130D02*
D03*
X0239075Y0300689D02*
D03*
X0239075Y0303248D02*
D03*
X0231595Y0298130D02*
D03*
X0231595Y0300689D02*
D03*
X0231595Y0303248D02*
D03*
X0218996Y0303248D02*
D03*
X0218996Y0300689D02*
D03*
X0218996Y0298130D02*
D03*
X0226476Y0303248D02*
D03*
X0226476Y0300689D02*
D03*
X0226476Y0298130D02*
D03*
X0214272Y0298130D02*
D03*
X0214272Y0300689D02*
D03*
X0214272Y0303248D02*
D03*
X0206791Y0298130D02*
D03*
X0206791Y0300689D02*
D03*
X0206791Y0303248D02*
D03*
X0243799Y0303248D02*
D03*
X0243799Y0300689D02*
D03*
X0243799Y0298130D02*
D03*
X0251280Y0303248D02*
D03*
X0251280Y0300689D02*
D03*
X0251280Y0298130D02*
D03*
D122*
X0207382Y0382600D02*
D03*
X0207382Y0377600D02*
D03*
X0207382Y0372600D02*
D03*
X0207382Y0367600D02*
D03*
X0226280Y0382600D02*
D03*
X0226280Y0377600D02*
D03*
X0226280Y0372600D02*
D03*
X0226280Y0367600D02*
D03*
D123*
X0360335Y0315059D02*
D03*
X0357776Y0315059D02*
D03*
X0355217Y0315059D02*
D03*
X0360335Y0307578D02*
D03*
X0357776Y0307578D02*
D03*
X0355217Y0307578D02*
D03*
X0360335Y0299704D02*
D03*
X0357776Y0299704D02*
D03*
X0355217Y0299704D02*
D03*
X0360335Y0292224D02*
D03*
X0357776Y0292224D02*
D03*
X0355217Y0292224D02*
D03*
D124*
X0246506Y0398720D02*
D03*
X0246506Y0400689D02*
D03*
X0246506Y0402657D02*
D03*
X0252510Y0402657D02*
D03*
X0252510Y0400689D02*
D03*
X0252510Y0398720D02*
D03*
D125*
X0248524Y0403691D02*
D03*
X0250492Y0403691D02*
D03*
X0250492Y0397687D02*
D03*
X0248524Y0397687D02*
D03*
D126*
X0235630Y0396752D02*
D03*
X0235630Y0403445D02*
D03*
D127*
X0244390Y0331791D02*
D03*
X0240453Y0331791D02*
D03*
D128*
X0256437Y0415984D02*
D03*
X0236437Y0411984D02*
D03*
X0236437Y0419984D02*
D03*
D129*
X0294784Y0327460D02*
D03*
X0342028Y0331791D02*
D03*
X0336910Y0327067D02*
D03*
X0325098Y0327067D02*
D03*
X0313681Y0327067D02*
D03*
X0277461Y0327067D02*
D03*
X0260531Y0328248D02*
D03*
D42*
X0205020Y0419586D02*
D03*
X0615157Y0099409D02*
G01*
G75*
D255*
X0590790Y0144488D02*
D03*
X0608507Y0144488D02*
D03*
D256*
X0566338Y0141161D02*
D03*
X0566338Y0113799D02*
D03*
D257*
X0589566Y0129921D02*
D03*
X0589566Y0113779D02*
D03*
D258*
X0607677Y0131692D02*
D03*
X0607677Y0115944D02*
D03*
D259*
X0545899Y0108753D02*
D03*
X0549639Y0118005D02*
D03*
D259*
X0542159Y0118005D02*
D03*
D260*
X0536220Y0140840D02*
D03*
D260*
X0539960Y0140840D02*
D03*
X0543700Y0140840D02*
D03*
X0543700Y0149304D02*
D03*
X0536220Y0149304D02*
D03*
D261*
X0550221Y0153156D02*
D03*
X0550221Y0140164D02*
D03*
D262*
X0549933Y0134870D02*
D03*
X0549933Y0123452D02*
D03*
D263*
X0582480Y0154055D02*
D03*
X0582480Y0147834D02*
D03*
X0582480Y0143464D02*
D03*
X0582480Y0137244D02*
D03*
D264*
X0605369Y0103378D02*
D03*
X0601235Y0103378D02*
D03*
X0563495Y0153933D02*
D03*
X0559361Y0153933D02*
D03*
X0568208Y0153933D02*
D03*
X0572342Y0153933D02*
D03*
X0587857Y0154825D02*
D03*
X0591991Y0154825D02*
D03*
D265*
X0543650Y0135722D02*
D03*
X0539713Y0135722D02*
D03*
X0542748Y0122047D02*
D03*
X0542748Y0130708D02*
D03*
X0536351Y0122047D02*
D03*
X0536351Y0130708D02*
D03*
D266*
X0536220Y0113674D02*
D03*
X0536220Y0117218D02*
D03*
D267*
X0559558Y0149675D02*
D03*
X0563102Y0149675D02*
D03*
X0568602Y0149675D02*
D03*
X0572145Y0149675D02*
D03*
X0600158Y0154825D02*
D03*
X0596614Y0154825D02*
D03*
D203*
X0597047Y0165157D02*
D03*
X0600984Y0165157D02*
D03*
D204*
X0543504Y0102362D02*
D03*
X0610433Y0102362D02*
D03*
X0562992Y0102362D02*
D03*
X0563189Y0163385D02*
D03*
X0537992Y0163385D02*
D03*
X0587598Y0163385D02*
D03*
X0570669Y0163385D02*
D03*
X0612204Y0163385D02*
D03*
X0536220Y0102362D02*
D03*
X0383858Y0241339D02*
%LPD*%
G01*
G36*
G01*
X0419567Y0173731D02*
X0419567Y0175089D01*
G75*
G02*
X0420147Y0175670I0000581J0000000D01*
G01*
X0421309Y0175670D01*
G75*
G02*
X0421889Y0175089I0000000J-000581D01*
G01*
X0421889Y0173731D01*
G75*
G02*
X0421309Y0173150I-000581J0000000D01*
G01*
X0420147Y0173150D01*
G75*
G02*
X0419567Y0173731I0000000J0000581D01*
G01*
G37*
G36*
G01*
X0423386Y0173731D02*
X0423386Y0175089D01*
G75*
G02*
X0423966Y0175670I0000581J0000000D01*
G01*
X0425128Y0175670D01*
G75*
G02*
X0425708Y0175089I0000000J-000581D01*
G01*
X0425708Y0173731D01*
G75*
G02*
X0425128Y0173150I-000581J0000000D01*
G01*
X0423966Y0173150D01*
G75*
G02*
X0423386Y0173731I0000000J0000581D01*
G01*
G37*
G36*
G01*
X0404143Y0232304D02*
X0405502Y0232304D01*
G75*
G02*
X0406082Y0231723I0000000J-000581D01*
G01*
X0406082Y0230561D01*
G75*
G02*
X0405502Y0229981I-000581J0000000D01*
G01*
X0404143Y0229981D01*
G75*
G02*
X0403563Y0230561I0000000J0000581D01*
G01*
X0403563Y0231723D01*
G75*
G02*
X0404143Y0232304I0000581J0000000D01*
G01*
G37*
G36*
G01*
X0404143Y0228485D02*
X0405502Y0228485D01*
G75*
G02*
X0406082Y0227904I0000000J-000581D01*
G01*
X0406082Y0226743D01*
G75*
G02*
X0405502Y0226162I-000581J0000000D01*
G01*
X0404143Y0226162D01*
G75*
G02*
X0403563Y0226743I0000000J0000581D01*
G01*
X0403563Y0227904D01*
G75*
G02*
X0404143Y0228485I0000581J0000000D01*
G01*
G37*
G36*
G01*
X0419340Y0221777D02*
X0419340Y0219759D01*
G75*
G02*
X0418479Y0218898I-000861J0000000D01*
G01*
X0416757Y0218898D01*
G75*
G02*
X0415895Y0219759I0000000J0000861D01*
G01*
X0415895Y0221777D01*
G75*
G02*
X0416757Y0222638I0000861J0000000D01*
G01*
X0418479Y0222638D01*
G75*
G02*
X0419340Y0221777I0000000J-000861D01*
G01*
G37*
G36*
G01*
X0413139Y0221777D02*
X0413139Y0219759D01*
G75*
G02*
X0412278Y0218898I-000861J0000000D01*
G01*
X0410556Y0218898D01*
G75*
G02*
X0409695Y0219759I0000000J0000861D01*
G01*
X0409695Y0221777D01*
G75*
G02*
X0410556Y0222638I0000861J0000000D01*
G01*
X0412278Y0222638D01*
G75*
G02*
X0413139Y0221777I0000000J-000861D01*
G01*
G37*
G36*
G01*
X0394311Y0175286D02*
X0394311Y0173928D01*
G75*
G02*
X0393730Y0173347I-000581J0000000D01*
G01*
X0392569Y0173347D01*
G75*
G02*
X0391988Y0173928I0000000J0000581D01*
G01*
X0391988Y0175286D01*
G75*
G02*
X0392569Y0175867I0000581J0000000D01*
G01*
X0393730Y0175867D01*
G75*
G02*
X0394311Y0175286I0000000J-000581D01*
G01*
G37*
G36*
G01*
X0390492Y0175286D02*
X0390492Y0173928D01*
G75*
G02*
X0389911Y0173347I-000581J0000000D01*
G01*
X0388750Y0173347D01*
G75*
G02*
X0388169Y0173928I0000000J0000581D01*
G01*
X0388169Y0175286D01*
G75*
G02*
X0388750Y0175867I0000581J0000000D01*
G01*
X0389911Y0175867D01*
G75*
G02*
X0390492Y0175286I0000000J-000581D01*
G01*
G37*
D219*
X0410138Y0226477D03*
X0417618Y0226477D03*
X0413878Y0234351D03*
G36*
G01*
X0394311Y0179469D02*
X0394311Y0178111D01*
G75*
G02*
X0393730Y0177530I-000581J0000000D01*
G01*
X0392569Y0177530D01*
G75*
G02*
X0391988Y0178111I0000000J0000581D01*
G01*
X0391988Y0179469D01*
G75*
G02*
X0392569Y0180050I0000581J0000000D01*
G01*
X0393730Y0180050D01*
G75*
G02*
X0394311Y0179469I0000000J-000581D01*
G01*
G37*
G36*
G01*
X0390492Y0179469D02*
X0390492Y0178111D01*
G75*
G02*
X0389911Y0177530I-000581J0000000D01*
G01*
X0388750Y0177530D01*
G75*
G02*
X0388169Y0178111I0000000J0000581D01*
G01*
X0388169Y0179469D01*
G75*
G02*
X0388750Y0180050I0000581J0000000D01*
G01*
X0389911Y0180050D01*
G75*
G02*
X0390492Y0179469I0000000J-000581D01*
G01*
G37*
G36*
G01*
X0418228Y0175089D02*
X0418228Y0173731D01*
G75*
G02*
X0417647Y0173150I-000581J0000000D01*
G01*
X0416486Y0173150D01*
G75*
G02*
X0415905Y0173731I0000000J0000581D01*
G01*
X0415905Y0175089D01*
G75*
G02*
X0416486Y0175670I0000581J0000000D01*
G01*
X0417647Y0175670D01*
G75*
G02*
X0418228Y0175089I0000000J-000581D01*
G01*
G37*
G36*
G01*
X0414409Y0175089D02*
X0414409Y0173731D01*
G75*
G02*
X0413828Y0173150I-000581J0000000D01*
G01*
X0412667Y0173150D01*
G75*
G02*
X0412086Y0173731I0000000J0000581D01*
G01*
X0412086Y0175089D01*
G75*
G02*
X0412667Y0175670I0000581J0000000D01*
G01*
X0413828Y0175670D01*
G75*
G02*
X0414409Y0175089I0000000J-000581D01*
G01*
G37*
G36*
G01*
X0430492Y0178849D02*
X0430492Y0180207D01*
G75*
G02*
X0431073Y0180788I0000581J0000000D01*
G01*
X0432234Y0180788D01*
G75*
G02*
X0432815Y0180207I0000000J-000581D01*
G01*
X0432815Y0178849D01*
G75*
G02*
X0432234Y0178268I-000581J0000000D01*
G01*
X0431073Y0178268D01*
G75*
G02*
X0430492Y0178849I0000000J0000581D01*
G01*
G37*
G36*
G01*
X0434311Y0178849D02*
X0434311Y0180207D01*
G75*
G02*
X0434891Y0180788I0000581J0000000D01*
G01*
X0436053Y0180788D01*
G75*
G02*
X0436634Y0180207I0000000J-000581D01*
G01*
X0436634Y0178849D01*
G75*
G02*
X0436053Y0178268I-000581J0000000D01*
G01*
X0434891Y0178268D01*
G75*
G02*
X0434311Y0178849I0000000J0000581D01*
G01*
G37*
G36*
G01*
X0403720Y0173731D02*
X0403720Y0175089D01*
G75*
G02*
X0404301Y0175670I0000581J0000000D01*
G01*
X0405462Y0175670D01*
G75*
G02*
X0406043Y0175089I0000000J-000581D01*
G01*
X0406043Y0173731D01*
G75*
G02*
X0405462Y0173150I-000581J0000000D01*
G01*
X0404301Y0173150D01*
G75*
G02*
X0403720Y0173731I0000000J0000581D01*
G01*
G37*
G36*
G01*
X0407539Y0173731D02*
X0407539Y0175089D01*
G75*
G02*
X0408120Y0175670I0000581J0000000D01*
G01*
X0409281Y0175670D01*
G75*
G02*
X0409862Y0175089I0000000J-000581D01*
G01*
X0409862Y0173731D01*
G75*
G02*
X0409281Y0173150I-000581J0000000D01*
G01*
X0408120Y0173150D01*
G75*
G02*
X0407539Y0173731I0000000J0000581D01*
G01*
G37*
G36*
G01*
X0430492Y0213495D02*
X0430492Y0214853D01*
G75*
G02*
X0431073Y0215433I0000581J0000000D01*
G01*
X0432234Y0215433D01*
G75*
G02*
X0432815Y0214853I0000000J-000581D01*
G01*
X0432815Y0213495D01*
G75*
G02*
X0432234Y0212914I-000581J0000000D01*
G01*
X0431073Y0212914D01*
G75*
G02*
X0430492Y0213495I0000000J0000581D01*
G01*
G37*
G36*
G01*
X0434311Y0213495D02*
X0434311Y0214853D01*
G75*
G02*
X0434891Y0215433I0000581J0000000D01*
G01*
X0436053Y0215433D01*
G75*
G02*
X0436634Y0214853I0000000J-000581D01*
G01*
X0436634Y0213495D01*
G75*
G02*
X0436053Y0212914I-000581J0000000D01*
G01*
X0434891Y0212914D01*
G75*
G02*
X0434311Y0213495I0000000J0000581D01*
G01*
G37*
D280*
X0423819Y0149056D03*
D218*
X0395472Y0150158D03*
X0407283Y0158032D03*
X0395472Y0165906D03*
D281*
X0399015Y0158032D03*
D280*
X0423819Y0167008D03*
G36*
G01*
X0404045Y0224528D02*
X0405403Y0224528D01*
G75*
G02*
X0405984Y0223947I0000000J-000581D01*
G01*
X0405984Y0222786D01*
G75*
G02*
X0405403Y0222205I-000581J0000000D01*
G01*
X0404045Y0222205D01*
G75*
G02*
X0403464Y0222786I0000000J0000581D01*
G01*
X0403464Y0223947D01*
G75*
G02*
X0404045Y0224528I0000581J0000000D01*
G01*
G37*
G36*
G01*
X0404045Y0220709D02*
X0405403Y0220709D01*
G75*
G02*
X0405984Y0220128I0000000J-000581D01*
G01*
X0405984Y0218967D01*
G75*
G02*
X0405403Y0218386I-000581J0000000D01*
G01*
X0404045Y0218386D01*
G75*
G02*
X0403464Y0218967I0000000J0000581D01*
G01*
X0403464Y0220128D01*
G75*
G02*
X0404045Y0220709I0000581J0000000D01*
G01*
G37*
G36*
G01*
X0390379Y0186024D02*
X0388361Y0186024D01*
G75*
G02*
X0387500Y0186885I0000000J0000861D01*
G01*
X0387500Y0188608D01*
G75*
G02*
X0388361Y0189469I0000861J0000000D01*
G01*
X0390379Y0189469D01*
G75*
G02*
X0391240Y0188608I0000000J-000861D01*
G01*
X0391240Y0186885D01*
G75*
G02*
X0390379Y0186024I-000861J0000000D01*
G01*
G37*
G36*
G01*
X0390379Y0192225D02*
X0388361Y0192225D01*
G75*
G02*
X0387500Y0193086I0000000J0000861D01*
G01*
X0387500Y0194808D01*
G75*
G02*
X0388361Y0195670I0000861J0000000D01*
G01*
X0390379Y0195670D01*
G75*
G02*
X0391240Y0194808I0000000J-000861D01*
G01*
X0391240Y0193086D01*
G75*
G02*
X0390379Y0192225I-000861J0000000D01*
G01*
G37*
G36*
G01*
X0394311Y0183652D02*
X0394311Y0182294D01*
G75*
G02*
X0393730Y0181713I-000581J0000000D01*
G01*
X0392569Y0181713D01*
G75*
G02*
X0391988Y0182294I0000000J0000581D01*
G01*
X0391988Y0183652D01*
G75*
G02*
X0392569Y0184233I0000581J0000000D01*
G01*
X0393730Y0184233D01*
G75*
G02*
X0394311Y0183652I0000000J-000581D01*
G01*
G37*
G36*
G01*
X0390492Y0183652D02*
X0390492Y0182294D01*
G75*
G02*
X0389911Y0181713I-000581J0000000D01*
G01*
X0388750Y0181713D01*
G75*
G02*
X0388169Y0182294I0000000J0000581D01*
G01*
X0388169Y0183652D01*
G75*
G02*
X0388750Y0184233I0000581J0000000D01*
G01*
X0389911Y0184233D01*
G75*
G02*
X0390492Y0183652I0000000J-000581D01*
G01*
G37*
G36*
G01*
X0389764Y0139543D02*
X0389764Y0141560D01*
G75*
G02*
X0390625Y0142422I0000861J0000000D01*
G01*
X0392347Y0142422D01*
G75*
G02*
X0393208Y0141560I0000000J-000861D01*
G01*
X0393208Y0139543D01*
G75*
G02*
X0392347Y0138682I-000861J0000000D01*
G01*
X0390625Y0138682D01*
G75*
G02*
X0389764Y0139543I0000000J0000861D01*
G01*
G37*
G36*
G01*
X0395964Y0139543D02*
X0395964Y0141560D01*
G75*
G02*
X0396826Y0142422I0000861J0000000D01*
G01*
X0398548Y0142422D01*
G75*
G02*
X0399409Y0141560I0000000J-000861D01*
G01*
X0399409Y0139543D01*
G75*
G02*
X0398548Y0138682I-000861J0000000D01*
G01*
X0396826Y0138682D01*
G75*
G02*
X0395964Y0139543I0000000J0000861D01*
G01*
G37*
G36*
G01*
X0388361Y0207382D02*
X0390379Y0207382D01*
G75*
G02*
X0391240Y0206521I0000000J-000861D01*
G01*
X0391240Y0204799D01*
G75*
G02*
X0390379Y0203937I-000861J0000000D01*
G01*
X0388361Y0203937D01*
G75*
G02*
X0387500Y0204799I0000000J0000861D01*
G01*
X0387500Y0206521D01*
G75*
G02*
X0388361Y0207382I0000861J0000000D01*
G01*
G37*
G36*
G01*
X0388361Y0201182D02*
X0390379Y0201182D01*
G75*
G02*
X0391240Y0200320I0000000J-000861D01*
G01*
X0391240Y0198598D01*
G75*
G02*
X0390379Y0197737I-000861J0000000D01*
G01*
X0388361Y0197737D01*
G75*
G02*
X0387500Y0198598I0000000J0000861D01*
G01*
X0387500Y0200320D01*
G75*
G02*
X0388361Y0201182I0000861J0000000D01*
G01*
G37*
G36*
G01*
X0392539Y0211703D02*
X0392539Y0210345D01*
G75*
G02*
X0391958Y0209764I-000581J0000000D01*
G01*
X0390797Y0209764D01*
G75*
G02*
X0390216Y0210345I0000000J0000581D01*
G01*
X0390216Y0211703D01*
G75*
G02*
X0390797Y0212284I0000581J0000000D01*
G01*
X0391958Y0212284D01*
G75*
G02*
X0392539Y0211703I0000000J-000581D01*
G01*
G37*
G36*
G01*
X0388720Y0211703D02*
X0388720Y0210345D01*
G75*
G02*
X0388139Y0209764I-000581J0000000D01*
G01*
X0386978Y0209764D01*
G75*
G02*
X0386397Y0210345I0000000J0000581D01*
G01*
X0386397Y0211703D01*
G75*
G02*
X0386978Y0212284I0000581J0000000D01*
G01*
X0388139Y0212284D01*
G75*
G02*
X0388720Y0211703I0000000J-000581D01*
G01*
G37*
G36*
G01*
X0405216Y0177264D02*
X0404232Y0177264D01*
G75*
G02*
X0403740Y0177756I0000000J0000492D01*
G01*
X0403740Y0182678D01*
G75*
G02*
X0404232Y0183170I0000492J0000000D01*
G01*
X0405216Y0183170D01*
G75*
G02*
X0405708Y0182678I0000000J-000492D01*
G01*
X0405708Y0177756D01*
G75*
G02*
X0405216Y0177264I-000492J0000000D01*
G01*
G37*
G36*
G01*
X0408366Y0177264D02*
X0407382Y0177264D01*
G75*
G02*
X0406889Y0177756I0000000J0000492D01*
G01*
X0406889Y0182678D01*
G75*
G02*
X0407382Y0183170I0000492J0000000D01*
G01*
X0408366Y0183170D01*
G75*
G02*
X0408858Y0182678I0000000J-000492D01*
G01*
X0408858Y0177756D01*
G75*
G02*
X0408366Y0177264I-000492J0000000D01*
G01*
G37*
G36*
G01*
X0411515Y0177264D02*
X0410531Y0177264D01*
G75*
G02*
X0410039Y0177756I0000000J0000492D01*
G01*
X0410039Y0182678D01*
G75*
G02*
X0410531Y0183170I0000492J0000000D01*
G01*
X0411515Y0183170D01*
G75*
G02*
X0412008Y0182678I0000000J-000492D01*
G01*
X0412008Y0177756D01*
G75*
G02*
X0411515Y0177264I-000492J0000000D01*
G01*
G37*
G36*
G01*
X0414665Y0177264D02*
X0413681Y0177264D01*
G75*
G02*
X0413189Y0177756I0000000J0000492D01*
G01*
X0413189Y0182678D01*
G75*
G02*
X0413681Y0183170I0000492J0000000D01*
G01*
X0414665Y0183170D01*
G75*
G02*
X0415157Y0182678I0000000J-000492D01*
G01*
X0415157Y0177756D01*
G75*
G02*
X0414665Y0177264I-000492J0000000D01*
G01*
G37*
G36*
G01*
X0417815Y0177264D02*
X0416830Y0177264D01*
G75*
G02*
X0416338Y0177756I0000000J0000492D01*
G01*
X0416338Y0182678D01*
G75*
G02*
X0416830Y0183170I0000492J0000000D01*
G01*
X0417815Y0183170D01*
G75*
G02*
X0418307Y0182678I0000000J-000492D01*
G01*
X0418307Y0177756D01*
G75*
G02*
X0417815Y0177264I-000492J0000000D01*
G01*
G37*
G36*
G01*
X0420964Y0177264D02*
X0419980Y0177264D01*
G75*
G02*
X0419488Y0177756I0000000J0000492D01*
G01*
X0419488Y0182678D01*
G75*
G02*
X0419980Y0183170I0000492J0000000D01*
G01*
X0420964Y0183170D01*
G75*
G02*
X0421456Y0182678I0000000J-000492D01*
G01*
X0421456Y0177756D01*
G75*
G02*
X0420964Y0177264I-000492J0000000D01*
G01*
G37*
G36*
G01*
X0424114Y0177264D02*
X0423130Y0177264D01*
G75*
G02*
X0422638Y0177756I0000000J0000492D01*
G01*
X0422638Y0182678D01*
G75*
G02*
X0423130Y0183170I0000492J0000000D01*
G01*
X0424114Y0183170D01*
G75*
G02*
X0424606Y0182678I0000000J-000492D01*
G01*
X0424606Y0177756D01*
G75*
G02*
X0424114Y0177264I-000492J0000000D01*
G01*
G37*
G36*
G01*
X0427264Y0177264D02*
X0426279Y0177264D01*
G75*
G02*
X0425787Y0177756I0000000J0000492D01*
G01*
X0425787Y0182678D01*
G75*
G02*
X0426279Y0183170I0000492J0000000D01*
G01*
X0427264Y0183170D01*
G75*
G02*
X0427756Y0182678I0000000J-000492D01*
G01*
X0427756Y0177756D01*
G75*
G02*
X0427264Y0177264I-000492J0000000D01*
G01*
G37*
G36*
G01*
X0434645Y0184646D02*
X0429724Y0184646D01*
G75*
G02*
X0429232Y0185138I0000000J0000492D01*
G01*
X0429232Y0186122D01*
G75*
G02*
X0429724Y0186615I0000492J0000000D01*
G01*
X0434645Y0186615D01*
G75*
G02*
X0435138Y0186122I0000000J-000492D01*
G01*
X0435138Y0185138D01*
G75*
G02*
X0434645Y0184646I-000492J0000000D01*
G01*
G37*
G36*
G01*
X0434645Y0187796D02*
X0429724Y0187796D01*
G75*
G02*
X0429232Y0188288I0000000J0000492D01*
G01*
X0429232Y0189272D01*
G75*
G02*
X0429724Y0189764I0000492J0000000D01*
G01*
X0434645Y0189764D01*
G75*
G02*
X0435138Y0189272I0000000J-000492D01*
G01*
X0435138Y0188288D01*
G75*
G02*
X0434645Y0187796I-000492J0000000D01*
G01*
G37*
G36*
G01*
X0434645Y0190945D02*
X0429724Y0190945D01*
G75*
G02*
X0429232Y0191437I0000000J0000492D01*
G01*
X0429232Y0192422D01*
G75*
G02*
X0429724Y0192914I0000492J0000000D01*
G01*
X0434645Y0192914D01*
G75*
G02*
X0435138Y0192422I0000000J-000492D01*
G01*
X0435138Y0191437D01*
G75*
G02*
X0434645Y0190945I-000492J0000000D01*
G01*
G37*
G36*
G01*
X0434645Y0194095D02*
X0429724Y0194095D01*
G75*
G02*
X0429232Y0194587I0000000J0000492D01*
G01*
X0429232Y0195571D01*
G75*
G02*
X0429724Y0196063I0000492J0000000D01*
G01*
X0434645Y0196063D01*
G75*
G02*
X0435138Y0195571I0000000J-000492D01*
G01*
X0435138Y0194587D01*
G75*
G02*
X0434645Y0194095I-000492J0000000D01*
G01*
G37*
G36*
G01*
X0434645Y0197245D02*
X0429724Y0197245D01*
G75*
G02*
X0429232Y0197737I0000000J0000492D01*
G01*
X0429232Y0198721D01*
G75*
G02*
X0429724Y0199213I0000492J0000000D01*
G01*
X0434645Y0199213D01*
G75*
G02*
X0435138Y0198721I0000000J-000492D01*
G01*
X0435138Y0197737D01*
G75*
G02*
X0434645Y0197245I-000492J0000000D01*
G01*
G37*
G36*
G01*
X0434645Y0200394D02*
X0429724Y0200394D01*
G75*
G02*
X0429232Y0200886I0000000J0000492D01*
G01*
X0429232Y0201870D01*
G75*
G02*
X0429724Y0202363I0000492J0000000D01*
G01*
X0434645Y0202363D01*
G75*
G02*
X0435138Y0201870I0000000J-000492D01*
G01*
X0435138Y0200886D01*
G75*
G02*
X0434645Y0200394I-000492J0000000D01*
G01*
G37*
G36*
G01*
X0434645Y0203544D02*
X0429724Y0203544D01*
G75*
G02*
X0429232Y0204036I0000000J0000492D01*
G01*
X0429232Y0205020D01*
G75*
G02*
X0429724Y0205512I0000492J0000000D01*
G01*
X0434645Y0205512D01*
G75*
G02*
X0435138Y0205020I0000000J-000492D01*
G01*
X0435138Y0204036D01*
G75*
G02*
X0434645Y0203544I-000492J0000000D01*
G01*
G37*
G36*
G01*
X0434645Y0206693D02*
X0429724Y0206693D01*
G75*
G02*
X0429232Y0207185I0000000J0000492D01*
G01*
X0429232Y0208170D01*
G75*
G02*
X0429724Y0208662I0000492J0000000D01*
G01*
X0434645Y0208662D01*
G75*
G02*
X0435138Y0208170I0000000J-000492D01*
G01*
X0435138Y0207185D01*
G75*
G02*
X0434645Y0206693I-000492J0000000D01*
G01*
G37*
G36*
G01*
X0427264Y0210138D02*
X0426279Y0210138D01*
G75*
G02*
X0425787Y0210630I0000000J0000492D01*
G01*
X0425787Y0215552D01*
G75*
G02*
X0426279Y0216044I0000492J0000000D01*
G01*
X0427264Y0216044D01*
G75*
G02*
X0427756Y0215552I0000000J-000492D01*
G01*
X0427756Y0210630D01*
G75*
G02*
X0427264Y0210138I-000492J0000000D01*
G01*
G37*
G36*
G01*
X0424114Y0210138D02*
X0423130Y0210138D01*
G75*
G02*
X0422638Y0210630I0000000J0000492D01*
G01*
X0422638Y0215552D01*
G75*
G02*
X0423130Y0216044I0000492J0000000D01*
G01*
X0424114Y0216044D01*
G75*
G02*
X0424606Y0215552I0000000J-000492D01*
G01*
X0424606Y0210630D01*
G75*
G02*
X0424114Y0210138I-000492J0000000D01*
G01*
G37*
G36*
G01*
X0420964Y0210138D02*
X0419980Y0210138D01*
G75*
G02*
X0419488Y0210630I0000000J0000492D01*
G01*
X0419488Y0215552D01*
G75*
G02*
X0419980Y0216044I0000492J0000000D01*
G01*
X0420964Y0216044D01*
G75*
G02*
X0421456Y0215552I0000000J-000492D01*
G01*
X0421456Y0210630D01*
G75*
G02*
X0420964Y0210138I-000492J0000000D01*
G01*
G37*
G36*
G01*
X0417815Y0210138D02*
X0416830Y0210138D01*
G75*
G02*
X0416338Y0210630I0000000J0000492D01*
G01*
X0416338Y0215552D01*
G75*
G02*
X0416830Y0216044I0000492J0000000D01*
G01*
X0417815Y0216044D01*
G75*
G02*
X0418307Y0215552I0000000J-000492D01*
G01*
X0418307Y0210630D01*
G75*
G02*
X0417815Y0210138I-000492J0000000D01*
G01*
G37*
G36*
G01*
X0414665Y0210138D02*
X0413681Y0210138D01*
G75*
G02*
X0413189Y0210630I0000000J0000492D01*
G01*
X0413189Y0215552D01*
G75*
G02*
X0413681Y0216044I0000492J0000000D01*
G01*
X0414665Y0216044D01*
G75*
G02*
X0415157Y0215552I0000000J-000492D01*
G01*
X0415157Y0210630D01*
G75*
G02*
X0414665Y0210138I-000492J0000000D01*
G01*
G37*
G36*
G01*
X0411515Y0210138D02*
X0410531Y0210138D01*
G75*
G02*
X0410039Y0210630I0000000J0000492D01*
G01*
X0410039Y0215552D01*
G75*
G02*
X0410531Y0216044I0000492J0000000D01*
G01*
X0411515Y0216044D01*
G75*
G02*
X0412008Y0215552I0000000J-000492D01*
G01*
X0412008Y0210630D01*
G75*
G02*
X0411515Y0210138I-000492J0000000D01*
G01*
G37*
G36*
G01*
X0408366Y0210138D02*
X0407382Y0210138D01*
G75*
G02*
X0406889Y0210630I0000000J0000492D01*
G01*
X0406889Y0215552D01*
G75*
G02*
X0407382Y0216044I0000492J0000000D01*
G01*
X0408366Y0216044D01*
G75*
G02*
X0408858Y0215552I0000000J-000492D01*
G01*
X0408858Y0210630D01*
G75*
G02*
X0408366Y0210138I-000492J0000000D01*
G01*
G37*
G36*
G01*
X0405216Y0210138D02*
X0404232Y0210138D01*
G75*
G02*
X0403740Y0210630I0000000J0000492D01*
G01*
X0403740Y0215552D01*
G75*
G02*
X0404232Y0216044I0000492J0000000D01*
G01*
X0405216Y0216044D01*
G75*
G02*
X0405708Y0215552I0000000J-000492D01*
G01*
X0405708Y0210630D01*
G75*
G02*
X0405216Y0210138I-000492J0000000D01*
G01*
G37*
G36*
G01*
X0401771Y0206693D02*
X0396850Y0206693D01*
G75*
G02*
X0396358Y0207185I0000000J0000492D01*
G01*
X0396358Y0208170D01*
G75*
G02*
X0396850Y0208662I0000492J0000000D01*
G01*
X0401771Y0208662D01*
G75*
G02*
X0402264Y0208170I0000000J-000492D01*
G01*
X0402264Y0207185D01*
G75*
G02*
X0401771Y0206693I-000492J0000000D01*
G01*
G37*
G36*
G01*
X0401771Y0203544D02*
X0396850Y0203544D01*
G75*
G02*
X0396358Y0204036I0000000J0000492D01*
G01*
X0396358Y0205020D01*
G75*
G02*
X0396850Y0205512I0000492J0000000D01*
G01*
X0401771Y0205512D01*
G75*
G02*
X0402264Y0205020I0000000J-000492D01*
G01*
X0402264Y0204036D01*
G75*
G02*
X0401771Y0203544I-000492J0000000D01*
G01*
G37*
G36*
G01*
X0401771Y0200394D02*
X0396850Y0200394D01*
G75*
G02*
X0396358Y0200886I0000000J0000492D01*
G01*
X0396358Y0201870D01*
G75*
G02*
X0396850Y0202363I0000492J0000000D01*
G01*
X0401771Y0202363D01*
G75*
G02*
X0402264Y0201870I0000000J-000492D01*
G01*
X0402264Y0200886D01*
G75*
G02*
X0401771Y0200394I-000492J0000000D01*
G01*
G37*
G36*
G01*
X0401771Y0197245D02*
X0396850Y0197245D01*
G75*
G02*
X0396358Y0197737I0000000J0000492D01*
G01*
X0396358Y0198721D01*
G75*
G02*
X0396850Y0199213I0000492J0000000D01*
G01*
X0401771Y0199213D01*
G75*
G02*
X0402264Y0198721I0000000J-000492D01*
G01*
X0402264Y0197737D01*
G75*
G02*
X0401771Y0197245I-000492J0000000D01*
G01*
G37*
G36*
G01*
X0401771Y0194095D02*
X0396850Y0194095D01*
G75*
G02*
X0396358Y0194587I0000000J0000492D01*
G01*
X0396358Y0195571D01*
G75*
G02*
X0396850Y0196063I0000492J0000000D01*
G01*
X0401771Y0196063D01*
G75*
G02*
X0402264Y0195571I0000000J-000492D01*
G01*
X0402264Y0194587D01*
G75*
G02*
X0401771Y0194095I-000492J0000000D01*
G01*
G37*
G36*
G01*
X0401771Y0190945D02*
X0396850Y0190945D01*
G75*
G02*
X0396358Y0191437I0000000J0000492D01*
G01*
X0396358Y0192422D01*
G75*
G02*
X0396850Y0192914I0000492J0000000D01*
G01*
X0401771Y0192914D01*
G75*
G02*
X0402264Y0192422I0000000J-000492D01*
G01*
X0402264Y0191437D01*
G75*
G02*
X0401771Y0190945I-000492J0000000D01*
G01*
G37*
G36*
G01*
X0401771Y0187796D02*
X0396850Y0187796D01*
G75*
G02*
X0396358Y0188288I0000000J0000492D01*
G01*
X0396358Y0189272D01*
G75*
G02*
X0396850Y0189764I0000492J0000000D01*
G01*
X0401771Y0189764D01*
G75*
G02*
X0402264Y0189272I0000000J-000492D01*
G01*
X0402264Y0188288D01*
G75*
G02*
X0401771Y0187796I-000492J0000000D01*
G01*
G37*
G36*
G01*
X0401771Y0184646D02*
X0396850Y0184646D01*
G75*
G02*
X0396358Y0185138I0000000J0000492D01*
G01*
X0396358Y0186122D01*
G75*
G02*
X0396850Y0186615I0000492J0000000D01*
G01*
X0401771Y0186615D01*
G75*
G02*
X0402264Y0186122I0000000J-000492D01*
G01*
X0402264Y0185138D01*
G75*
G02*
X0401771Y0184646I-000492J0000000D01*
G01*
G37*
G36*
G01*
X0423317Y0219272D02*
X0421958Y0219272D01*
G75*
G02*
X0421378Y0219853I0000000J0000581D01*
G01*
X0421378Y0221014D01*
G75*
G02*
X0421958Y0221595I0000581J0000000D01*
G01*
X0423317Y0221595D01*
G75*
G02*
X0423897Y0221014I0000000J-000581D01*
G01*
X0423897Y0219853D01*
G75*
G02*
X0423317Y0219272I-000581J0000000D01*
G01*
G37*
G36*
G01*
X0423317Y0223091D02*
X0421958Y0223091D01*
G75*
G02*
X0421378Y0223672I0000000J0000581D01*
G01*
X0421378Y0224833D01*
G75*
G02*
X0421958Y0225414I0000581J0000000D01*
G01*
X0423317Y0225414D01*
G75*
G02*
X0423897Y0224833I0000000J-000581D01*
G01*
X0423897Y0223672D01*
G75*
G02*
X0423317Y0223091I-000581J0000000D01*
G01*
G37*
G36*
G01*
X0399921Y0212195D02*
X0399921Y0210837D01*
G75*
G02*
X0399340Y0210256I-000581J0000000D01*
G01*
X0398179Y0210256D01*
G75*
G02*
X0397598Y0210837I0000000J0000581D01*
G01*
X0397598Y0212195D01*
G75*
G02*
X0398179Y0212776I0000581J0000000D01*
G01*
X0399340Y0212776D01*
G75*
G02*
X0399921Y0212195I0000000J-000581D01*
G01*
G37*
G36*
G01*
X0396102Y0212195D02*
X0396102Y0210837D01*
G75*
G02*
X0395521Y0210256I-000581J0000000D01*
G01*
X0394360Y0210256D01*
G75*
G02*
X0393779Y0210837I0000000J0000581D01*
G01*
X0393779Y0212195D01*
G75*
G02*
X0394360Y0212776I0000581J0000000D01*
G01*
X0395521Y0212776D01*
G75*
G02*
X0396102Y0212195I0000000J-000581D01*
G01*
G37*
G36*
G01*
X0421958Y0235839D02*
X0423317Y0235839D01*
G75*
G02*
X0423897Y0235258I0000000J-000581D01*
G01*
X0423897Y0234097D01*
G75*
G02*
X0423317Y0233516I-000581J0000000D01*
G01*
X0421958Y0233516D01*
G75*
G02*
X0421378Y0234097I0000000J0000581D01*
G01*
X0421378Y0235258D01*
G75*
G02*
X0421958Y0235839I0000581J0000000D01*
G01*
G37*
G36*
G01*
X0421958Y0232020D02*
X0423317Y0232020D01*
G75*
G02*
X0423897Y0231439I0000000J-000581D01*
G01*
X0423897Y0230278D01*
G75*
G02*
X0423317Y0229697I-000581J0000000D01*
G01*
X0421958Y0229697D01*
G75*
G02*
X0421378Y0230278I0000000J0000581D01*
G01*
X0421378Y0231439D01*
G75*
G02*
X0421958Y0232020I0000581J0000000D01*
G01*
G37*
D216*
X0427559Y0234351D03*
X0427559Y0226870D03*
X0435433Y0230611D03*
G36*
G01*
X0401791Y0175286D02*
X0401791Y0173928D01*
G75*
G02*
X0401210Y0173347I-000581J0000000D01*
G01*
X0400049Y0173347D01*
G75*
G02*
X0399468Y0173928I0000000J0000581D01*
G01*
X0399468Y0175286D01*
G75*
G02*
X0400049Y0175867I0000581J0000000D01*
G01*
X0401210Y0175867D01*
G75*
G02*
X0401791Y0175286I0000000J-000581D01*
G01*
G37*
G36*
G01*
X0397972Y0175286D02*
X0397972Y0173928D01*
G75*
G02*
X0397391Y0173347I-000581J0000000D01*
G01*
X0396230Y0173347D01*
G75*
G02*
X0395649Y0173928I0000000J0000581D01*
G01*
X0395649Y0175286D01*
G75*
G02*
X0396230Y0175867I0000581J0000000D01*
G01*
X0397391Y0175867D01*
G75*
G02*
X0397972Y0175286I0000000J-000581D01*
G01*
G37*
G36*
G01*
X0436830Y0221413D02*
X0436830Y0219395D01*
G75*
G02*
X0435969Y0218534I-000861J0000000D01*
G01*
X0434247Y0218534D01*
G75*
G02*
X0433386Y0219395I0000000J0000861D01*
G01*
X0433386Y0221413D01*
G75*
G02*
X0434247Y0222274I0000861J0000000D01*
G01*
X0435969Y0222274D01*
G75*
G02*
X0436830Y0221413I0000000J-000861D01*
G01*
G37*
G36*
G01*
X0430630Y0221413D02*
X0430630Y0219395D01*
G75*
G02*
X0429768Y0218534I-000861J0000000D01*
G01*
X0428046Y0218534D01*
G75*
G02*
X0427185Y0219395I0000000J0000861D01*
G01*
X0427185Y0221413D01*
G75*
G02*
X0428046Y0222274I0000861J0000000D01*
G01*
X0429768Y0222274D01*
G75*
G02*
X0430630Y0221413I0000000J-000861D01*
G01*
G37*
D100*
X0394685Y0237166D03*
X0390685Y0217166D03*
X0398685Y0217166D03*
D96*
X0392185Y0232166D03*
X0397185Y0232166D03*
X0392185Y0227166D03*
X0397185Y0227166D03*
X0392185Y0222166D03*
X0397185Y0222166D03*
D282*
X0433563Y0147678D03*
D283*
X0433563Y0157678D03*
X0433563Y0167678D03*
X0206811Y0179875D02*
G01*
G75*
D237*
X0209665Y0180959D02*
D03*
X0214291Y0180959D02*
D03*
X0237421Y0180959D02*
D03*
X0234429Y0180959D02*
D03*
X0229803Y0180959D02*
D03*
X0218917Y0180959D02*
D03*
X0225177Y0180959D02*
D03*
X0221870Y0180959D02*
D03*
D238*
X0234154Y0198576D02*
D03*
X0234154Y0201135D02*
D03*
X0234154Y0203694D02*
D03*
X0234154Y0206253D02*
D03*
X0234154Y0208812D02*
D03*
X0234154Y0211371D02*
D03*
X0234154Y0213930D02*
D03*
X0234154Y0216489D02*
D03*
X0234154Y0219048D02*
D03*
X0234154Y0221607D02*
D03*
X0234154Y0224166D02*
D03*
X0234154Y0226725D02*
D03*
X0211161Y0198576D02*
D03*
X0211161Y0201135D02*
D03*
X0211161Y0203694D02*
D03*
X0211161Y0206253D02*
D03*
X0211161Y0208812D02*
D03*
X0211161Y0211371D02*
D03*
X0211161Y0213930D02*
D03*
X0211161Y0216489D02*
D03*
X0211161Y0219048D02*
D03*
X0211161Y0221607D02*
D03*
X0211161Y0224166D02*
D03*
X0211161Y0226725D02*
D03*
D198*
X0211181Y0230662D02*
D03*
X0217402Y0230662D02*
D03*
X0227933Y0230662D02*
D03*
X0221712Y0230662D02*
D03*
D239*
X0229941Y0193458D02*
D03*
X0236240Y0193458D02*
D03*
X0216949Y0193064D02*
D03*
X0223248Y0193064D02*
D03*
D240*
X0225024Y0182434D02*
D03*
X0225024Y0188733D02*
D03*
X0218701Y0188733D02*
D03*
X0218701Y0182434D02*
D03*
X0214075Y0182434D02*
D03*
X0214075Y0188733D02*
D03*
X0234252Y0188635D02*
D03*
X0234252Y0182336D02*
D03*
X0209449Y0188733D02*
D03*
X0209449Y0182434D02*
D03*
X0229646Y0188733D02*
D03*
X0229646Y0182434D02*
D03*
D203*
X0213405Y0229383D02*
D03*
X0229449Y0228202D02*
D03*
X0236732Y0201135D02*
D03*
X0231575Y0203694D02*
D03*
X0229803Y0210092D02*
D03*
X0236732Y0208812D02*
D03*
X0229508Y0213438D02*
D03*
X0228661Y0216883D02*
D03*
X0236732Y0219048D02*
D03*
X0229508Y0220721D02*
D03*
M02*
