G04 #@! TF.GenerationSoftware,KiCad,Pcbnew,8.0.7-8.0.7-0~ubuntu22.04.1*
G04 #@! TF.CreationDate,2024-12-12T02:11:47+00:00*
G04 #@! TF.ProjectId,z31hellen,7a333168-656c-46c6-956e-2e6b69636164,rev?*
G04 #@! TF.SameCoordinates,Original*
G04 #@! TF.FileFunction,Soldermask,Top*
G04 #@! TF.FilePolarity,Negative*
%FSLAX46Y46*%
G04 Gerber Fmt 4.6, Leading zero omitted, Abs format (unit mm)*
G04 Created by KiCad (PCBNEW 8.0.7-8.0.7-0~ubuntu22.04.1) date 2024-12-12 02:11:47*
%MOMM*%
%LPD*%
G01*
G04 APERTURE LIST*
%ADD10R,5.800000X6.400000*%
%ADD11O,1.700000X1.850000*%
%ADD12C,1.500000*%
%ADD13C,0.600000*%
%ADD14C,0.650000*%
%ADD15R,1.150000X0.300000*%
%ADD16O,2.100000X1.000000*%
%ADD17O,1.600000X1.000000*%
%ADD18R,0.558800X1.320800*%
%ADD19O,0.399999X0.200000*%
%ADD20C,0.599999*%
%ADD21C,2.000000*%
%ADD22C,6.075000*%
G04 APERTURE END LIST*
G04 #@! TO.C,Q5*
G36*
G01*
X45750002Y41700005D02*
X46710002Y41700005D01*
G75*
G02*
X46830002Y41580005I0J-120000D01*
G01*
X46830002Y39620005D01*
G75*
G02*
X46710002Y39500005I-120000J0D01*
G01*
X45750002Y39500005D01*
G75*
G02*
X45630002Y39620005I0J120000D01*
G01*
X45630002Y41580005D01*
G75*
G02*
X45750002Y41700005I120000J0D01*
G01*
G37*
D10*
X43950002Y34300005D03*
G36*
G01*
X41190002Y41700005D02*
X42150002Y41700005D01*
G75*
G02*
X42270002Y41580005I0J-120000D01*
G01*
X42270002Y39620005D01*
G75*
G02*
X42150002Y39500005I-120000J0D01*
G01*
X41190002Y39500005D01*
G75*
G02*
X41070002Y39620005I0J120000D01*
G01*
X41070002Y41580005D01*
G75*
G02*
X41190002Y41700005I120000J0D01*
G01*
G37*
G04 #@! TD*
G04 #@! TO.C,Q3*
G36*
G01*
X104173502Y21163005D02*
X103776502Y21163005D01*
G75*
G02*
X103578002Y21361505I0J198500D01*
G01*
X103578002Y22378505D01*
G75*
G02*
X103776502Y22577005I198500J0D01*
G01*
X104173502Y22577005D01*
G75*
G02*
X104372002Y22378505I0J-198500D01*
G01*
X104372002Y21361505D01*
G75*
G02*
X104173502Y21163005I-198500J0D01*
G01*
G37*
G36*
G01*
X106073502Y21163005D02*
X105676502Y21163005D01*
G75*
G02*
X105478002Y21361505I0J198500D01*
G01*
X105478002Y22378505D01*
G75*
G02*
X105676502Y22577005I198500J0D01*
G01*
X106073502Y22577005D01*
G75*
G02*
X106272002Y22378505I0J-198500D01*
G01*
X106272002Y21361505D01*
G75*
G02*
X106073502Y21163005I-198500J0D01*
G01*
G37*
G36*
G01*
X105123502Y23673005D02*
X104726502Y23673005D01*
G75*
G02*
X104528002Y23871505I0J198500D01*
G01*
X104528002Y24888505D01*
G75*
G02*
X104726502Y25087005I198500J0D01*
G01*
X105123502Y25087005D01*
G75*
G02*
X105322002Y24888505I0J-198500D01*
G01*
X105322002Y23871505D01*
G75*
G02*
X105123502Y23673005I-198500J0D01*
G01*
G37*
G04 #@! TD*
G04 #@! TO.C,J2*
G36*
G01*
X54575002Y60050005D02*
X54575002Y61400005D01*
G75*
G02*
X54825002Y61650005I250000J0D01*
G01*
X56025002Y61650005D01*
G75*
G02*
X56275002Y61400005I0J-250000D01*
G01*
X56275002Y60050005D01*
G75*
G02*
X56025002Y59800005I-250000J0D01*
G01*
X54825002Y59800005D01*
G75*
G02*
X54575002Y60050005I0J250000D01*
G01*
G37*
D11*
X57925002Y60725005D03*
X60425002Y60725005D03*
X62925002Y60725005D03*
X65425002Y60725005D03*
G04 #@! TD*
G04 #@! TO.C,D1*
G36*
G01*
X115065402Y22045905D02*
X116284602Y22045905D01*
G75*
G02*
X116386602Y21943905I0J-102000D01*
G01*
X116386602Y21029505D01*
G75*
G02*
X116284602Y20927505I-102000J0D01*
G01*
X115065402Y20927505D01*
G75*
G02*
X114963402Y21029505I0J102000D01*
G01*
X114963402Y21943905D01*
G75*
G02*
X115065402Y22045905I102000J0D01*
G01*
G37*
G36*
G01*
X115065402Y25322505D02*
X116284602Y25322505D01*
G75*
G02*
X116386602Y25220505I0J-102000D01*
G01*
X116386602Y24306105D01*
G75*
G02*
X116284602Y24204105I-102000J0D01*
G01*
X115065402Y24204105D01*
G75*
G02*
X114963402Y24306105I0J102000D01*
G01*
X114963402Y25220505D01*
G75*
G02*
X115065402Y25322505I102000J0D01*
G01*
G37*
G04 #@! TD*
D12*
G04 #@! TO.C,M2*
X136600003Y42000000D03*
X143000000Y42000000D03*
X144900003Y42000000D03*
X149200003Y42000000D03*
D13*
X151600000Y42449999D03*
X152600001Y42449999D03*
D12*
X155450003Y42000000D03*
X136150001Y26500003D03*
X138000000Y26500003D03*
X142950003Y26500003D03*
X155000001Y26500003D03*
G04 #@! TD*
G04 #@! TO.C,Q4*
G36*
G01*
X37750002Y41850005D02*
X38710002Y41850005D01*
G75*
G02*
X38830002Y41730005I0J-120000D01*
G01*
X38830002Y39770005D01*
G75*
G02*
X38710002Y39650005I-120000J0D01*
G01*
X37750002Y39650005D01*
G75*
G02*
X37630002Y39770005I0J120000D01*
G01*
X37630002Y41730005D01*
G75*
G02*
X37750002Y41850005I120000J0D01*
G01*
G37*
D10*
X35950002Y34450005D03*
G36*
G01*
X33190002Y41850005D02*
X34150002Y41850005D01*
G75*
G02*
X34270002Y41730005I0J-120000D01*
G01*
X34270002Y39770005D01*
G75*
G02*
X34150002Y39650005I-120000J0D01*
G01*
X33190002Y39650005D01*
G75*
G02*
X33070002Y39770005I0J120000D01*
G01*
X33070002Y41730005D01*
G75*
G02*
X33190002Y41850005I120000J0D01*
G01*
G37*
G04 #@! TD*
D14*
G04 #@! TO.C,J3*
X59925002Y72945005D03*
X59925002Y67165005D03*
D15*
X60990002Y73405005D03*
X60990002Y72605005D03*
X60990002Y71305005D03*
X60990002Y70305005D03*
X60990002Y69805005D03*
X60990002Y68805005D03*
X60990002Y67505005D03*
X60990002Y66705005D03*
X60990002Y67005005D03*
X60990002Y67805005D03*
X60990002Y68305005D03*
X60990002Y69305005D03*
X60990002Y70805005D03*
X60990002Y71805005D03*
X60990002Y72305005D03*
X60990002Y73105005D03*
D16*
X60425002Y74375005D03*
D17*
X56245002Y74375005D03*
D16*
X60425002Y65735005D03*
D17*
X56245002Y65735005D03*
G04 #@! TD*
D18*
G04 #@! TO.C,U5*
X107675002Y22125005D03*
X109585000Y22125005D03*
X108630001Y24004605D03*
G04 #@! TD*
D19*
G04 #@! TO.C,M4*
X36699639Y53429842D03*
X36699639Y52669863D03*
X36699639Y51494870D03*
X36699639Y50319883D03*
X36699639Y49479971D03*
X36699639Y48729899D03*
X36699639Y47554888D03*
X36699639Y46379891D03*
D20*
X26600032Y51419894D03*
X27025040Y53254904D03*
X27575037Y51204896D03*
X28449996Y51419891D03*
X29300019Y51494898D03*
X29625035Y53254904D03*
X30925002Y51944904D03*
X31575019Y53254904D03*
X24400016Y47329889D03*
X24700018Y51404895D03*
G04 #@! TD*
G04 #@! TO.C,Q8*
G36*
G01*
X70700002Y41700005D02*
X71660002Y41700005D01*
G75*
G02*
X71780002Y41580005I0J-120000D01*
G01*
X71780002Y39620005D01*
G75*
G02*
X71660002Y39500005I-120000J0D01*
G01*
X70700002Y39500005D01*
G75*
G02*
X70580002Y39620005I0J120000D01*
G01*
X70580002Y41580005D01*
G75*
G02*
X70700002Y41700005I120000J0D01*
G01*
G37*
D10*
X68900002Y34300005D03*
G36*
G01*
X66140002Y41700005D02*
X67100002Y41700005D01*
G75*
G02*
X67220002Y41580005I0J-120000D01*
G01*
X67220002Y39620005D01*
G75*
G02*
X67100002Y39500005I-120000J0D01*
G01*
X66140002Y39500005D01*
G75*
G02*
X66020002Y39620005I0J120000D01*
G01*
X66020002Y41580005D01*
G75*
G02*
X66140002Y41700005I120000J0D01*
G01*
G37*
G04 #@! TD*
G04 #@! TO.C,Q9*
G36*
G01*
X78725002Y41700005D02*
X79685002Y41700005D01*
G75*
G02*
X79805002Y41580005I0J-120000D01*
G01*
X79805002Y39620005D01*
G75*
G02*
X79685002Y39500005I-120000J0D01*
G01*
X78725002Y39500005D01*
G75*
G02*
X78605002Y39620005I0J120000D01*
G01*
X78605002Y41580005D01*
G75*
G02*
X78725002Y41700005I120000J0D01*
G01*
G37*
X76925002Y34300005D03*
G36*
G01*
X74165002Y41700005D02*
X75125002Y41700005D01*
G75*
G02*
X75245002Y41580005I0J-120000D01*
G01*
X75245002Y39620005D01*
G75*
G02*
X75125002Y39500005I-120000J0D01*
G01*
X74165002Y39500005D01*
G75*
G02*
X74045002Y39620005I0J120000D01*
G01*
X74045002Y41580005D01*
G75*
G02*
X74165002Y41700005I120000J0D01*
G01*
G37*
G04 #@! TD*
G04 #@! TO.C,Q7*
G36*
G01*
X62250002Y41700005D02*
X63210002Y41700005D01*
G75*
G02*
X63330002Y41580005I0J-120000D01*
G01*
X63330002Y39620005D01*
G75*
G02*
X63210002Y39500005I-120000J0D01*
G01*
X62250002Y39500005D01*
G75*
G02*
X62130002Y39620005I0J120000D01*
G01*
X62130002Y41580005D01*
G75*
G02*
X62250002Y41700005I120000J0D01*
G01*
G37*
X60450002Y34300005D03*
G36*
G01*
X57690002Y41700005D02*
X58650002Y41700005D01*
G75*
G02*
X58770002Y41580005I0J-120000D01*
G01*
X58770002Y39620005D01*
G75*
G02*
X58650002Y39500005I-120000J0D01*
G01*
X57690002Y39500005D01*
G75*
G02*
X57570002Y39620005I0J120000D01*
G01*
X57570002Y41580005D01*
G75*
G02*
X57690002Y41700005I120000J0D01*
G01*
G37*
G04 #@! TD*
G04 #@! TO.C,Q6*
G36*
G01*
X53725002Y41700005D02*
X54685002Y41700005D01*
G75*
G02*
X54805002Y41580005I0J-120000D01*
G01*
X54805002Y39620005D01*
G75*
G02*
X54685002Y39500005I-120000J0D01*
G01*
X53725002Y39500005D01*
G75*
G02*
X53605002Y39620005I0J120000D01*
G01*
X53605002Y41580005D01*
G75*
G02*
X53725002Y41700005I120000J0D01*
G01*
G37*
X51925002Y34300005D03*
G36*
G01*
X49165002Y41700005D02*
X50125002Y41700005D01*
G75*
G02*
X50245002Y41580005I0J-120000D01*
G01*
X50245002Y39620005D01*
G75*
G02*
X50125002Y39500005I-120000J0D01*
G01*
X49165002Y39500005D01*
G75*
G02*
X49045002Y39620005I0J120000D01*
G01*
X49045002Y41580005D01*
G75*
G02*
X49165002Y41700005I120000J0D01*
G01*
G37*
G04 #@! TD*
G04 #@! TO.C,Q2*
G36*
G01*
X78673502Y70663005D02*
X78276502Y70663005D01*
G75*
G02*
X78078002Y70861505I0J198500D01*
G01*
X78078002Y71878505D01*
G75*
G02*
X78276502Y72077005I198500J0D01*
G01*
X78673502Y72077005D01*
G75*
G02*
X78872002Y71878505I0J-198500D01*
G01*
X78872002Y70861505D01*
G75*
G02*
X78673502Y70663005I-198500J0D01*
G01*
G37*
G36*
G01*
X80573502Y70663005D02*
X80176502Y70663005D01*
G75*
G02*
X79978002Y70861505I0J198500D01*
G01*
X79978002Y71878505D01*
G75*
G02*
X80176502Y72077005I198500J0D01*
G01*
X80573502Y72077005D01*
G75*
G02*
X80772002Y71878505I0J-198500D01*
G01*
X80772002Y70861505D01*
G75*
G02*
X80573502Y70663005I-198500J0D01*
G01*
G37*
G36*
G01*
X79623502Y73173005D02*
X79226502Y73173005D01*
G75*
G02*
X79028002Y73371505I0J198500D01*
G01*
X79028002Y74388505D01*
G75*
G02*
X79226502Y74587005I198500J0D01*
G01*
X79623502Y74587005D01*
G75*
G02*
X79822002Y74388505I0J-198500D01*
G01*
X79822002Y73371505D01*
G75*
G02*
X79623502Y73173005I-198500J0D01*
G01*
G37*
G04 #@! TD*
D12*
G04 #@! TO.C,Z1*
X92675002Y17624505D03*
X95675002Y17624505D03*
X98675002Y17624505D03*
X101675502Y17624505D03*
X104675002Y17624505D03*
X107675002Y17624505D03*
X110675002Y17624505D03*
X113675502Y17624505D03*
X116675502Y17624505D03*
X119675502Y17624505D03*
X92675002Y13624505D03*
X95675002Y13624505D03*
X98675002Y13624505D03*
X101675502Y13624505D03*
X104675002Y13624505D03*
X107675002Y13624505D03*
X110675002Y13624505D03*
X113675502Y13624505D03*
X116675502Y13624505D03*
X119675502Y13624505D03*
X124975002Y17624505D03*
X127975502Y17624505D03*
X130975002Y17624505D03*
X133975002Y17624505D03*
X136975502Y17624505D03*
X139975502Y17624505D03*
X142975502Y17624505D03*
X145975502Y17624505D03*
X124975002Y13624505D03*
X127975502Y13624505D03*
X130975002Y13624505D03*
X139975502Y13624505D03*
X142975502Y13624505D03*
X145975502Y13624505D03*
D21*
X43875002Y15425005D03*
X48875002Y15425005D03*
X53875002Y15425005D03*
X58875002Y15425005D03*
X63875002Y15425005D03*
X68875002Y15425005D03*
X46375002Y19425005D03*
X51375002Y19425005D03*
X56375002Y19425005D03*
X43875002Y23425005D03*
X48875002Y23425005D03*
X63875002Y23425005D03*
X68875002Y23425005D03*
X61375002Y19425005D03*
X66375002Y19425005D03*
D12*
X133975502Y13624505D03*
X136975502Y13624505D03*
D22*
X35875002Y10425005D03*
X76875002Y10425005D03*
X85725002Y8125005D03*
X152925002Y8125005D03*
G04 #@! TD*
G04 #@! TO.C,D2*
G36*
G01*
X78095902Y69484605D02*
X78095902Y68265405D01*
G75*
G02*
X77993902Y68163405I-102000J0D01*
G01*
X77079502Y68163405D01*
G75*
G02*
X76977502Y68265405I0J102000D01*
G01*
X76977502Y69484605D01*
G75*
G02*
X77079502Y69586605I102000J0D01*
G01*
X77993902Y69586605D01*
G75*
G02*
X78095902Y69484605I0J-102000D01*
G01*
G37*
G36*
G01*
X81372502Y69484605D02*
X81372502Y68265405D01*
G75*
G02*
X81270502Y68163405I-102000J0D01*
G01*
X80356102Y68163405D01*
G75*
G02*
X80254102Y68265405I0J102000D01*
G01*
X80254102Y69484605D01*
G75*
G02*
X80356102Y69586605I102000J0D01*
G01*
X81270502Y69586605D01*
G75*
G02*
X81372502Y69484605I0J-102000D01*
G01*
G37*
G04 #@! TD*
G04 #@! TO.C,Q1*
G36*
G01*
X111673502Y21163005D02*
X111276502Y21163005D01*
G75*
G02*
X111078002Y21361505I0J198500D01*
G01*
X111078002Y22378505D01*
G75*
G02*
X111276502Y22577005I198500J0D01*
G01*
X111673502Y22577005D01*
G75*
G02*
X111872002Y22378505I0J-198500D01*
G01*
X111872002Y21361505D01*
G75*
G02*
X111673502Y21163005I-198500J0D01*
G01*
G37*
G36*
G01*
X113573502Y21163005D02*
X113176502Y21163005D01*
G75*
G02*
X112978002Y21361505I0J198500D01*
G01*
X112978002Y22378505D01*
G75*
G02*
X113176502Y22577005I198500J0D01*
G01*
X113573502Y22577005D01*
G75*
G02*
X113772002Y22378505I0J-198500D01*
G01*
X113772002Y21361505D01*
G75*
G02*
X113573502Y21163005I-198500J0D01*
G01*
G37*
G36*
G01*
X112623502Y23673005D02*
X112226502Y23673005D01*
G75*
G02*
X112028002Y23871505I0J198500D01*
G01*
X112028002Y24888505D01*
G75*
G02*
X112226502Y25087005I198500J0D01*
G01*
X112623502Y25087005D01*
G75*
G02*
X112822002Y24888505I0J-198500D01*
G01*
X112822002Y23871505D01*
G75*
G02*
X112623502Y23673005I-198500J0D01*
G01*
G37*
G04 #@! TD*
M02*
