G04 #@! TF.GenerationSoftware,KiCad,Pcbnew,8.0.7-8.0.7-0~ubuntu24.04.1*
G04 #@! TF.CreationDate,2024-12-19T04:57:45+00:00*
G04 #@! TF.ProjectId,z31hellen,7a333168-656c-46c6-956e-2e6b69636164,rev?*
G04 #@! TF.SameCoordinates,Original*
G04 #@! TF.FileFunction,Profile,NP*
%FSLAX46Y46*%
G04 Gerber Fmt 4.6, Leading zero omitted, Abs format (unit mm)*
G04 Created by KiCad (PCBNEW 8.0.7-8.0.7-0~ubuntu24.04.1) date 2024-12-19 04:57:45*
%MOMM*%
%LPD*%
G01*
G04 APERTURE LIST*
G04 #@! TA.AperFunction,Profile*
%ADD10C,0.100000*%
G04 #@! TD*
G04 #@! TA.AperFunction,Profile*
%ADD11C,0.050000*%
G04 #@! TD*
G04 APERTURE END LIST*
D10*
X8295002Y3485005D02*
X8295002Y2825005D01*
X159000000Y120500000D02*
G75*
G02*
X155000000Y120500000I-2000000J0D01*
G01*
X155000000Y120500000D02*
G75*
G02*
X159000000Y120500000I2000000J0D01*
G01*
X2295002Y9485005D02*
G75*
G02*
X8295005Y3485005I-2J-6000005D01*
G01*
X159295002Y2815005D02*
X159295002Y3495005D01*
D11*
X174480000Y111720000D02*
X173905002Y11485005D01*
D10*
X168370000Y113709467D02*
G75*
G02*
X162370000Y119790000I0J6000533D01*
G01*
X10305002Y815005D02*
G75*
G02*
X8295005Y2825005I-2J2009995D01*
G01*
X172490000Y113710000D02*
G75*
G02*
X174480000Y111720000I0J-1990000D01*
G01*
X173905002Y11485005D02*
G75*
G02*
X171905002Y9484998I-2000002J-5D01*
G01*
X159295002Y2815005D02*
G75*
G02*
X157295002Y814998I-2000002J-5D01*
G01*
X160370000Y124870000D02*
G75*
G02*
X162370000Y122870000I0J-2000000D01*
G01*
X169925002Y15125005D02*
G75*
G02*
X165925002Y15125005I-2000000J0D01*
G01*
X165925002Y15125005D02*
G75*
G02*
X169925002Y15125005I2000000J0D01*
G01*
X171905002Y9485005D02*
X165304967Y9497956D01*
X15925002Y6125005D02*
G75*
G02*
X11925002Y6125005I-2000000J0D01*
G01*
X11925002Y6125005D02*
G75*
G02*
X15925002Y6125005I2000000J0D01*
G01*
X8360000Y124870000D02*
X160370000Y124870000D01*
X10305002Y815005D02*
X157295002Y815005D01*
D11*
X-5715000Y111720000D02*
X-6289998Y11385005D01*
D10*
X6390000Y122900000D02*
G75*
G02*
X8360000Y124870000I1970000J0D01*
G01*
X-3720000Y113715000D02*
X390000Y113715000D01*
X-4389998Y9485005D02*
G75*
G02*
X-6289995Y11385005I-2J1899995D01*
G01*
X6389999Y119782879D02*
G75*
G02*
X390000Y113715022I-5999999J-67479D01*
G01*
X172490000Y113709467D02*
X168370000Y113709467D01*
X170425002Y106666386D02*
G75*
G02*
X166425002Y106666386I-2000000J0D01*
G01*
X166425002Y106666386D02*
G75*
G02*
X170425002Y106666386I2000000J0D01*
G01*
X159295003Y3495005D02*
G75*
G02*
X165304967Y9498020I6026297J-23305D01*
G01*
X-5715000Y111720000D02*
G75*
G02*
X-3720000Y113715000I1995000J0D01*
G01*
X-4389998Y9485005D02*
X2295002Y9485005D01*
X3925002Y102125005D02*
G75*
G02*
X-74998Y102125005I-2000000J0D01*
G01*
X-74998Y102125005D02*
G75*
G02*
X3925002Y102125005I2000000J0D01*
G01*
X14000000Y120500000D02*
G75*
G02*
X10000000Y120500000I-2000000J0D01*
G01*
X10000000Y120500000D02*
G75*
G02*
X14000000Y120500000I2000000J0D01*
G01*
X6390000Y122900000D02*
X6389999Y119782879D01*
X162370000Y122870000D02*
X162370000Y119790000D01*
M02*
