M48
; DRILL file {KiCad 8.0.7-8.0.7-0~ubuntu24.04.1} date 2024-12-19T04:57:45+0000
; FORMAT={2:4/ absolute / inch / suppress leading zeros}
; #@! TF.CreationDate,2024-12-19T04:57:45+00:00
; #@! TF.GenerationSoftware,Kicad,Pcbnew,8.0.7-8.0.7-0~ubuntu24.04.1
; #@! TF.FileFunction,MixedPlating,1,4
FMAT,2
INCH,TZ
; #@! TA.AperFunction,Plated,PTH,ComponentDrill
T1C0.0118
; #@! TA.AperFunction,Plated,PTH,ViaDrill
T2C0.0118
; #@! TA.AperFunction,Plated,PTH,ComponentDrill
T3C0.0118
; #@! TA.AperFunction,Plated,PTH,ComponentDrill
T4C0.0236
; #@! TA.AperFunction,Plated,PTH,ComponentDrill
T5C0.0335
; #@! TA.AperFunction,Plated,PTH,ComponentDrill
T6C0.0394
; #@! TA.AperFunction,Plated,PTH,ComponentDrill
T7C0.0591
; #@! TA.AperFunction,Plated,PTH,ComponentDrill
T8C0.1594
; #@! TA.AperFunction,NonPlated,NPTH,ComponentDrill
T9C0.0256
%
G90
G05
T1
X21341Y22938
X22866Y21688
X22945Y22820
X22951Y21344
X22951Y22072
X22980Y21009
X23157Y20369
X23673Y21905
X23673Y20881
X23673Y20113
T2
X27203Y24685
X27462Y24507
X27761Y24370
T3
X20187Y28100
X20187Y27707
X20187Y42274
X20187Y37667
X20187Y37352
X20187Y36132
X20187Y35738
X20187Y35344
X20187Y34951
X20187Y34557
X20187Y34163
X20187Y33770
X20187Y33376
X20187Y30620
X20344Y26722
X21289Y26722
X21762Y26722
X22234Y26722
X22549Y42274
X22707Y26722
X22864Y42274
X23179Y42274
X23179Y26722
X23652Y26722
X24124Y26722
X24596Y26722
X25069Y26722
X25541Y26722
X26014Y26722
X26250Y42274
X26486Y26722
X26565Y42274
X26880Y42274
X26959Y26722
X27195Y42274
X27431Y26722
X27510Y42274
X27904Y26722
X28376Y26722
X28848Y26722
X29321Y26722
X29675Y42274
X29793Y26722
X29990Y42274
X30266Y26722
X30305Y42274
X30620Y42274
X30738Y26722
X30935Y42274
X31211Y26722
X31250Y42274
X31565Y42274
X31683Y26722
X31880Y42274
X32156Y26722
X32195Y42274
X32510Y42274
X32628Y26722
X32825Y42274
X33100Y26722
X33140Y42274
X33455Y42274
X33573Y26722
X33770Y42274
X34045Y26722
X34085Y42274
X34400Y42274
X34478Y26722
X34715Y42274
X34951Y26722
X35030Y42274
X35344Y42274
X35423Y26722
X35659Y42274
X35896Y26722
X35974Y42274
X36289Y42274
X36368Y26722
X36604Y39675
X36604Y39360
X36604Y37785
X36604Y37470
X36604Y37156
X36604Y35896
X36604Y35581
X36604Y32116
X36604Y27904
X36604Y42274
X36604Y41250
X36604Y40935
X36604Y40620
X36604Y40305
X36604Y39990
X36604Y39045
X36604Y38730
X36604Y38415
X36604Y38100
X36604Y36841
X36604Y36526
X36604Y36211
X36604Y35266
X36604Y34951
X36604Y34636
X36604Y34321
X36604Y34006
X36604Y33691
X36604Y33376
X36604Y33061
X36604Y32746
X36604Y32431
X36604Y31801
X36604Y31486
X36604Y31171
X36604Y30856
X36604Y30541
X36604Y27589
X39035Y13445
X39429Y13445
X39823Y13445
X40217Y13445
X41143Y23914
X41543Y23914
X42441Y23914
X42835Y23914
X43228Y23914
X59705Y16516
X60098Y16516
T5
X46004Y43898
X46004Y42913
X46004Y41929
X46004Y40945
X46004Y39961
T6
X36486Y6939
X36486Y5364
X37667Y6939
X37667Y5364
X38848Y6939
X38848Y5364
X40030Y6939
X40030Y5364
X41211Y6939
X41211Y5364
X42392Y6939
X42392Y5364
X43573Y6939
X43573Y5364
X44754Y6939
X44754Y5364
X45935Y6939
X45935Y5364
X47116Y6939
X47116Y5364
X49203Y6939
X49203Y5364
X50384Y6939
X50384Y5364
X51565Y6939
X51565Y5364
X52746Y6939
X52746Y5364
X53622Y10236
X53799Y16339
X53927Y6939
X53927Y5364
X54350Y10236
X55108Y6939
X55108Y5364
X56290Y6939
X56290Y5364
X56299Y10236
X56319Y16339
X57067Y16339
X57471Y6939
X57471Y5364
X58760Y16339
X61043Y10236
X61220Y16339
T7
X17274Y9222
X17274Y6073
X18258Y7648
X19242Y9222
X19242Y6073
X20226Y7648
X21211Y6073
X22195Y7648
X23179Y6073
X24163Y7648
X25148Y9222
X25148Y6073
X26132Y7648
X27116Y9222
X27116Y6073
T8
X14124Y4104
X30266Y4104
X33750Y3199
X60207Y3199
T9
X43152Y42870
X43152Y40594
T4
X41821Y43433G85X41585Y43433
G05
X41821Y40031G85X41585Y40031
G05
X43565Y43433G85X43132Y43433
G05
X43565Y40031G85X43132Y40031
G05
M30
