G04 #@! TF.GenerationSoftware,KiCad,Pcbnew,8.0.7-8.0.7-0~ubuntu24.04.1*
G04 #@! TF.CreationDate,2024-12-19T04:57:45+00:00*
G04 #@! TF.ProjectId,z31hellen,7a333168-656c-46c6-956e-2e6b69636164,rev?*
G04 #@! TF.SameCoordinates,Original*
G04 #@! TF.FileFunction,Paste,Top*
G04 #@! TF.FilePolarity,Positive*
%FSLAX46Y46*%
G04 Gerber Fmt 4.6, Leading zero omitted, Abs format (unit mm)*
G04 Created by KiCad (PCBNEW 8.0.7-8.0.7-0~ubuntu24.04.1) date 2024-12-19 04:57:45*
%MOMM*%
%LPD*%
G01*
G04 APERTURE LIST*
%ADD10R,2.750000X3.050000*%
%ADD11R,1.219200X0.914400*%
%ADD12R,0.200000X2.300000*%
%ADD13R,0.200000X10.700000*%
%ADD14R,0.200000X2.100000*%
%ADD15R,0.200000X6.000000*%
%ADD16R,0.200000X5.400000*%
%ADD17R,1.400000X0.200000*%
%ADD18R,5.000000X0.200000*%
%ADD19R,6.800000X0.200000*%
%ADD20R,4.500000X0.200000*%
%ADD21R,0.200000X1.600000*%
%ADD22R,0.200000X5.700000*%
%ADD23R,0.200000X2.000000*%
%ADD24R,1.150000X0.300000*%
%ADD25R,0.558800X1.320800*%
%ADD26R,0.914400X1.219200*%
G04 APERTURE END LIST*
D10*
G04 #@! TO.C,Q5*
X45475002Y35975005D03*
X42425002Y35975005D03*
X45475002Y32625005D03*
X42425002Y32625005D03*
G36*
G01*
X45750002Y41700005D02*
X46710002Y41700005D01*
G75*
G02*
X46830002Y41580005I0J-120000D01*
G01*
X46830002Y39620005D01*
G75*
G02*
X46710002Y39500005I-120000J0D01*
G01*
X45750002Y39500005D01*
G75*
G02*
X45630002Y39620005I0J120000D01*
G01*
X45630002Y41580005D01*
G75*
G02*
X45750002Y41700005I120000J0D01*
G01*
G37*
G36*
G01*
X41190002Y41700005D02*
X42150002Y41700005D01*
G75*
G02*
X42270002Y41580005I0J-120000D01*
G01*
X42270002Y39620005D01*
G75*
G02*
X42150002Y39500005I-120000J0D01*
G01*
X41190002Y39500005D01*
G75*
G02*
X41070002Y39620005I0J120000D01*
G01*
X41070002Y41580005D01*
G75*
G02*
X41190002Y41700005I120000J0D01*
G01*
G37*
G04 #@! TD*
G04 #@! TO.C,Q3*
G36*
G01*
X104122502Y21265005D02*
X103827502Y21265005D01*
G75*
G02*
X103680002Y21412505I0J147500D01*
G01*
X103680002Y22327505D01*
G75*
G02*
X103827502Y22475005I147500J0D01*
G01*
X104122502Y22475005D01*
G75*
G02*
X104270002Y22327505I0J-147500D01*
G01*
X104270002Y21412505D01*
G75*
G02*
X104122502Y21265005I-147500J0D01*
G01*
G37*
G36*
G01*
X106022502Y21265005D02*
X105727502Y21265005D01*
G75*
G02*
X105580002Y21412505I0J147500D01*
G01*
X105580002Y22327505D01*
G75*
G02*
X105727502Y22475005I147500J0D01*
G01*
X106022502Y22475005D01*
G75*
G02*
X106170002Y22327505I0J-147500D01*
G01*
X106170002Y21412505D01*
G75*
G02*
X106022502Y21265005I-147500J0D01*
G01*
G37*
G36*
G01*
X105072502Y23775005D02*
X104777502Y23775005D01*
G75*
G02*
X104630002Y23922505I0J147500D01*
G01*
X104630002Y24837505D01*
G75*
G02*
X104777502Y24985005I147500J0D01*
G01*
X105072502Y24985005D01*
G75*
G02*
X105220002Y24837505I0J-147500D01*
G01*
X105220002Y23922505D01*
G75*
G02*
X105072502Y23775005I-147500J0D01*
G01*
G37*
G04 #@! TD*
D11*
G04 #@! TO.C,D1*
X115675002Y21486705D03*
X115675002Y24763305D03*
G04 #@! TD*
D12*
G04 #@! TO.C,M1*
X51074996Y68724999D03*
D13*
X51074998Y101524997D03*
D14*
X51074998Y93324998D03*
D15*
X51074998Y81274999D03*
D16*
X51074998Y74575002D03*
D17*
X52875005Y67674996D03*
D18*
X54275000Y107574997D03*
D19*
X62775003Y107574997D03*
D20*
X72625006Y107574997D03*
D21*
X93175001Y106074998D03*
D22*
X93175001Y74224995D03*
D23*
X93175001Y68575002D03*
G04 #@! TD*
D10*
G04 #@! TO.C,Q4*
X37475002Y36125005D03*
X34425002Y36125005D03*
X37475002Y32775005D03*
X34425002Y32775005D03*
G36*
G01*
X37750002Y41850005D02*
X38710002Y41850005D01*
G75*
G02*
X38830002Y41730005I0J-120000D01*
G01*
X38830002Y39770005D01*
G75*
G02*
X38710002Y39650005I-120000J0D01*
G01*
X37750002Y39650005D01*
G75*
G02*
X37630002Y39770005I0J120000D01*
G01*
X37630002Y41730005D01*
G75*
G02*
X37750002Y41850005I120000J0D01*
G01*
G37*
G36*
G01*
X33190002Y41850005D02*
X34150002Y41850005D01*
G75*
G02*
X34270002Y41730005I0J-120000D01*
G01*
X34270002Y39770005D01*
G75*
G02*
X34150002Y39650005I-120000J0D01*
G01*
X33190002Y39650005D01*
G75*
G02*
X33070002Y39770005I0J120000D01*
G01*
X33070002Y41730005D01*
G75*
G02*
X33190002Y41850005I120000J0D01*
G01*
G37*
G04 #@! TD*
D24*
G04 #@! TO.C,J3*
X110670000Y109350000D03*
X110670000Y108550000D03*
X110670000Y107250000D03*
X110670000Y106250000D03*
X110670000Y105750000D03*
X110670000Y104750000D03*
X110670000Y103450000D03*
X110670000Y102650000D03*
X110670000Y102950000D03*
X110670000Y103750000D03*
X110670000Y104250000D03*
X110670000Y105250000D03*
X110670000Y106750000D03*
X110670000Y107750000D03*
X110670000Y108250000D03*
X110670000Y109050000D03*
G04 #@! TD*
D25*
G04 #@! TO.C,U5*
X107675002Y22125005D03*
X109585000Y22125005D03*
X108630001Y24004605D03*
G04 #@! TD*
D10*
G04 #@! TO.C,Q8*
X70425002Y35975005D03*
X67375002Y35975005D03*
X70425002Y32625005D03*
X67375002Y32625005D03*
G36*
G01*
X70700002Y41700005D02*
X71660002Y41700005D01*
G75*
G02*
X71780002Y41580005I0J-120000D01*
G01*
X71780002Y39620005D01*
G75*
G02*
X71660002Y39500005I-120000J0D01*
G01*
X70700002Y39500005D01*
G75*
G02*
X70580002Y39620005I0J120000D01*
G01*
X70580002Y41580005D01*
G75*
G02*
X70700002Y41700005I120000J0D01*
G01*
G37*
G36*
G01*
X66140002Y41700005D02*
X67100002Y41700005D01*
G75*
G02*
X67220002Y41580005I0J-120000D01*
G01*
X67220002Y39620005D01*
G75*
G02*
X67100002Y39500005I-120000J0D01*
G01*
X66140002Y39500005D01*
G75*
G02*
X66020002Y39620005I0J120000D01*
G01*
X66020002Y41580005D01*
G75*
G02*
X66140002Y41700005I120000J0D01*
G01*
G37*
G04 #@! TD*
G04 #@! TO.C,Q9*
X78450002Y35975005D03*
X75400002Y35975005D03*
X78450002Y32625005D03*
X75400002Y32625005D03*
G36*
G01*
X78725002Y41700005D02*
X79685002Y41700005D01*
G75*
G02*
X79805002Y41580005I0J-120000D01*
G01*
X79805002Y39620005D01*
G75*
G02*
X79685002Y39500005I-120000J0D01*
G01*
X78725002Y39500005D01*
G75*
G02*
X78605002Y39620005I0J120000D01*
G01*
X78605002Y41580005D01*
G75*
G02*
X78725002Y41700005I120000J0D01*
G01*
G37*
G36*
G01*
X74165002Y41700005D02*
X75125002Y41700005D01*
G75*
G02*
X75245002Y41580005I0J-120000D01*
G01*
X75245002Y39620005D01*
G75*
G02*
X75125002Y39500005I-120000J0D01*
G01*
X74165002Y39500005D01*
G75*
G02*
X74045002Y39620005I0J120000D01*
G01*
X74045002Y41580005D01*
G75*
G02*
X74165002Y41700005I120000J0D01*
G01*
G37*
G04 #@! TD*
G04 #@! TO.C,Q7*
X61975002Y35975005D03*
X58925002Y35975005D03*
X61975002Y32625005D03*
X58925002Y32625005D03*
G36*
G01*
X62250002Y41700005D02*
X63210002Y41700005D01*
G75*
G02*
X63330002Y41580005I0J-120000D01*
G01*
X63330002Y39620005D01*
G75*
G02*
X63210002Y39500005I-120000J0D01*
G01*
X62250002Y39500005D01*
G75*
G02*
X62130002Y39620005I0J120000D01*
G01*
X62130002Y41580005D01*
G75*
G02*
X62250002Y41700005I120000J0D01*
G01*
G37*
G36*
G01*
X57690002Y41700005D02*
X58650002Y41700005D01*
G75*
G02*
X58770002Y41580005I0J-120000D01*
G01*
X58770002Y39620005D01*
G75*
G02*
X58650002Y39500005I-120000J0D01*
G01*
X57690002Y39500005D01*
G75*
G02*
X57570002Y39620005I0J120000D01*
G01*
X57570002Y41580005D01*
G75*
G02*
X57690002Y41700005I120000J0D01*
G01*
G37*
G04 #@! TD*
G04 #@! TO.C,Q6*
X53450002Y35975005D03*
X50400002Y35975005D03*
X53450002Y32625005D03*
X50400002Y32625005D03*
G36*
G01*
X53725002Y41700005D02*
X54685002Y41700005D01*
G75*
G02*
X54805002Y41580005I0J-120000D01*
G01*
X54805002Y39620005D01*
G75*
G02*
X54685002Y39500005I-120000J0D01*
G01*
X53725002Y39500005D01*
G75*
G02*
X53605002Y39620005I0J120000D01*
G01*
X53605002Y41580005D01*
G75*
G02*
X53725002Y41700005I120000J0D01*
G01*
G37*
G36*
G01*
X49165002Y41700005D02*
X50125002Y41700005D01*
G75*
G02*
X50245002Y41580005I0J-120000D01*
G01*
X50245002Y39620005D01*
G75*
G02*
X50125002Y39500005I-120000J0D01*
G01*
X49165002Y39500005D01*
G75*
G02*
X49045002Y39620005I0J120000D01*
G01*
X49045002Y41580005D01*
G75*
G02*
X49165002Y41700005I120000J0D01*
G01*
G37*
G04 #@! TD*
G04 #@! TO.C,Q2*
G36*
G01*
X84697500Y47640000D02*
X84402500Y47640000D01*
G75*
G02*
X84255000Y47787500I0J147500D01*
G01*
X84255000Y48702500D01*
G75*
G02*
X84402500Y48850000I147500J0D01*
G01*
X84697500Y48850000D01*
G75*
G02*
X84845000Y48702500I0J-147500D01*
G01*
X84845000Y47787500D01*
G75*
G02*
X84697500Y47640000I-147500J0D01*
G01*
G37*
G36*
G01*
X86597500Y47640000D02*
X86302500Y47640000D01*
G75*
G02*
X86155000Y47787500I0J147500D01*
G01*
X86155000Y48702500D01*
G75*
G02*
X86302500Y48850000I147500J0D01*
G01*
X86597500Y48850000D01*
G75*
G02*
X86745000Y48702500I0J-147500D01*
G01*
X86745000Y47787500D01*
G75*
G02*
X86597500Y47640000I-147500J0D01*
G01*
G37*
G36*
G01*
X85647500Y50150000D02*
X85352500Y50150000D01*
G75*
G02*
X85205000Y50297500I0J147500D01*
G01*
X85205000Y51212500D01*
G75*
G02*
X85352500Y51360000I147500J0D01*
G01*
X85647500Y51360000D01*
G75*
G02*
X85795000Y51212500I0J-147500D01*
G01*
X85795000Y50297500D01*
G75*
G02*
X85647500Y50150000I-147500J0D01*
G01*
G37*
G04 #@! TD*
D26*
G04 #@! TO.C,D2*
X83611700Y45750000D03*
X86888300Y45750000D03*
G04 #@! TD*
G04 #@! TO.C,Q1*
G36*
G01*
X111622502Y21265005D02*
X111327502Y21265005D01*
G75*
G02*
X111180002Y21412505I0J147500D01*
G01*
X111180002Y22327505D01*
G75*
G02*
X111327502Y22475005I147500J0D01*
G01*
X111622502Y22475005D01*
G75*
G02*
X111770002Y22327505I0J-147500D01*
G01*
X111770002Y21412505D01*
G75*
G02*
X111622502Y21265005I-147500J0D01*
G01*
G37*
G36*
G01*
X113522502Y21265005D02*
X113227502Y21265005D01*
G75*
G02*
X113080002Y21412505I0J147500D01*
G01*
X113080002Y22327505D01*
G75*
G02*
X113227502Y22475005I147500J0D01*
G01*
X113522502Y22475005D01*
G75*
G02*
X113670002Y22327505I0J-147500D01*
G01*
X113670002Y21412505D01*
G75*
G02*
X113522502Y21265005I-147500J0D01*
G01*
G37*
G36*
G01*
X112572502Y23775005D02*
X112277502Y23775005D01*
G75*
G02*
X112130002Y23922505I0J147500D01*
G01*
X112130002Y24837505D01*
G75*
G02*
X112277502Y24985005I147500J0D01*
G01*
X112572502Y24985005D01*
G75*
G02*
X112720002Y24837505I0J-147500D01*
G01*
X112720002Y23922505D01*
G75*
G02*
X112572502Y23775005I-147500J0D01*
G01*
G37*
G04 #@! TD*
M02*
