G04 #@! TF.GenerationSoftware,KiCad,Pcbnew,8.0.5-8.0.5-0~ubuntu22.04.1*
G04 #@! TF.CreationDate,2024-09-18T18:24:51+00:00*
G04 #@! TF.ProjectId,Z31HELLEN,5a333148-454c-44c4-954e-2e6b69636164,rev?*
G04 #@! TF.SameCoordinates,Original*
G04 #@! TF.FileFunction,Copper,L2,Bot*
G04 #@! TF.FilePolarity,Positive*
%FSLAX46Y46*%
G04 Gerber Fmt 4.6, Leading zero omitted, Abs format (unit mm)*
G04 Created by KiCad (PCBNEW 8.0.5-8.0.5-0~ubuntu22.04.1) date 2024-09-18 18:24:51*
%MOMM*%
%LPD*%
G01*
G04 APERTURE LIST*
G04 #@! TA.AperFunction,ComponentPad*
%ADD10C,1.500000*%
G04 #@! TD*
G04 #@! TA.AperFunction,ComponentPad*
%ADD11C,2.000000*%
G04 #@! TD*
G04 #@! TA.AperFunction,ComponentPad*
%ADD12C,6.075000*%
G04 #@! TD*
G04 APERTURE END LIST*
D10*
G04 #@! TO.P,Z31,1,1*
G04 #@! TO.N,unconnected-(Z31-Pad1)*
X9550000Y-83800500D03*
G04 #@! TO.P,Z31,2,2*
G04 #@! TO.N,unconnected-(Z31-Pad2)*
X12550000Y-83800500D03*
G04 #@! TO.P,Z31,3,3*
G04 #@! TO.N,unconnected-(Z31-Pad3)*
X15550000Y-83800500D03*
G04 #@! TO.P,Z31,4,4*
G04 #@! TO.N,unconnected-(Z31-Pad4)*
X18550500Y-83800500D03*
G04 #@! TO.P,Z31,5,5*
G04 #@! TO.N,unconnected-(Z31-Pad5)*
X21550000Y-83800500D03*
G04 #@! TO.P,Z31,6,6*
G04 #@! TO.N,unconnected-(Z31-Pad6)*
X24550000Y-83800500D03*
G04 #@! TO.P,Z31,7,7*
G04 #@! TO.N,unconnected-(Z31-Pad7)*
X27550000Y-83800500D03*
G04 #@! TO.P,Z31,8,8*
G04 #@! TO.N,unconnected-(Z31-Pad8)*
X30550500Y-83800500D03*
G04 #@! TO.P,Z31,9,9*
G04 #@! TO.N,unconnected-(Z31-Pad9)*
X33550500Y-83800500D03*
G04 #@! TO.P,Z31,10,10*
G04 #@! TO.N,unconnected-(Z31-Pad10)*
X36550500Y-83800500D03*
G04 #@! TO.P,Z31,11,11*
G04 #@! TO.N,unconnected-(Z31-Pad11)*
X9550000Y-87800500D03*
G04 #@! TO.P,Z31,12,12*
G04 #@! TO.N,unconnected-(Z31-Pad12)*
X12550000Y-87800500D03*
G04 #@! TO.P,Z31,13,13*
G04 #@! TO.N,unconnected-(Z31-Pad13)*
X15550000Y-87800500D03*
G04 #@! TO.P,Z31,14,14*
G04 #@! TO.N,unconnected-(Z31-Pad14)*
X18550500Y-87800500D03*
G04 #@! TO.P,Z31,15,15*
G04 #@! TO.N,unconnected-(Z31-Pad15)*
X21550000Y-87800500D03*
G04 #@! TO.P,Z31,16,16*
G04 #@! TO.N,unconnected-(Z31-Pad16)*
X24550000Y-87800500D03*
G04 #@! TO.P,Z31,17,17*
G04 #@! TO.N,unconnected-(Z31-Pad17)*
X27550000Y-87800500D03*
G04 #@! TO.P,Z31,18,18*
G04 #@! TO.N,unconnected-(Z31-Pad18)*
X30550500Y-87800500D03*
G04 #@! TO.P,Z31,19,19*
G04 #@! TO.N,unconnected-(Z31-Pad19)*
X33550500Y-87800500D03*
G04 #@! TO.P,Z31,20,20*
G04 #@! TO.N,unconnected-(Z31-Pad20)*
X36550500Y-87800500D03*
G04 #@! TO.P,Z31,21,21*
G04 #@! TO.N,unconnected-(Z31-Pad21)*
X41850000Y-83800500D03*
G04 #@! TO.P,Z31,22,22*
G04 #@! TO.N,unconnected-(Z31-Pad22)*
X44850500Y-83800500D03*
G04 #@! TO.P,Z31,23,23*
G04 #@! TO.N,unconnected-(Z31-Pad23)*
X47850000Y-83800500D03*
G04 #@! TO.P,Z31,24,24*
G04 #@! TO.N,unconnected-(Z31-Pad24)*
X50850000Y-83800500D03*
G04 #@! TO.P,Z31,25,25*
G04 #@! TO.N,unconnected-(Z31-Pad25)*
X53850500Y-83800500D03*
G04 #@! TO.P,Z31,26,26*
G04 #@! TO.N,unconnected-(Z31-Pad26)*
X56850500Y-83800500D03*
G04 #@! TO.P,Z31,27,27*
G04 #@! TO.N,unconnected-(Z31-Pad27)*
X59850500Y-83800500D03*
G04 #@! TO.P,Z31,28,28*
G04 #@! TO.N,unconnected-(Z31-Pad28)*
X62850500Y-83800500D03*
G04 #@! TO.P,Z31,29,29*
G04 #@! TO.N,unconnected-(Z31-Pad29)*
X41850000Y-87800500D03*
G04 #@! TO.P,Z31,30,30*
G04 #@! TO.N,unconnected-(Z31-Pad30)*
X44850500Y-87800500D03*
G04 #@! TO.P,Z31,31,31*
G04 #@! TO.N,unconnected-(Z31-Pad31)*
X47850000Y-87800500D03*
G04 #@! TO.P,Z31,34,34*
G04 #@! TO.N,unconnected-(Z31-Pad34)*
X56850500Y-87800500D03*
G04 #@! TO.P,Z31,35,35*
G04 #@! TO.N,unconnected-(Z31-Pad35)*
X59850500Y-87800500D03*
G04 #@! TO.P,Z31,36,36*
G04 #@! TO.N,unconnected-(Z31-Pad36)*
X62850500Y-87800500D03*
D11*
G04 #@! TO.P,Z31,101,101*
G04 #@! TO.N,unconnected-(Z31-Pad101)*
X-39250000Y-86000000D03*
G04 #@! TO.P,Z31,102,102*
G04 #@! TO.N,unconnected-(Z31-Pad102)*
X-34250000Y-86000000D03*
G04 #@! TO.P,Z31,103,103*
G04 #@! TO.N,unconnected-(Z31-Pad103)*
X-29250000Y-86000000D03*
G04 #@! TO.P,Z31,104,104*
G04 #@! TO.N,unconnected-(Z31-Pad104)*
X-24250000Y-86000000D03*
G04 #@! TO.P,Z31,105,105*
G04 #@! TO.N,unconnected-(Z31-Pad105)*
X-19250000Y-86000000D03*
G04 #@! TO.P,Z31,106,106*
G04 #@! TO.N,unconnected-(Z31-Pad106)*
X-14250000Y-86000000D03*
G04 #@! TO.P,Z31,107,107*
G04 #@! TO.N,unconnected-(Z31-Pad107)*
X-36750000Y-82000000D03*
G04 #@! TO.P,Z31,108,108*
G04 #@! TO.N,unconnected-(Z31-Pad108)*
X-31750000Y-82000000D03*
G04 #@! TO.P,Z31,109,109*
G04 #@! TO.N,unconnected-(Z31-Pad109)*
X-26750000Y-82000000D03*
G04 #@! TO.P,Z31,112,112*
G04 #@! TO.N,unconnected-(Z31-Pad112)*
X-39250000Y-78000000D03*
G04 #@! TO.P,Z31,113,113*
G04 #@! TO.N,unconnected-(Z31-Pad113)*
X-34250000Y-78000000D03*
G04 #@! TO.P,Z31,1002,1002*
G04 #@! TO.N,unconnected-(Z31-Pad1002)*
X-19250000Y-78000000D03*
G04 #@! TO.P,Z31,1003,1003*
G04 #@! TO.N,unconnected-(Z31-Pad1003)*
X-14250000Y-78000000D03*
G04 #@! TO.P,Z31,1004,1004*
G04 #@! TO.N,unconnected-(Z31-Pad1004)*
X-21750000Y-82000000D03*
G04 #@! TO.P,Z31,1005,1005*
G04 #@! TO.N,unconnected-(Z31-Pad1005)*
X-16750000Y-82000000D03*
D10*
G04 #@! TO.P,Z31,1006,1006*
G04 #@! TO.N,unconnected-(Z31-Pad1006)*
X50850500Y-87800500D03*
G04 #@! TO.P,Z31,1007,1007*
G04 #@! TO.N,unconnected-(Z31-Pad1007)*
X53850500Y-87800500D03*
D12*
G04 #@! TO.P,Z31,1008,MH*
G04 #@! TO.N,unconnected-(Z31-MH-Pad1008)*
X-47250000Y-91000000D03*
G04 #@! TO.P,Z31,1009,MH*
G04 #@! TO.N,unconnected-(Z31-MH-Pad1009)*
X-6250000Y-91000000D03*
G04 #@! TO.P,Z31,10010,MH*
G04 #@! TO.N,unconnected-(Z31-MH-Pad10010)*
X2600000Y-93300000D03*
G04 #@! TO.P,Z31,10011,MH*
G04 #@! TO.N,unconnected-(Z31-MH-Pad10011)*
X69800000Y-93300000D03*
G04 #@! TD*
M02*
