G04 #@! TF.GenerationSoftware,KiCad,Pcbnew,8.0.5-8.0.5-0~ubuntu22.04.1*
G04 #@! TF.CreationDate,2024-09-18T03:34:45+00:00*
G04 #@! TF.ProjectId,Z31HELLEN,5a333148-454c-44c4-954e-2e6b69636164,rev?*
G04 #@! TF.SameCoordinates,Original*
G04 #@! TF.FileFunction,Legend,Top*
G04 #@! TF.FilePolarity,Positive*
%FSLAX46Y46*%
G04 Gerber Fmt 4.6, Leading zero omitted, Abs format (unit mm)*
G04 Created by KiCad (PCBNEW 8.0.5-8.0.5-0~ubuntu22.04.1) date 2024-09-18 03:34:45*
%MOMM*%
%LPD*%
G01*
G04 APERTURE LIST*
%ADD10C,0.254000*%
%ADD11C,0.200000*%
G04 APERTURE END LIST*
D10*
X39906667Y-79804318D02*
X39906667Y-80711461D01*
X39906667Y-80711461D02*
X39846190Y-80892889D01*
X39846190Y-80892889D02*
X39725238Y-81013842D01*
X39725238Y-81013842D02*
X39543809Y-81074318D01*
X39543809Y-81074318D02*
X39422857Y-81074318D01*
X41055714Y-79804318D02*
X40813809Y-79804318D01*
X40813809Y-79804318D02*
X40692857Y-79864794D01*
X40692857Y-79864794D02*
X40632381Y-79925270D01*
X40632381Y-79925270D02*
X40511428Y-80106699D01*
X40511428Y-80106699D02*
X40450952Y-80348603D01*
X40450952Y-80348603D02*
X40450952Y-80832413D01*
X40450952Y-80832413D02*
X40511428Y-80953365D01*
X40511428Y-80953365D02*
X40571905Y-81013842D01*
X40571905Y-81013842D02*
X40692857Y-81074318D01*
X40692857Y-81074318D02*
X40934762Y-81074318D01*
X40934762Y-81074318D02*
X41055714Y-81013842D01*
X41055714Y-81013842D02*
X41116190Y-80953365D01*
X41116190Y-80953365D02*
X41176667Y-80832413D01*
X41176667Y-80832413D02*
X41176667Y-80530032D01*
X41176667Y-80530032D02*
X41116190Y-80409080D01*
X41116190Y-80409080D02*
X41055714Y-80348603D01*
X41055714Y-80348603D02*
X40934762Y-80288127D01*
X40934762Y-80288127D02*
X40692857Y-80288127D01*
X40692857Y-80288127D02*
X40571905Y-80348603D01*
X40571905Y-80348603D02*
X40511428Y-80409080D01*
X40511428Y-80409080D02*
X40450952Y-80530032D01*
D11*
G04 #@! TO.C,J6*
X-1100000Y-87580000D02*
X-1100000Y-87580000D01*
X-1100000Y-87580000D02*
X-1100000Y-87580000D01*
X-1000000Y-87580000D02*
X-1000000Y-87580000D01*
X-450000Y-83280000D02*
X-450000Y-89580000D01*
X-450000Y-96580000D02*
X-450000Y-107880000D01*
X-450000Y-107880000D02*
X73550000Y-107880000D01*
X8550000Y-83280000D02*
X-450000Y-83280000D01*
X73550000Y-83280000D02*
X64350000Y-83280000D01*
X73550000Y-89580000D02*
X73550000Y-83280000D01*
X73550000Y-107880000D02*
X73550000Y-96580000D01*
X-1100000Y-87580000D02*
G75*
G02*
X-1000000Y-87580000I50000J0D01*
G01*
X-1000000Y-87580000D02*
G75*
G02*
X-1100000Y-87580000I-50000J0D01*
G01*
X-1000000Y-87580000D02*
G75*
G02*
X-1100000Y-87580000I-50000J0D01*
G01*
G04 #@! TO.C,J5*
X-50630000Y-73840000D02*
X-50630000Y-107900000D01*
X-50630000Y-107900000D02*
X-2630000Y-107900000D01*
X-2630000Y-73840000D02*
X-50630000Y-73840000D01*
X-2630000Y-107900000D02*
X-2630000Y-73840000D01*
G04 #@! TD*
M02*
