G04 #@! TF.GenerationSoftware,KiCad,Pcbnew,8.0.5-8.0.5-0~ubuntu22.04.1*
G04 #@! TF.CreationDate,2024-09-18T17:44:10+00:00*
G04 #@! TF.ProjectId,Z31HELLEN,5a333148-454c-44c4-954e-2e6b69636164,rev?*
G04 #@! TF.SameCoordinates,Original*
G04 #@! TF.FileFunction,Copper,L2,Bot*
G04 #@! TF.FilePolarity,Positive*
%FSLAX46Y46*%
G04 Gerber Fmt 4.6, Leading zero omitted, Abs format (unit mm)*
G04 Created by KiCad (PCBNEW 8.0.5-8.0.5-0~ubuntu22.04.1) date 2024-09-18 17:44:10*
%MOMM*%
%LPD*%
G01*
G04 APERTURE LIST*
G04 #@! TA.AperFunction,ComponentPad*
%ADD10C,1.500000*%
G04 #@! TD*
G04 #@! TA.AperFunction,ComponentPad*
%ADD11C,2.000000*%
G04 #@! TD*
G04 #@! TA.AperFunction,ComponentPad*
%ADD12C,6.075000*%
G04 #@! TD*
G04 APERTURE END LIST*
D10*
G04 #@! TO.P,CON1,1*
G04 #@! TO.N,N/C*
X9674000Y-83827000D03*
G04 #@! TO.P,CON1,2*
X12674000Y-83827000D03*
G04 #@! TO.P,CON1,3*
X15674000Y-83827000D03*
G04 #@! TO.P,CON1,4*
X18674500Y-83827000D03*
G04 #@! TO.P,CON1,5*
X21674000Y-83827000D03*
G04 #@! TO.P,CON1,6*
X24674000Y-83827000D03*
G04 #@! TO.P,CON1,7*
X27674000Y-83827000D03*
G04 #@! TO.P,CON1,8*
X30674500Y-83827000D03*
G04 #@! TO.P,CON1,9*
X33674500Y-83827000D03*
G04 #@! TO.P,CON1,10*
X36674500Y-83827000D03*
G04 #@! TO.P,CON1,11*
X9674000Y-87827000D03*
G04 #@! TO.P,CON1,12*
X12674000Y-87827000D03*
G04 #@! TO.P,CON1,13*
X15674000Y-87827000D03*
G04 #@! TO.P,CON1,14*
X18674500Y-87827000D03*
G04 #@! TO.P,CON1,15*
X21674000Y-87827000D03*
G04 #@! TO.P,CON1,16*
X24674000Y-87827000D03*
G04 #@! TO.P,CON1,17*
X27674000Y-87827000D03*
G04 #@! TO.P,CON1,18*
X30674500Y-87827000D03*
G04 #@! TO.P,CON1,19*
X33674500Y-87827000D03*
G04 #@! TO.P,CON1,20*
X36674500Y-87827000D03*
G04 #@! TO.P,CON1,21*
X41974000Y-83827000D03*
G04 #@! TO.P,CON1,22*
X44974500Y-83827000D03*
G04 #@! TO.P,CON1,23*
X47974000Y-83827000D03*
G04 #@! TO.P,CON1,24*
X50974000Y-83827000D03*
G04 #@! TO.P,CON1,25*
X53974500Y-83827000D03*
G04 #@! TO.P,CON1,26*
X56974500Y-83827000D03*
G04 #@! TO.P,CON1,27*
X59974500Y-83827000D03*
G04 #@! TO.P,CON1,28*
X62974500Y-83827000D03*
G04 #@! TO.P,CON1,29*
X41974000Y-87827000D03*
G04 #@! TO.P,CON1,30*
X44974500Y-87827000D03*
G04 #@! TO.P,CON1,31*
X47974000Y-87827000D03*
G04 #@! TO.P,CON1,34*
X56974500Y-87827000D03*
G04 #@! TO.P,CON1,35*
X59974500Y-87827000D03*
G04 #@! TO.P,CON1,36*
X62974500Y-87827000D03*
D11*
G04 #@! TO.P,CON1,101*
X-39126000Y-86026500D03*
G04 #@! TO.P,CON1,102*
X-34126000Y-86026500D03*
G04 #@! TO.P,CON1,103*
X-29126000Y-86026500D03*
G04 #@! TO.P,CON1,104*
X-24126000Y-86026500D03*
G04 #@! TO.P,CON1,105*
X-19126000Y-86026500D03*
G04 #@! TO.P,CON1,106*
X-14126000Y-86026500D03*
G04 #@! TO.P,CON1,107*
X-36626000Y-82026500D03*
G04 #@! TO.P,CON1,108*
X-31626000Y-82026500D03*
G04 #@! TO.P,CON1,109*
X-26626000Y-82026500D03*
G04 #@! TO.P,CON1,112*
X-39126000Y-78026500D03*
G04 #@! TO.P,CON1,113*
X-34126000Y-78026500D03*
G04 #@! TO.P,CON1,1002*
X-19126000Y-78026500D03*
G04 #@! TO.P,CON1,1003*
X-14126000Y-78026500D03*
G04 #@! TO.P,CON1,1004*
X-21626000Y-82026500D03*
G04 #@! TO.P,CON1,1005*
X-16626000Y-82026500D03*
D10*
G04 #@! TO.P,CON1,1006*
X50974500Y-87827000D03*
G04 #@! TO.P,CON1,1007*
X53974500Y-87827000D03*
D12*
G04 #@! TO.P,CON1,1008*
X-47126000Y-91026500D03*
G04 #@! TO.P,CON1,1009*
X-6126000Y-91026500D03*
G04 #@! TO.P,CON1,10010*
X2724000Y-93326500D03*
G04 #@! TO.P,CON1,10011*
X69924000Y-93326500D03*
G04 #@! TD*
D10*
G04 #@! TO.P,Z31,1,1*
G04 #@! TO.N,unconnected-(Z31-Pad1)*
X-90423000Y124699500D03*
G04 #@! TO.P,Z31,2,2*
G04 #@! TO.N,unconnected-(Z31-Pad2)*
X-87423000Y124699500D03*
G04 #@! TO.P,Z31,3,3*
G04 #@! TO.N,unconnected-(Z31-Pad3)*
X-84423000Y124699500D03*
G04 #@! TO.P,Z31,4,4*
G04 #@! TO.N,unconnected-(Z31-Pad4)*
X-81422500Y124699500D03*
G04 #@! TO.P,Z31,5,5*
G04 #@! TO.N,unconnected-(Z31-Pad5)*
X-78423000Y124699500D03*
G04 #@! TO.P,Z31,6,6*
G04 #@! TO.N,unconnected-(Z31-Pad6)*
X-75423000Y124699500D03*
G04 #@! TO.P,Z31,7,7*
G04 #@! TO.N,unconnected-(Z31-Pad7)*
X-72423000Y124699500D03*
G04 #@! TO.P,Z31,8,8*
G04 #@! TO.N,unconnected-(Z31-Pad8)*
X-69422500Y124699500D03*
G04 #@! TO.P,Z31,9,9*
G04 #@! TO.N,unconnected-(Z31-Pad9)*
X-66422500Y124699500D03*
G04 #@! TO.P,Z31,10,10*
G04 #@! TO.N,unconnected-(Z31-Pad10)*
X-63422500Y124699500D03*
G04 #@! TO.P,Z31,11,11*
G04 #@! TO.N,unconnected-(Z31-Pad11)*
X-90423000Y120699500D03*
G04 #@! TO.P,Z31,12,12*
G04 #@! TO.N,unconnected-(Z31-Pad12)*
X-87423000Y120699500D03*
G04 #@! TO.P,Z31,13,13*
G04 #@! TO.N,unconnected-(Z31-Pad13)*
X-84423000Y120699500D03*
G04 #@! TO.P,Z31,14,14*
G04 #@! TO.N,unconnected-(Z31-Pad14)*
X-81422500Y120699500D03*
G04 #@! TO.P,Z31,15,15*
G04 #@! TO.N,unconnected-(Z31-Pad15)*
X-78423000Y120699500D03*
G04 #@! TO.P,Z31,16,16*
G04 #@! TO.N,unconnected-(Z31-Pad16)*
X-75423000Y120699500D03*
G04 #@! TO.P,Z31,17,17*
G04 #@! TO.N,unconnected-(Z31-Pad17)*
X-72423000Y120699500D03*
G04 #@! TO.P,Z31,18,18*
G04 #@! TO.N,unconnected-(Z31-Pad18)*
X-69422500Y120699500D03*
G04 #@! TO.P,Z31,19,19*
G04 #@! TO.N,unconnected-(Z31-Pad19)*
X-66422500Y120699500D03*
G04 #@! TO.P,Z31,20,20*
G04 #@! TO.N,unconnected-(Z31-Pad20)*
X-63422500Y120699500D03*
G04 #@! TO.P,Z31,21,21*
G04 #@! TO.N,unconnected-(Z31-Pad21)*
X-58123000Y124699500D03*
G04 #@! TO.P,Z31,22,22*
G04 #@! TO.N,unconnected-(Z31-Pad22)*
X-55122500Y124699500D03*
G04 #@! TO.P,Z31,23,23*
G04 #@! TO.N,unconnected-(Z31-Pad23)*
X-52123000Y124699500D03*
G04 #@! TO.P,Z31,24,24*
G04 #@! TO.N,unconnected-(Z31-Pad24)*
X-49123000Y124699500D03*
G04 #@! TO.P,Z31,25,25*
G04 #@! TO.N,unconnected-(Z31-Pad25)*
X-46122500Y124699500D03*
G04 #@! TO.P,Z31,26,26*
G04 #@! TO.N,unconnected-(Z31-Pad26)*
X-43122500Y124699500D03*
G04 #@! TO.P,Z31,27,27*
G04 #@! TO.N,unconnected-(Z31-Pad27)*
X-40122500Y124699500D03*
G04 #@! TO.P,Z31,28,28*
G04 #@! TO.N,unconnected-(Z31-Pad28)*
X-37122500Y124699500D03*
G04 #@! TO.P,Z31,29,29*
G04 #@! TO.N,unconnected-(Z31-Pad29)*
X-58123000Y120699500D03*
G04 #@! TO.P,Z31,30,30*
G04 #@! TO.N,unconnected-(Z31-Pad30)*
X-55122500Y120699500D03*
G04 #@! TO.P,Z31,31,31*
G04 #@! TO.N,unconnected-(Z31-Pad31)*
X-52123000Y120699500D03*
G04 #@! TO.P,Z31,34,34*
G04 #@! TO.N,unconnected-(Z31-Pad34)*
X-43122500Y120699500D03*
G04 #@! TO.P,Z31,35,35*
G04 #@! TO.N,unconnected-(Z31-Pad35)*
X-40122500Y120699500D03*
G04 #@! TO.P,Z31,36,36*
G04 #@! TO.N,unconnected-(Z31-Pad36)*
X-37122500Y120699500D03*
D11*
G04 #@! TO.P,Z31,101,101*
G04 #@! TO.N,unconnected-(Z31-Pad101)*
X-139223000Y122500000D03*
G04 #@! TO.P,Z31,102,102*
G04 #@! TO.N,unconnected-(Z31-Pad102)*
X-134223000Y122500000D03*
G04 #@! TO.P,Z31,103,103*
G04 #@! TO.N,unconnected-(Z31-Pad103)*
X-129223000Y122500000D03*
G04 #@! TO.P,Z31,104,104*
G04 #@! TO.N,unconnected-(Z31-Pad104)*
X-124223000Y122500000D03*
G04 #@! TO.P,Z31,105,105*
G04 #@! TO.N,unconnected-(Z31-Pad105)*
X-119223000Y122500000D03*
G04 #@! TO.P,Z31,106,106*
G04 #@! TO.N,unconnected-(Z31-Pad106)*
X-114223000Y122500000D03*
G04 #@! TO.P,Z31,107,107*
G04 #@! TO.N,unconnected-(Z31-Pad107)*
X-136723000Y126500000D03*
G04 #@! TO.P,Z31,108,108*
G04 #@! TO.N,unconnected-(Z31-Pad108)*
X-131723000Y126500000D03*
G04 #@! TO.P,Z31,109,109*
G04 #@! TO.N,unconnected-(Z31-Pad109)*
X-126723000Y126500000D03*
G04 #@! TO.P,Z31,112,112*
G04 #@! TO.N,unconnected-(Z31-Pad112)*
X-139223000Y130500000D03*
G04 #@! TO.P,Z31,113,113*
G04 #@! TO.N,unconnected-(Z31-Pad113)*
X-134223000Y130500000D03*
G04 #@! TO.P,Z31,1002,1002*
G04 #@! TO.N,unconnected-(Z31-Pad1002)*
X-119223000Y130500000D03*
G04 #@! TO.P,Z31,1003,1003*
G04 #@! TO.N,unconnected-(Z31-Pad1003)*
X-114223000Y130500000D03*
G04 #@! TO.P,Z31,1004,1004*
G04 #@! TO.N,unconnected-(Z31-Pad1004)*
X-121723000Y126500000D03*
G04 #@! TO.P,Z31,1005,1005*
G04 #@! TO.N,unconnected-(Z31-Pad1005)*
X-116723000Y126500000D03*
D10*
G04 #@! TO.P,Z31,1006,1006*
G04 #@! TO.N,unconnected-(Z31-Pad1006)*
X-49122500Y120699500D03*
G04 #@! TO.P,Z31,1007,1007*
G04 #@! TO.N,unconnected-(Z31-Pad1007)*
X-46122500Y120699500D03*
D12*
G04 #@! TO.P,Z31,1008,MH*
G04 #@! TO.N,unconnected-(Z31-MH-Pad1008)*
X-147223000Y117500000D03*
G04 #@! TO.P,Z31,1009,MH*
G04 #@! TO.N,unconnected-(Z31-MH-Pad1009)*
X-106223000Y117500000D03*
G04 #@! TO.P,Z31,10010,MH*
G04 #@! TO.N,unconnected-(Z31-MH-Pad10010)*
X-97373000Y115200000D03*
G04 #@! TO.P,Z31,10011,MH*
G04 #@! TO.N,unconnected-(Z31-MH-Pad10011)*
X-30173000Y115200000D03*
G04 #@! TD*
M02*
