M48
; DRILL file {KiCad 8.0.5-8.0.5-0~ubuntu22.04.1} date 2024-09-18T03:34:45+0000
; FORMAT={2:4/ absolute / inch / suppress leading zeros}
; #@! TF.CreationDate,2024-09-18T03:34:45+00:00
; #@! TF.GenerationSoftware,Kicad,Pcbnew,8.0.5-8.0.5-0~ubuntu22.04.1
; #@! TF.FileFunction,MixedPlating,1,2
FMAT,2
INCH,TZ
; #@! TA.AperFunction,Plated,PTH,ComponentDrill
T1C0.0472
; #@! TA.AperFunction,Plated,PTH,ComponentDrill
T2C0.0591
; #@! TA.AperFunction,Plated,PTH,ComponentDrill
T3C0.1594
%
G90
G05
T1
X3898Y-32906
X3898Y-34480
X5079Y-32906
X5079Y-34480
X6260Y-32906
X6260Y-34480
X7441Y-32906
X7441Y-34480
X8622Y-32906
X8622Y-34480
X9803Y-32906
X9803Y-34480
X10984Y-32906
X10984Y-34480
X12165Y-32906
X12165Y-34480
X13346Y-32906
X13346Y-34480
X14528Y-32906
X14528Y-34480
X16614Y-32906
X16614Y-34480
X17795Y-32906
X17795Y-34480
X18976Y-32906
X18976Y-34480
X20157Y-32906
X20157Y-34480
X21339Y-32906
X21339Y-34480
X22520Y-32906
X22520Y-34480
X23701Y-32906
X23701Y-34480
X24882Y-32906
X24882Y-34480
T2
X-15406Y-30646
X-15406Y-33795
X-14421Y-32220
X-13437Y-30646
X-13437Y-33795
X-12453Y-32220
X-11469Y-33795
X-10484Y-32220
X-9500Y-33795
X-8516Y-32220
X-7531Y-30646
X-7531Y-33795
X-6547Y-32220
X-5563Y-30646
X-5563Y-33795
T3
X-18555Y-35764
X-2413Y-35764
X1161Y-36646
X27618Y-36646
M30
