G04 #@! TF.GenerationSoftware,KiCad,Pcbnew,8.0.5-8.0.5-0~ubuntu22.04.1*
G04 #@! TF.CreationDate,2024-09-18T03:34:45+00:00*
G04 #@! TF.ProjectId,Z31HELLEN,5a333148-454c-44c4-954e-2e6b69636164,rev?*
G04 #@! TF.SameCoordinates,Original*
G04 #@! TF.FileFunction,Copper,L1,Top*
G04 #@! TF.FilePolarity,Positive*
%FSLAX46Y46*%
G04 Gerber Fmt 4.6, Leading zero omitted, Abs format (unit mm)*
G04 Created by KiCad (PCBNEW 8.0.5-8.0.5-0~ubuntu22.04.1) date 2024-09-18 03:34:45*
%MOMM*%
%LPD*%
G01*
G04 APERTURE LIST*
G04 #@! TA.AperFunction,ComponentPad*
%ADD10C,2.000000*%
G04 #@! TD*
G04 #@! TA.AperFunction,ComponentPad*
%ADD11R,2.000000X2.000000*%
G04 #@! TD*
G04 #@! TA.AperFunction,ComponentPad*
%ADD12C,6.075000*%
G04 #@! TD*
G04 #@! TA.AperFunction,ComponentPad*
%ADD13C,2.500000*%
G04 #@! TD*
G04 APERTURE END LIST*
D10*
G04 #@! TO.P,J6,1,1*
G04 #@! TO.N,unconnected-(J6-Pad1)*
X9900000Y-83580000D03*
G04 #@! TO.P,J6,2,2*
G04 #@! TO.N,unconnected-(J6-Pad2)*
X12900000Y-83580000D03*
G04 #@! TO.P,J6,3,3*
G04 #@! TO.N,AFM 6{slash}6*
X15900000Y-83580000D03*
G04 #@! TO.P,J6,4,4*
G04 #@! TO.N,AAC Valve*
X18900000Y-83580000D03*
G04 #@! TO.P,J6,5,5*
G04 #@! TO.N,unconnected-(J6-Pad5)*
X21900000Y-83580000D03*
G04 #@! TO.P,J6,6,6*
G04 #@! TO.N,IGN Common*
X24900000Y-83580000D03*
G04 #@! TO.P,J6,7,7*
G04 #@! TO.N,unconnected-(J6-Pad7)*
X27900000Y-83580000D03*
G04 #@! TO.P,J6,8,8*
G04 #@! TO.N,EGR Solenoid*
X30900000Y-83580000D03*
G04 #@! TO.P,J6,9,9*
G04 #@! TO.N,Fuel Temp*
X33900000Y-83580000D03*
G04 #@! TO.P,J6,10,10*
G04 #@! TO.N,Ignition*
X36900000Y-83580000D03*
D11*
G04 #@! TO.P,J6,11,11*
G04 #@! TO.N,Air Regulator*
X9900000Y-87580000D03*
D10*
G04 #@! TO.P,J6,12,12*
G04 #@! TO.N,GND*
X12900000Y-87580000D03*
G04 #@! TO.P,J6,13,13*
G04 #@! TO.N,CAM-IN*
X15900000Y-87580000D03*
G04 #@! TO.P,J6,14,14*
G04 #@! TO.N,unconnected-(J6-Pad14)*
X18900000Y-87580000D03*
G04 #@! TO.P,J6,15,15*
G04 #@! TO.N,Throttle Valve Switch 1{slash}2*
X21900000Y-87580000D03*
G04 #@! TO.P,J6,16,16*
G04 #@! TO.N,CRANK-IN*
X24900000Y-87580000D03*
G04 #@! TO.P,J6,17,17*
G04 #@! TO.N,unconnected-(J6-Pad17)*
X27900000Y-87580000D03*
G04 #@! TO.P,J6,18,18*
G04 #@! TO.N,IGN SW*
X30900000Y-87580000D03*
G04 #@! TO.P,J6,19,19*
G04 #@! TO.N,Fuel Pump*
X33900000Y-87580000D03*
G04 #@! TO.P,J6,20,20*
G04 #@! TO.N,Neutral Switch*
X36900000Y-87580000D03*
G04 #@! TO.P,J6,21,21*
G04 #@! TO.N,Meter Speed Out*
X42200000Y-83580000D03*
G04 #@! TO.P,J6,22,22*
G04 #@! TO.N,Knock*
X45200000Y-83580000D03*
G04 #@! TO.P,J6,23,23*
G04 #@! TO.N,AFM 1{slash}6*
X48200000Y-83580000D03*
G04 #@! TO.P,J6,24,24*
G04 #@! TO.N,AC*
X51200000Y-83580000D03*
G04 #@! TO.P,J6,25,25*
G04 #@! TO.N,GND*
X54200000Y-83580000D03*
G04 #@! TO.P,J6,26,26*
G04 #@! TO.N,Cylinder Head Temp*
X57200000Y-83580000D03*
G04 #@! TO.P,J6,27,27*
G04 #@! TO.N,unconnected-(J6-Pad27)*
X60200000Y-83580000D03*
G04 #@! TO.P,J6,28,28*
G04 #@! TO.N,O2*
X63200000Y-83580000D03*
G04 #@! TO.P,J6,29,29*
G04 #@! TO.N,unconnected-(J6-Pad29)*
X42200000Y-87580000D03*
G04 #@! TO.P,J6,30,30*
G04 #@! TO.N,Throttle Valve Switch 1{slash}2*
X45200000Y-87580000D03*
G04 #@! TO.P,J6,31,31*
G04 #@! TO.N,+12V*
X48200000Y-87580000D03*
G04 #@! TO.P,J6,32,32*
G04 #@! TO.N,GND*
X51200000Y-87580000D03*
G04 #@! TO.P,J6,33,33*
G04 #@! TO.N,+12V*
X54200000Y-87580000D03*
G04 #@! TO.P,J6,34,34*
X57200000Y-87580000D03*
G04 #@! TO.P,J6,35,35*
G04 #@! TO.N,GND*
X60200000Y-87580000D03*
G04 #@! TO.P,J6,36,36*
X63200000Y-87580000D03*
D12*
G04 #@! TO.P,J6,MH1,MH1*
G04 #@! TO.N,unconnected-(J6-PadMH1)*
X2950000Y-93080000D03*
G04 #@! TO.P,J6,MH2,MH2*
G04 #@! TO.N,unconnected-(J6-PadMH2)*
X70150000Y-93080000D03*
G04 #@! TD*
D13*
G04 #@! TO.P,J5,5,5*
G04 #@! TO.N,+12V*
X-19130000Y-77840000D03*
G04 #@! TO.P,J5,6,6*
G04 #@! TO.N,O2{slash}2*
X-14130000Y-77840000D03*
G04 #@! TO.P,J5,101,12*
G04 #@! TO.N,N/C*
X-39130000Y-85840000D03*
G04 #@! TO.P,J5,102,13*
X-34130000Y-85840000D03*
G04 #@! TO.P,J5,103,14*
X-29130000Y-85840000D03*
G04 #@! TO.P,J5,104,15*
X-24130000Y-85840000D03*
G04 #@! TO.P,J5,105,16*
X-19130000Y-85840000D03*
G04 #@! TO.P,J5,106,17*
X-14130000Y-85840000D03*
G04 #@! TO.P,J5,107,7*
X-36630000Y-81840000D03*
G04 #@! TO.P,J5,108],8*
X-31630000Y-81840000D03*
G04 #@! TO.P,J5,109,9*
X-26630000Y-81840000D03*
G04 #@! TO.P,J5,110,10*
X-21630000Y-81840000D03*
G04 #@! TO.P,J5,111,11*
X-16630000Y-81840000D03*
G04 #@! TO.P,J5,112,1*
X-39130000Y-77840000D03*
G04 #@! TO.P,J5,113,2*
X-34130000Y-77840000D03*
D12*
G04 #@! TO.P,J5,MH1,MH1*
G04 #@! TO.N,unconnected-(J5-PadMH1)*
X-47130000Y-90840000D03*
G04 #@! TO.P,J5,MH2,MH2*
G04 #@! TO.N,unconnected-(J5-PadMH2)*
X-6130000Y-90840000D03*
G04 #@! TD*
M02*
