G04 #@! TF.GenerationSoftware,KiCad,Pcbnew,8.0.7-8.0.7-0~ubuntu22.04.1*
G04 #@! TF.CreationDate,2024-12-12T02:11:47+00:00*
G04 #@! TF.ProjectId,z31hellen,7a333168-656c-46c6-956e-2e6b69636164,rev?*
G04 #@! TF.SameCoordinates,Original*
G04 #@! TF.FileFunction,Soldermask,Bot*
G04 #@! TF.FilePolarity,Negative*
%FSLAX46Y46*%
G04 Gerber Fmt 4.6, Leading zero omitted, Abs format (unit mm)*
G04 Created by KiCad (PCBNEW 8.0.7-8.0.7-0~ubuntu22.04.1) date 2024-12-12 02:11:47*
%MOMM*%
%LPD*%
G01*
G04 APERTURE LIST*
%ADD10O,1.700000X1.850000*%
%ADD11C,1.500000*%
%ADD12C,0.600000*%
%ADD13C,0.650000*%
%ADD14O,2.100000X1.000000*%
%ADD15O,1.600000X1.000000*%
%ADD16C,0.599999*%
%ADD17C,2.000000*%
%ADD18C,6.075000*%
G04 APERTURE END LIST*
G04 #@! TO.C,J2*
G36*
G01*
X54575002Y60050005D02*
X54575002Y61400005D01*
G75*
G02*
X54825002Y61650005I250000J0D01*
G01*
X56025002Y61650005D01*
G75*
G02*
X56275002Y61400005I0J-250000D01*
G01*
X56275002Y60050005D01*
G75*
G02*
X56025002Y59800005I-250000J0D01*
G01*
X54825002Y59800005D01*
G75*
G02*
X54575002Y60050005I0J250000D01*
G01*
G37*
D10*
X57925002Y60725005D03*
X60425002Y60725005D03*
X62925002Y60725005D03*
X65425002Y60725005D03*
G04 #@! TD*
D11*
G04 #@! TO.C,M2*
X136600003Y42000000D03*
X143000000Y42000000D03*
X144900003Y42000000D03*
X149200003Y42000000D03*
D12*
X151600000Y42449999D03*
X152600001Y42449999D03*
D11*
X155450003Y42000000D03*
X136150001Y26500003D03*
X138000000Y26500003D03*
X142950003Y26500003D03*
X155000001Y26500003D03*
G04 #@! TD*
D13*
G04 #@! TO.C,J3*
X59925002Y72945005D03*
X59925002Y67165005D03*
D14*
X60425002Y74375005D03*
D15*
X56245002Y74375005D03*
D14*
X60425002Y65735005D03*
D15*
X56245002Y65735005D03*
G04 #@! TD*
D16*
G04 #@! TO.C,M4*
X26600032Y51419894D03*
X27025040Y53254904D03*
X27575037Y51204896D03*
X28449996Y51419891D03*
X29300019Y51494898D03*
X29625035Y53254904D03*
X30925002Y51944904D03*
X31575019Y53254904D03*
X24400016Y47329889D03*
X24700018Y51404895D03*
G04 #@! TD*
D11*
G04 #@! TO.C,Z1*
X92675002Y17624505D03*
X95675002Y17624505D03*
X98675002Y17624505D03*
X101675502Y17624505D03*
X104675002Y17624505D03*
X107675002Y17624505D03*
X110675002Y17624505D03*
X113675502Y17624505D03*
X116675502Y17624505D03*
X119675502Y17624505D03*
X92675002Y13624505D03*
X95675002Y13624505D03*
X98675002Y13624505D03*
X101675502Y13624505D03*
X104675002Y13624505D03*
X107675002Y13624505D03*
X110675002Y13624505D03*
X113675502Y13624505D03*
X116675502Y13624505D03*
X119675502Y13624505D03*
X124975002Y17624505D03*
X127975502Y17624505D03*
X130975002Y17624505D03*
X133975002Y17624505D03*
X136975502Y17624505D03*
X139975502Y17624505D03*
X142975502Y17624505D03*
X145975502Y17624505D03*
X124975002Y13624505D03*
X127975502Y13624505D03*
X130975002Y13624505D03*
X139975502Y13624505D03*
X142975502Y13624505D03*
X145975502Y13624505D03*
D17*
X43875002Y15425005D03*
X48875002Y15425005D03*
X53875002Y15425005D03*
X58875002Y15425005D03*
X63875002Y15425005D03*
X68875002Y15425005D03*
X46375002Y19425005D03*
X51375002Y19425005D03*
X56375002Y19425005D03*
X43875002Y23425005D03*
X48875002Y23425005D03*
X63875002Y23425005D03*
X68875002Y23425005D03*
X61375002Y19425005D03*
X66375002Y19425005D03*
D11*
X133975502Y13624505D03*
X136975502Y13624505D03*
D18*
X35875002Y10425005D03*
X76875002Y10425005D03*
X85725002Y8125005D03*
X152925002Y8125005D03*
G04 #@! TD*
M02*
