M48
; DRILL file {KiCad 8.0.5-8.0.5-0~ubuntu22.04.1} date 2024-09-18T17:44:10+0000
; FORMAT={2:4/ absolute / inch / suppress leading zeros}
; #@! TF.CreationDate,2024-09-18T17:44:10+00:00
; #@! TF.GenerationSoftware,Kicad,Pcbnew,8.0.5-8.0.5-0~ubuntu22.04.1
; #@! TF.FileFunction,MixedPlating,1,2
FMAT,2
INCH,TZ
; #@! TA.AperFunction,Plated,PTH,ComponentDrill
T1C0.0394
; #@! TA.AperFunction,Plated,PTH,ComponentDrill
T2C0.0591
; #@! TA.AperFunction,Plated,PTH,ComponentDrill
T3C0.1594
%
G90
G05
T1
X-35600Y49094
X-35600Y47519
X-34419Y49094
X-34419Y47519
X-33237Y49094
X-33237Y47519
X-32056Y49094
X-32056Y47519
X-30875Y49094
X-30875Y47519
X-29694Y49094
X-29694Y47519
X-28513Y49094
X-28513Y47519
X-27332Y49094
X-27332Y47519
X-26151Y49094
X-26151Y47519
X-24969Y49094
X-24969Y47519
X-22883Y49094
X-22883Y47519
X-21702Y49094
X-21702Y47519
X-20521Y49094
X-20521Y47519
X-19340Y49094
X-19340Y47519
X-18158Y49094
X-18158Y47519
X-16977Y49094
X-16977Y47519
X-15796Y49094
X-15796Y47519
X-14615Y49094
X-14615Y47519
X3809Y-33003
X3809Y-34578
X4990Y-33003
X4990Y-34578
X6171Y-33003
X6171Y-34578
X7352Y-33003
X7352Y-34578
X8533Y-33003
X8533Y-34578
X9714Y-33003
X9714Y-34578
X10895Y-33003
X10895Y-34578
X12077Y-33003
X12077Y-34578
X13258Y-33003
X13258Y-34578
X14439Y-33003
X14439Y-34578
X16525Y-33003
X16525Y-34578
X17706Y-33003
X17706Y-34578
X18887Y-33003
X18887Y-34578
X20069Y-33003
X20069Y-34578
X21250Y-33003
X21250Y-34578
X22431Y-33003
X22431Y-34578
X23612Y-33003
X23612Y-34578
X24793Y-33003
X24793Y-34578
T2
X-54812Y51378
X-54812Y48228
X-53828Y49803
X-52844Y51378
X-52844Y48228
X-51859Y49803
X-50875Y48228
X-49891Y49803
X-48907Y48228
X-47922Y49803
X-46938Y51378
X-46938Y48228
X-45954Y49803
X-44970Y51378
X-44970Y48228
X-15404Y-30719
X-15404Y-33869
X-14420Y-32294
X-13435Y-30719
X-13435Y-33869
X-12451Y-32294
X-11467Y-33869
X-10483Y-32294
X-9498Y-33869
X-8514Y-32294
X-7530Y-30719
X-7530Y-33869
X-6546Y-32294
X-5561Y-30719
X-5561Y-33869
T3
X-57962Y46260
X-41820Y46260
X-38336Y45354
X-18554Y-35837
X-11879Y45354
X-2412Y-35837
X1072Y-36743
X27529Y-36743
M30
