G04 #@! TF.GenerationSoftware,KiCad,Pcbnew,8.0.5-8.0.5-0~ubuntu22.04.1*
G04 #@! TF.CreationDate,2024-09-18T17:21:29+00:00*
G04 #@! TF.ProjectId,Z31HELLEN,5a333148-454c-44c4-954e-2e6b69636164,rev?*
G04 #@! TF.SameCoordinates,Original*
G04 #@! TF.FileFunction,Profile,NP*
%FSLAX46Y46*%
G04 Gerber Fmt 4.6, Leading zero omitted, Abs format (unit mm)*
G04 Created by KiCad (PCBNEW 8.0.5-8.0.5-0~ubuntu22.04.1) date 2024-09-18 17:21:29*
%MOMM*%
%LPD*%
G01*
G04 APERTURE LIST*
G04 #@! TA.AperFunction,Profile*
%ADD10C,0.100000*%
G04 #@! TD*
G04 APERTURE END LIST*
D10*
X-74630000Y-97640000D02*
X-74630000Y-98300000D01*
X75500000Y83500000D02*
G75*
G02*
X71500000Y83500000I-2000000J0D01*
G01*
X71500000Y83500000D02*
G75*
G02*
X75500000Y83500000I2000000J0D01*
G01*
X-80630000Y-91640000D02*
G75*
G02*
X-74630000Y-97640000I0J-6000000D01*
G01*
X76370000Y-98310000D02*
X76370000Y-97630000D01*
X84870000Y76709467D02*
G75*
G02*
X78870000Y82790000I0J6000533D01*
G01*
X-72620000Y-100310000D02*
G75*
G02*
X-74630000Y-98300000I0J2010000D01*
G01*
X88990000Y76710000D02*
G75*
G02*
X90980000Y74720000I0J-1990000D01*
G01*
X90980000Y-89640000D02*
G75*
G02*
X88980000Y-91640000I-2000000J0D01*
G01*
X76370000Y-98310000D02*
G75*
G02*
X74370000Y-100310000I-2000000J0D01*
G01*
X76870000Y87870000D02*
G75*
G02*
X78870000Y85870000I0J-2000000D01*
G01*
X87000000Y-86000000D02*
G75*
G02*
X83000000Y-86000000I-2000000J0D01*
G01*
X83000000Y-86000000D02*
G75*
G02*
X87000000Y-86000000I2000000J0D01*
G01*
X88980000Y-91640000D02*
X82379965Y-91627049D01*
X-82500000Y2500000D02*
G75*
G02*
X-86500000Y2500000I-2000000J0D01*
G01*
X-86500000Y2500000D02*
G75*
G02*
X-82500000Y2500000I2000000J0D01*
G01*
X-67000000Y-95000000D02*
G75*
G02*
X-71000000Y-95000000I-2000000J0D01*
G01*
X-71000000Y-95000000D02*
G75*
G02*
X-67000000Y-95000000I2000000J0D01*
G01*
X90980000Y74720000D02*
X90980000Y-89640000D01*
X-75140000Y87870000D02*
X76870000Y87870000D01*
X-72620000Y-100310000D02*
X74370000Y-100310000D01*
X-89215000Y74720000D02*
X-89215000Y-89740000D01*
X-77110000Y85900000D02*
G75*
G02*
X-75140000Y87870000I1970000J0D01*
G01*
X-87220000Y76715000D02*
X-83110000Y76715000D01*
X-87315000Y-91640000D02*
G75*
G02*
X-89215000Y-89740000I0J1900000D01*
G01*
X-77110001Y82782879D02*
G75*
G02*
X-83110000Y76715022I-5999999J-67479D01*
G01*
X88990000Y76709467D02*
X84870000Y76709467D01*
X87500000Y5541381D02*
G75*
G02*
X83500000Y5541381I-2000000J0D01*
G01*
X83500000Y5541381D02*
G75*
G02*
X87500000Y5541381I2000000J0D01*
G01*
X76370001Y-97630000D02*
G75*
G02*
X82379965Y-91627078I6026199J-23300D01*
G01*
X-89215000Y74720000D02*
G75*
G02*
X-87220000Y76715000I1995000J0D01*
G01*
X-87315000Y-91640000D02*
X-80630000Y-91640000D01*
X-69500000Y83500000D02*
G75*
G02*
X-73500000Y83500000I-2000000J0D01*
G01*
X-73500000Y83500000D02*
G75*
G02*
X-69500000Y83500000I2000000J0D01*
G01*
X-77110000Y85900000D02*
X-77110001Y82782879D01*
X78870000Y85870000D02*
X78870000Y82790000D01*
M02*
