M48
; DRILL file {KiCad 8.0.5-8.0.5-0~ubuntu22.04.1} date 2024-09-18T18:24:51+0000
; FORMAT={2:4/ absolute / inch / suppress leading zeros}
; #@! TF.CreationDate,2024-09-18T18:24:51+00:00
; #@! TF.GenerationSoftware,Kicad,Pcbnew,8.0.5-8.0.5-0~ubuntu22.04.1
; #@! TF.FileFunction,MixedPlating,1,2
FMAT,2
INCH,TZ
; #@! TA.AperFunction,Plated,PTH,ComponentDrill
T1C0.0394
; #@! TA.AperFunction,Plated,PTH,ComponentDrill
T2C0.0591
; #@! TA.AperFunction,Plated,PTH,ComponentDrill
T3C0.1594
%
G90
G05
T1
X3760Y-32992
X3760Y-34567
X4941Y-32992
X4941Y-34567
X6122Y-32992
X6122Y-34567
X7303Y-32992
X7303Y-34567
X8484Y-32992
X8484Y-34567
X9665Y-32992
X9665Y-34567
X10846Y-32992
X10846Y-34567
X12028Y-32992
X12028Y-34567
X13209Y-32992
X13209Y-34567
X14390Y-32992
X14390Y-34567
X16476Y-32992
X16476Y-34567
X17658Y-32992
X17658Y-34567
X18839Y-32992
X18839Y-34567
X20020Y-32992
X20020Y-34567
X21201Y-32992
X21201Y-34567
X22382Y-32992
X22382Y-34567
X23563Y-32992
X23563Y-34567
X24744Y-32992
X24744Y-34567
T2
X-15453Y-30709
X-15453Y-33858
X-14469Y-32283
X-13484Y-30709
X-13484Y-33858
X-12500Y-32283
X-11516Y-33858
X-10531Y-32283
X-9547Y-33858
X-8563Y-32283
X-7579Y-30709
X-7579Y-33858
X-6594Y-32283
X-5610Y-30709
X-5610Y-33858
T3
X-18602Y-35827
X-2461Y-35827
X1024Y-36732
X27480Y-36732
M30
