G04 #@! TF.GenerationSoftware,KiCad,Pcbnew,8.0.7-8.0.7-0~ubuntu24.04.1*
G04 #@! TF.CreationDate,2024-12-19T04:57:45+00:00*
G04 #@! TF.ProjectId,z31hellen,7a333168-656c-46c6-956e-2e6b69636164,rev?*
G04 #@! TF.SameCoordinates,Original*
G04 #@! TF.FileFunction,Legend,Bot*
G04 #@! TF.FilePolarity,Positive*
%FSLAX46Y46*%
G04 Gerber Fmt 4.6, Leading zero omitted, Abs format (unit mm)*
G04 Created by KiCad (PCBNEW 8.0.7-8.0.7-0~ubuntu24.04.1) date 2024-12-19 04:57:45*
%MOMM*%
%LPD*%
G01*
G04 APERTURE LIST*
%ADD10C,0.200000*%
G04 APERTURE END LIST*
D10*
G04 #@! TO.C,M1*
X51074998Y107574997D02*
X91875001Y107574997D01*
X51074998Y67674998D02*
X51074998Y107574997D01*
X51074998Y67674998D02*
X93174998Y67674998D01*
X91875001Y107574997D02*
X93175001Y107574997D01*
X93174998Y67674998D02*
X93175001Y107574997D01*
G04 #@! TO.C,M3*
X111500000Y33700000D02*
X97600000Y33700000D01*
X97600000Y61200000D01*
X111500000Y61200000D01*
X111500000Y33700000D01*
G04 #@! TO.C,M4*
X52554890Y59100206D02*
X52916538Y59461854D01*
X52554890Y46038525D02*
X52554890Y59100206D01*
X52554890Y46038525D02*
X52804890Y45788526D01*
X52804890Y45788526D02*
X60155271Y45788526D01*
X52916538Y59461854D02*
X58654888Y59461854D01*
X58654888Y58863145D02*
X58654888Y59461854D01*
X58654888Y58863145D02*
X59404889Y58113144D01*
X59404889Y58113144D02*
X60404890Y58113144D01*
X60155271Y45788526D02*
X60404890Y46038144D01*
X60404890Y46038144D02*
X60404890Y58113144D01*
G04 #@! TO.C,M2*
X135550002Y26850001D02*
X135550000Y42150000D01*
X135849998Y42150000D02*
X135550000Y42150000D01*
X142150000Y25350001D02*
X138949997Y25350001D01*
X142249998Y42149998D02*
X137449998Y42149998D01*
X148450000Y42149998D02*
X145750000Y42149998D01*
X151149998Y42149998D02*
X150049995Y42149998D01*
X154250000Y25350001D02*
X143849998Y25350001D01*
X154700000Y42149998D02*
X153150000Y42150003D01*
X156150000Y25350001D02*
X155850000Y25350001D01*
X156150000Y25350001D02*
X156150000Y40750001D01*
G04 #@! TD*
M02*
