G04 #@! TF.GenerationSoftware,KiCad,Pcbnew,8.0.5-8.0.5-0~ubuntu22.04.1*
G04 #@! TF.CreationDate,2024-09-18T18:06:41+00:00*
G04 #@! TF.ProjectId,Z31HELLEN,5a333148-454c-44c4-954e-2e6b69636164,rev?*
G04 #@! TF.SameCoordinates,Original*
G04 #@! TF.FileFunction,Soldermask,Top*
G04 #@! TF.FilePolarity,Negative*
%FSLAX46Y46*%
G04 Gerber Fmt 4.6, Leading zero omitted, Abs format (unit mm)*
G04 Created by KiCad (PCBNEW 8.0.5-8.0.5-0~ubuntu22.04.1) date 2024-09-18 18:06:41*
%MOMM*%
%LPD*%
G01*
G04 APERTURE LIST*
%ADD10C,1.500000*%
%ADD11C,2.000000*%
%ADD12C,6.075000*%
G04 APERTURE END LIST*
D10*
G04 #@! TO.C,Z31*
X9550000Y-83800500D03*
X12550000Y-83800500D03*
X15550000Y-83800500D03*
X18550500Y-83800500D03*
X21550000Y-83800500D03*
X24550000Y-83800500D03*
X27550000Y-83800500D03*
X30550500Y-83800500D03*
X33550500Y-83800500D03*
X36550500Y-83800500D03*
X9550000Y-87800500D03*
X12550000Y-87800500D03*
X15550000Y-87800500D03*
X18550500Y-87800500D03*
X21550000Y-87800500D03*
X24550000Y-87800500D03*
X27550000Y-87800500D03*
X30550500Y-87800500D03*
X33550500Y-87800500D03*
X36550500Y-87800500D03*
X41850000Y-83800500D03*
X44850500Y-83800500D03*
X47850000Y-83800500D03*
X50850000Y-83800500D03*
X53850500Y-83800500D03*
X56850500Y-83800500D03*
X59850500Y-83800500D03*
X62850500Y-83800500D03*
X41850000Y-87800500D03*
X44850500Y-87800500D03*
X47850000Y-87800500D03*
X56850500Y-87800500D03*
X59850500Y-87800500D03*
X62850500Y-87800500D03*
D11*
X-39250000Y-86000000D03*
X-34250000Y-86000000D03*
X-29250000Y-86000000D03*
X-24250000Y-86000000D03*
X-19250000Y-86000000D03*
X-14250000Y-86000000D03*
X-36750000Y-82000000D03*
X-31750000Y-82000000D03*
X-26750000Y-82000000D03*
X-39250000Y-78000000D03*
X-34250000Y-78000000D03*
X-19250000Y-78000000D03*
X-14250000Y-78000000D03*
X-21750000Y-82000000D03*
X-16750000Y-82000000D03*
D10*
X50850500Y-87800500D03*
X53850500Y-87800500D03*
D12*
X-47250000Y-91000000D03*
X-6250000Y-91000000D03*
X2600000Y-93300000D03*
X69800000Y-93300000D03*
G04 #@! TD*
M02*
