M48
; DRILL file {KiCad 8.0.7-8.0.7-0~ubuntu22.04.1} date 2024-12-12T02:11:47+0000
; FORMAT={2:4/ absolute / inch / suppress leading zeros}
; #@! TF.CreationDate,2024-12-12T02:11:47+00:00
; #@! TF.GenerationSoftware,Kicad,Pcbnew,8.0.7-8.0.7-0~ubuntu22.04.1
; #@! TF.FileFunction,MixedPlating,1,4
FMAT,2
INCH,TZ
; #@! TA.AperFunction,Plated,PTH,ComponentDrill
T1C0.0118
; #@! TA.AperFunction,Plated,PTH,ComponentDrill
T2C0.0118
; #@! TA.AperFunction,Plated,PTH,ComponentDrill
T3C0.0236
; #@! TA.AperFunction,Plated,PTH,ComponentDrill
T4C0.0335
; #@! TA.AperFunction,Plated,PTH,ComponentDrill
T5C0.0394
; #@! TA.AperFunction,Plated,PTH,ComponentDrill
T6C0.0591
; #@! TA.AperFunction,Plated,PTH,ComponentDrill
T7C0.1594
; #@! TA.AperFunction,NonPlated,NPTH,ComponentDrill
T8C0.0256
%
G90
G05
T1
X9606Y18634
X9724Y20238
X10472Y20244
X10640Y20966
X10856Y20159
X11201Y20244
X11535Y20274
X11663Y20966
X12175Y20451
X12431Y20966
T2
X4104Y35561
X4104Y34616
X4104Y33199
X4104Y32254
X4104Y28002
X4104Y26585
X4104Y24734
X4104Y23317
X4104Y39341
X4104Y38396
X4104Y37923
X4104Y37451
X4104Y36978
X4104Y36506
X4104Y36033
X4104Y35089
X4104Y34144
X4104Y33671
X4104Y32726
X4104Y31781
X4104Y31309
X4104Y30837
X4104Y30364
X4104Y29892
X4104Y29419
X4104Y28947
X4104Y28474
X4104Y27530
X4104Y27057
X4104Y26112
X4104Y25640
X4104Y25207
X4104Y24262
X4104Y23789
X4970Y23081
X5089Y39498
X5285Y23081
X5482Y39498
X7923Y23081
X8002Y39498
X8238Y23081
X8553Y23081
X8868Y23081
X9183Y23081
X9498Y23081
X9813Y23081
X10128Y23081
X10443Y23081
X10758Y23081
X10758Y39498
X11073Y23081
X11152Y39498
X11388Y23081
X11545Y39498
X11703Y23081
X11939Y39498
X12018Y23081
X12333Y23081
X12333Y39498
X12648Y23081
X12726Y39498
X12963Y23081
X13120Y39498
X13278Y23081
X13514Y39498
X13593Y23081
X13907Y23081
X14222Y23081
X14537Y23081
X14734Y39498
X14852Y23081
X15049Y39498
X15167Y23081
X15482Y23081
X15797Y23081
X16112Y23081
X16427Y23081
X16742Y23081
X17057Y23081
X17372Y23081
X17687Y23081
X18002Y23081
X18317Y23081
X18632Y23081
X19656Y39498
X19656Y37136
X19656Y36821
X19656Y36506
X19656Y33435
X19656Y33120
X19656Y32805
X19656Y32490
X19656Y32175
X19656Y30010
X19656Y29695
X19656Y29065
X19656Y28750
X19656Y28435
X19656Y28120
X19656Y27175
X19656Y26860
X19656Y26545
X19656Y26230
X19656Y25915
X19656Y25600
X19656Y24970
X19656Y24656
X19656Y24341
X19656Y24026
X19656Y23081
X19656Y29380
X19656Y27805
X19656Y27490
X19656Y25285
X19656Y23711
X19656Y23396
X52346Y43021
X52346Y42627
X52346Y42234
X52346Y41336
X52346Y40936
X59685Y16713
X60079Y16713
X62815Y40009
X62815Y39615
X62815Y39222
X62815Y38828
T4
X21821Y23907
X22805Y23907
X23789Y23907
X24774Y23907
X25758Y23907
T5
X36486Y6939
X36486Y5364
X37667Y6939
X37667Y5364
X38848Y6939
X38848Y5364
X40030Y6939
X40030Y5364
X41211Y6939
X41211Y5364
X42392Y6939
X42392Y5364
X43573Y6939
X43573Y5364
X44754Y6939
X44754Y5364
X45935Y6939
X45935Y5364
X47116Y6939
X47116Y5364
X49203Y6939
X49203Y5364
X50384Y6939
X50384Y5364
X51565Y6939
X51565Y5364
X52746Y6939
X52746Y5364
X53602Y10433
X53780Y16535
X53927Y6939
X53927Y5364
X54331Y10433
X55108Y6939
X55108Y5364
X56280Y10433
X56290Y6939
X56290Y5364
X56299Y16535
X57047Y16535
X57471Y6939
X57471Y5364
X58740Y16535
X61024Y10433
X61201Y16535
T6
X17274Y9222
X17274Y6073
X18258Y7648
X19242Y9222
X19242Y6073
X20226Y7648
X21211Y6073
X22195Y7648
X23179Y6073
X24163Y7648
X25148Y9222
X25148Y6073
X26132Y7648
X27116Y9222
X27116Y6073
T7
X14124Y4104
X30266Y4104
X33750Y3199
X60207Y3199
T8
X23593Y28719
X23593Y26443
T3
X22262Y29281G85X22026Y29281
G05
X22262Y25880G85X22026Y25880
G05
X24006Y29281G85X23573Y29281
G05
X24006Y25880G85X23573Y25880
G05
M30
