G04 #@! TF.GenerationSoftware,KiCad,Pcbnew,8.0.7-8.0.7-0~ubuntu24.04.1*
G04 #@! TF.CreationDate,2024-12-19T04:57:45+00:00*
G04 #@! TF.ProjectId,z31hellen,7a333168-656c-46c6-956e-2e6b69636164,rev?*
G04 #@! TF.SameCoordinates,Original*
G04 #@! TF.FileFunction,Soldermask,Top*
G04 #@! TF.FilePolarity,Negative*
%FSLAX46Y46*%
G04 Gerber Fmt 4.6, Leading zero omitted, Abs format (unit mm)*
G04 Created by KiCad (PCBNEW 8.0.7-8.0.7-0~ubuntu24.04.1) date 2024-12-19 04:57:45*
%MOMM*%
%LPD*%
G01*
G04 APERTURE LIST*
%ADD10R,5.800000X6.400000*%
%ADD11O,1.850000X1.700000*%
%ADD12C,0.650000*%
%ADD13R,1.150000X0.300000*%
%ADD14O,2.100000X1.000000*%
%ADD15O,1.600000X1.000000*%
%ADD16R,0.558800X1.320800*%
%ADD17O,0.200000X0.399999*%
%ADD18C,0.599999*%
%ADD19C,1.500000*%
%ADD20C,0.600000*%
%ADD21C,2.000000*%
%ADD22C,6.075000*%
G04 APERTURE END LIST*
G04 #@! TO.C,Q5*
G36*
G01*
X45750002Y41700005D02*
X46710002Y41700005D01*
G75*
G02*
X46830002Y41580005I0J-120000D01*
G01*
X46830002Y39620005D01*
G75*
G02*
X46710002Y39500005I-120000J0D01*
G01*
X45750002Y39500005D01*
G75*
G02*
X45630002Y39620005I0J120000D01*
G01*
X45630002Y41580005D01*
G75*
G02*
X45750002Y41700005I120000J0D01*
G01*
G37*
D10*
X43950002Y34300005D03*
G36*
G01*
X41190002Y41700005D02*
X42150002Y41700005D01*
G75*
G02*
X42270002Y41580005I0J-120000D01*
G01*
X42270002Y39620005D01*
G75*
G02*
X42150002Y39500005I-120000J0D01*
G01*
X41190002Y39500005D01*
G75*
G02*
X41070002Y39620005I0J120000D01*
G01*
X41070002Y41580005D01*
G75*
G02*
X41190002Y41700005I120000J0D01*
G01*
G37*
G04 #@! TD*
G04 #@! TO.C,Q3*
G36*
G01*
X104173502Y21163005D02*
X103776502Y21163005D01*
G75*
G02*
X103578002Y21361505I0J198500D01*
G01*
X103578002Y22378505D01*
G75*
G02*
X103776502Y22577005I198500J0D01*
G01*
X104173502Y22577005D01*
G75*
G02*
X104372002Y22378505I0J-198500D01*
G01*
X104372002Y21361505D01*
G75*
G02*
X104173502Y21163005I-198500J0D01*
G01*
G37*
G36*
G01*
X106073502Y21163005D02*
X105676502Y21163005D01*
G75*
G02*
X105478002Y21361505I0J198500D01*
G01*
X105478002Y22378505D01*
G75*
G02*
X105676502Y22577005I198500J0D01*
G01*
X106073502Y22577005D01*
G75*
G02*
X106272002Y22378505I0J-198500D01*
G01*
X106272002Y21361505D01*
G75*
G02*
X106073502Y21163005I-198500J0D01*
G01*
G37*
G36*
G01*
X105123502Y23673005D02*
X104726502Y23673005D01*
G75*
G02*
X104528002Y23871505I0J198500D01*
G01*
X104528002Y24888505D01*
G75*
G02*
X104726502Y25087005I198500J0D01*
G01*
X105123502Y25087005D01*
G75*
G02*
X105322002Y24888505I0J-198500D01*
G01*
X105322002Y23871505D01*
G75*
G02*
X105123502Y23673005I-198500J0D01*
G01*
G37*
G04 #@! TD*
G04 #@! TO.C,J2*
G36*
G01*
X116175000Y112350000D02*
X117525000Y112350000D01*
G75*
G02*
X117775000Y112100000I0J-250000D01*
G01*
X117775000Y110900000D01*
G75*
G02*
X117525000Y110650000I-250000J0D01*
G01*
X116175000Y110650000D01*
G75*
G02*
X115925000Y110900000I0J250000D01*
G01*
X115925000Y112100000D01*
G75*
G02*
X116175000Y112350000I250000J0D01*
G01*
G37*
D11*
X116850000Y109000000D03*
X116850000Y106500000D03*
X116850000Y104000000D03*
X116850000Y101500000D03*
G04 #@! TD*
G04 #@! TO.C,D1*
G36*
G01*
X115065402Y22045905D02*
X116284602Y22045905D01*
G75*
G02*
X116386602Y21943905I0J-102000D01*
G01*
X116386602Y21029505D01*
G75*
G02*
X116284602Y20927505I-102000J0D01*
G01*
X115065402Y20927505D01*
G75*
G02*
X114963402Y21029505I0J102000D01*
G01*
X114963402Y21943905D01*
G75*
G02*
X115065402Y22045905I102000J0D01*
G01*
G37*
G36*
G01*
X115065402Y25322505D02*
X116284602Y25322505D01*
G75*
G02*
X116386602Y25220505I0J-102000D01*
G01*
X116386602Y24306105D01*
G75*
G02*
X116284602Y24204105I-102000J0D01*
G01*
X115065402Y24204105D01*
G75*
G02*
X114963402Y24306105I0J102000D01*
G01*
X114963402Y25220505D01*
G75*
G02*
X115065402Y25322505I102000J0D01*
G01*
G37*
G04 #@! TD*
G04 #@! TO.C,Q4*
G36*
G01*
X37750002Y41850005D02*
X38710002Y41850005D01*
G75*
G02*
X38830002Y41730005I0J-120000D01*
G01*
X38830002Y39770005D01*
G75*
G02*
X38710002Y39650005I-120000J0D01*
G01*
X37750002Y39650005D01*
G75*
G02*
X37630002Y39770005I0J120000D01*
G01*
X37630002Y41730005D01*
G75*
G02*
X37750002Y41850005I120000J0D01*
G01*
G37*
D10*
X35950002Y34450005D03*
G36*
G01*
X33190002Y41850005D02*
X34150002Y41850005D01*
G75*
G02*
X34270002Y41730005I0J-120000D01*
G01*
X34270002Y39770005D01*
G75*
G02*
X34150002Y39650005I-120000J0D01*
G01*
X33190002Y39650005D01*
G75*
G02*
X33070002Y39770005I0J120000D01*
G01*
X33070002Y41730005D01*
G75*
G02*
X33190002Y41850005I120000J0D01*
G01*
G37*
G04 #@! TD*
D12*
G04 #@! TO.C,J3*
X109605000Y108890000D03*
X109605000Y103110000D03*
D13*
X110670000Y109350000D03*
X110670000Y108550000D03*
X110670000Y107250000D03*
X110670000Y106250000D03*
X110670000Y105750000D03*
X110670000Y104750000D03*
X110670000Y103450000D03*
X110670000Y102650000D03*
X110670000Y102950000D03*
X110670000Y103750000D03*
X110670000Y104250000D03*
X110670000Y105250000D03*
X110670000Y106750000D03*
X110670000Y107750000D03*
X110670000Y108250000D03*
X110670000Y109050000D03*
D14*
X110105000Y110320000D03*
D15*
X105925000Y110320000D03*
D14*
X110105000Y101680000D03*
D15*
X105925000Y101680000D03*
G04 #@! TD*
D16*
G04 #@! TO.C,U5*
X107675002Y22125005D03*
X109585000Y22125005D03*
X108630001Y24004605D03*
G04 #@! TD*
D17*
G04 #@! TO.C,M4*
X60304837Y45963524D03*
X59544858Y45963524D03*
X58369865Y45963524D03*
X57194878Y45963524D03*
X56354966Y45963524D03*
X55604894Y45963524D03*
X54429883Y45963524D03*
X53254886Y45963524D03*
D18*
X58294889Y56063131D03*
X60129899Y55638123D03*
X58079891Y55088126D03*
X58294886Y54213167D03*
X58369893Y53363144D03*
X60129899Y53038128D03*
X58819899Y51738161D03*
X60129899Y51088144D03*
X54204884Y58263147D03*
X58279890Y57963145D03*
G04 #@! TD*
G04 #@! TO.C,Q8*
G36*
G01*
X70700002Y41700005D02*
X71660002Y41700005D01*
G75*
G02*
X71780002Y41580005I0J-120000D01*
G01*
X71780002Y39620005D01*
G75*
G02*
X71660002Y39500005I-120000J0D01*
G01*
X70700002Y39500005D01*
G75*
G02*
X70580002Y39620005I0J120000D01*
G01*
X70580002Y41580005D01*
G75*
G02*
X70700002Y41700005I120000J0D01*
G01*
G37*
D10*
X68900002Y34300005D03*
G36*
G01*
X66140002Y41700005D02*
X67100002Y41700005D01*
G75*
G02*
X67220002Y41580005I0J-120000D01*
G01*
X67220002Y39620005D01*
G75*
G02*
X67100002Y39500005I-120000J0D01*
G01*
X66140002Y39500005D01*
G75*
G02*
X66020002Y39620005I0J120000D01*
G01*
X66020002Y41580005D01*
G75*
G02*
X66140002Y41700005I120000J0D01*
G01*
G37*
G04 #@! TD*
G04 #@! TO.C,Q9*
G36*
G01*
X78725002Y41700005D02*
X79685002Y41700005D01*
G75*
G02*
X79805002Y41580005I0J-120000D01*
G01*
X79805002Y39620005D01*
G75*
G02*
X79685002Y39500005I-120000J0D01*
G01*
X78725002Y39500005D01*
G75*
G02*
X78605002Y39620005I0J120000D01*
G01*
X78605002Y41580005D01*
G75*
G02*
X78725002Y41700005I120000J0D01*
G01*
G37*
X76925002Y34300005D03*
G36*
G01*
X74165002Y41700005D02*
X75125002Y41700005D01*
G75*
G02*
X75245002Y41580005I0J-120000D01*
G01*
X75245002Y39620005D01*
G75*
G02*
X75125002Y39500005I-120000J0D01*
G01*
X74165002Y39500005D01*
G75*
G02*
X74045002Y39620005I0J120000D01*
G01*
X74045002Y41580005D01*
G75*
G02*
X74165002Y41700005I120000J0D01*
G01*
G37*
G04 #@! TD*
G04 #@! TO.C,Q7*
G36*
G01*
X62250002Y41700005D02*
X63210002Y41700005D01*
G75*
G02*
X63330002Y41580005I0J-120000D01*
G01*
X63330002Y39620005D01*
G75*
G02*
X63210002Y39500005I-120000J0D01*
G01*
X62250002Y39500005D01*
G75*
G02*
X62130002Y39620005I0J120000D01*
G01*
X62130002Y41580005D01*
G75*
G02*
X62250002Y41700005I120000J0D01*
G01*
G37*
X60450002Y34300005D03*
G36*
G01*
X57690002Y41700005D02*
X58650002Y41700005D01*
G75*
G02*
X58770002Y41580005I0J-120000D01*
G01*
X58770002Y39620005D01*
G75*
G02*
X58650002Y39500005I-120000J0D01*
G01*
X57690002Y39500005D01*
G75*
G02*
X57570002Y39620005I0J120000D01*
G01*
X57570002Y41580005D01*
G75*
G02*
X57690002Y41700005I120000J0D01*
G01*
G37*
G04 #@! TD*
D19*
G04 #@! TO.C,M2*
X136650000Y41499997D03*
X143049997Y41499997D03*
X144950000Y41499997D03*
X149250000Y41499997D03*
D20*
X151649997Y41949996D03*
X152649998Y41949996D03*
D19*
X155500000Y41499997D03*
X136199998Y26000000D03*
X138049997Y26000000D03*
X143000000Y26000000D03*
X155049998Y26000000D03*
G04 #@! TD*
G04 #@! TO.C,Q6*
G36*
G01*
X53725002Y41700005D02*
X54685002Y41700005D01*
G75*
G02*
X54805002Y41580005I0J-120000D01*
G01*
X54805002Y39620005D01*
G75*
G02*
X54685002Y39500005I-120000J0D01*
G01*
X53725002Y39500005D01*
G75*
G02*
X53605002Y39620005I0J120000D01*
G01*
X53605002Y41580005D01*
G75*
G02*
X53725002Y41700005I120000J0D01*
G01*
G37*
D10*
X51925002Y34300005D03*
G36*
G01*
X49165002Y41700005D02*
X50125002Y41700005D01*
G75*
G02*
X50245002Y41580005I0J-120000D01*
G01*
X50245002Y39620005D01*
G75*
G02*
X50125002Y39500005I-120000J0D01*
G01*
X49165002Y39500005D01*
G75*
G02*
X49045002Y39620005I0J120000D01*
G01*
X49045002Y41580005D01*
G75*
G02*
X49165002Y41700005I120000J0D01*
G01*
G37*
G04 #@! TD*
G04 #@! TO.C,Q2*
G36*
G01*
X84748500Y47538000D02*
X84351500Y47538000D01*
G75*
G02*
X84153000Y47736500I0J198500D01*
G01*
X84153000Y48753500D01*
G75*
G02*
X84351500Y48952000I198500J0D01*
G01*
X84748500Y48952000D01*
G75*
G02*
X84947000Y48753500I0J-198500D01*
G01*
X84947000Y47736500D01*
G75*
G02*
X84748500Y47538000I-198500J0D01*
G01*
G37*
G36*
G01*
X86648500Y47538000D02*
X86251500Y47538000D01*
G75*
G02*
X86053000Y47736500I0J198500D01*
G01*
X86053000Y48753500D01*
G75*
G02*
X86251500Y48952000I198500J0D01*
G01*
X86648500Y48952000D01*
G75*
G02*
X86847000Y48753500I0J-198500D01*
G01*
X86847000Y47736500D01*
G75*
G02*
X86648500Y47538000I-198500J0D01*
G01*
G37*
G36*
G01*
X85698500Y50048000D02*
X85301500Y50048000D01*
G75*
G02*
X85103000Y50246500I0J198500D01*
G01*
X85103000Y51263500D01*
G75*
G02*
X85301500Y51462000I198500J0D01*
G01*
X85698500Y51462000D01*
G75*
G02*
X85897000Y51263500I0J-198500D01*
G01*
X85897000Y50246500D01*
G75*
G02*
X85698500Y50048000I-198500J0D01*
G01*
G37*
G04 #@! TD*
D19*
G04 #@! TO.C,Z1*
X92675002Y17624505D03*
X95675002Y17624505D03*
X98675002Y17624505D03*
X101675502Y17624505D03*
X104675002Y17624505D03*
X107675002Y17624505D03*
X110675002Y17624505D03*
X113675502Y17624505D03*
X116675502Y17624505D03*
X119675502Y17624505D03*
X92675002Y13624505D03*
X95675002Y13624505D03*
X98675002Y13624505D03*
X101675502Y13624505D03*
X104675002Y13624505D03*
X107675002Y13624505D03*
X110675002Y13624505D03*
X113675502Y13624505D03*
X116675502Y13624505D03*
X119675502Y13624505D03*
X124975002Y17624505D03*
X127975502Y17624505D03*
X130975002Y17624505D03*
X133975002Y17624505D03*
X136975502Y17624505D03*
X139975502Y17624505D03*
X142975502Y17624505D03*
X145975502Y17624505D03*
X124975002Y13624505D03*
X127975502Y13624505D03*
X130975002Y13624505D03*
X139975502Y13624505D03*
X142975502Y13624505D03*
X145975502Y13624505D03*
D21*
X43875002Y15425005D03*
X48875002Y15425005D03*
X53875002Y15425005D03*
X58875002Y15425005D03*
X63875002Y15425005D03*
X68875002Y15425005D03*
X46375002Y19425005D03*
X51375002Y19425005D03*
X56375002Y19425005D03*
X43875002Y23425005D03*
X48875002Y23425005D03*
X63875002Y23425005D03*
X68875002Y23425005D03*
X61375002Y19425005D03*
X66375002Y19425005D03*
D19*
X133975502Y13624505D03*
X136975502Y13624505D03*
D22*
X35875002Y10425005D03*
X76875002Y10425005D03*
X85725002Y8125005D03*
X152925002Y8125005D03*
G04 #@! TD*
G04 #@! TO.C,D2*
G36*
G01*
X84170900Y46359600D02*
X84170900Y45140400D01*
G75*
G02*
X84068900Y45038400I-102000J0D01*
G01*
X83154500Y45038400D01*
G75*
G02*
X83052500Y45140400I0J102000D01*
G01*
X83052500Y46359600D01*
G75*
G02*
X83154500Y46461600I102000J0D01*
G01*
X84068900Y46461600D01*
G75*
G02*
X84170900Y46359600I0J-102000D01*
G01*
G37*
G36*
G01*
X87447500Y46359600D02*
X87447500Y45140400D01*
G75*
G02*
X87345500Y45038400I-102000J0D01*
G01*
X86431100Y45038400D01*
G75*
G02*
X86329100Y45140400I0J102000D01*
G01*
X86329100Y46359600D01*
G75*
G02*
X86431100Y46461600I102000J0D01*
G01*
X87345500Y46461600D01*
G75*
G02*
X87447500Y46359600I0J-102000D01*
G01*
G37*
G04 #@! TD*
G04 #@! TO.C,Q1*
G36*
G01*
X111673502Y21163005D02*
X111276502Y21163005D01*
G75*
G02*
X111078002Y21361505I0J198500D01*
G01*
X111078002Y22378505D01*
G75*
G02*
X111276502Y22577005I198500J0D01*
G01*
X111673502Y22577005D01*
G75*
G02*
X111872002Y22378505I0J-198500D01*
G01*
X111872002Y21361505D01*
G75*
G02*
X111673502Y21163005I-198500J0D01*
G01*
G37*
G36*
G01*
X113573502Y21163005D02*
X113176502Y21163005D01*
G75*
G02*
X112978002Y21361505I0J198500D01*
G01*
X112978002Y22378505D01*
G75*
G02*
X113176502Y22577005I198500J0D01*
G01*
X113573502Y22577005D01*
G75*
G02*
X113772002Y22378505I0J-198500D01*
G01*
X113772002Y21361505D01*
G75*
G02*
X113573502Y21163005I-198500J0D01*
G01*
G37*
G36*
G01*
X112623502Y23673005D02*
X112226502Y23673005D01*
G75*
G02*
X112028002Y23871505I0J198500D01*
G01*
X112028002Y24888505D01*
G75*
G02*
X112226502Y25087005I198500J0D01*
G01*
X112623502Y25087005D01*
G75*
G02*
X112822002Y24888505I0J-198500D01*
G01*
X112822002Y23871505D01*
G75*
G02*
X112623502Y23673005I-198500J0D01*
G01*
G37*
G04 #@! TD*
M02*
