G04 #@! TF.GenerationSoftware,KiCad,Pcbnew,8.0.7-8.0.7-0~ubuntu22.04.1*
G04 #@! TF.CreationDate,2024-12-12T02:11:47+00:00*
G04 #@! TF.ProjectId,z31hellen,7a333168-656c-46c6-956e-2e6b69636164,rev?*
G04 #@! TF.SameCoordinates,Original*
G04 #@! TF.FileFunction,Paste,Top*
G04 #@! TF.FilePolarity,Positive*
%FSLAX46Y46*%
G04 Gerber Fmt 4.6, Leading zero omitted, Abs format (unit mm)*
G04 Created by KiCad (PCBNEW 8.0.7-8.0.7-0~ubuntu22.04.1) date 2024-12-12 02:11:47*
%MOMM*%
%LPD*%
G01*
G04 APERTURE LIST*
%ADD10R,2.750000X3.050000*%
%ADD11R,1.219200X0.914400*%
%ADD12R,2.300000X0.200000*%
%ADD13R,10.700000X0.200000*%
%ADD14R,2.100000X0.200000*%
%ADD15R,6.000000X0.200000*%
%ADD16R,5.400000X0.200000*%
%ADD17R,0.200000X1.400000*%
%ADD18R,0.200000X5.000000*%
%ADD19R,0.200000X6.800000*%
%ADD20R,0.200000X4.500000*%
%ADD21R,1.600000X0.200000*%
%ADD22R,5.700000X0.200000*%
%ADD23R,2.000000X0.200000*%
%ADD24R,1.150000X0.300000*%
%ADD25R,0.558800X1.320800*%
%ADD26R,0.914400X1.219200*%
G04 APERTURE END LIST*
D10*
G04 #@! TO.C,Q5*
X45475002Y35975005D03*
X42425002Y35975005D03*
X45475002Y32625005D03*
X42425002Y32625005D03*
G36*
G01*
X45750002Y41700005D02*
X46710002Y41700005D01*
G75*
G02*
X46830002Y41580005I0J-120000D01*
G01*
X46830002Y39620005D01*
G75*
G02*
X46710002Y39500005I-120000J0D01*
G01*
X45750002Y39500005D01*
G75*
G02*
X45630002Y39620005I0J120000D01*
G01*
X45630002Y41580005D01*
G75*
G02*
X45750002Y41700005I120000J0D01*
G01*
G37*
G36*
G01*
X41190002Y41700005D02*
X42150002Y41700005D01*
G75*
G02*
X42270002Y41580005I0J-120000D01*
G01*
X42270002Y39620005D01*
G75*
G02*
X42150002Y39500005I-120000J0D01*
G01*
X41190002Y39500005D01*
G75*
G02*
X41070002Y39620005I0J120000D01*
G01*
X41070002Y41580005D01*
G75*
G02*
X41190002Y41700005I120000J0D01*
G01*
G37*
G04 #@! TD*
G04 #@! TO.C,Q3*
G36*
G01*
X104122502Y21265005D02*
X103827502Y21265005D01*
G75*
G02*
X103680002Y21412505I0J147500D01*
G01*
X103680002Y22327505D01*
G75*
G02*
X103827502Y22475005I147500J0D01*
G01*
X104122502Y22475005D01*
G75*
G02*
X104270002Y22327505I0J-147500D01*
G01*
X104270002Y21412505D01*
G75*
G02*
X104122502Y21265005I-147500J0D01*
G01*
G37*
G36*
G01*
X106022502Y21265005D02*
X105727502Y21265005D01*
G75*
G02*
X105580002Y21412505I0J147500D01*
G01*
X105580002Y22327505D01*
G75*
G02*
X105727502Y22475005I147500J0D01*
G01*
X106022502Y22475005D01*
G75*
G02*
X106170002Y22327505I0J-147500D01*
G01*
X106170002Y21412505D01*
G75*
G02*
X106022502Y21265005I-147500J0D01*
G01*
G37*
G36*
G01*
X105072502Y23775005D02*
X104777502Y23775005D01*
G75*
G02*
X104630002Y23922505I0J147500D01*
G01*
X104630002Y24837505D01*
G75*
G02*
X104777502Y24985005I147500J0D01*
G01*
X105072502Y24985005D01*
G75*
G02*
X105220002Y24837505I0J-147500D01*
G01*
X105220002Y23922505D01*
G75*
G02*
X105072502Y23775005I-147500J0D01*
G01*
G37*
G04 #@! TD*
D11*
G04 #@! TO.C,D1*
X115675002Y21486705D03*
X115675002Y24763305D03*
G04 #@! TD*
D12*
G04 #@! TO.C,M1*
X11275007Y100525010D03*
D13*
X44075005Y100525008D03*
D14*
X35875006Y100525008D03*
D15*
X23825007Y100525008D03*
D16*
X17125010Y100525008D03*
D17*
X10225004Y98725001D03*
D18*
X50125005Y97325006D03*
D19*
X50125005Y88825003D03*
D20*
X50125005Y78975000D03*
D21*
X48625006Y58425005D03*
D22*
X16775003Y58425005D03*
D23*
X11125010Y58425005D03*
G04 #@! TD*
D10*
G04 #@! TO.C,Q4*
X37475002Y36125005D03*
X34425002Y36125005D03*
X37475002Y32775005D03*
X34425002Y32775005D03*
G36*
G01*
X37750002Y41850005D02*
X38710002Y41850005D01*
G75*
G02*
X38830002Y41730005I0J-120000D01*
G01*
X38830002Y39770005D01*
G75*
G02*
X38710002Y39650005I-120000J0D01*
G01*
X37750002Y39650005D01*
G75*
G02*
X37630002Y39770005I0J120000D01*
G01*
X37630002Y41730005D01*
G75*
G02*
X37750002Y41850005I120000J0D01*
G01*
G37*
G36*
G01*
X33190002Y41850005D02*
X34150002Y41850005D01*
G75*
G02*
X34270002Y41730005I0J-120000D01*
G01*
X34270002Y39770005D01*
G75*
G02*
X34150002Y39650005I-120000J0D01*
G01*
X33190002Y39650005D01*
G75*
G02*
X33070002Y39770005I0J120000D01*
G01*
X33070002Y41730005D01*
G75*
G02*
X33190002Y41850005I120000J0D01*
G01*
G37*
G04 #@! TD*
D24*
G04 #@! TO.C,J3*
X60990002Y73405005D03*
X60990002Y72605005D03*
X60990002Y71305005D03*
X60990002Y70305005D03*
X60990002Y69805005D03*
X60990002Y68805005D03*
X60990002Y67505005D03*
X60990002Y66705005D03*
X60990002Y67005005D03*
X60990002Y67805005D03*
X60990002Y68305005D03*
X60990002Y69305005D03*
X60990002Y70805005D03*
X60990002Y71805005D03*
X60990002Y72305005D03*
X60990002Y73105005D03*
G04 #@! TD*
D25*
G04 #@! TO.C,U5*
X107675002Y22125005D03*
X109585000Y22125005D03*
X108630001Y24004605D03*
G04 #@! TD*
D10*
G04 #@! TO.C,Q8*
X70425002Y35975005D03*
X67375002Y35975005D03*
X70425002Y32625005D03*
X67375002Y32625005D03*
G36*
G01*
X70700002Y41700005D02*
X71660002Y41700005D01*
G75*
G02*
X71780002Y41580005I0J-120000D01*
G01*
X71780002Y39620005D01*
G75*
G02*
X71660002Y39500005I-120000J0D01*
G01*
X70700002Y39500005D01*
G75*
G02*
X70580002Y39620005I0J120000D01*
G01*
X70580002Y41580005D01*
G75*
G02*
X70700002Y41700005I120000J0D01*
G01*
G37*
G36*
G01*
X66140002Y41700005D02*
X67100002Y41700005D01*
G75*
G02*
X67220002Y41580005I0J-120000D01*
G01*
X67220002Y39620005D01*
G75*
G02*
X67100002Y39500005I-120000J0D01*
G01*
X66140002Y39500005D01*
G75*
G02*
X66020002Y39620005I0J120000D01*
G01*
X66020002Y41580005D01*
G75*
G02*
X66140002Y41700005I120000J0D01*
G01*
G37*
G04 #@! TD*
G04 #@! TO.C,Q9*
X78450002Y35975005D03*
X75400002Y35975005D03*
X78450002Y32625005D03*
X75400002Y32625005D03*
G36*
G01*
X78725002Y41700005D02*
X79685002Y41700005D01*
G75*
G02*
X79805002Y41580005I0J-120000D01*
G01*
X79805002Y39620005D01*
G75*
G02*
X79685002Y39500005I-120000J0D01*
G01*
X78725002Y39500005D01*
G75*
G02*
X78605002Y39620005I0J120000D01*
G01*
X78605002Y41580005D01*
G75*
G02*
X78725002Y41700005I120000J0D01*
G01*
G37*
G36*
G01*
X74165002Y41700005D02*
X75125002Y41700005D01*
G75*
G02*
X75245002Y41580005I0J-120000D01*
G01*
X75245002Y39620005D01*
G75*
G02*
X75125002Y39500005I-120000J0D01*
G01*
X74165002Y39500005D01*
G75*
G02*
X74045002Y39620005I0J120000D01*
G01*
X74045002Y41580005D01*
G75*
G02*
X74165002Y41700005I120000J0D01*
G01*
G37*
G04 #@! TD*
G04 #@! TO.C,Q7*
X61975002Y35975005D03*
X58925002Y35975005D03*
X61975002Y32625005D03*
X58925002Y32625005D03*
G36*
G01*
X62250002Y41700005D02*
X63210002Y41700005D01*
G75*
G02*
X63330002Y41580005I0J-120000D01*
G01*
X63330002Y39620005D01*
G75*
G02*
X63210002Y39500005I-120000J0D01*
G01*
X62250002Y39500005D01*
G75*
G02*
X62130002Y39620005I0J120000D01*
G01*
X62130002Y41580005D01*
G75*
G02*
X62250002Y41700005I120000J0D01*
G01*
G37*
G36*
G01*
X57690002Y41700005D02*
X58650002Y41700005D01*
G75*
G02*
X58770002Y41580005I0J-120000D01*
G01*
X58770002Y39620005D01*
G75*
G02*
X58650002Y39500005I-120000J0D01*
G01*
X57690002Y39500005D01*
G75*
G02*
X57570002Y39620005I0J120000D01*
G01*
X57570002Y41580005D01*
G75*
G02*
X57690002Y41700005I120000J0D01*
G01*
G37*
G04 #@! TD*
G04 #@! TO.C,Q6*
X53450002Y35975005D03*
X50400002Y35975005D03*
X53450002Y32625005D03*
X50400002Y32625005D03*
G36*
G01*
X53725002Y41700005D02*
X54685002Y41700005D01*
G75*
G02*
X54805002Y41580005I0J-120000D01*
G01*
X54805002Y39620005D01*
G75*
G02*
X54685002Y39500005I-120000J0D01*
G01*
X53725002Y39500005D01*
G75*
G02*
X53605002Y39620005I0J120000D01*
G01*
X53605002Y41580005D01*
G75*
G02*
X53725002Y41700005I120000J0D01*
G01*
G37*
G36*
G01*
X49165002Y41700005D02*
X50125002Y41700005D01*
G75*
G02*
X50245002Y41580005I0J-120000D01*
G01*
X50245002Y39620005D01*
G75*
G02*
X50125002Y39500005I-120000J0D01*
G01*
X49165002Y39500005D01*
G75*
G02*
X49045002Y39620005I0J120000D01*
G01*
X49045002Y41580005D01*
G75*
G02*
X49165002Y41700005I120000J0D01*
G01*
G37*
G04 #@! TD*
G04 #@! TO.C,Q2*
G36*
G01*
X78622502Y70765005D02*
X78327502Y70765005D01*
G75*
G02*
X78180002Y70912505I0J147500D01*
G01*
X78180002Y71827505D01*
G75*
G02*
X78327502Y71975005I147500J0D01*
G01*
X78622502Y71975005D01*
G75*
G02*
X78770002Y71827505I0J-147500D01*
G01*
X78770002Y70912505D01*
G75*
G02*
X78622502Y70765005I-147500J0D01*
G01*
G37*
G36*
G01*
X80522502Y70765005D02*
X80227502Y70765005D01*
G75*
G02*
X80080002Y70912505I0J147500D01*
G01*
X80080002Y71827505D01*
G75*
G02*
X80227502Y71975005I147500J0D01*
G01*
X80522502Y71975005D01*
G75*
G02*
X80670002Y71827505I0J-147500D01*
G01*
X80670002Y70912505D01*
G75*
G02*
X80522502Y70765005I-147500J0D01*
G01*
G37*
G36*
G01*
X79572502Y73275005D02*
X79277502Y73275005D01*
G75*
G02*
X79130002Y73422505I0J147500D01*
G01*
X79130002Y74337505D01*
G75*
G02*
X79277502Y74485005I147500J0D01*
G01*
X79572502Y74485005D01*
G75*
G02*
X79720002Y74337505I0J-147500D01*
G01*
X79720002Y73422505D01*
G75*
G02*
X79572502Y73275005I-147500J0D01*
G01*
G37*
G04 #@! TD*
D26*
G04 #@! TO.C,D2*
X77536702Y68875005D03*
X80813302Y68875005D03*
G04 #@! TD*
G04 #@! TO.C,Q1*
G36*
G01*
X111622502Y21265005D02*
X111327502Y21265005D01*
G75*
G02*
X111180002Y21412505I0J147500D01*
G01*
X111180002Y22327505D01*
G75*
G02*
X111327502Y22475005I147500J0D01*
G01*
X111622502Y22475005D01*
G75*
G02*
X111770002Y22327505I0J-147500D01*
G01*
X111770002Y21412505D01*
G75*
G02*
X111622502Y21265005I-147500J0D01*
G01*
G37*
G36*
G01*
X113522502Y21265005D02*
X113227502Y21265005D01*
G75*
G02*
X113080002Y21412505I0J147500D01*
G01*
X113080002Y22327505D01*
G75*
G02*
X113227502Y22475005I147500J0D01*
G01*
X113522502Y22475005D01*
G75*
G02*
X113670002Y22327505I0J-147500D01*
G01*
X113670002Y21412505D01*
G75*
G02*
X113522502Y21265005I-147500J0D01*
G01*
G37*
G36*
G01*
X112572502Y23775005D02*
X112277502Y23775005D01*
G75*
G02*
X112130002Y23922505I0J147500D01*
G01*
X112130002Y24837505D01*
G75*
G02*
X112277502Y24985005I147500J0D01*
G01*
X112572502Y24985005D01*
G75*
G02*
X112720002Y24837505I0J-147500D01*
G01*
X112720002Y23922505D01*
G75*
G02*
X112572502Y23775005I-147500J0D01*
G01*
G37*
G04 #@! TD*
M02*
